<?xml version="1.0" encoding="UTF-8" standalone="no"?>
<!-- Created with Inkscape (http://www.inkscape.org/) -->

<svg
   xmlns:ns0="http://www.iki.fi/pav/software/textext/"
   xmlns:dc="http://purl.org/dc/elements/1.1/"
   xmlns:cc="http://creativecommons.org/ns#"
   xmlns:rdf="http://www.w3.org/1999/02/22-rdf-syntax-ns#"
   xmlns:svg="http://www.w3.org/2000/svg"
   xmlns="http://www.w3.org/2000/svg"
   xmlns:xlink="http://www.w3.org/1999/xlink"
   xmlns:sodipodi="http://sodipodi.sourceforge.net/DTD/sodipodi-0.dtd"
   xmlns:inkscape="http://www.inkscape.org/namespaces/inkscape"
   width="343pt"
   height="340pt"
   id="svg2160"
   sodipodi:version="0.32"
   inkscape:version="0.48.1 r9760"
   sodipodi:docname="fig-espacios-tangente-y-cotangente.svg"
   inkscape:output_extension="org.inkscape.output.svg.inkscape"
   version="1.1">
  <sodipodi:namedview
     pagecolor="#ffffff"
     bordercolor="#666666"
     borderopacity="1.0"
     inkscape:pageopacity="0.0"
     inkscape:pageshadow="2"
     inkscape:zoom="1.7694118"
     inkscape:cx="214.375"
     inkscape:cy="212.5"
     inkscape:document-units="pt"
     inkscape:current-layer="layer1"
     id="namedview2164"
     showguides="true"
     inkscape:guide-bbox="true"
     inkscape:window-width="1280"
     inkscape:window-height="972"
     inkscape:window-x="0"
     inkscape:window-y="0"
     showgrid="false"
     inkscape:window-maximized="1" />
  <defs
     id="defs2162">
    <marker
       inkscape:stockid="Arrow2Lstart"
       orient="auto"
       refY="0.0"
       refX="0.0"
       id="Arrow2Lstart"
       style="overflow:visible">
      <path
         id="path4692"
         style="font-size:12.0;fill-rule:evenodd;stroke-width:0.62500000;stroke-linejoin:round"
         d="M 8.7185878,4.0337352 L -2.2072895,0.016013256 L 8.7185884,-4.0017078 C 6.9730900,-1.6296469 6.9831476,1.6157441 8.7185878,4.0337352 z "
         transform="scale(1.1) translate(1,0)" />
    </marker>
    <marker
       inkscape:stockid="Arrow1Lstart"
       orient="auto"
       refY="0.0"
       refX="0.0"
       id="Arrow1Lstart"
       style="overflow:visible">
      <path
         id="path4674"
         d="M 0.0,0.0 L 5.0,-5.0 L -12.5,0.0 L 5.0,5.0 L 0.0,0.0 z "
         style="fill-rule:evenodd;stroke:#000000;stroke-width:1.0pt;marker-start:none"
         transform="scale(0.8) translate(12.5,0)" />
    </marker>
    <marker
       inkscape:stockid="Arrow2Lend"
       orient="auto"
       refY="0.0"
       refX="0.0"
       id="Arrow2Lend"
       style="overflow:visible;">
      <path
         id="path4695"
         style="font-size:12.0;fill-rule:evenodd;stroke-width:0.62500000;stroke-linejoin:round;"
         d="M 8.7185878,4.0337352 L -2.2072895,0.016013256 L 8.7185884,-4.0017078 C 6.9730900,-1.6296469 6.9831476,1.6157441 8.7185878,4.0337352 z "
         transform="scale(1.1) rotate(180) translate(1,0)" />
    </marker>
    <linearGradient
       id="linearGradient4866"
       inkscape:collect="always">
      <stop
         id="stop4868"
         offset="0"
         style="stop-color:#808000;stop-opacity:1;" />
      <stop
         id="stop4870"
         offset="1"
         style="stop-color:#b8e203;stop-opacity:1" />
    </linearGradient>
    <inkscape:perspective
       id="perspective50"
       inkscape:persp3d-origin="214.375 : 141.66667 : 1"
       inkscape:vp_z="428.75 : 212.5 : 1"
       inkscape:vp_y="0 : 1000 : 0"
       inkscape:vp_x="0 : 212.5 : 1"
       sodipodi:type="inkscape:persp3d" />
    <radialGradient
       gradientUnits="userSpaceOnUse"
       gradientTransform="matrix(1.9618461,-0.05302589,0.02967172,1.0829852,-205.01859,-20.011236)"
       r="138.625"
       fy="143.29379"
       fx="242.81416"
       cy="143.29379"
       cx="242.81416"
       id="radialGradient4872"
       xlink:href="#linearGradient4866"
       inkscape:collect="always" />
  </defs>
  <metadata
     id="metadata2166">
    <rdf:RDF>
      <cc:Work
         rdf:about="">
        <dc:format>image/svg+xml</dc:format>
        <dc:type
           rdf:resource="http://purl.org/dc/dcmitype/StillImage" />
        <dc:title></dc:title>
      </cc:Work>
    </rdf:RDF>
  </metadata>
  <g
     id="layer1"
     inkscape:groupmode="layer"
     inkscape:label="Layer 1">
    <path
       inkscape:connector-curvature="0"
       sodipodi:nodetypes="ccccc"
       id="path2215"
       d="m 44.5754,368.90214 c 59.39935,-67.01178 173.23051,-70.19042 246.58496,15.05634 4.23571,-42.4679 72.70258,-110.61932 94.99584,-108.40566 C 359.81221,213.41747 256.33937,152.10693 148.85747,200.77339 113.71758,220.87903 57.86133,279.9764 44.5754,368.90214 z"
       style="fill:url(#radialGradient4872);fill-opacity:1;fill-rule:evenodd;stroke:#000000;stroke-width:1.23230124px;stroke-linecap:butt;stroke-linejoin:miter;stroke-opacity:1" />
    <flowRoot
       transform="matrix(1.2364916,0,0,1.2281251,6.755387,-373.80655)"
       style="font-size:10px;font-style:normal;font-variant:normal;font-weight:normal;font-stretch:normal;fill:#000000;fill-opacity:1;stroke:none;font-family:Times New Roman;-inkscape-font-specification:Times New Roman"
       id="flowRoot4874"
       xml:space="preserve"><flowRegion
         id="flowRegion4876"><rect
           style="font-style:normal;font-variant:normal;font-weight:normal;font-stretch:normal;font-family:Times New Roman;-inkscape-font-specification:Times New Roman"
           y="295.04807"
           x="110.33654"
           height="47.403847"
           width="44.951923"
           id="rect4878" /></flowRegion><flowPara
         style="font-size:24px;font-style:italic;font-variant:normal;font-weight:normal;font-stretch:normal;font-family:Times New Roman;-inkscape-font-specification:Times New Roman Italic"
         id="flowPara4880">TMTTt</flowPara></flowRoot>    <path
       inkscape:connector-curvature="0"
       id="path4890"
       d="M 217.9352,249.84355 C 290.99258,77.908647 290.99258,77.908647 290.99258,77.908647"
       style="fill:none;stroke:#000000;stroke-width:3.96021509px;stroke-linecap:butt;stroke-linejoin:miter;stroke-opacity:1" />
    <path
       inkscape:connector-curvature="0"
       id="path4892"
       d="M 215.50219,249.36626 C 143.85765,78.385908 143.85765,78.385908 143.85765,78.385908"
       style="fill:none;stroke:#000000;stroke-width:3.9108336px;stroke-linecap:butt;stroke-linejoin:miter;stroke-opacity:1" />
    <path
       transform="matrix(1.2364916,0,0,1.2281251,152.81596,-11.592288)"
       d="m 54.759618,214.95192 a 3.2692308,3.2692308 0 1 1 -6.538462,0 3.2692308,3.2692308 0 1 1 6.538462,0 z"
       sodipodi:ry="3.2692308"
       sodipodi:rx="3.2692308"
       sodipodi:cy="214.95192"
       sodipodi:cx="51.490387"
       id="path4894"
       style="fill:#000000;fill-opacity:1;fill-rule:evenodd;stroke:none;stroke-width:2;marker:none;visibility:visible;display:inline;overflow:visible;enable-background:accumulate"
       sodipodi:type="arc" />
    <path
       inkscape:connector-curvature="0"
       id="path4902"
       d="m 169.33033,120.39309 c 47.52752,-31.918462 89.21922,-6.21676 89.21922,-6.21676 l 6.78191,4.52128"
       style="fill:none;stroke:#000000;stroke-width:1.25;stroke-linecap:butt;stroke-linejoin:miter;stroke-miterlimit:4;stroke-opacity:1;stroke-dasharray:none;marker-start:url(#Arrow2Lstart);marker-mid:none;marker-end:url(#Arrow2Lend)"
       sodipodi:nodetypes="ccc" />
    <g
       ns0:preamble=""
       ns0:text="$P$"
       word-spacing="normal"
       letter-spacing="normal"
       font-size-adjust="none"
       font-stretch="normal"
       font-weight="normal"
       font-variant="normal"
       font-style="normal"
       stroke-miterlimit="10.433"
       xml:space="preserve"
       transform="matrix(3,0,0,-3,-467.75266,2411.0705)"
       id="content"
       style="font-style:normal;font-variant:normal;font-weight:normal;font-stretch:normal;letter-spacing:normal;word-spacing:normal;text-anchor:start;fill:none;stroke:#000000;stroke-linecap:butt;stroke-linejoin:miter;stroke-miterlimit:10.43299961;stroke-opacity:1;stroke-dasharray:none;stroke-dashoffset:0">
<path
   id="path3344"
   d="m 226.45,710.27 0.04,0.26 0.68,2.71 c 0.09,0.34 0.11,0.37 0.54,0.37 h 0.95 c 0.83,0 1.36,-0.27 1.36,-0.95 0,-0.39 -0.2,-1.25 -0.59,-1.6 -0.5,-0.45 -1.09,-0.53 -1.53,-0.53 h -1.41 l -0.04,-0.26 h 1.7 c 1.41,0 2.8,1.03 2.8,2.15 0,0.77 -0.66,1.5 -1.97,1.5 h -3.22 c -0.19,0 -0.3,0 -0.3,-0.19 0,-0.12 0.08,-0.12 0.28,-0.12 0.13,0 0.31,-0.01 0.43,-0.02 0.16,-0.02 0.22,-0.05 0.22,-0.16 0,-0.03 -0.01,-0.07 -0.04,-0.18 l -1.33,-5.35 c -0.1,-0.39 -0.12,-0.47 -0.91,-0.47 -0.17,0 -0.28,0 -0.28,-0.19 0,-0.12 0.12,-0.12 0.15,-0.12 0.28,0 0.99,0.04 1.27,0.04 0.21,0 0.43,-0.01 0.63,-0.01 0.22,0 0.44,-0.03 0.65,-0.03 0.07,0 0.2,0 0.2,0.2 0,0.11 -0.09,0.11 -0.28,0.11 -0.37,0 -0.65,0 -0.65,0.18 0,0.06 0.02,0.11 0.03,0.17 z"
   inkscape:connector-curvature="0"
   style="fill:#000000;stroke-width:0" />
</g>    <g
       id="g3481"
       transform="matrix(3,0,0,-3,-613.82957,2453.3965)"
       xml:space="preserve"
       stroke-miterlimit="10.433"
       font-style="normal"
       font-variant="normal"
       font-weight="normal"
       font-stretch="normal"
       font-size-adjust="none"
       letter-spacing="normal"
       word-spacing="normal"
       ns0:text="$M$"
       ns0:preamble=""
       style="font-style:normal;font-variant:normal;font-weight:normal;font-stretch:normal;letter-spacing:normal;word-spacing:normal;text-anchor:start;fill:none;stroke:#000000;stroke-linecap:butt;stroke-linejoin:miter;stroke-miterlimit:10.43299961;stroke-opacity:1;stroke-dasharray:none;stroke-dashoffset:0">
<path
   d="m 232.66,713.16 0.01,0.03 0.01,0.03 0.01,0.03 0,0.03 0.01,0.03 0.01,0.02 0.01,0.03 0.01,0.02 0.01,0.02 0.01,0.02 0.01,0.02 0.02,0.02 0.01,0.02 0.02,0.01 0.01,0.02 0.02,0.01 0.03,0.01 0.02,0.01 0.03,0.01 0.02,0.01 0.03,0.01 0.02,0.01 0.02,0 0.02,0 0.01,0.01 0.02,0 0.02,0 0.02,0.01 0.03,0 0.02,0 0.02,0 0.02,0 0.03,0.01 0.03,0 0.02,0 0.03,0 0.03,0 0.03,0 0.03,0 0.03,0 0.03,0 0.04,0 0.03,0 c 0.23,0 0.32,0 0.32,0.2 0,0.11 -0.1,0.11 -0.27,0.11 h -1.32 c -0.26,0 -0.26,0 -0.38,-0.19 l -3.64,-5.67 -0.78,5.63 c -0.03,0.23 -0.05,0.23 -0.31,0.23 h -1.37 c -0.18,0 -0.29,0 -0.29,-0.19 0,-0.12 0.09,-0.12 0.28,-0.12 0.13,0 0.31,-0.01 0.43,-0.02 0.16,-0.02 0.22,-0.05 0.22,-0.16 0,-0.03 -0.01,-0.07 -0.04,-0.18 l -1.26,-5.07 c -0.1,-0.4 -0.27,-0.72 -1.08,-0.75 -0.05,0 -0.18,-0.01 -0.18,-0.19 0,-0.08 0.06,-0.12 0.14,-0.12 0.32,0 0.67,0.04 1,0.04 0.34,0 0.69,-0.04 1.02,-0.04 0.05,0 0.18,0 0.18,0.2 0,0.11 -0.11,0.11 -0.18,0.11 -0.56,0.01 -0.67,0.21 -0.67,0.44 0,0.07 0.01,0.12 0.04,0.23 l 1.35,5.42 h 0.01 l 0.86,-6.17 c 0.02,-0.12 0.03,-0.23 0.15,-0.23 0.11,0 0.17,0.11 0.22,0.18 l 4.02,6.3 h 0.02 l -1.43,-5.7 c -0.1,-0.39 -0.12,-0.47 -0.91,-0.47 -0.17,0 -0.28,0 -0.28,-0.19 0,-0.12 0.12,-0.12 0.15,-0.12 0.28,0 0.96,0.04 1.24,0.04 0.41,0 0.84,-0.04 1.24,-0.04 0.07,0 0.19,0 0.19,0.2 0,0.11 -0.09,0.11 -0.28,0.11 -0.36,0 -0.64,0 -0.64,0.18 0,0.04 0,0.06 0.05,0.24 z"
   id="path3483"
   inkscape:connector-curvature="0"
   style="fill:#000000;stroke-width:0" />
</g>    <g
       ns0:preamble=""
       ns0:text="$A^i$"
       word-spacing="normal"
       letter-spacing="normal"
       font-size-adjust="none"
       font-stretch="normal"
       font-weight="normal"
       font-variant="normal"
       font-style="normal"
       stroke-miterlimit="10.433"
       xml:space="preserve"
       transform="matrix(3,0,0,-3,-545.17952,2260.738)"
       id="g3592"
       style="font-style:normal;font-variant:normal;font-weight:normal;font-stretch:normal;letter-spacing:normal;word-spacing:normal;text-anchor:start;fill:none;stroke:#000000;stroke-linecap:butt;stroke-linejoin:miter;stroke-miterlimit:10.43299961;stroke-opacity:1;stroke-dasharray:none;stroke-dashoffset:0">
<path
   id="path3594"
   d="m 225.22,708.27 -0.04,-0.06 -0.04,-0.06 -0.04,-0.05 -0.03,-0.06 -0.04,-0.05 -0.04,-0.04 -0.03,-0.05 -0.04,-0.04 -0.04,-0.04 -0.04,-0.03 -0.03,-0.04 -0.04,-0.03 -0.04,-0.03 -0.04,-0.03 -0.03,-0.02 -0.04,-0.03 -0.04,-0.02 -0.04,-0.02 -0.04,-0.02 -0.03,-0.01 -0.04,-0.02 -0.04,-0.01 -0.04,-0.02 -0.04,-0.01 -0.04,-0.01 -0.04,-0.01 -0.04,0 -0.04,-0.01 -0.08,-0.01 -0.08,-0.01 c -0.12,-0.01 -0.21,-0.01 -0.21,-0.2 0,-0.06 0.05,-0.11 0.13,-0.11 0.27,0 0.58,0.04 0.86,0.04 0.33,0 0.68,-0.04 0.99,-0.04 0.06,0 0.19,0 0.19,0.19 0,0.11 -0.09,0.12 -0.16,0.12 -0.22,0.02 -0.46,0.1 -0.46,0.35 0,0.12 0.06,0.23 0.14,0.37 l 0.75,1.27 h 2.51 l -0.03,0.31 h -2.29 l 1.97,3.29 0.32,-3.29 0.03,-0.31 c 0.01,-0.2 0.15,-1.56 0.15,-1.66 0,-0.3 -0.51,-0.33 -0.71,-0.33 -0.14,0 -0.24,0 -0.24,-0.2 0,-0.11 0.12,-0.11 0.14,-0.11 0.41,0 0.83,0.04 1.24,0.04 0.25,0 0.88,-0.04 1.13,-0.04 0.06,0 0.18,0 0.18,0.2 0,0.11 -0.1,0.11 -0.23,0.11 -0.62,0 -0.62,0.07 -0.65,0.36 l -0.61,6.22 c -0.02,0.2 -0.02,0.24 -0.18,0.24 -0.16,0 -0.21,-0.07 -0.27,-0.17 z"
   inkscape:connector-curvature="0"
   style="fill:#000000;stroke-width:0" />
<path
   id="path3596"
   d="m 233.16,715.09 0,0.01 0,0.01 0,0.01 0,0.01 -0.01,0.01 0,0.01 0,0.01 -0.01,0.01 0,0.02 -0.01,0.01 0,0.01 -0.01,0.01 0,0.01 -0.01,0.01 -0.01,0.01 -0.01,0.01 0,0.01 -0.01,0.01 -0.01,0.01 -0.01,0.01 -0.02,0 -0.01,0.01 -0.01,0.01 -0.01,0 -0.02,0.01 -0.01,0.01 -0.01,0 -0.02,0 -0.02,0.01 -0.01,0 -0.02,0 -0.02,0 c -0.19,0 -0.39,-0.18 -0.39,-0.38 0,-0.12 0.09,-0.27 0.28,-0.27 0.2,0 0.39,0.2 0.39,0.39 z"
   inkscape:connector-curvature="0"
   style="fill:#000000;stroke-width:0" />
<path
   id="path3598"
   d="m 231.74,711.55 -0.01,-0.01 0,-0.02 -0.01,-0.03 -0.01,-0.02 0,-0.02 -0.01,-0.01 0,-0.02 -0.01,-0.02 0,-0.02 0,-0.02 -0.01,-0.02 0,-0.01 0,-0.01 0,-0.01 0,-0.01 0,-0.01 0,-0.01 0,-0.01 0,-0.01 c 0,-0.33 0.28,-0.59 0.66,-0.59 0.7,0 1,0.96 1,1.06 0,0.1 -0.09,0.1 -0.11,0.1 -0.1,0 -0.1,-0.05 -0.13,-0.12 -0.16,-0.56 -0.47,-0.85 -0.74,-0.85 -0.14,0 -0.18,0.1 -0.18,0.25 0,0.16 0.05,0.29 0.12,0.44 0.07,0.19 0.14,0.38 0.22,0.56 0.06,0.17 0.31,0.8 0.34,0.88 0.02,0.07 0.04,0.16 0.04,0.23 0,0.32 -0.28,0.59 -0.66,0.59 -0.69,0 -1.01,-0.95 -1.01,-1.07 0,-0.09 0.1,-0.09 0.12,-0.09 0.1,0 0.1,0.04 0.13,0.11 0.18,0.6 0.48,0.85 0.74,0.85 0.11,0 0.17,-0.05 0.17,-0.24 0,-0.16 -0.04,-0.27 -0.21,-0.7 z"
   inkscape:connector-curvature="0"
   style="fill:#000000;stroke-width:0" />
</g>    <g
       id="g3728"
       transform="matrix(3,0,0,-3,-390.10155,2261.4311)"
       xml:space="preserve"
       stroke="black"
       stroke-linecap="butt"
       stroke-linejoin="miter"
       stroke-miterlimit="10.433"
       stroke-dasharray="none"
       stroke-dashoffset="0"
       stroke-opacity="1"
       fill="none"
       fill-rule="evenodd"
       fill-opacity="1"
       font-style="normal"
       font-variant="normal"
       font-weight="normal"
       font-stretch="normal"
       font-size-adjust="none"
       letter-spacing="normal"
       word-spacing="normal"
       text-anchor="start"
       ns0:text="$A_i$"
       ns0:preamble=""
       style="font-style:normal;font-variant:normal;font-weight:normal;font-stretch:normal;letter-spacing:normal;word-spacing:normal;text-anchor:start;fill:none;stroke:#000000;stroke-linecap:butt;stroke-linejoin:miter;stroke-miterlimit:10.43299961;stroke-opacity:1;stroke-dasharray:none;stroke-dashoffset:0">
<path
   d="M225.22,708.27 L225.18,708.21 L225.14,708.15 L225.1,708.1 L225.07,708.04 L225.03,707.99 L224.99,707.95 L224.96,707.9 L224.92,707.86 L224.88,707.82 L224.84,707.79 L224.81,707.75 L224.77,707.72 L224.73,707.69 L224.69,707.66 L224.66,707.64 L224.62,707.61 L224.58,707.59 L224.54,707.57 L224.5,707.55 L224.47,707.54 L224.43,707.52 L224.39,707.51 L224.35,707.49 L224.31,707.48 L224.27,707.47 L224.23,707.46 L224.19,707.46 L224.15,707.45 L224.07,707.44 L223.99,707.43 C223.87,707.42,223.78,707.42,223.78,707.23 C223.78,707.17,223.83,707.12,223.91,707.12 C224.18,707.12,224.49,707.16,224.77,707.16 C225.1,707.16,225.45,707.12,225.76,707.12 C225.82,707.12,225.95,707.12,225.95,707.31 C225.95,707.42,225.86,707.43,225.79,707.43 C225.57,707.45,225.33,707.53,225.33,707.78 C225.33,707.9,225.39,708.01,225.47,708.15 L226.22,709.42 H228.73 L228.7,709.73 H226.41 L228.38,713.02 L228.7,709.73 L228.73,709.42 C228.74,709.22,228.88,707.86,228.88,707.76 C228.88,707.46,228.37,707.43,228.17,707.43 C228.03,707.43,227.93,707.43,227.93,707.23 C227.93,707.12,228.05,707.12,228.07,707.12 C228.48,707.12,228.9,707.16,229.31,707.16 C229.56,707.16,230.19,707.12,230.44,707.12 C230.5,707.12,230.62,707.12,230.62,707.32 C230.62,707.43,230.52,707.43,230.39,707.43 C229.77,707.43,229.77,707.5,229.74,707.79 L229.13,714.01 C229.11,714.21,229.11,714.25,228.95,714.25 C228.79,714.25,228.74,714.18,228.68,714.08 Z "
   stroke-width="0"
   fill="black"
   id="path3730" />
<path
   d="M233.16,709.98 L233.16,709.99 L233.16,710 L233.16,710.01 L233.16,710.02 L233.15,710.03 L233.15,710.04 L233.15,710.05 L233.14,710.07 L233.14,710.08 L233.13,710.09 L233.13,710.1 L233.12,710.11 L233.12,710.12 L233.11,710.13 L233.1,710.14 L233.09,710.15 L233.09,710.16 L233.08,710.17 L233.07,710.18 L233.06,710.19 L233.04,710.19 L233.03,710.2 L233.02,710.21 L233.01,710.22 L232.99,710.22 L232.98,710.23 L232.97,710.23 L232.95,710.23 L232.93,710.24 L232.92,710.24 L232.9,710.24 L232.88,710.24 C232.69,710.24,232.49,710.06,232.49,709.86 C232.49,709.74,232.58,709.59,232.77,709.59 C232.97,709.59,233.16,709.79,233.16,709.98 Z "
   stroke-width="0"
   fill="black"
   id="path3732" />
<path
   d="M231.74,706.44 L231.73,706.43 L231.73,706.41 L231.72,706.38 L231.71,706.36 L231.71,706.34 L231.7,706.33 L231.7,706.31 L231.69,706.29 L231.69,706.27 L231.69,706.25 L231.68,706.24 L231.68,706.23 L231.68,706.22 L231.68,706.21 L231.68,706.2 L231.68,706.18 L231.68,706.17 L231.68,706.16 L231.68,706.15 C231.68,705.83,231.96,705.56,232.34,705.56 C233.04,705.56,233.34,706.52,233.34,706.62 C233.34,706.72,233.25,706.72,233.23,706.72 C233.13,706.72,233.13,706.67,233.1,706.6 C232.94,706.04,232.63,705.76,232.36,705.76 C232.22,705.76,232.18,705.85,232.18,706 C232.18,706.16,232.23,706.29,232.3,706.44 C232.37,706.63,232.44,706.82,232.52,707 C232.58,707.17,232.83,707.8,232.86,707.88 C232.88,707.95,232.9,708.04,232.9,708.11 C232.9,708.43,232.62,708.7,232.24,708.7 C231.55,708.7,231.23,707.75,231.23,707.63 C231.23,707.54,231.33,707.54,231.35,707.54 C231.45,707.54,231.45,707.58,231.48,707.65 C231.66,708.25,231.96,708.5,232.22,708.5 C232.33,708.5,232.39,708.45,232.39,708.26 C232.39,708.1,232.35,707.99,232.18,707.56 Z "
   stroke-width="0"
   fill="black"
   id="path3734" />
</g>    <g
       style="font-style:normal;font-variant:normal;font-weight:normal;font-stretch:normal;letter-spacing:normal;word-spacing:normal;text-anchor:start;fill:none;stroke:#000000;stroke-linecap:butt;stroke-linejoin:miter;stroke-miterlimit:10.43299961;stroke-opacity:1;stroke-dasharray:none;stroke-dashoffset:0"
       ns0:preamble=""
       ns0:text="$g$"
       word-spacing="normal"
       letter-spacing="normal"
       font-size-adjust="none"
       font-stretch="normal"
       font-weight="normal"
       font-variant="normal"
       font-style="normal"
       stroke-miterlimit="10.433"
       xml:space="preserve"
       transform="matrix(3,0,0,-3,-458.48585,2216.7835)"
       id="g3849">
<path
   id="path3851"
   d="m 228.13,710.88 0,0.01 0,0.01 0,0.01 0.01,0.01 0,0.02 0,0.01 0.01,0.01 0,0.01 0,0.01 0,0.02 0,0.01 0.01,0.01 0,0.01 0,0.01 0,0 0,0.01 0,0.01 c 0,0.16 -0.12,0.27 -0.29,0.27 -0.1,0 -0.37,-0.07 -0.41,-0.43 -0.18,0.37 -0.53,0.62 -0.93,0.62 l 0.01,-0.22 c 0.66,0 0.8,-0.8 0.8,-0.85 0,-0.05 -0.02,-0.11 -0.03,-0.15 l -0.48,-1.9 c -0.06,-0.26 -0.29,-0.51 -0.51,-0.7 -0.21,-0.18 -0.52,-0.36 -0.81,-0.36 -0.49,0 -0.64,0.52 -0.64,0.92 0,0.48 0.29,1.65 0.56,2.16 0.27,0.49 0.69,0.88 1.11,0.88 l -0.01,0.22 c -1.13,0 -2.37,-1.39 -2.37,-2.82 0,-0.99 0.61,-1.58 1.33,-1.58 0.58,0 1.05,0.47 1.15,0.58 l 0.01,-0.01 c -0.21,-0.88 -0.33,-1.29 -0.33,-1.31 -0.04,-0.09 -0.38,-1.08 -1.43,-1.08 -0.19,0 -0.52,0.01 -0.8,0.1 0.3,0.09 0.41,0.35 0.41,0.52 0,0.16 -0.11,0.35 -0.38,0.35 -0.22,0 -0.54,-0.18 -0.54,-0.58 0,-0.41 0.37,-0.6 1.33,-0.6 1.24,0 1.96,0.77 2.11,1.37 z"
   inkscape:connector-curvature="0"
   style="fill:#000000;stroke-width:0" />
</g>    <g
       style="font-style:normal;font-variant:normal;font-weight:normal;font-stretch:normal;letter-spacing:normal;word-spacing:normal;text-anchor:start;fill:none;stroke:#000000;stroke-linecap:butt;stroke-linejoin:miter;stroke-miterlimit:10.43299961;stroke-opacity:1;stroke-dasharray:none;stroke-dashoffset:0"
       id="g5913"
       transform="matrix(3,0,0,-3,-570.04654,2186.7021)"
       xml:space="preserve"
       stroke-miterlimit="10.433"
       font-style="normal"
       font-variant="normal"
       font-weight="normal"
       font-stretch="normal"
       font-size-adjust="none"
       letter-spacing="normal"
       word-spacing="normal"
       ns0:text="$T_n(P)$"
       ns0:preamble="">
<path
   style="fill:#000000;stroke-width:0"
   inkscape:connector-curvature="0"
   d="m 227.69,713.17 0,0.02 0.01,0.03 0.01,0.02 0,0.02 0.01,0.02 0,0.02 0.01,0.02 0.01,0.02 0,0.01 0.01,0.02 0,0.01 0.01,0.02 0.01,0.01 0,0.01 0.01,0.01 0,0.01 0.01,0.01 0.01,0.01 0,0.01 0.01,0.01 0.01,0.01 0.01,0 0,0.01 0.01,0 0.01,0.01 0.01,0 0.01,0.01 0.01,0 0.01,0 0.01,0.01 0.01,0 0.01,0 c 0.09,0.02 0.42,0.02 0.63,0.02 1,0 1.45,-0.03 1.45,-0.81 0,-0.15 -0.04,-0.54 -0.08,-0.8 -0.01,-0.04 -0.03,-0.16 -0.03,-0.19 0,-0.06 0.03,-0.13 0.12,-0.13 0.11,0 0.13,0.08 0.15,0.23 l 0.27,1.73 c 0.01,0.04 0.02,0.14 0.02,0.17 0,0.11 -0.1,0.11 -0.27,0.11 h -5.53 c -0.24,0 -0.25,-0.01 -0.32,-0.2 l -0.6,-1.75 c -0.01,-0.02 -0.06,-0.16 -0.06,-0.18 0,-0.06 0.05,-0.11 0.12,-0.11 0.1,0 0.11,0.05 0.17,0.21 0.54,1.55 0.8,1.72 2.27,1.72 h 0.39 c 0.28,0 0.28,-0.03 0.28,-0.12 0,-0.05 -0.03,-0.17 -0.04,-0.2 l -1.34,-5.32 c -0.08,-0.37 -0.11,-0.48 -1.18,-0.48 -0.36,0 -0.42,0 -0.42,-0.19 0,-0.12 0.11,-0.12 0.17,-0.12 0.27,0 0.55,0.03 0.82,0.03 0.28,0 0.57,0.01 0.85,0.01 0.27,0 0.55,-0.01 0.82,-0.01 0.29,0 0.59,-0.03 0.87,-0.03 0.1,0 0.22,0 0.22,0.2 0,0.11 -0.08,0.11 -0.34,0.11 -0.25,0 -0.38,0 -0.64,0.02 -0.29,0.03 -0.37,0.06 -0.37,0.22 0,0.01 0,0.06 0.04,0.21 z"
   id="path5915" />
<path
   style="fill:#000000;stroke-width:0"
   inkscape:connector-curvature="0"
   d="m 230.1,706.07 0,-0.01 0,-0.01 0,-0.01 -0.01,-0.01 0,-0.01 0,-0.01 -0.01,-0.01 0,-0.01 0,-0.02 -0.01,-0.03 -0.01,-0.02 0,-0.02 0,-0.01 -0.01,-0.01 0,-0.01 0,-0.01 0,-0.01 -0.01,-0.01 0,-0.01 0,-0.01 0,0 0,-0.01 0,-0.01 0,0 0,-0.01 -0.01,0 0,0 0,0 0,0 0,-0.01 c 0,-0.15 0.13,-0.22 0.24,-0.22 0.13,0 0.24,0.09 0.27,0.15 0.04,0.07 0.09,0.29 0.13,0.44 0.03,0.13 0.11,0.45 0.15,0.62 0.04,0.15 0.08,0.31 0.12,0.47 0.08,0.28 0.09,0.34 0.29,0.62 0.2,0.28 0.52,0.64 1.05,0.64 0.4,0 0.41,-0.35 0.41,-0.48 0,-0.42 -0.3,-1.19 -0.41,-1.49 -0.08,-0.19 -0.11,-0.25 -0.11,-0.37 0,-0.37 0.31,-0.6 0.66,-0.6 0.7,0 1.01,0.96 1.01,1.06 0,0.1 -0.09,0.1 -0.11,0.1 -0.1,0 -0.11,-0.05 -0.14,-0.12 -0.16,-0.56 -0.46,-0.84 -0.74,-0.84 -0.14,0 -0.17,0.09 -0.17,0.24 0,0.16 0.03,0.25 0.16,0.56 0.08,0.22 0.37,0.96 0.37,1.35 0,0.67 -0.54,0.79 -0.91,0.79 -0.57,0 -0.96,-0.36 -1.17,-0.63 -0.05,0.47 -0.46,0.63 -0.75,0.63 -0.3,0 -0.46,-0.22 -0.55,-0.38 -0.15,-0.25 -0.25,-0.65 -0.25,-0.69 0,-0.09 0.1,-0.09 0.12,-0.09 0.1,0 0.1,0.02 0.15,0.21 0.11,0.41 0.24,0.75 0.51,0.75 0.18,0 0.23,-0.15 0.23,-0.34 0,-0.13 -0.06,-0.39 -0.11,-0.57 -0.05,-0.19 -0.12,-0.48 -0.15,-0.63 z"
   id="path5917" />
<path
   style="fill:#000000;stroke-width:0"
   inkscape:connector-curvature="0"
   d="m 237.98,704.74 0,0 0,0.01 0,0 0,0 0,0.01 -0.01,0 0,0 0,0.01 0,0 0,0 0,0.01 -0.01,0 0,0.01 0,0 -0.01,0.01 0,0.01 -0.01,0 0,0.01 -0.01,0 0,0.01 0,0 -0.01,0.01 0,0 -0.01,0 0,0.01 0,0 -0.01,0.01 0,0 -0.01,0.01 0,0 -0.01,0.01 -0.01,0.01 0,0 -0.01,0.01 0,0 -0.01,0.01 -0.01,0.01 0,0.01 -0.01,0 -0.01,0.01 -0.01,0.01 0,0.01 c -1.25,1.25 -1.57,3.13 -1.57,4.65 0,1.73 0.38,3.47 1.61,4.71 0.13,0.12 0.13,0.14 0.13,0.17 0,0.07 -0.04,0.1 -0.1,0.1 -0.1,0 -1,-0.68 -1.59,-1.94 -0.51,-1.1 -0.63,-2.2 -0.63,-3.04 0,-0.77 0.11,-1.98 0.66,-3.1 0.6,-1.23 1.46,-1.87 1.56,-1.87 0.06,0 0.1,0.03 0.1,0.1 z"
   id="path5919" />
<path
   style="fill:#000000;stroke-width:0"
   inkscape:connector-curvature="0"
   d="m 241.57,710.27 0.04,0.26 0.68,2.71 c 0.09,0.34 0.11,0.37 0.54,0.37 h 0.95 c 0.83,0 1.36,-0.27 1.36,-0.95 0,-0.39 -0.2,-1.25 -0.59,-1.6 -0.5,-0.45 -1.09,-0.53 -1.53,-0.53 h -1.41 l -0.04,-0.26 h 1.7 c 1.41,0 2.8,1.03 2.8,2.15 0,0.77 -0.66,1.5 -1.97,1.5 h -3.23 c -0.19,0 -0.3,0 -0.3,-0.19 0,-0.12 0.09,-0.12 0.29,-0.12 0.13,0 0.31,-0.01 0.43,-0.02 0.16,-0.02 0.22,-0.05 0.22,-0.16 0,-0.03 -0.01,-0.07 -0.04,-0.18 l -1.33,-5.35 c -0.1,-0.39 -0.12,-0.47 -0.91,-0.47 -0.17,0 -0.28,0 -0.28,-0.19 0,-0.12 0.12,-0.12 0.15,-0.12 0.28,0 0.99,0.04 1.27,0.04 0.2,0 0.42,-0.01 0.63,-0.01 0.22,0 0.44,-0.03 0.65,-0.03 0.07,0 0.2,0 0.2,0.2 0,0.11 -0.09,0.11 -0.28,0.11 -0.37,0 -0.65,0 -0.65,0.18 0,0.06 0.02,0.11 0.03,0.17 z"
   id="path5921" />
<path
   style="fill:#000000;stroke-width:0"
   inkscape:connector-curvature="0"
   d="m 249.21,709.61 0,0.08 0,0.07 0,0.08 0,0.08 -0.01,0.17 -0.01,0.18 -0.02,0.18 -0.02,0.19 -0.03,0.2 -0.03,0.19 -0.04,0.21 -0.05,0.21 -0.05,0.21 -0.06,0.21 -0.07,0.21 -0.08,0.21 -0.04,0.11 -0.05,0.11 -0.05,0.1 -0.05,0.11 c -0.59,1.22 -1.45,1.87 -1.55,1.87 -0.06,0 -0.1,-0.04 -0.1,-0.1 0,-0.03 0,-0.05 0.19,-0.23 0.98,-0.98 1.54,-2.57 1.54,-4.65 0,-1.7 -0.37,-3.45 -1.6,-4.7 -0.13,-0.12 -0.13,-0.14 -0.13,-0.17 0,-0.06 0.04,-0.1 0.1,-0.1 0.1,0 1,0.67 1.58,1.94 0.51,1.09 0.63,2.2 0.63,3.03 z"
   id="path5923" />
</g>    <g
       style="font-style:normal;font-variant:normal;font-weight:normal;font-stretch:normal;letter-spacing:normal;word-spacing:normal;text-anchor:start;fill:none;stroke:#000000;stroke-linecap:butt;stroke-linejoin:miter;stroke-miterlimit:10.43299961;stroke-opacity:1;stroke-dasharray:none;stroke-dashoffset:0"
       ns0:preamble=""
       ns0:text="$T^*_n(P)$"
       text-anchor="start"
       word-spacing="normal"
       letter-spacing="normal"
       font-size-adjust="none"
       font-stretch="normal"
       font-weight="normal"
       font-variant="normal"
       font-style="normal"
       fill-opacity="1"
       fill-rule="evenodd"
       fill="none"
       stroke-opacity="1"
       stroke-dashoffset="0"
       stroke-dasharray="none"
       stroke-miterlimit="10.433"
       stroke-linejoin="miter"
       stroke-linecap="butt"
       stroke="black"
       xml:space="preserve"
       transform="matrix(3,0,0,-3,-409.22026,2185.9261)"
       id="g6074">
<path
   id="path6076"
   fill="black"
   stroke-width="0"
   d="M227.69,713.17 L227.69,713.19 L227.7,713.22 L227.71,713.24 L227.71,713.26 L227.72,713.28 L227.72,713.3 L227.73,713.32 L227.74,713.34 L227.74,713.35 L227.75,713.37 L227.75,713.38 L227.76,713.4 L227.77,713.41 L227.77,713.42 L227.78,713.43 L227.78,713.44 L227.79,713.45 L227.8,713.46 L227.8,713.47 L227.81,713.48 L227.82,713.49 L227.83,713.49 L227.83,713.5 L227.84,713.5 L227.85,713.51 L227.86,713.51 L227.87,713.52 L227.88,713.52 L227.89,713.52 L227.9,713.53 L227.91,713.53 L227.92,713.53 C228.01,713.55,228.34,713.55,228.55,713.55 C229.55,713.55,230,713.52,230,712.74 C230,712.59,229.96,712.2,229.92,711.94 C229.91,711.9,229.89,711.78,229.89,711.75 C229.89,711.69,229.92,711.62,230.01,711.62 C230.12,711.62,230.14,711.7,230.16,711.85 L230.43,713.58 C230.44,713.62,230.45,713.72,230.45,713.75 C230.45,713.86,230.35,713.86,230.18,713.86 H224.65 C224.41,713.86,224.4,713.85,224.33,713.66 L223.73,711.91 C223.72,711.89,223.67,711.75,223.67,711.73 C223.67,711.67,223.72,711.62,223.79,711.62 C223.89,711.62,223.9,711.67,223.96,711.83 C224.5,713.38,224.76,713.55,226.23,713.55 H226.62 C226.9,713.55,226.9,713.52,226.9,713.43 C226.9,713.38,226.87,713.26,226.86,713.23 L225.52,707.91 C225.44,707.54,225.41,707.43,224.34,707.43 C223.98,707.43,223.92,707.43,223.92,707.24 C223.92,707.12,224.03,707.12,224.09,707.12 C224.36,707.12,224.64,707.15,224.91,707.15 C225.19,707.15,225.48,707.16,225.76,707.16 C226.03,707.16,226.31,707.15,226.58,707.15 C226.87,707.15,227.17,707.12,227.45,707.12 C227.55,707.12,227.67,707.12,227.67,707.32 C227.67,707.43,227.59,707.43,227.33,707.43 C227.08,707.43,226.95,707.43,226.69,707.45 C226.4,707.48,226.32,707.51,226.32,707.67 C226.32,707.68,226.32,707.73,226.36,707.88 Z " />
<path
   id="path6078"
   fill="black"
   stroke-width="0"
   d="M232.89,712.47 L232.94,712.49 L232.99,712.52 L233.04,712.54 L233.09,712.56 L233.13,712.58 L233.18,712.6 L233.22,712.62 L233.26,712.63 L233.3,712.65 L233.34,712.67 L233.37,712.68 L233.41,712.7 L233.44,712.71 L233.48,712.72 L233.51,712.74 L233.54,712.75 L233.57,712.76 L233.59,712.77 L233.62,712.78 L233.65,712.8 L233.67,712.81 L233.7,712.82 L233.72,712.83 L233.74,712.83 L233.76,712.84 L233.78,712.85 L233.82,712.87 L233.86,712.89 L233.89,712.9 C234.02,712.96,234.09,712.99,234.09,713.12 C234.09,713.24,233.99,713.34,233.87,713.34 C233.82,713.34,233.81,713.34,233.72,713.28 L232.78,712.65 L232.88,713.67 C232.89,713.8,232.88,713.97,232.67,713.97 C232.59,713.97,232.46,713.92,232.46,713.77 C232.46,713.7,232.48,713.49,232.49,713.42 C232.5,713.31,232.55,712.8,232.57,712.65 L231.63,713.28 C231.56,713.32,231.54,713.34,231.47,713.34 C231.35,713.34,231.26,713.24,231.26,713.12 C231.26,712.98,231.34,712.94,231.4,712.92 L232.46,712.48 C231.88,712.23,231.63,712.13,231.45,712.05 C231.32,711.99,231.26,711.96,231.26,711.83 C231.26,711.71,231.35,711.61,231.47,711.61 C231.52,711.61,231.54,711.61,231.62,711.67 L232.57,712.3 L232.46,711.18 C232.46,711.03,232.59,710.98,232.67,710.98 C232.76,710.98,232.89,711.03,232.89,711.18 C232.89,711.25,232.86,711.46,232.85,711.53 C232.84,711.64,232.79,712.15,232.78,712.3 L233.61,711.75 C233.79,711.61,233.81,711.61,233.87,711.61 C233.99,711.61,234.09,711.71,234.09,711.83 C234.09,711.97,234,712.01,233.94,712.03 Z " />
<path
   id="path6080"
   fill="black"
   stroke-width="0"
   d="M230.1,705.1 L230.1,705.09 L230.1,705.08 L230.1,705.07 L230.09,705.06 L230.09,705.05 L230.09,705.04 L230.08,705.03 L230.08,705.02 L230.08,705 L230.07,704.98 L230.06,704.95 L230.06,704.93 L230.06,704.92 L230.05,704.91 L230.05,704.9 L230.05,704.89 L230.05,704.88 L230.04,704.87 L230.04,704.86 L230.04,704.86 L230.04,704.85 L230.04,704.84 L230.04,704.84 L230.04,704.83 L230.04,704.82 L230.03,704.82 L230.03,704.82 L230.03,704.82 L230.03,704.82 L230.03,704.82 C230.03,704.66,230.16,704.59,230.27,704.59 C230.4,704.59,230.51,704.68,230.54,704.74 C230.58,704.81,230.63,705.03,230.67,705.18 C230.7,705.31,230.78,705.63,230.82,705.8 C230.86,705.96,230.9,706.11,230.94,706.27 C231.02,706.55,231.03,706.61,231.23,706.89 C231.43,707.17,231.75,707.53,232.28,707.53 C232.68,707.53,232.69,707.18,232.69,707.05 C232.69,706.63,232.39,705.86,232.28,705.57 C232.2,705.37,232.17,705.31,232.17,705.19 C232.17,704.82,232.48,704.59,232.83,704.59 C233.53,704.59,233.84,705.55,233.84,705.66 C233.84,705.75,233.75,705.75,233.73,705.75 C233.63,705.75,233.62,705.71,233.59,705.63 C233.43,705.07,233.13,704.79,232.85,704.79 C232.71,704.79,232.68,704.89,232.68,705.03 C232.68,705.19,232.71,705.28,232.84,705.59 C232.92,705.81,233.21,706.55,233.21,706.94 C233.21,707.61,232.67,707.73,232.3,707.73 C231.73,707.73,231.34,707.37,231.13,707.1 C231.08,707.58,230.67,707.73,230.38,707.73 C230.08,707.73,229.92,707.51,229.83,707.35 C229.68,707.1,229.58,706.7,229.58,706.66 C229.58,706.57,229.68,706.57,229.7,706.57 C229.8,706.57,229.8,706.59,229.85,706.78 C229.96,707.19,230.09,707.53,230.36,707.53 C230.54,707.53,230.59,707.38,230.59,707.19 C230.59,707.06,230.53,706.8,230.48,706.62 C230.43,706.43,230.36,706.14,230.33,705.99 Z " />
<path
   id="path6082"
   fill="black"
   stroke-width="0"
   d="M238.52,704.74 L238.52,704.74 L238.52,704.75 L238.52,704.75 L238.52,704.75 L238.52,704.76 L238.52,704.76 L238.51,704.76 L238.51,704.77 L238.51,704.77 L238.51,704.77 L238.51,704.78 L238.5,704.78 L238.5,704.79 L238.5,704.79 L238.49,704.8 L238.49,704.81 L238.48,704.81 L238.48,704.82 L238.47,704.82 L238.47,704.83 L238.47,704.83 L238.46,704.84 L238.46,704.84 L238.45,704.84 L238.45,704.85 L238.45,704.85 L238.44,704.86 L238.44,704.86 L238.43,704.87 L238.43,704.87 L238.42,704.88 L238.42,704.89 L238.41,704.89 L238.4,704.9 L238.4,704.9 L238.39,704.91 L238.38,704.92 L238.38,704.93 L238.37,704.93 L238.36,704.94 L238.36,704.95 L238.35,704.96 C237.1,706.21,236.78,708.09,236.78,709.61 C236.78,711.34,237.16,713.08,238.39,714.32 C238.52,714.44,238.52,714.46,238.52,714.49 C238.52,714.56,238.48,714.59,238.42,714.59 C238.32,714.59,237.42,713.91,236.83,712.65 C236.32,711.55,236.21,710.45,236.21,709.61 C236.21,708.84,236.32,707.63,236.86,706.51 C237.46,705.28,238.32,704.64,238.42,704.64 C238.48,704.64,238.52,704.67,238.52,704.74 Z " />
<path
   id="path6084"
   fill="black"
   stroke-width="0"
   d="M242.11,710.27 L242.15,710.53 L242.83,713.24 C242.92,713.58,242.94,713.61,243.37,713.61 H244.32 C245.15,713.61,245.68,713.34,245.68,712.66 C245.68,712.27,245.48,711.41,245.09,711.06 C244.6,710.61,244,710.53,243.56,710.53 H242.15 L242.11,710.27 H243.81 C245.22,710.27,246.61,711.3,246.61,712.42 C246.61,713.19,245.95,713.92,244.64,713.92 H241.41 C241.23,713.92,241.12,713.92,241.12,713.73 C241.12,713.61,241.21,713.61,241.4,713.61 C241.53,713.61,241.71,713.6,241.83,713.59 C241.99,713.57,242.05,713.54,242.05,713.43 C242.05,713.4,242.04,713.36,242.01,713.25 L240.68,707.9 C240.58,707.51,240.56,707.43,239.77,707.43 C239.6,707.43,239.49,707.43,239.49,707.24 C239.49,707.12,239.61,707.12,239.64,707.12 C239.92,707.12,240.63,707.16,240.91,707.16 C241.12,707.16,241.34,707.15,241.54,707.15 C241.76,707.15,241.98,707.12,242.19,707.12 C242.26,707.12,242.39,707.12,242.39,707.32 C242.39,707.43,242.3,707.43,242.11,707.43 C241.74,707.43,241.46,707.43,241.46,707.61 C241.46,707.67,241.48,707.72,241.49,707.78 Z " />
<path
   id="path6086"
   fill="black"
   stroke-width="0"
   d="M249.75,709.61 L249.75,709.69 L249.75,709.76 L249.75,709.84 L249.75,709.92 L249.74,710.09 L249.73,710.27 L249.71,710.45 L249.69,710.64 L249.66,710.84 L249.63,711.03 L249.59,711.24 L249.54,711.45 L249.49,711.66 L249.43,711.87 L249.36,712.08 L249.28,712.29 L249.24,712.4 L249.19,712.51 L249.15,712.61 L249.1,712.72 C248.5,713.94,247.64,714.59,247.54,714.59 C247.48,714.59,247.44,714.55,247.44,714.49 C247.44,714.46,247.44,714.44,247.63,714.26 C248.61,713.28,249.18,711.69,249.18,709.61 C249.18,707.91,248.81,706.16,247.57,704.91 C247.44,704.79,247.44,704.77,247.44,704.74 C247.44,704.68,247.48,704.64,247.54,704.64 C247.64,704.64,248.54,705.31,249.12,706.58 C249.63,707.67,249.75,708.78,249.75,709.61 Z " />
</g>    <path
       transform="matrix(1.2364916,0,0,1.2281251,98.533371,-141.34822)"
       d="m 54.759618,214.95192 a 3.2692308,3.2692308 0 1 1 -6.538462,0 3.2692308,3.2692308 0 1 1 6.538462,0 z"
       sodipodi:ry="3.2692308"
       sodipodi:rx="3.2692308"
       sodipodi:cy="214.95192"
       sodipodi:cx="51.490387"
       id="path4894-3"
       style="fill:#0000ff;fill-opacity:1;fill-rule:evenodd;stroke:none;stroke-width:2;marker:none;visibility:visible;display:inline;overflow:visible;enable-background:accumulate"
       sodipodi:type="arc" />
    <path
       transform="matrix(1.2364916,0,0,1.2281251,208.73948,-141.91338)"
       d="m 54.759618,214.95192 a 3.2692308,3.2692308 0 1 1 -6.538462,0 3.2692308,3.2692308 0 1 1 6.538462,0 z"
       sodipodi:ry="3.2692308"
       sodipodi:rx="3.2692308"
       sodipodi:cy="214.95192"
       sodipodi:cx="51.490387"
       id="path4894-3-7"
       style="fill:#0000ff;fill-opacity:1;fill-rule:evenodd;stroke:none;stroke-width:2;marker:none;visibility:visible;display:inline;overflow:visible;enable-background:accumulate"
       sodipodi:type="arc" />
  </g>
</svg>
