<?xml version="1.0" encoding="UTF-8" standalone="no"?>
<!-- Created with Inkscape (http://www.inkscape.org/) -->

<svg
   xmlns:ns0="http://www.iki.fi/pav/software/textext/"
   xmlns:dc="http://purl.org/dc/elements/1.1/"
   xmlns:cc="http://creativecommons.org/ns#"
   xmlns:rdf="http://www.w3.org/1999/02/22-rdf-syntax-ns#"
   xmlns:svg="http://www.w3.org/2000/svg"
   xmlns="http://www.w3.org/2000/svg"
   xmlns:sodipodi="http://sodipodi.sourceforge.net/DTD/sodipodi-0.dtd"
   xmlns:inkscape="http://www.inkscape.org/namespaces/inkscape"
   sodipodi:modified="true"
   inkscape:output_extension="org.inkscape.output.svg.inkscape"
   sodipodi:docname="Killing.svg"
   version="1.0"
   height="768"
   width="1024"
   inkscape:version="0.48.1 r9760"
   sodipodi:version="0.32"
   id="svg1974">
  <sodipodi:namedview
     inkscape:window-height="848"
     inkscape:window-width="1440"
     inkscape:pageshadow="2"
     inkscape:pageopacity="0.0"
     guidetolerance="10.0"
     gridtolerance="10.0"
     objecttolerance="10.0"
     borderopacity="1.0"
     bordercolor="#666666"
     pagecolor="#ffffff"
     id="base"
     showguides="false"
     inkscape:zoom="0.98177083"
     inkscape:cx="514.03714"
     inkscape:cy="384"
     inkscape:window-x="0"
     inkscape:window-y="0"
     inkscape:current-layer="svg1974"
     showgrid="false"
     inkscape:window-maximized="1" />
  <metadata
     id="metadata1979">
    <rdf:RDF>
      <cc:Work
         rdf:about="">
        <dc:format>image/svg+xml</dc:format>
        <dc:type
           rdf:resource="http://purl.org/dc/dcmitype/StillImage" />
        <dc:title />
      </cc:Work>
    </rdf:RDF>
  </metadata>
  <defs
     id="defs1977">
    <marker
       style="overflow:visible;"
       id="Arrow2Mend"
       refX="0.0"
       refY="0.0"
       orient="auto"
       inkscape:stockid="Arrow2Mend">
      <path
         transform="scale(0.6) rotate(180) translate(0,0)"
         d="M 8.7185878,4.0337352 L -2.2072895,0.016013256 L 8.7185884,-4.0017078 C 6.9730900,-1.6296469 6.9831476,1.6157441 8.7185878,4.0337352 z "
         style="font-size:12.0;fill-rule:evenodd;stroke-width:0.62500000;stroke-linejoin:round;"
         id="path3395" />
    </marker>
    <marker
       style="overflow:visible;"
       id="Arrow2Lend"
       refX="0.0"
       refY="0.0"
       orient="auto"
       inkscape:stockid="Arrow2Lend">
      <path
         transform="scale(1.1) rotate(180) translate(1,0)"
         d="M 8.7185878,4.0337352 L -2.2072895,0.016013256 L 8.7185884,-4.0017078 C 6.9730900,-1.6296469 6.9831476,1.6157441 8.7185878,4.0337352 z "
         style="font-size:12.0;fill-rule:evenodd;stroke-width:0.62500000;stroke-linejoin:round;"
         id="path3389" />
    </marker>
    <inkscape:perspective
       id="perspective42"
       inkscape:persp3d-origin="512 : 256 : 1"
       inkscape:vp_z="1024 : 384 : 1"
       inkscape:vp_y="0 : 1000 : 0"
       inkscape:vp_x="0 : 384 : 1"
       sodipodi:type="inkscape:persp3d" />
    <marker
       style="overflow:visible"
       id="Arrow2Mend-3"
       refX="0"
       refY="0"
       orient="auto"
       inkscape:stockid="Arrow2Mend">
      <path
         transform="scale(-0.6,-0.6)"
         d="M 8.7185878,4.0337352 -2.2072895,0.01601326 8.7185884,-4.0017078 c -1.7454984,2.3720609 -1.7354408,5.6174519 -6e-7,8.035443 z"
         style="font-size:12px;fill-rule:evenodd;stroke-width:0.625;stroke-linejoin:round"
         id="path3395-7"
         inkscape:connector-curvature="0" />
    </marker>
    <marker
       style="overflow:visible"
       id="Arrow2Mend-1"
       refX="0"
       refY="0"
       orient="auto"
       inkscape:stockid="Arrow2Mend">
      <path
         transform="scale(-0.6,-0.6)"
         d="M 8.7185878,4.0337352 -2.2072895,0.01601326 8.7185884,-4.0017078 c -1.7454984,2.3720609 -1.7354408,5.6174519 -6e-7,8.035443 z"
         style="font-size:12px;fill-rule:evenodd;stroke-width:0.625;stroke-linejoin:round"
         id="path3395-6"
         inkscape:connector-curvature="0" />
    </marker>
    <marker
       style="overflow:visible"
       id="Arrow2Mend-6"
       refX="0"
       refY="0"
       orient="auto"
       inkscape:stockid="Arrow2Mend">
      <path
         transform="scale(-0.6,-0.6)"
         d="M 8.7185878,4.0337352 -2.2072895,0.01601326 8.7185884,-4.0017078 c -1.7454984,2.3720609 -1.7354408,5.6174519 -6e-7,8.035443 z"
         style="font-size:12px;fill-rule:evenodd;stroke-width:0.625;stroke-linejoin:round"
         id="path3395-0"
         inkscape:connector-curvature="0" />
    </marker>
  </defs>
  <text
     transform="scale(0.969553,1.0314031)"
     id="text2013"
     y="364.66507"
     x="313.33624"
     style="font-size:13.29090214px;font-style:normal;font-weight:normal;fill:#000000;fill-opacity:1;stroke:none;stroke-width:1px;stroke-linecap:butt;stroke-linejoin:miter;stroke-opacity:1;font-family:Bitstream Vera Sans"
     xml:space="preserve"><tspan
       y="364.66507"
       x="313.33624"
       id="tspan2015"
       sodipodi:role="line" /></text>
  <path
     sodipodi:nodetypes="cc"
     inkscape:connector-curvature="0"
     id="path2593"
     d="M 368.4047,316.71906 C 525.32416,269.945 627.92534,239.76819 627.92534,239.76819"
     style="opacity:0.98418974;fill:#f50b0b;fill-opacity:0.96078431;fill-rule:nonzero;stroke:#f50e18;stroke-width:5;stroke-linecap:round;stroke-linejoin:miter;stroke-miterlimit:0.2;stroke-opacity:0.96078431;stroke-dasharray:none;marker-mid:none;marker-end:url(#Arrow2Mend)" />
  <path
     transform="matrix(3.2472215,0,0,3.4543694,-1042.7141,-1009.1615)"
     style="fill:#0000ff;fill-opacity:1"
     d="m 436.43425,384.55664 a 3.9496312,3.6204953 0 1 1 -7.89926,0 3.9496312,3.6204953 0 1 1 7.89926,0 z"
     sodipodi:ry="3.6204953"
     sodipodi:rx="3.9496312"
     sodipodi:cy="384.55664"
     sodipodi:cx="432.48462"
     id="path2030"
     sodipodi:type="arc" />
  <svg
     transform="scale(1.0771402e20,1.1458535e20)"
     inkscape:version="0.46"
     sodipodi:version="0.32"
     preserveAspectRatio="none"
     viewBox="0 0 1 1"
     height="8in"
     width="8in"
     id="body"
     baseProfile="full"
     version="1.0" />
  <svg
     transform="scale(1.0771402e20,1.1458535e20)"
     inkscape:version="0.46"
     sodipodi:version="0.32"
     version="1.0"
     baseProfile="full"
     id="svg2526"
     width="8in"
     height="8in"
     viewBox="0 0 1 1"
     preserveAspectRatio="none" />
  <path
     transform="matrix(3.2472215,0,0,3.4543694,-757.02408,-1092.4966)"
     style="fill:#0000ff;fill-opacity:1"
     d="m 436.43425,384.55664 a 3.9496312,3.6204953 0 1 1 -7.89926,0 3.9496312,3.6204953 0 1 1 7.89926,0 z"
     sodipodi:ry="3.6204953"
     sodipodi:rx="3.9496312"
     sodipodi:cy="384.55664"
     sodipodi:cx="432.48462"
     id="path2030-2"
     sodipodi:type="arc" />
  <g
     inkscape:label="Capa"
     id="layer1"
     inkscape:groupmode="layer" />
  <path
     sodipodi:nodetypes="cc"
     inkscape:connector-curvature="0"
     id="path2593-0"
     d="M 330.26977,524.88813 C 487.18923,478.11407 589.79041,447.93726 589.79041,447.93726"
     style="opacity:0.98418974;fill:#ff0000;fill-opacity:0.96078431;fill-rule:nonzero;stroke:#f50e18;stroke-width:5;stroke-linecap:round;stroke-linejoin:miter;stroke-miterlimit:0.2;stroke-opacity:0.96078431;stroke-dasharray:none;marker-mid:none;marker-end:url(#Arrow2Mend)" />
  <path
     transform="matrix(3.2472215,0,0,3.4543694,-1080.849,-800.99247)"
     style="fill:#0000ff;fill-opacity:1"
     d="m 436.43425,384.55664 a 3.9496312,3.6204953 0 1 1 -7.89926,0 3.9496312,3.6204953 0 1 1 7.89926,0 z"
     sodipodi:ry="3.6204953"
     sodipodi:rx="3.9496312"
     sodipodi:cy="384.55664"
     sodipodi:cx="432.48462"
     id="path2030-5"
     sodipodi:type="arc" />
  <path
     transform="matrix(3.2472215,0,0,3.4543694,-795.159,-884.32757)"
     style="fill:#0000ff;fill-opacity:1"
     d="m 436.43425,384.55664 a 3.9496312,3.6204953 0 1 1 -7.89926,0 3.9496312,3.6204953 0 1 1 7.89926,0 z"
     sodipodi:ry="3.6204953"
     sodipodi:rx="3.9496312"
     sodipodi:cy="384.55664"
     sodipodi:cx="432.48462"
     id="path2030-2-6"
     sodipodi:type="arc" />
  <path
     inkscape:connector-curvature="0"
     id="path3236"
     d="M 323.02947,526.58546 C 359.24165,318.36542 359.24165,318.36542 359.24165,318.36542"
     style="fill:#00ff00;fill-opacity:1;stroke:#0000ff;stroke-width:4.5999999;stroke-linecap:butt;stroke-linejoin:miter;stroke-miterlimit:4;stroke-opacity:1;stroke-dasharray:none" />
  <path
     inkscape:connector-curvature="0"
     id="path3236-6"
     d="M 609.70924,451.14342 C 645.92142,242.92338 645.92142,242.92338 645.92142,242.92338"
     style="fill:#00ff00;fill-opacity:1;stroke:#0101ff;stroke-width:4.5999999;stroke-linecap:butt;stroke-linejoin:miter;stroke-miterlimit:4;stroke-opacity:1;stroke-dasharray:none" />
  <g
     ns0:preamble=""
     ns0:text="$P$"
     word-spacing="normal"
     letter-spacing="normal"
     font-size-adjust="none"
     font-stretch="normal"
     font-weight="normal"
     font-variant="normal"
     font-style="normal"
     stroke-miterlimit="10.433"
     xml:space="preserve"
     transform="matrix(4,0,0,-4,-623.92042,3382.9814)"
     id="content"
     style="font-style:normal;font-variant:normal;font-weight:normal;font-stretch:normal;letter-spacing:normal;word-spacing:normal;text-anchor:start;fill:none;stroke:#000000;stroke-linecap:butt;stroke-linejoin:miter;stroke-miterlimit:10.43299961;stroke-opacity:1;stroke-dasharray:none;stroke-dashoffset:0">
<path
   id="path4232"
   d="m 226.45,710.27 0.04,0.26 0.68,2.71 c 0.09,0.35 0.11,0.38 0.54,0.38 h 0.95 c 0.83,0 1.36,-0.27 1.36,-0.96 0,-0.39 -0.2,-1.24 -0.59,-1.6 -0.5,-0.45 -1.1,-0.53 -1.53,-0.53 h -1.41 l -0.04,-0.26 h 1.7 c 1.41,0 2.79,1.04 2.79,2.15 0,0.77 -0.65,1.51 -1.96,1.51 h -3.23 c -0.19,0 -0.29,0 -0.29,-0.19 0,-0.12 0.08,-0.12 0.28,-0.12 0.13,0 0.31,-0.01 0.43,-0.02 0.16,-0.02 0.22,-0.05 0.22,-0.16 0,-0.04 -0.01,-0.07 -0.04,-0.19 l -1.33,-5.35 c -0.1,-0.39 -0.12,-0.47 -0.91,-0.47 -0.17,0 -0.28,0 -0.28,-0.19 0,-0.12 0.12,-0.12 0.15,-0.12 0.28,0 0.99,0.03 1.27,0.03 0.21,0 0.42,-0.01 0.63,-0.01 0.22,0 0.44,-0.02 0.65,-0.02 0.07,0 0.2,0 0.2,0.2 0,0.11 -0.09,0.11 -0.28,0.11 -0.37,0 -0.65,0 -0.65,0.18 0,0.06 0.02,0.11 0.03,0.17 z"
   inkscape:connector-curvature="0"
   style="fill:#000000;stroke-width:0" />
</g>  <g
     id="g4325"
     transform="matrix(4,0,0,-4,-588.86095,3140.5403)"
     xml:space="preserve"
     stroke-miterlimit="10.433"
     font-style="normal"
     font-variant="normal"
     font-weight="normal"
     font-stretch="normal"
     font-size-adjust="none"
     letter-spacing="normal"
     word-spacing="normal"
     ns0:text="$Q$"
     ns0:preamble=""
     style="font-style:normal;font-variant:normal;font-weight:normal;font-stretch:normal;letter-spacing:normal;word-spacing:normal;text-anchor:start;fill:none;stroke:#000000;stroke-linecap:butt;stroke-linejoin:miter;stroke-miterlimit:10.43299961;stroke-opacity:1;stroke-dasharray:none;stroke-dashoffset:0">
<path
   style="fill:#000000;stroke-width:0"
   inkscape:connector-curvature="0"
   d="m 227.8,707.18 0.14,0.06 0.14,0.07 0.15,0.07 0.14,0.08 0.14,0.08 0.14,0.09 0.13,0.1 0.14,0.1 0.13,0.11 0.13,0.11 0.12,0.12 0.13,0.12 0.12,0.13 0.11,0.13 0.11,0.13 0.11,0.14 0.1,0.15 0.1,0.14 0.09,0.16 0.09,0.15 0.08,0.16 0.08,0.16 0.07,0.16 0.06,0.17 0.06,0.17 0.05,0.17 0.04,0.17 0.04,0.17 0.03,0.18 0.02,0.18 0.01,0.18 0,0.18 c 0,1.6 -1.05,2.68 -2.54,2.68 l -0.05,-0.25 c 0.99,0 1.72,-0.78 1.72,-2.12 0,-0.99 -0.51,-3.32 -2.18,-4.26 -0.05,0.35 -0.15,1.08 -0.88,1.08 v -0.22 c 0.42,0 0.61,-0.24 0.61,-0.85 0,-0.15 -0.01,-0.16 -0.11,-0.2 -0.26,-0.11 -0.56,-0.18 -0.84,-0.18 h 0 c -0.14,0 -0.46,0 -0.46,0.43 0,0.4 0.38,0.8 0.8,0.8 v 0.22 c -0.53,0 -1.02,-0.5 -1.02,-1.02 0,-0.2 0.06,-0.31 0.06,-0.32 h 0 c -0.77,0.31 -1.11,1.09 -1.11,1.98 0,0.69 0.26,2.11 1.01,3.18 0.73,1.02 1.67,1.48 2.4,1.48 l 0.05,0.25 c -2.15,0 -4.34,-2.26 -4.34,-4.59 0,-1.65 1.12,-2.66 2.55,-2.66 0.25,0 0.59,0.04 0.98,0.15 -0.04,-0.62 -0.04,-0.64 -0.04,-0.76 0,-0.32 0,-1.1 0.82,-1.1 1.19,0 1.67,1.82 1.67,1.93 0,0.07 -0.07,0.1 -0.11,0.1 -0.08,0 -0.1,-0.05 -0.12,-0.11 -0.24,-0.7 -0.82,-0.95 -1.17,-0.95 -0.46,0 -0.6,0.26 -0.7,1.02 z"
   id="path4327" />
</g>  <g
     style="font-style:normal;font-variant:normal;font-weight:normal;font-stretch:normal;letter-spacing:normal;word-spacing:normal;text-anchor:start;fill:none;stroke:#000000;stroke-linecap:butt;stroke-linejoin:miter;stroke-miterlimit:10.43299961;stroke-opacity:1;stroke-dasharray:none;stroke-dashoffset:0"
     ns0:preamble=""
     ns0:text="$dl_{PQ}$"
     word-spacing="normal"
     letter-spacing="normal"
     font-size-adjust="none"
     font-stretch="normal"
     font-weight="normal"
     font-variant="normal"
     font-style="normal"
     stroke-miterlimit="10.433"
     xml:space="preserve"
     transform="matrix(4,0,0,-4,-544.33655,3250.1813)"
     id="g4968">
<path
   id="path4970"
   d="m 228.57,713.93 0,0 0,0 0,0 0,0 0,0 0,0.01 0,0 0,0 0,0.01 0,0 0,0.01 0,0 0,0.01 -0.01,0 0,0.01 0,0 0,0.01 -0.01,0 0,0.01 0,0 -0.01,0 0,0.01 0,0 -0.01,0 0,0 0,0.01 0,0 -0.01,0 0,0 0,0 -0.01,0 0,0.01 -0.01,0 0,0 0,0 -0.01,0 0,0 -0.01,0 0,0 -0.01,0.01 0,0 -0.01,0 0,0 -0.01,0 -0.01,0 c -0.15,0 -1.09,-0.09 -1.26,-0.11 -0.08,-0.01 -0.14,-0.06 -0.14,-0.19 0,-0.12 0.09,-0.12 0.24,-0.12 0.48,0 0.5,-0.07 0.5,-0.17 l -0.03,-0.2 -0.6,-2.36 c -0.18,0.37 -0.47,0.64 -0.92,0.64 l 0.01,-0.22 c 0.65,0 0.79,-0.82 0.79,-0.88 0,-0.06 -0.02,-0.12 -0.03,-0.17 l -0.5,-1.95 c -0.05,-0.18 -0.05,-0.2 -0.2,-0.37 -0.44,-0.55 -0.84,-0.71 -1.12,-0.71 -0.5,0 -0.64,0.55 -0.64,0.94 0,0.5 0.32,1.72 0.55,2.18 0.31,0.59 0.75,0.96 1.15,0.96 l -0.01,0.22 c -1.16,0 -2.4,-1.47 -2.4,-2.92 0,-0.94 0.55,-1.6 1.33,-1.6 0.19,0 0.69,0.04 1.29,0.75 0.08,-0.42 0.43,-0.75 0.91,-0.75 0.35,0 0.58,0.23 0.74,0.55 0.16,0.36 0.29,0.97 0.29,0.99 0,0.1 -0.09,0.1 -0.12,0.1 -0.09,0 -0.11,-0.04 -0.14,-0.18 -0.17,-0.65 -0.34,-1.24 -0.75,-1.24 -0.27,0 -0.3,0.26 -0.3,0.46 0,0.24 0.02,0.31 0.06,0.48 z"
   inkscape:connector-curvature="0"
   style="fill:#000000;stroke-width:0" />
<path
   id="path4972"
   d="m 231.18,713.93 0,0 0,0 0,0 0,0 0,0 0,0.01 0,0 0,0 0,0.01 0,0 0,0.01 0,0 0,0.01 0,0 -0.01,0.01 0,0 0,0.01 0,0 -0.01,0.01 0,0 -0.01,0 0,0.01 0,0 0,0 -0.01,0 0,0.01 0,0 -0.01,0 0,0 0,0 -0.01,0 0,0.01 0,0 -0.01,0 0,0 -0.01,0 0,0 -0.01,0 0,0 -0.01,0.01 0,0 -0.01,0 0,0 -0.01,0 0,0 c -0.23,0 -0.96,-0.08 -1.22,-0.1 -0.08,-0.01 -0.19,-0.02 -0.19,-0.21 0,-0.11 0.1,-0.11 0.25,-0.11 0.48,0 0.49,-0.09 0.49,-0.17 l -0.03,-0.2 -1.26,-4.98 c -0.03,-0.11 -0.05,-0.18 -0.05,-0.34 0,-0.57 0.44,-0.92 0.91,-0.92 0.33,0 0.58,0.2 0.75,0.56 0.18,0.38 0.3,0.96 0.3,0.98 0,0.1 -0.09,0.1 -0.12,0.1 -0.1,0 -0.11,-0.04 -0.14,-0.18 -0.17,-0.65 -0.36,-1.24 -0.76,-1.24 -0.3,0 -0.3,0.32 -0.3,0.46 0,0.24 0.01,0.29 0.06,0.48 z"
   inkscape:connector-curvature="0"
   style="fill:#000000;stroke-width:0" />
<path
   id="path4974"
   d="m 233.97,707.79 0.03,0.23 0.47,1.89 c 0.06,0.21 0.07,0.23 0.36,0.23 h 0.81 c 0.65,0 1.06,-0.19 1.06,-0.69 0,-0.22 -0.09,-0.77 -0.44,-1.08 -0.25,-0.22 -0.64,-0.35 -1.15,-0.35 H 234 l -0.03,-0.23 h 1.26 c 1.18,0 2.18,0.75 2.18,1.51 0,0.59 -0.57,1.09 -1.53,1.09 h -2.44 c -0.14,0 -0.22,0 -0.22,-0.15 0,-0.1 0.07,-0.1 0.23,-0.1 0.11,0 0.14,0 0.26,-0.01 0.14,-0.02 0.16,-0.03 0.16,-0.1 0,-0.01 0,-0.05 -0.03,-0.15 l -0.92,-3.68 c -0.07,-0.27 -0.08,-0.32 -0.62,-0.32 -0.13,0 -0.21,0 -0.21,-0.15 0,-0.01 0,-0.1 0.11,-0.1 0.2,0 0.7,0.03 0.91,0.03 0.11,0 0.36,0 0.48,-0.01 0.14,-0.01 0.31,-0.02 0.44,-0.02 0.04,0 0.15,0 0.15,0.15 0,0.1 -0.08,0.1 -0.22,0.1 -0.01,0 -0.14,0 -0.27,0.02 -0.16,0.01 -0.16,0.03 -0.16,0.1 0,0.01 0,0.05 0.03,0.15 z"
   inkscape:connector-curvature="0"
   style="fill:#000000;stroke-width:0" />
<path
   id="path4976"
   d="m 240.98,705.21 0,-0.08 0,-0.09 0.01,-0.04 0,-0.04 0.01,-0.04 0,-0.05 0.01,-0.04 0.01,-0.04 0.01,-0.04 0.01,-0.03 0.01,-0.04 0.01,-0.04 0.02,-0.03 0.01,-0.04 0.02,-0.03 0.02,-0.03 0.03,-0.03 0.02,-0.03 0.03,-0.02 0.02,-0.03 0.03,-0.02 0.04,-0.02 0.03,-0.02 0.04,-0.02 0.04,-0.01 0.02,-0.01 0.02,0 0.02,-0.01 0.02,0 0.02,0 0.03,-0.01 0.02,0 0.03,0 0.02,0 0.03,0 c 0.84,0 1.25,1.2 1.25,1.35 0,0.05 -0.04,0.1 -0.1,0.1 -0.07,0 -0.09,-0.07 -0.1,-0.09 -0.16,-0.49 -0.62,-0.63 -0.86,-0.63 -0.28,0 -0.43,0.12 -0.55,0.68 1.24,0.43 2.24,1.67 2.24,2.9 0,1.1 -0.79,1.94 -2.03,1.94 -1.66,0 -3.27,-1.56 -3.27,-3.13 0,-1.12 0.83,-1.91 2.03,-1.91 l 0.04,0.22 c -0.11,0 -0.35,0 -0.35,0.28 0,0.26 0.29,0.5 0.58,0.5 v 0.19 c -0.39,0 -0.78,-0.33 -0.78,-0.69 0,-0.13 0.01,-0.14 0.03,-0.19 h 0 c -0.36,0.13 -0.88,0.49 -0.88,1.43 0,0.44 0.15,1.37 0.78,2.16 0.44,0.54 1.12,0.92 1.77,0.92 0.76,0 1.4,-0.51 1.4,-1.53 0,-0.69 -0.34,-2.19 -1.62,-2.83 -0.11,0.44 -0.29,0.73 -0.7,0.73 v -0.19 c 0.25,0 0.44,-0.11 0.46,-0.65 h 0 c -0.16,-0.06 -0.41,-0.13 -0.69,-0.13 l -0.04,-0.22 c 0.13,0 0.37,0.01 0.73,0.1 z"
   inkscape:connector-curvature="0"
   style="fill:#000000;stroke-width:0" />
</g>  <g
     style="font-style:normal;font-variant:normal;font-weight:normal;font-stretch:normal;letter-spacing:normal;word-spacing:normal;text-anchor:start;fill:#ff0000;fill-opacity:1;fill-rule:evenodd;stroke:#000000;stroke-linecap:butt;stroke-linejoin:miter;stroke-miterlimit:10.43299961;stroke-opacity:1;stroke-dasharray:none;stroke-dashoffset:0"
     ns0:preamble=""
     ns0:text="$\\varepsilon\\xi^i(Q)$"
     word-spacing="normal"
     letter-spacing="normal"
     font-size-adjust="none"
     font-stretch="normal"
     font-weight="normal"
     font-variant="normal"
     font-style="normal"
     stroke-miterlimit="10.433"
     xml:space="preserve"
     transform="matrix(4,0,0,-4,-466.52716,3083.7233)"
     id="g5252">
<path
   id="path5254"
   d="m 224.84,709.38 0.03,-0.01 0.03,-0.01 0.03,-0.01 0.03,-0.01 0.03,-0.01 0.03,-0.01 0.03,-0.01 0.03,-0.01 0.02,0 0.03,-0.01 0.06,-0.01 0.06,-0.01 0.05,-0.01 0.05,0 0.05,-0.01 0.06,0 0.05,0 0.04,0 0.05,0 0.05,0 0.04,-0.01 v 0.22 c -0.21,0 -0.34,0 -0.52,0.05 h 0 c 0.23,0.08 0.43,0.09 0.6,0.09 0.25,0 0.29,-0.01 0.47,-0.06 -0.15,-0.07 -0.17,-0.08 -0.55,-0.08 v -0.22 c 0.26,0 0.81,0 0.81,0.31 0,0.24 -0.35,0.27 -0.73,0.27 -0.21,0 -0.55,-0.02 -0.92,-0.19 -0.23,0.12 -0.4,0.31 -0.4,0.58 0,0.61 0.98,0.97 1.87,0.97 0.16,0 0.52,0 0.92,-0.28 0.11,-0.08 0.13,-0.1 0.2,-0.1 0.13,0 0.27,0.13 0.27,0.27 0,0.19 -0.61,0.57 -1.29,0.57 -1.14,0 -2.22,-0.67 -2.22,-1.43 0,-0.43 0.36,-0.68 0.4,-0.71 -0.59,-0.33 -0.91,-0.88 -0.91,-1.34 0,-0.65 0.57,-1.26 1.63,-1.26 1.31,0 1.87,0.88 1.87,1.03 0,0.06 -0.05,0.1 -0.11,0.1 -0.05,0 -0.08,-0.04 -0.1,-0.07 -0.14,-0.23 -0.38,-0.6 -1.58,-0.6 -0.6,0 -1.45,0.15 -1.45,0.86 0,0.34 0.28,0.87 0.89,1.16 z"
   inkscape:connector-curvature="0"
   style="fill:#ff0000;stroke-width:0" />
<path
   id="path5256"
   d="m 229.61,710.17 -0.1,-0.07 -0.09,-0.07 -0.09,-0.07 -0.09,-0.07 -0.08,-0.07 -0.07,-0.07 -0.08,-0.07 -0.06,-0.08 -0.07,-0.07 -0.05,-0.07 -0.06,-0.07 -0.05,-0.08 -0.05,-0.07 -0.04,-0.07 -0.04,-0.07 -0.04,-0.07 -0.03,-0.07 -0.04,-0.07 -0.02,-0.06 -0.03,-0.07 -0.02,-0.06 -0.02,-0.06 -0.02,-0.06 -0.01,-0.06 -0.02,-0.05 -0.01,-0.05 -0.01,-0.05 0,-0.05 -0.01,-0.05 0,-0.04 -0.01,-0.04 0,-0.03 c 0,-0.48 0.27,-0.76 0.29,-0.79 0.32,-0.33 0.41,-0.37 1.16,-0.65 0.6,-0.24 0.62,-0.24 1.2,-0.46 0.15,-0.07 0.35,-0.14 0.35,-0.43 0,-0.23 -0.18,-0.53 -0.48,-0.53 -0.44,0 -0.77,0.24 -0.88,0.32 -0.06,0.04 -0.07,0.05 -0.11,0.05 -0.08,0 -0.1,-0.07 -0.1,-0.11 0,-0.12 0.53,-0.48 1.09,-0.48 0.61,0 1.03,0.58 1.03,1.07 0,0.47 -0.37,0.65 -0.48,0.7 -0.14,0.05 -0.48,0.18 -0.61,0.23 -0.19,0.08 -0.39,0.16 -0.6,0.23 l -0.6,0.24 c -0.45,0.18 -0.75,0.47 -0.75,0.89 0,0.41 0.39,1.27 1.23,1.69 0.37,-0.13 0.67,-0.13 0.87,-0.13 0.3,0 0.93,0 0.93,0.31 0,0.25 -0.43,0.27 -0.82,0.27 l -0.01,-0.22 c 0.35,0 0.39,-0.01 0.57,-0.06 -0.08,-0.04 -0.18,-0.08 -0.64,-0.08 -0.23,0 -0.32,0 -0.49,0.08 h 0 c 0.23,0.06 0.44,0.06 0.56,0.06 l 0.01,0.22 c -0.17,0 -0.46,0 -0.83,-0.12 -0.26,0.26 -0.3,0.59 -0.3,0.78 0,0.55 0.36,1.32 1.1,1.69 0.18,-0.22 0.41,-0.22 0.64,-0.22 0.25,0 0.89,0 0.89,0.31 0,0.26 -0.44,0.27 -0.83,0.27 l 0.01,-0.22 c 0.34,0 0.38,-0.01 0.56,-0.06 -0.08,-0.03 -0.18,-0.08 -0.62,-0.08 -0.19,0 -0.31,0 -0.42,0.09 h 0 c 0.16,0.05 0.37,0.05 0.48,0.05 l -0.01,0.22 c -0.13,0 -0.37,0 -0.63,-0.05 -0.03,0.09 -0.05,0.16 -0.05,0.33 0,0.14 0.05,0.35 0.05,0.37 0,0.08 -0.05,0.13 -0.12,0.13 -0.18,0 -0.18,-0.46 -0.18,-0.49 0,-0.2 0.06,-0.35 0.08,-0.39 -1.07,-0.3 -1.75,-1.1 -1.75,-1.86 0,-0.37 0.18,-0.79 0.65,-1.06 z"
   inkscape:connector-curvature="0"
   style="fill:#ff0000;stroke-width:0" />
<path
   id="path5258"
   d="m 235.16,715.1 0,0.01 0,0.01 -0.01,0.01 0,0.01 0,0.01 0,0.01 -0.01,0.01 0,0.01 0,0.02 -0.01,0.01 0,0.01 -0.01,0.01 -0.01,0.01 0,0.01 -0.01,0.01 -0.01,0.01 -0.01,0.01 -0.01,0.01 -0.01,0.01 -0.01,0.01 -0.01,0 -0.01,0.01 -0.01,0.01 -0.02,0.01 -0.01,0 -0.01,0.01 -0.02,0 -0.01,0 -0.02,0.01 -0.02,0 -0.01,0 -0.02,0 c -0.19,0 -0.39,-0.18 -0.39,-0.38 0,-0.12 0.09,-0.27 0.28,-0.27 0.2,0 0.39,0.2 0.39,0.39 z"
   inkscape:connector-curvature="0"
   style="fill:#ff0000;stroke-width:0" />
<path
   id="path5260"
   d="m 233.73,711.55 -0.01,-0.03 -0.01,-0.03 0,-0.02 -0.01,-0.02 0,-0.02 -0.01,-0.01 0,-0.02 -0.01,-0.02 0,-0.02 0,-0.02 0,-0.02 -0.01,-0.01 0,-0.01 0,-0.01 0,-0.01 0,-0.01 0,-0.01 c 0,-0.33 0.28,-0.59 0.66,-0.59 0.7,0 1.01,0.96 1.01,1.06 0,0.1 -0.09,0.1 -0.11,0.1 -0.1,0 -0.11,-0.05 -0.14,-0.12 -0.16,-0.56 -0.46,-0.85 -0.74,-0.85 -0.13,0 -0.17,0.09 -0.17,0.25 0,0.16 0.05,0.29 0.11,0.44 0.07,0.19 0.15,0.38 0.22,0.56 0.07,0.17 0.32,0.8 0.35,0.89 0.02,0.07 0.04,0.15 0.04,0.22 0,0.33 -0.28,0.59 -0.66,0.59 -0.69,0 -1.01,-0.95 -1.01,-1.06 0,-0.09 0.09,-0.09 0.11,-0.09 0.1,0 0.11,0.03 0.13,0.11 0.18,0.6 0.49,0.85 0.75,0.85 0.11,0 0.17,-0.06 0.17,-0.25 0,-0.16 -0.04,-0.26 -0.22,-0.69 z"
   inkscape:connector-curvature="0"
   style="fill:#ff0000;stroke-width:0" />
<path
   id="path5262"
   d="m 239.51,704.73 0,0.01 0,0 0,0.01 0,0 0,0 0,0 0,0.01 -0.01,0 0,0.01 0,0 0,0 0,0.01 -0.01,0 0,0.01 -0.01,0 0,0.01 -0.01,0.01 0,0 0,0.01 -0.01,0 0,0.01 0,0 -0.01,0.01 0,0 -0.01,0 0,0.01 -0.01,0 0,0.01 -0.01,0 0,0.01 -0.01,0.01 0,0 -0.01,0.01 0,0 -0.01,0.01 -0.01,0.01 0,0 -0.01,0.01 -0.01,0.01 0,0.01 -0.01,0 -0.01,0.01 c -1.24,1.26 -1.56,3.14 -1.56,4.66 0,1.74 0.37,3.47 1.6,4.72 0.13,0.12 0.13,0.14 0.13,0.16 0,0.08 -0.04,0.1 -0.1,0.1 -0.1,0 -1,-0.67 -1.58,-1.94 -0.51,-1.09 -0.63,-2.2 -0.63,-3.04 0,-0.77 0.11,-1.98 0.66,-3.1 0.59,-1.23 1.45,-1.88 1.55,-1.88 0.06,0 0.1,0.03 0.1,0.1 z"
   inkscape:connector-curvature="0"
   style="fill:#ff0000;stroke-width:0" />
<path
   id="path5264"
   d="m 244.45,707.18 0.14,0.06 0.14,0.07 0.15,0.07 0.14,0.08 0.14,0.08 0.14,0.09 0.13,0.1 0.14,0.1 0.13,0.11 0.13,0.11 0.12,0.12 0.13,0.12 0.12,0.13 0.11,0.13 0.11,0.13 0.11,0.14 0.1,0.15 0.1,0.14 0.09,0.16 0.09,0.15 0.08,0.16 0.08,0.16 0.07,0.16 0.06,0.17 0.06,0.17 0.05,0.17 0.04,0.17 0.04,0.17 0.03,0.18 0.02,0.18 0.01,0.18 0.01,0.18 c 0,1.6 -1.06,2.68 -2.55,2.68 l -0.06,-0.25 c 1,0 1.73,-0.78 1.73,-2.12 0,-0.99 -0.51,-3.32 -2.18,-4.26 -0.05,0.35 -0.15,1.08 -0.88,1.08 v -0.22 c 0.42,0 0.61,-0.24 0.61,-0.85 0,-0.15 -0.01,-0.16 -0.11,-0.2 -0.26,-0.11 -0.56,-0.18 -0.84,-0.18 h 0 c -0.14,0 -0.46,0 -0.46,0.43 0,0.4 0.38,0.8 0.8,0.8 v 0.22 c -0.53,0 -1.02,-0.5 -1.02,-1.02 0,-0.2 0.06,-0.31 0.06,-0.32 h 0 c -0.77,0.31 -1.11,1.09 -1.11,1.98 0,0.69 0.26,2.11 1.01,3.18 0.73,1.02 1.67,1.48 2.39,1.48 l 0.06,0.25 c -2.15,0 -4.34,-2.26 -4.34,-4.59 0,-1.65 1.12,-2.66 2.55,-2.66 0.25,0 0.59,0.04 0.98,0.15 -0.04,-0.62 -0.04,-0.64 -0.04,-0.76 0,-0.32 0,-1.1 0.82,-1.1 1.19,0 1.67,1.82 1.67,1.93 0,0.07 -0.07,0.1 -0.11,0.1 -0.08,0 -0.1,-0.05 -0.12,-0.11 -0.24,-0.7 -0.82,-0.95 -1.17,-0.95 -0.45,0 -0.6,0.26 -0.7,1.02 z"
   inkscape:connector-curvature="0"
   style="fill:#ff0000;stroke-width:0" />
<path
   id="path5266"
   d="m 250.84,709.61 0,0.08 0,0.07 0,0.08 0,0.08 -0.01,0.17 -0.01,0.18 -0.02,0.18 -0.02,0.19 -0.03,0.2 -0.03,0.2 -0.04,0.2 -0.04,0.21 -0.06,0.21 -0.06,0.21 -0.07,0.21 -0.08,0.22 -0.04,0.1 -0.05,0.11 -0.04,0.11 -0.05,0.1 c -0.6,1.23 -1.46,1.87 -1.56,1.87 -0.06,0 -0.1,-0.04 -0.1,-0.1 0,-0.02 0,-0.04 0.19,-0.22 0.98,-0.99 1.55,-2.57 1.55,-4.66 0,-1.7 -0.37,-3.45 -1.61,-4.71 -0.13,-0.12 -0.13,-0.14 -0.13,-0.17 0,-0.06 0.04,-0.1 0.1,-0.1 0.1,0 1,0.68 1.59,1.95 0.51,1.09 0.62,2.2 0.62,3.03 z"
   inkscape:connector-curvature="0"
   style="fill:#ff0000;stroke-width:0" />
</g>  <g
     id="g5381"
     transform="matrix(4,0,0,-4,-476.38435,3361.4495)"
     xml:space="preserve"
     stroke-miterlimit="10.433"
     font-style="normal"
     font-variant="normal"
     font-weight="normal"
     font-stretch="normal"
     font-size-adjust="none"
     letter-spacing="normal"
     word-spacing="normal"
     ns0:text="$\\varepsilon\\xi^i(P)$"
     ns0:preamble=""
     style="font-style:normal;font-variant:normal;font-weight:normal;font-stretch:normal;letter-spacing:normal;word-spacing:normal;text-anchor:start;fill:#ff0000;fill-opacity:1;fill-rule:evenodd;stroke:#000000;stroke-linecap:butt;stroke-linejoin:miter;stroke-miterlimit:10.43299961;stroke-opacity:1;stroke-dasharray:none;stroke-dashoffset:0">
<path
   inkscape:connector-curvature="0"
   style="fill:#ff0000;stroke-width:0"
   d="m 224.84,709.38 0.03,-0.01 0.03,-0.01 0.03,-0.01 0.03,-0.01 0.03,-0.01 0.03,-0.01 0.03,-0.01 0.03,-0.01 0.02,0 0.03,-0.01 0.06,-0.01 0.06,-0.01 0.05,-0.01 0.05,0 0.05,-0.01 0.06,0 0.05,0 0.04,0 0.05,0 0.05,0 0.04,-0.01 v 0.22 c -0.21,0 -0.34,0 -0.52,0.05 h 0 c 0.23,0.08 0.43,0.09 0.6,0.09 0.25,0 0.29,-0.01 0.47,-0.06 -0.15,-0.07 -0.17,-0.08 -0.55,-0.08 v -0.22 c 0.26,0 0.81,0 0.81,0.31 0,0.24 -0.35,0.27 -0.73,0.27 -0.21,0 -0.55,-0.02 -0.92,-0.19 -0.23,0.12 -0.4,0.31 -0.4,0.58 0,0.61 0.98,0.97 1.87,0.97 0.16,0 0.52,0 0.92,-0.28 0.11,-0.08 0.13,-0.1 0.2,-0.1 0.13,0 0.27,0.13 0.27,0.27 0,0.19 -0.61,0.57 -1.29,0.57 -1.14,0 -2.22,-0.67 -2.22,-1.43 0,-0.43 0.36,-0.68 0.4,-0.71 -0.59,-0.33 -0.91,-0.88 -0.91,-1.34 0,-0.65 0.57,-1.26 1.63,-1.26 1.31,0 1.87,0.88 1.87,1.03 0,0.06 -0.05,0.1 -0.11,0.1 -0.05,0 -0.08,-0.04 -0.1,-0.07 -0.14,-0.23 -0.38,-0.6 -1.58,-0.6 -0.6,0 -1.45,0.15 -1.45,0.86 0,0.34 0.28,0.87 0.89,1.16 z"
   id="path5383" />
<path
   inkscape:connector-curvature="0"
   style="fill:#ff0000;stroke-width:0"
   d="m 229.61,710.17 -0.1,-0.07 -0.09,-0.07 -0.09,-0.07 -0.09,-0.07 -0.08,-0.07 -0.07,-0.07 -0.08,-0.07 -0.06,-0.08 -0.07,-0.07 -0.05,-0.07 -0.06,-0.07 -0.05,-0.08 -0.05,-0.07 -0.04,-0.07 -0.04,-0.07 -0.04,-0.07 -0.03,-0.07 -0.04,-0.07 -0.02,-0.06 -0.03,-0.07 -0.02,-0.06 -0.02,-0.06 -0.02,-0.06 -0.01,-0.06 -0.02,-0.05 -0.01,-0.05 -0.01,-0.05 0,-0.05 -0.01,-0.05 0,-0.04 -0.01,-0.04 0,-0.03 c 0,-0.48 0.27,-0.76 0.29,-0.79 0.32,-0.33 0.41,-0.37 1.16,-0.65 0.6,-0.24 0.62,-0.24 1.2,-0.46 0.15,-0.07 0.35,-0.14 0.35,-0.43 0,-0.23 -0.18,-0.53 -0.48,-0.53 -0.44,0 -0.77,0.24 -0.88,0.32 -0.06,0.04 -0.07,0.05 -0.11,0.05 -0.08,0 -0.1,-0.07 -0.1,-0.11 0,-0.12 0.53,-0.48 1.09,-0.48 0.61,0 1.03,0.58 1.03,1.07 0,0.47 -0.37,0.65 -0.48,0.7 -0.14,0.05 -0.48,0.18 -0.61,0.23 -0.19,0.08 -0.39,0.16 -0.6,0.23 l -0.6,0.24 c -0.45,0.18 -0.75,0.47 -0.75,0.89 0,0.41 0.39,1.27 1.23,1.69 0.37,-0.13 0.67,-0.13 0.87,-0.13 0.3,0 0.93,0 0.93,0.31 0,0.25 -0.43,0.27 -0.82,0.27 l -0.01,-0.22 c 0.35,0 0.39,-0.01 0.57,-0.06 -0.08,-0.04 -0.18,-0.08 -0.64,-0.08 -0.23,0 -0.32,0 -0.49,0.08 h 0 c 0.23,0.06 0.44,0.06 0.56,0.06 l 0.01,0.22 c -0.17,0 -0.46,0 -0.83,-0.12 -0.26,0.26 -0.3,0.59 -0.3,0.78 0,0.55 0.36,1.32 1.1,1.69 0.18,-0.22 0.41,-0.22 0.64,-0.22 0.25,0 0.89,0 0.89,0.31 0,0.26 -0.44,0.27 -0.83,0.27 l 0.01,-0.22 c 0.34,0 0.38,-0.01 0.56,-0.06 -0.08,-0.03 -0.18,-0.08 -0.62,-0.08 -0.19,0 -0.31,0 -0.42,0.09 h 0 c 0.16,0.05 0.37,0.05 0.48,0.05 l -0.01,0.22 c -0.13,0 -0.37,0 -0.63,-0.05 -0.03,0.09 -0.05,0.16 -0.05,0.33 0,0.14 0.05,0.35 0.05,0.37 0,0.08 -0.05,0.13 -0.12,0.13 -0.18,0 -0.18,-0.46 -0.18,-0.49 0,-0.2 0.06,-0.35 0.08,-0.39 -1.07,-0.3 -1.75,-1.1 -1.75,-1.86 0,-0.37 0.18,-0.79 0.65,-1.06 z"
   id="path5385" />
<path
   inkscape:connector-curvature="0"
   style="fill:#ff0000;stroke-width:0"
   d="m 235.16,715.1 0,0.01 0,0.01 -0.01,0.01 0,0.01 0,0.01 0,0.01 -0.01,0.01 0,0.01 0,0.02 -0.01,0.01 0,0.01 -0.01,0.01 -0.01,0.01 0,0.01 -0.01,0.01 -0.01,0.01 -0.01,0.01 -0.01,0.01 -0.01,0.01 -0.01,0.01 -0.01,0 -0.01,0.01 -0.01,0.01 -0.02,0.01 -0.01,0 -0.01,0.01 -0.02,0 -0.01,0 -0.02,0.01 -0.02,0 -0.01,0 -0.02,0 c -0.19,0 -0.39,-0.18 -0.39,-0.38 0,-0.12 0.09,-0.27 0.28,-0.27 0.2,0 0.39,0.2 0.39,0.39 z"
   id="path5387" />
<path
   inkscape:connector-curvature="0"
   style="fill:#ff0000;stroke-width:0"
   d="m 233.73,711.55 -0.01,-0.03 -0.01,-0.03 0,-0.02 -0.01,-0.02 0,-0.02 -0.01,-0.01 0,-0.02 -0.01,-0.02 0,-0.02 0,-0.02 0,-0.02 -0.01,-0.01 0,-0.01 0,-0.01 0,-0.01 0,-0.01 0,-0.01 c 0,-0.33 0.28,-0.59 0.66,-0.59 0.7,0 1.01,0.96 1.01,1.06 0,0.1 -0.09,0.1 -0.11,0.1 -0.1,0 -0.11,-0.05 -0.14,-0.12 -0.16,-0.56 -0.46,-0.85 -0.74,-0.85 -0.13,0 -0.17,0.09 -0.17,0.25 0,0.16 0.05,0.29 0.11,0.44 0.07,0.19 0.15,0.38 0.22,0.56 0.07,0.17 0.32,0.8 0.35,0.89 0.02,0.07 0.04,0.15 0.04,0.22 0,0.33 -0.28,0.59 -0.66,0.59 -0.69,0 -1.01,-0.95 -1.01,-1.06 0,-0.09 0.09,-0.09 0.11,-0.09 0.1,0 0.11,0.03 0.13,0.11 0.18,0.6 0.49,0.85 0.75,0.85 0.11,0 0.17,-0.06 0.17,-0.25 0,-0.16 -0.04,-0.26 -0.22,-0.69 z"
   id="path5389" />
<path
   inkscape:connector-curvature="0"
   style="fill:#ff0000;stroke-width:0"
   d="m 239.51,704.73 0,0.01 0,0 0,0.01 0,0 0,0 0,0 0,0.01 -0.01,0 0,0.01 0,0 0,0 0,0.01 -0.01,0 0,0.01 -0.01,0 0,0.01 -0.01,0.01 0,0 0,0.01 -0.01,0 0,0.01 0,0 -0.01,0.01 0,0 -0.01,0 0,0.01 -0.01,0 0,0.01 -0.01,0 0,0.01 -0.01,0.01 0,0 -0.01,0.01 0,0 -0.01,0.01 -0.01,0.01 0,0 -0.01,0.01 -0.01,0.01 0,0.01 -0.01,0 -0.01,0.01 c -1.24,1.26 -1.56,3.14 -1.56,4.66 0,1.74 0.37,3.47 1.6,4.72 0.13,0.12 0.13,0.14 0.13,0.16 0,0.08 -0.04,0.1 -0.1,0.1 -0.1,0 -1,-0.67 -1.58,-1.94 -0.51,-1.09 -0.63,-2.2 -0.63,-3.04 0,-0.77 0.11,-1.98 0.66,-3.1 0.59,-1.23 1.45,-1.88 1.55,-1.88 0.06,0 0.1,0.03 0.1,0.1 z"
   id="path5391" />
<path
   inkscape:connector-curvature="0"
   style="fill:#ff0000;stroke-width:0"
   d="m 243.1,710.27 0.04,0.26 0.68,2.71 c 0.09,0.35 0.11,0.38 0.54,0.38 h 0.95 c 0.83,0 1.36,-0.27 1.36,-0.96 0,-0.39 -0.2,-1.24 -0.59,-1.6 -0.5,-0.45 -1.1,-0.53 -1.53,-0.53 h -1.41 l -0.04,-0.26 h 1.69 c 1.42,0 2.8,1.04 2.8,2.15 0,0.77 -0.65,1.51 -1.96,1.51 h -3.23 c -0.19,0 -0.3,0 -0.3,-0.19 0,-0.12 0.1,-0.12 0.29,-0.12 0.13,0 0.31,-0.01 0.43,-0.02 0.16,-0.02 0.22,-0.05 0.22,-0.16 0,-0.04 -0.01,-0.07 -0.04,-0.19 l -1.33,-5.35 c -0.1,-0.39 -0.12,-0.47 -0.91,-0.47 -0.17,0 -0.28,0 -0.28,-0.19 0,-0.12 0.12,-0.12 0.15,-0.12 0.28,0 0.99,0.03 1.27,0.03 0.2,0 0.42,-0.01 0.63,-0.01 0.22,0 0.44,-0.02 0.65,-0.02 0.07,0 0.2,0 0.2,0.2 0,0.11 -0.09,0.11 -0.28,0.11 -0.37,0 -0.65,0 -0.65,0.18 0,0.06 0.02,0.11 0.03,0.17 z"
   id="path5393" />
<path
   inkscape:connector-curvature="0"
   style="fill:#ff0000;stroke-width:0"
   d="m 250.75,709.61 0,0.08 0,0.07 -0.01,0.08 0,0.08 -0.01,0.17 -0.01,0.18 -0.02,0.18 -0.02,0.19 -0.02,0.2 -0.04,0.2 -0.04,0.2 -0.04,0.21 -0.06,0.21 -0.06,0.21 -0.07,0.21 -0.08,0.22 -0.04,0.1 -0.04,0.11 -0.05,0.11 -0.05,0.1 c -0.6,1.23 -1.46,1.87 -1.55,1.87 -0.06,0 -0.11,-0.04 -0.11,-0.1 0,-0.02 0,-0.04 0.19,-0.22 0.98,-0.99 1.55,-2.57 1.55,-4.66 0,-1.7 -0.37,-3.45 -1.6,-4.71 -0.14,-0.12 -0.14,-0.14 -0.14,-0.17 0,-0.06 0.05,-0.1 0.11,-0.1 0.09,0 0.99,0.68 1.58,1.95 0.51,1.09 0.63,2.2 0.63,3.03 z"
   id="path5395" />
</g>  <g
     style="font-style:normal;font-variant:normal;font-weight:normal;font-stretch:normal;letter-spacing:normal;word-spacing:normal;text-anchor:start;fill:none;stroke:#000000;stroke-linecap:butt;stroke-linejoin:miter;stroke-miterlimit:10.43299961;stroke-opacity:1;stroke-dasharray:none;stroke-dashoffset:0"
     ns0:preamble=""
     ns0:text="$P\'$"
     text-anchor="start"
     word-spacing="normal"
     letter-spacing="normal"
     font-size-adjust="none"
     font-stretch="normal"
     font-weight="normal"
     font-variant="normal"
     font-style="normal"
     fill-opacity="1"
     fill-rule="evenodd"
     fill="none"
     stroke-opacity="1"
     stroke-dashoffset="0"
     stroke-dasharray="none"
     stroke-miterlimit="10.433"
     stroke-linejoin="miter"
     stroke-linecap="butt"
     stroke="black"
     xml:space="preserve"
     transform="matrix(4,0,0,-4,-260.84504,3290.2697)"
     id="g3099">
<path
   id="path3101"
   fill="black"
   stroke-width="0"
   d="M226.45,710.27 L226.49,710.53 L227.17,713.24 C227.26,713.58,227.28,713.61,227.71,713.61 H228.66 C229.49,713.61,230.02,713.34,230.02,712.66 C230.02,712.27,229.82,711.41,229.43,711.06 C228.93,710.61,228.34,710.53,227.9,710.53 H226.49 L226.45,710.27 H228.15 C229.56,710.27,230.95,711.3,230.95,712.42 C230.95,713.19,230.29,713.92,228.98,713.92 H225.76 C225.57,713.92,225.46,713.92,225.46,713.73 C225.46,713.61,225.54,713.61,225.74,713.61 C225.87,713.61,226.05,713.6,226.17,713.59 C226.33,713.57,226.39,713.54,226.39,713.43 C226.39,713.4,226.38,713.36,226.35,713.25 L225.02,707.9 C224.92,707.51,224.9,707.43,224.11,707.43 C223.94,707.43,223.83,707.43,223.83,707.24 C223.83,707.12,223.95,707.12,223.98,707.12 C224.26,707.12,224.97,707.16,225.25,707.16 C225.46,707.16,225.68,707.15,225.88,707.15 C226.1,707.15,226.32,707.12,226.53,707.12 C226.6,707.12,226.73,707.12,226.73,707.32 C226.73,707.43,226.64,707.43,226.45,707.43 C226.08,707.43,225.8,707.43,225.8,707.61 C225.8,707.67,225.82,707.72,225.83,707.78 Z " />
<path
   id="path3103"
   fill="black"
   stroke-width="0"
   d="M233.23,714.02 L233.24,714.03 L233.24,714.04 L233.25,714.05 L233.25,714.06 L233.25,714.07 L233.26,714.08 L233.26,714.09 L233.26,714.1 L233.27,714.11 L233.27,714.12 L233.27,714.12 L233.28,714.13 L233.28,714.14 L233.28,714.15 L233.28,714.15 L233.28,714.16 L233.29,714.17 L233.29,714.17 L233.29,714.18 L233.29,714.18 L233.29,714.19 L233.29,714.2 L233.29,714.2 L233.29,714.21 L233.29,714.22 L233.29,714.23 L233.29,714.24 L233.29,714.24 C233.29,714.46,233.1,714.63,232.88,714.63 C232.62,714.63,232.54,714.41,232.5,714.3 L231.58,711.29 C231.57,711.28,231.55,711.18,231.55,711.18 C231.55,711.09,231.76,711.03,231.82,711.03 C231.87,711.03,231.87,711.04,231.92,711.14 Z " />
</g>  <g
     id="g3227"
     transform="matrix(4,0,0,-4,-226.21374,3057.0178)"
     xml:space="preserve"
     stroke="black"
     stroke-linecap="butt"
     stroke-linejoin="miter"
     stroke-miterlimit="10.433"
     stroke-dasharray="none"
     stroke-dashoffset="0"
     stroke-opacity="1"
     fill="none"
     fill-rule="evenodd"
     fill-opacity="1"
     font-style="normal"
     font-variant="normal"
     font-weight="normal"
     font-stretch="normal"
     font-size-adjust="none"
     letter-spacing="normal"
     word-spacing="normal"
     text-anchor="start"
     ns0:text="$Q\'$"
     ns0:preamble=""
     style="font-style:normal;font-variant:normal;font-weight:normal;font-stretch:normal;letter-spacing:normal;word-spacing:normal;text-anchor:start;fill:none;stroke:#000000;stroke-linecap:butt;stroke-linejoin:miter;stroke-miterlimit:10.43299961;stroke-opacity:1;stroke-dasharray:none;stroke-dashoffset:0">
<path
   d="M227.8,707.18 L227.94,707.24 L228.09,707.31 L228.23,707.38 L228.37,707.46 L228.51,707.54 L228.65,707.63 L228.79,707.73 L228.92,707.83 L229.05,707.94 L229.18,708.05 L229.31,708.17 L229.43,708.29 L229.55,708.42 L229.66,708.55 L229.78,708.68 L229.88,708.82 L229.99,708.97 L230.08,709.12 L230.18,709.27 L230.26,709.42 L230.35,709.58 L230.42,709.74 L230.49,709.9 L230.56,710.07 L230.61,710.24 L230.66,710.41 L230.71,710.58 L230.74,710.75 L230.77,710.93 L230.79,711.11 L230.8,711.28 L230.81,711.46 C230.81,713.07,229.75,714.14,228.27,714.14 L228.21,713.89 C229.2,713.89,229.93,713.12,229.93,711.78 C229.93,710.79,229.42,708.46,227.75,707.52 C227.7,707.87,227.6,708.6,226.87,708.6 V708.38 C227.29,708.38,227.48,708.14,227.48,707.53 C227.48,707.38,227.47,707.37,227.37,707.33 C227.11,707.22,226.81,707.16,226.53,707.16 H226.53 C226.39,707.16,226.07,707.16,226.07,707.58 C226.07,707.98,226.45,708.38,226.87,708.38 V708.6 C226.34,708.6,225.85,708.1,225.85,707.58 C225.85,707.38,225.91,707.27,225.91,707.26 H225.91 C225.14,707.57,224.8,708.35,224.8,709.24 C224.8,709.93,225.06,711.34,225.81,712.42 C226.54,713.43,227.48,713.89,228.21,713.89 L228.27,714.14 C226.11,714.14,223.92,711.88,223.92,709.56 C223.92,707.91,225.04,706.91,226.47,706.91 C226.72,706.91,227.06,706.95,227.45,707.05 C227.41,706.44,227.41,706.42,227.41,706.29 C227.41,705.97,227.41,705.19,228.24,705.19 C229.42,705.19,229.9,707.02,229.9,707.12 C229.9,707.2,229.83,707.22,229.79,707.22 C229.71,707.22,229.69,707.17,229.67,707.11 C229.43,706.41,228.85,706.16,228.51,706.16 C228.05,706.16,227.9,706.43,227.8,707.18 Z "
   stroke-width="0"
   fill="black"
   id="path3229" />
<path
   d="M233.33,714.02 L233.33,714.03 L233.34,714.04 L233.34,714.05 L233.35,714.06 L233.35,714.07 L233.35,714.08 L233.36,714.09 L233.36,714.1 L233.36,714.11 L233.37,714.12 L233.37,714.12 L233.37,714.13 L233.37,714.14 L233.38,714.15 L233.38,714.15 L233.38,714.16 L233.38,714.17 L233.38,714.17 L233.38,714.18 L233.38,714.18 L233.39,714.19 L233.39,714.2 L233.39,714.2 L233.39,714.21 L233.39,714.22 L233.39,714.23 L233.39,714.24 L233.39,714.24 C233.39,714.46,233.2,714.63,232.98,714.63 C232.71,714.63,232.63,714.41,232.6,714.3 L231.68,711.29 C231.67,711.28,231.64,711.18,231.64,711.18 C231.64,711.09,231.86,711.03,231.91,711.03 C231.96,711.03,231.97,711.04,232.02,711.14 Z "
   stroke-width="0"
   fill="black"
   id="path3231" />
</g>  <g
     style="font-style:normal;font-variant:normal;font-weight:normal;font-stretch:normal;letter-spacing:normal;word-spacing:normal;text-anchor:start;fill:none;stroke:#000000;stroke-linecap:butt;stroke-linejoin:miter;stroke-miterlimit:10.43299961;stroke-opacity:1;stroke-dasharray:none;stroke-dashoffset:0"
     ns0:preamble=""
     ns0:text="$dl_{P\'Q\'}$"
     text-anchor="start"
     word-spacing="normal"
     letter-spacing="normal"
     font-size-adjust="none"
     font-stretch="normal"
     font-weight="normal"
     font-variant="normal"
     font-style="normal"
     fill-opacity="1"
     fill-rule="evenodd"
     fill="none"
     stroke-opacity="1"
     stroke-dashoffset="0"
     stroke-dasharray="none"
     stroke-miterlimit="10.433"
     stroke-linejoin="miter"
     stroke-linecap="butt"
     stroke="black"
     xml:space="preserve"
     transform="matrix(4,0,0,-4,-255.41087,3174.7302)"
     id="g3354">
<path
   id="path3356"
   fill="black"
   stroke-width="0"
   d="M228.58,713.92 L228.58,713.92 L228.58,713.92 L228.58,713.93 L228.58,713.93 L228.58,713.93 L228.58,713.93 L228.58,713.94 L228.57,713.94 L228.57,713.94 L228.57,713.95 L228.57,713.95 L228.57,713.96 L228.57,713.96 L228.57,713.97 L228.57,713.97 L228.56,713.98 L228.56,713.98 L228.56,713.99 L228.55,713.99 L228.55,714 L228.54,714 L228.54,714 L228.54,714 L228.54,714.01 L228.53,714.01 L228.53,714.01 L228.53,714.01 L228.52,714.01 L228.52,714.02 L228.52,714.02 L228.51,714.02 L228.51,714.02 L228.51,714.02 L228.5,714.02 L228.5,714.03 L228.49,714.03 L228.49,714.03 L228.48,714.03 L228.48,714.03 L228.47,714.03 L228.47,714.03 L228.46,714.03 L228.46,714.03 L228.45,714.03 L228.45,714.03 C228.3,714.03,227.35,713.94,227.18,713.92 C227.1,713.91,227.04,713.86,227.04,713.73 C227.04,713.61,227.13,713.61,227.28,713.61 C227.76,713.61,227.78,713.54,227.78,713.45 L227.75,713.25 L227.15,710.89 C226.97,711.26,226.68,711.52,226.23,711.52 C225.07,711.52,223.83,710.06,223.83,708.61 C223.83,707.67,224.38,707.02,225.16,707.02 L225.18,707.23 C224.68,707.23,224.54,707.78,224.54,708.17 C224.54,708.67,224.86,709.89,225.09,710.35 C225.4,710.94,225.84,711.3,226.24,711.3 C226.89,711.3,227.03,710.49,227.03,710.43 C227.03,710.37,227.01,710.31,227,710.26 L226.5,708.31 C226.45,708.13,226.45,708.11,226.3,707.94 C225.86,707.39,225.46,707.23,225.18,707.23 L225.16,707.02 C225.36,707.02,225.85,707.05,226.45,707.76 C226.53,707.34,226.88,707.02,227.36,707.02 C227.71,707.02,227.94,707.24,228.1,707.56 C228.27,707.92,228.4,708.53,228.4,708.55 C228.4,708.65,228.31,708.65,228.28,708.65 C228.18,708.65,228.17,708.61,228.14,708.47 C227.97,707.82,227.79,707.23,227.38,707.23 C227.11,707.23,227.08,707.49,227.08,707.69 C227.08,707.93,227.1,708,227.14,708.17 Z " />
<path
   id="path3358"
   fill="black"
   stroke-width="0"
   d="M231.19,713.92 L231.19,713.92 L231.19,713.92 L231.19,713.93 L231.19,713.93 L231.19,713.93 L231.19,713.93 L231.19,713.94 L231.19,713.94 L231.19,713.94 L231.19,713.95 L231.19,713.95 L231.18,713.96 L231.18,713.96 L231.18,713.97 L231.18,713.97 L231.18,713.98 L231.17,713.98 L231.17,713.99 L231.17,713.99 L231.16,714 L231.16,714 L231.16,714 L231.15,714 L231.15,714.01 L231.15,714.01 L231.14,714.01 L231.14,714.01 L231.14,714.01 L231.13,714.02 L231.13,714.02 L231.13,714.02 L231.12,714.02 L231.12,714.02 L231.12,714.02 L231.11,714.03 L231.11,714.03 L231.1,714.03 L231.1,714.03 L231.09,714.03 L231.09,714.03 L231.08,714.03 L231.08,714.03 L231.07,714.03 L231.07,714.03 L231.06,714.03 C230.83,714.03,230.1,713.95,229.84,713.93 C229.76,713.92,229.65,713.91,229.65,713.72 C229.65,713.61,229.75,713.61,229.9,713.61 C230.38,713.61,230.39,713.52,230.39,713.45 L230.36,713.25 L229.11,708.27 C229.08,708.16,229.06,708.09,229.06,707.93 C229.06,707.36,229.49,707.02,229.96,707.02 C230.29,707.02,230.54,707.22,230.71,707.57 C230.89,707.95,231.01,708.53,231.01,708.55 C231.01,708.65,230.92,708.65,230.89,708.65 C230.79,708.65,230.78,708.61,230.75,708.47 C230.58,707.82,230.39,707.23,229.99,707.23 C229.69,707.23,229.69,707.55,229.69,707.69 C229.69,707.93,229.7,707.98,229.75,708.17 Z " />
<path
   id="path3360"
   fill="black"
   stroke-width="0"
   d="M233.96,707.79 L233.99,708.01 L234.47,709.89 C234.52,710.11,234.53,710.13,234.82,710.13 H235.64 C236.28,710.13,236.69,709.93,236.69,709.44 C236.69,709.23,236.6,708.68,236.26,708.36 C236.01,708.14,235.61,708.01,235.11,708.01 H233.99 L233.96,707.79 H235.23 C236.4,707.79,237.4,708.54,237.4,709.29 C237.4,709.88,236.83,710.38,235.87,710.38 H233.44 C233.3,710.38,233.21,710.38,233.21,710.23 C233.21,710.13,233.29,710.13,233.44,710.13 C233.55,710.13,233.58,710.13,233.71,710.12 C233.85,710.1,233.86,710.09,233.86,710.02 C233.86,710.01,233.86,709.97,233.83,709.87 L232.91,706.2 C232.84,705.93,232.84,705.88,232.29,705.88 C232.17,705.88,232.09,705.88,232.09,705.73 C232.09,705.72,232.09,705.63,232.2,705.63 C232.4,705.63,232.9,705.66,233.1,705.66 C233.22,705.66,233.46,705.66,233.58,705.65 C233.72,705.65,233.9,705.63,234.03,705.63 C234.07,705.63,234.17,705.63,234.17,705.78 C234.17,705.88,234.09,705.88,233.95,705.88 C233.94,705.88,233.81,705.88,233.69,705.9 C233.53,705.91,233.53,705.93,233.53,706 C233.53,706.01,233.53,706.05,233.55,706.15 Z " />
<path
   id="path3362"
   fill="black"
   stroke-width="0"
   d="M239.53,709.93 L239.53,709.93 L239.53,709.93 L239.53,709.93 L239.53,709.93 L239.53,709.94 L239.53,709.94 L239.53,709.94 L239.53,709.94 L239.53,709.95 L239.54,709.95 L239.54,709.96 L239.54,709.96 L239.54,709.96 L239.54,709.97 L239.55,709.98 L239.55,709.98 L239.55,709.99 L239.55,709.99 L239.56,710 L239.56,710.01 L239.56,710.01 L239.56,710.02 L239.56,710.03 L239.57,710.03 L239.57,710.04 L239.57,710.05 L239.57,710.06 L239.57,710.06 L239.57,710.07 L239.57,710.08 L239.57,710.08 L239.58,710.09 L239.58,710.1 L239.58,710.11 C239.58,710.28,239.42,710.4,239.27,710.4 C239.06,710.4,239.01,710.24,238.98,710.17 L238.22,708.02 C238.2,707.96,238.2,707.95,238.2,707.94 C238.2,707.86,238.41,707.81,238.41,707.81 C238.46,707.81,238.47,707.84,238.5,707.9 Z " />
<path
   id="path3364"
   fill="black"
   stroke-width="0"
   d="M243.67,705.21 L243.67,705.13 L243.67,705.04 L243.68,705 L243.68,704.96 L243.69,704.92 L243.69,704.88 L243.7,704.84 L243.71,704.8 L243.72,704.76 L243.73,704.72 L243.74,704.68 L243.75,704.65 L243.77,704.61 L243.79,704.58 L243.8,704.55 L243.82,704.52 L243.85,704.49 L243.87,704.46 L243.9,704.43 L243.92,704.41 L243.95,704.38 L243.99,704.36 L244.02,704.35 L244.06,704.33 L244.1,704.32 L244.12,704.31 L244.14,704.3 L244.16,704.3 L244.18,704.29 L244.2,704.29 L244.23,704.29 L244.25,704.29 L244.28,704.28 L244.3,704.28 L244.33,704.28 C245.17,704.28,245.58,705.48,245.58,705.63 C245.58,705.68,245.54,705.73,245.48,705.73 C245.41,705.73,245.39,705.67,245.38,705.64 C245.21,705.15,244.76,705.01,244.52,705.01 C244.24,705.01,244.09,705.13,243.97,705.69 C245.21,706.12,246.2,707.35,246.2,708.59 C246.2,709.68,245.42,710.52,244.18,710.52 C242.52,710.52,240.91,708.96,240.91,707.4 C240.91,706.28,241.74,705.49,242.94,705.49 L242.99,705.71 C242.88,705.71,242.63,705.71,242.63,705.99 H242.44 C242.44,705.86,242.44,705.85,242.46,705.8 H242.46 C242.1,705.93,241.59,706.29,241.59,707.22 C241.59,707.67,241.73,708.59,242.37,709.38 C242.8,709.91,243.48,710.3,244.13,710.3 C244.89,710.3,245.53,709.79,245.53,708.77 C245.53,708.08,245.19,706.58,243.91,705.95 C243.8,706.39,243.62,706.68,243.21,706.68 C242.82,706.68,242.44,706.35,242.44,705.99 H242.63 C242.63,706.25,242.92,706.49,243.21,706.49 C243.46,706.49,243.65,706.38,243.67,705.84 H243.67 C243.51,705.78,243.26,705.71,242.99,705.71 L242.94,705.49 C243.07,705.49,243.31,705.5,243.67,705.59 Z " />
<path
   id="path3366"
   fill="black"
   stroke-width="0"
   d="M248.49,709.93 L248.5,709.93 L248.5,709.93 L248.5,709.93 L248.5,709.93 L248.5,709.94 L248.5,709.94 L248.5,709.94 L248.5,709.94 L248.5,709.95 L248.5,709.95 L248.51,709.96 L248.51,709.96 L248.51,709.96 L248.51,709.97 L248.52,709.98 L248.52,709.98 L248.52,709.99 L248.52,709.99 L248.52,710 L248.53,710.01 L248.53,710.01 L248.53,710.02 L248.53,710.03 L248.53,710.03 L248.54,710.04 L248.54,710.05 L248.54,710.06 L248.54,710.06 L248.54,710.07 L248.54,710.08 L248.54,710.08 L248.54,710.09 L248.54,710.1 L248.54,710.11 C248.54,710.28,248.38,710.4,248.24,710.4 C248.03,710.4,247.98,710.24,247.95,710.17 L247.19,708.02 C247.17,707.96,247.17,707.95,247.17,707.94 C247.17,707.86,247.38,707.81,247.38,707.81 C247.43,707.81,247.43,707.84,247.46,707.9 Z " />
</g></svg>
