<?xml version="1.0" encoding="UTF-8" standalone="no"?>
<!-- Created with Inkscape (http://www.inkscape.org/) -->

<svg
   xmlns:ns0="http://www.iki.fi/pav/software/textext/"
   xmlns:dc="http://purl.org/dc/elements/1.1/"
   xmlns:cc="http://creativecommons.org/ns#"
   xmlns:rdf="http://www.w3.org/1999/02/22-rdf-syntax-ns#"
   xmlns:svg="http://www.w3.org/2000/svg"
   xmlns="http://www.w3.org/2000/svg"
   xmlns:sodipodi="http://sodipodi.sourceforge.net/DTD/sodipodi-0.dtd"
   xmlns:inkscape="http://www.inkscape.org/namespaces/inkscape"
   width="792pt"
   height="612pt"
   id="svg3418"
   version="1.1"
   inkscape:version="0.48.1 r9760"
   sodipodi:docname="fig-onda-grav-circular.svg">
  <sodipodi:namedview
     inkscape:document-units="in"
     pagecolor="#ffffff"
     bordercolor="#666666"
     borderopacity="1.0"
     inkscape:pageopacity="0.0"
     inkscape:pageshadow="2"
     inkscape:zoom="0.81960784"
     inkscape:cx="495"
     inkscape:cy="382.5"
     inkscape:current-layer="layer1"
     id="namedview3422"
     showgrid="false"
     inkscape:window-width="1438"
     inkscape:window-height="847"
     inkscape:window-x="0"
     inkscape:window-y="0"
     inkscape:window-maximized="1" />
  <defs
     id="defs3420">
    <marker
       inkscape:stockid="Arrow1Mend"
       orient="auto"
       refY="0.0"
       refX="0.0"
       id="Arrow1Mend"
       style="overflow:visible;">
      <path
         id="path4804"
         d="M 0.0,0.0 L 5.0,-5.0 L -12.5,0.0 L 5.0,5.0 L 0.0,0.0 z "
         style="fill-rule:evenodd;stroke:#000000;stroke-width:1.0pt;marker-start:none;"
         transform="scale(0.4) rotate(180) translate(10,0)" />
    </marker>
    <marker
       inkscape:stockid="Arrow1Mend"
       orient="auto"
       refY="0"
       refX="0"
       id="Arrow1Mend-7"
       style="overflow:visible">
      <path
         inkscape:connector-curvature="0"
         id="path4804-6"
         d="M 0,0 5,-5 -12.5,0 5,5 0,0 z"
         style="fill-rule:evenodd;stroke:#000000;stroke-width:1pt;marker-start:none"
         transform="matrix(-0.4,0,0,-0.4,-4,0)" />
    </marker>
    <marker
       inkscape:stockid="Arrow1Mstart"
       orient="auto"
       refY="0"
       refX="0"
       id="Arrow1Mstart"
       style="overflow:visible">
      <path
         inkscape:connector-curvature="0"
         id="path3917"
         d="M 0,0 5,-5 -12.5,0 5,5 0,0 z"
         style="fill-rule:evenodd;stroke:#000000;stroke-width:1pt;marker-start:none"
         transform="matrix(0.4,0,0,0.4,4,0)" />
    </marker>
    <marker
       inkscape:stockid="Arrow1Mend"
       orient="auto"
       refY="0"
       refX="0"
       id="Arrow1Mend-9"
       style="overflow:visible">
      <path
         inkscape:connector-curvature="0"
         id="path4804-3"
         d="M 0,0 5,-5 -12.5,0 5,5 0,0 z"
         style="fill-rule:evenodd;stroke:#000000;stroke-width:1pt;marker-start:none"
         transform="matrix(-0.4,0,0,-0.4,-4,0)" />
    </marker>
    <marker
       inkscape:stockid="Arrow1Mstart"
       orient="auto"
       refY="0"
       refX="0"
       id="marker3198"
       style="overflow:visible">
      <path
         inkscape:connector-curvature="0"
         id="path3200"
         d="M 0,0 5,-5 -12.5,0 5,5 0,0 z"
         style="fill-rule:evenodd;stroke:#000000;stroke-width:1pt;marker-start:none"
         transform="matrix(0.4,0,0,0.4,4,0)" />
    </marker>
    <marker
       inkscape:stockid="Arrow1Mend"
       orient="auto"
       refY="0"
       refX="0"
       id="marker3202"
       style="overflow:visible">
      <path
         inkscape:connector-curvature="0"
         id="path3204"
         d="M 0,0 5,-5 -12.5,0 5,5 0,0 z"
         style="fill-rule:evenodd;stroke:#000000;stroke-width:1pt;marker-start:none"
         transform="matrix(-0.4,0,0,-0.4,-4,0)" />
    </marker>
  </defs>
  <metadata
     id="metadata3424">
    <rdf:RDF>
      <cc:Work
         rdf:about="">
        <dc:format>image/svg+xml</dc:format>
        <dc:type
           rdf:resource="http://purl.org/dc/dcmitype/StillImage" />
        <dc:title />
      </cc:Work>
    </rdf:RDF>
  </metadata>
  <g
     inkscape:label="Layer 1"
     inkscape:groupmode="layer"
     id="layer1">
    <g
       style="font-style:normal;font-variant:normal;font-weight:normal;font-stretch:normal;letter-spacing:normal;word-spacing:normal;text-anchor:start;fill:none;stroke:#000000;stroke-linecap:butt;stroke-linejoin:miter;stroke-miterlimit:10.43299961;stroke-opacity:1;stroke-dasharray:none;stroke-dashoffset:0"
       id="content-3"
       transform="matrix(1.5805523,0,0,-1.5805523,20.814715,989.29413)"
       xml:space="preserve"
       stroke-miterlimit="10.433"
       font-style="normal"
       font-variant="normal"
       font-weight="normal"
       font-stretch="normal"
       font-size-adjust="none"
       letter-spacing="normal"
       word-spacing="normal">
<path
   style="stroke-width:0.89999998"
   inkscape:connector-curvature="0"
   d="m 160.9,399.8 -0.03,-1.85 -0.08,-1.83 -0.14,-1.8 -0.19,-1.77 -0.24,-1.74 -0.29,-1.71 -0.34,-1.68 -0.39,-1.63 -0.43,-1.6 -0.48,-1.55 -0.52,-1.5 -0.56,-1.47 -0.6,-1.41 -0.64,-1.36 -0.68,-1.3 -0.72,-1.25 -0.75,-1.2 -0.78,-1.13 -0.82,-1.07 -0.84,-1 -0.88,-0.94 -0.91,-0.86 -0.93,-0.8 -0.95,-0.72 -0.98,-0.64 -1.01,-0.57 -1.02,-0.49 -1.05,-0.4 -1.06,-0.31 -1.08,-0.23 -1.1,-0.14 -1.11,-0.05 c -11.93,0 -21.6,16.12 -21.6,36 0,19.88 9.67,36 21.6,36 11.93,0 21.6,-16.12 21.6,-36 z"
   id="path9-5" />
<path
   style="fill:#000000;stroke-width:0"
   inkscape:connector-curvature="0"
   d="m 141.82,435.56 0,-0.12 -0.01,-0.11 -0.02,-0.12 -0.02,-0.11 -0.02,-0.11 -0.03,-0.11 -0.04,-0.1 -0.04,-0.11 -0.05,-0.1 -0.05,-0.1 -0.05,-0.09 -0.06,-0.09 -0.06,-0.09 -0.07,-0.09 -0.07,-0.08 -0.08,-0.08 -0.08,-0.08 -0.08,-0.07 -0.09,-0.07 -0.09,-0.06 -0.09,-0.06 -0.09,-0.05 -0.1,-0.05 -0.1,-0.05 -0.11,-0.04 -0.1,-0.04 -0.11,-0.03 -0.11,-0.02 -0.11,-0.02 -0.12,-0.02 -0.11,-0.01 -0.12,0 c -1.26,0 -2.28,1.02 -2.28,2.28 0,1.26 1.02,2.28 2.28,2.28 1.26,0 2.28,-1.02 2.28,-2.28 z"
   id="path11-1" />
<path
   style="stroke-width:0.89999998"
   inkscape:connector-curvature="0"
   d="m 141.82,435.56 0,-0.12 -0.01,-0.11 -0.02,-0.12 -0.02,-0.11 -0.02,-0.11 -0.03,-0.11 -0.04,-0.1 -0.04,-0.11 -0.05,-0.1 -0.05,-0.1 -0.05,-0.09 -0.06,-0.09 -0.06,-0.09 -0.07,-0.09 -0.07,-0.08 -0.08,-0.08 -0.08,-0.08 -0.08,-0.07 -0.09,-0.07 -0.09,-0.06 -0.09,-0.06 -0.09,-0.05 -0.1,-0.05 -0.1,-0.05 -0.11,-0.04 -0.1,-0.04 -0.11,-0.03 -0.11,-0.02 -0.11,-0.02 -0.12,-0.02 -0.11,-0.01 -0.12,0 c -1.26,0 -2.28,1.02 -2.28,2.28 0,1.26 1.02,2.28 2.28,2.28 1.26,0 2.28,-1.02 2.28,-2.28 z"
   id="path13-5" />
<path
   style="fill:#000000;stroke-width:0"
   inkscape:connector-curvature="0"
   d="m 141.82,363.8 0,-0.12 -0.01,-0.11 -0.02,-0.12 -0.02,-0.11 -0.02,-0.11 -0.03,-0.11 -0.04,-0.1 -0.04,-0.11 -0.05,-0.1 -0.05,-0.1 -0.05,-0.09 -0.06,-0.09 -0.06,-0.09 -0.07,-0.09 -0.07,-0.08 -0.08,-0.08 -0.08,-0.08 -0.08,-0.07 -0.09,-0.07 -0.09,-0.06 -0.09,-0.06 -0.09,-0.05 -0.1,-0.05 -0.1,-0.05 -0.11,-0.04 -0.1,-0.04 -0.11,-0.03 -0.11,-0.02 -0.11,-0.02 -0.12,-0.02 -0.11,-0.01 -0.12,0 c -1.26,0 -2.28,1.02 -2.28,2.28 0,1.26 1.02,2.28 2.28,2.28 1.26,0 2.28,-1.02 2.28,-2.28 z"
   id="path15-8" />
<path
   style="stroke-width:0.89999998"
   inkscape:connector-curvature="0"
   d="m 141.82,363.8 0,-0.12 -0.01,-0.11 -0.02,-0.12 -0.02,-0.11 -0.02,-0.11 -0.03,-0.11 -0.04,-0.1 -0.04,-0.11 -0.05,-0.1 -0.05,-0.1 -0.05,-0.09 -0.06,-0.09 -0.06,-0.09 -0.07,-0.09 -0.07,-0.08 -0.08,-0.08 -0.08,-0.08 -0.08,-0.07 -0.09,-0.07 -0.09,-0.06 -0.09,-0.06 -0.09,-0.05 -0.1,-0.05 -0.1,-0.05 -0.11,-0.04 -0.1,-0.04 -0.11,-0.03 -0.11,-0.02 -0.11,-0.02 -0.12,-0.02 -0.11,-0.01 -0.12,0 c -1.26,0 -2.28,1.02 -2.28,2.28 0,1.26 1.02,2.28 2.28,2.28 1.26,0 2.28,-1.02 2.28,-2.28 z"
   id="path17-2" />
<path
   style="fill:#000000;stroke-width:0"
   inkscape:connector-curvature="0"
   d="m 119.98,399.56 0,-0.12 -0.01,-0.11 -0.02,-0.12 -0.02,-0.11 -0.02,-0.11 -0.03,-0.11 -0.04,-0.1 -0.04,-0.11 -0.05,-0.1 -0.05,-0.1 -0.05,-0.09 -0.06,-0.09 -0.06,-0.09 -0.07,-0.09 -0.07,-0.08 -0.08,-0.08 -0.08,-0.08 -0.08,-0.07 -0.09,-0.07 -0.09,-0.06 -0.09,-0.06 -0.09,-0.05 -0.1,-0.05 -0.1,-0.05 -0.11,-0.04 -0.1,-0.04 -0.11,-0.03 -0.11,-0.02 -0.11,-0.02 -0.12,-0.02 -0.11,-0.01 -0.12,0 c -1.26,0 -2.28,1.02 -2.28,2.28 0,1.26 1.02,2.28 2.28,2.28 1.26,0 2.28,-1.02 2.28,-2.28 z"
   id="path19-0" />
<path
   style="stroke-width:0.89999998"
   inkscape:connector-curvature="0"
   d="m 119.98,399.56 0,-0.12 -0.01,-0.11 -0.02,-0.12 -0.02,-0.11 -0.02,-0.11 -0.03,-0.11 -0.04,-0.1 -0.04,-0.11 -0.05,-0.1 -0.05,-0.1 -0.05,-0.09 -0.06,-0.09 -0.06,-0.09 -0.07,-0.09 -0.07,-0.08 -0.08,-0.08 -0.08,-0.08 -0.08,-0.07 -0.09,-0.07 -0.09,-0.06 -0.09,-0.06 -0.09,-0.05 -0.1,-0.05 -0.1,-0.05 -0.11,-0.04 -0.1,-0.04 -0.11,-0.03 -0.11,-0.02 -0.11,-0.02 -0.12,-0.02 -0.11,-0.01 -0.12,0 c -1.26,0 -2.28,1.02 -2.28,2.28 0,1.26 1.02,2.28 2.28,2.28 1.26,0 2.28,-1.02 2.28,-2.28 z"
   id="path21-0" />
<path
   style="fill:#000000;stroke-width:0"
   inkscape:connector-curvature="0"
   d="m 162.94,399.56 0,-0.12 -0.01,-0.11 -0.02,-0.12 -0.02,-0.11 -0.02,-0.11 -0.03,-0.11 -0.04,-0.1 -0.04,-0.11 -0.04,-0.1 -0.05,-0.1 -0.06,-0.09 -0.06,-0.09 -0.06,-0.09 -0.07,-0.09 -0.07,-0.08 -0.08,-0.08 -0.08,-0.08 -0.08,-0.07 -0.09,-0.07 -0.09,-0.06 -0.09,-0.06 -0.09,-0.05 -0.1,-0.05 -0.1,-0.05 -0.11,-0.04 -0.1,-0.04 -0.11,-0.03 -0.11,-0.02 -0.11,-0.02 -0.12,-0.02 -0.11,-0.01 -0.12,0 c -1.26,0 -2.28,1.02 -2.28,2.28 0,1.26 1.02,2.28 2.28,2.28 1.26,0 2.28,-1.02 2.28,-2.28 z"
   id="path23-2" />
<path
   style="stroke-width:0.89999998"
   inkscape:connector-curvature="0"
   d="m 162.94,399.56 0,-0.12 -0.01,-0.11 -0.02,-0.12 -0.02,-0.11 -0.02,-0.11 -0.03,-0.11 -0.04,-0.1 -0.04,-0.11 -0.04,-0.1 -0.05,-0.1 -0.06,-0.09 -0.06,-0.09 -0.06,-0.09 -0.07,-0.09 -0.07,-0.08 -0.08,-0.08 -0.08,-0.08 -0.08,-0.07 -0.09,-0.07 -0.09,-0.06 -0.09,-0.06 -0.09,-0.05 -0.1,-0.05 -0.1,-0.05 -0.11,-0.04 -0.1,-0.04 -0.11,-0.03 -0.11,-0.02 -0.11,-0.02 -0.12,-0.02 -0.11,-0.01 -0.12,0 c -1.26,0 -2.28,1.02 -2.28,2.28 0,1.26 1.02,2.28 2.28,2.28 1.26,0 2.28,-1.02 2.28,-2.28 z"
   id="path25-3" />
<path
   style="fill:#000000;stroke-width:0"
   inkscape:connector-curvature="0"
   d="m 125.02,423.08 0,-0.12 -0.01,-0.11 -0.02,-0.12 -0.02,-0.11 -0.02,-0.11 -0.03,-0.11 -0.04,-0.11 -0.04,-0.1 -0.05,-0.1 -0.05,-0.1 -0.05,-0.09 -0.06,-0.1 -0.06,-0.08 -0.07,-0.09 -0.07,-0.08 -0.08,-0.08 -0.08,-0.08 -0.08,-0.07 -0.09,-0.07 -0.09,-0.06 -0.09,-0.06 -0.1,-0.05 -0.09,-0.05 -0.1,-0.05 -0.11,-0.04 -0.1,-0.04 -0.11,-0.03 -0.11,-0.02 -0.12,-0.02 -0.11,-0.02 -0.11,-0.01 -0.12,0 c -1.26,0 -2.28,1.02 -2.28,2.28 0,1.26 1.02,2.28 2.28,2.28 1.26,0 2.28,-1.02 2.28,-2.28 z"
   id="path27-8" />
<path
   style="stroke-width:0.89999998"
   inkscape:connector-curvature="0"
   d="m 125.02,423.08 0,-0.12 -0.01,-0.11 -0.02,-0.12 -0.02,-0.11 -0.02,-0.11 -0.03,-0.11 -0.04,-0.11 -0.04,-0.1 -0.05,-0.1 -0.05,-0.1 -0.05,-0.09 -0.06,-0.1 -0.06,-0.08 -0.07,-0.09 -0.07,-0.08 -0.08,-0.08 -0.08,-0.08 -0.08,-0.07 -0.09,-0.07 -0.09,-0.06 -0.09,-0.06 -0.1,-0.05 -0.09,-0.05 -0.1,-0.05 -0.11,-0.04 -0.1,-0.04 -0.11,-0.03 -0.11,-0.02 -0.12,-0.02 -0.11,-0.02 -0.11,-0.01 -0.12,0 c -1.26,0 -2.28,1.02 -2.28,2.28 0,1.26 1.02,2.28 2.28,2.28 1.26,0 2.28,-1.02 2.28,-2.28 z"
   id="path29-3" />
<path
   style="fill:#000000;stroke-width:0"
   inkscape:connector-curvature="0"
   d="m 157.9,423.08 0,-0.12 -0.01,-0.11 -0.02,-0.12 -0.02,-0.11 -0.02,-0.11 -0.03,-0.11 -0.04,-0.11 -0.04,-0.1 -0.05,-0.1 -0.05,-0.1 -0.05,-0.09 -0.06,-0.1 -0.06,-0.08 -0.07,-0.09 -0.07,-0.08 -0.08,-0.08 -0.08,-0.08 -0.08,-0.07 -0.09,-0.07 -0.09,-0.06 -0.09,-0.06 -0.09,-0.05 -0.1,-0.05 -0.1,-0.05 -0.11,-0.04 -0.1,-0.04 -0.11,-0.03 -0.11,-0.02 -0.11,-0.02 -0.12,-0.02 -0.11,-0.01 -0.12,0 c -1.26,0 -2.28,1.02 -2.28,2.28 0,1.26 1.02,2.28 2.28,2.28 1.26,0 2.28,-1.02 2.28,-2.28 z"
   id="path31-4" />
<path
   style="stroke-width:0.89999998"
   inkscape:connector-curvature="0"
   d="m 157.9,423.08 0,-0.12 -0.01,-0.11 -0.02,-0.12 -0.02,-0.11 -0.02,-0.11 -0.03,-0.11 -0.04,-0.11 -0.04,-0.1 -0.05,-0.1 -0.05,-0.1 -0.05,-0.09 -0.06,-0.1 -0.06,-0.08 -0.07,-0.09 -0.07,-0.08 -0.08,-0.08 -0.08,-0.08 -0.08,-0.07 -0.09,-0.07 -0.09,-0.06 -0.09,-0.06 -0.09,-0.05 -0.1,-0.05 -0.1,-0.05 -0.11,-0.04 -0.1,-0.04 -0.11,-0.03 -0.11,-0.02 -0.11,-0.02 -0.12,-0.02 -0.11,-0.01 -0.12,0 c -1.26,0 -2.28,1.02 -2.28,2.28 0,1.26 1.02,2.28 2.28,2.28 1.26,0 2.28,-1.02 2.28,-2.28 z"
   id="path33-6" />
<path
   style="fill:#000000;stroke-width:0"
   inkscape:connector-curvature="0"
   d="m 158.62,377.96 0,-0.12 -0.01,-0.11 -0.02,-0.12 -0.02,-0.11 -0.02,-0.11 -0.03,-0.11 -0.04,-0.1 -0.04,-0.11 -0.04,-0.1 -0.05,-0.1 -0.06,-0.09 -0.06,-0.09 -0.06,-0.09 -0.07,-0.09 -0.07,-0.08 -0.08,-0.08 -0.08,-0.08 -0.08,-0.07 -0.09,-0.07 -0.09,-0.06 -0.09,-0.06 -0.09,-0.05 -0.1,-0.05 -0.1,-0.05 -0.11,-0.04 -0.1,-0.04 -0.11,-0.03 -0.11,-0.02 -0.11,-0.02 -0.12,-0.02 -0.11,-0.01 -0.12,0 c -1.26,0 -2.28,1.02 -2.28,2.28 0,1.26 1.02,2.28 2.28,2.28 1.26,0 2.28,-1.02 2.28,-2.28 z"
   id="path35-2" />
<path
   style="stroke-width:0.89999998"
   inkscape:connector-curvature="0"
   d="m 158.62,377.96 0,-0.12 -0.01,-0.11 -0.02,-0.12 -0.02,-0.11 -0.02,-0.11 -0.03,-0.11 -0.04,-0.1 -0.04,-0.11 -0.04,-0.1 -0.05,-0.1 -0.06,-0.09 -0.06,-0.09 -0.06,-0.09 -0.07,-0.09 -0.07,-0.08 -0.08,-0.08 -0.08,-0.08 -0.08,-0.07 -0.09,-0.07 -0.09,-0.06 -0.09,-0.06 -0.09,-0.05 -0.1,-0.05 -0.1,-0.05 -0.11,-0.04 -0.1,-0.04 -0.11,-0.03 -0.11,-0.02 -0.11,-0.02 -0.12,-0.02 -0.11,-0.01 -0.12,0 c -1.26,0 -2.28,1.02 -2.28,2.28 0,1.26 1.02,2.28 2.28,2.28 1.26,0 2.28,-1.02 2.28,-2.28 z"
   id="path37-0" />
<path
   style="fill:#000000;stroke-width:0"
   inkscape:connector-curvature="0"
   d="m 124.78,377.24 0,-0.12 -0.01,-0.11 -0.02,-0.12 -0.02,-0.11 -0.02,-0.11 -0.03,-0.11 -0.04,-0.11 -0.04,-0.1 -0.04,-0.1 -0.05,-0.1 -0.06,-0.09 -0.06,-0.1 -0.06,-0.08 -0.07,-0.09 -0.07,-0.08 -0.08,-0.08 -0.08,-0.08 -0.08,-0.07 -0.09,-0.07 -0.09,-0.06 -0.09,-0.06 -0.09,-0.05 -0.1,-0.05 -0.1,-0.05 -0.11,-0.04 -0.1,-0.04 -0.11,-0.03 -0.11,-0.02 -0.11,-0.02 -0.12,-0.02 -0.11,-0.01 -0.12,0 c -1.26,0 -2.28,1.02 -2.28,2.28 0,1.26 1.02,2.28 2.28,2.28 1.26,0 2.28,-1.02 2.28,-2.28 z"
   id="path39-0" />
<path
   style="stroke-width:0.89999998"
   inkscape:connector-curvature="0"
   d="m 124.78,377.24 0,-0.12 -0.01,-0.11 -0.02,-0.12 -0.02,-0.11 -0.02,-0.11 -0.03,-0.11 -0.04,-0.11 -0.04,-0.1 -0.04,-0.1 -0.05,-0.1 -0.06,-0.09 -0.06,-0.1 -0.06,-0.08 -0.07,-0.09 -0.07,-0.08 -0.08,-0.08 -0.08,-0.08 -0.08,-0.07 -0.09,-0.07 -0.09,-0.06 -0.09,-0.06 -0.09,-0.05 -0.1,-0.05 -0.1,-0.05 -0.11,-0.04 -0.1,-0.04 -0.11,-0.03 -0.11,-0.02 -0.11,-0.02 -0.12,-0.02 -0.11,-0.01 -0.12,0 c -1.26,0 -2.28,1.02 -2.28,2.28 0,1.26 1.02,2.28 2.28,2.28 1.26,0 2.28,-1.02 2.28,-2.28 z"
   id="path41-9" />
<path
   style="fill:#000000;stroke-width:0"
   inkscape:connector-curvature="0"
   d="m 141.58,399.56 0,-0.12 -0.01,-0.11 -0.02,-0.12 -0.02,-0.11 -0.02,-0.11 -0.03,-0.11 -0.04,-0.1 -0.04,-0.11 -0.05,-0.1 -0.05,-0.1 -0.05,-0.09 -0.06,-0.09 -0.06,-0.09 -0.07,-0.09 -0.07,-0.08 -0.08,-0.08 -0.08,-0.08 -0.08,-0.07 -0.09,-0.07 -0.09,-0.06 -0.09,-0.06 -0.09,-0.05 -0.1,-0.05 -0.1,-0.05 -0.11,-0.04 -0.1,-0.04 -0.11,-0.03 -0.11,-0.02 -0.11,-0.02 -0.12,-0.02 -0.11,-0.01 -0.12,0 c -1.26,0 -2.28,1.02 -2.28,2.28 0,1.26 1.02,2.28 2.28,2.28 1.26,0 2.28,-1.02 2.28,-2.28 z"
   id="path43-7" />
<path
   style="stroke-width:0.89999998"
   inkscape:connector-curvature="0"
   d="m 141.58,399.56 0,-0.12 -0.01,-0.11 -0.02,-0.12 -0.02,-0.11 -0.02,-0.11 -0.03,-0.11 -0.04,-0.1 -0.04,-0.11 -0.05,-0.1 -0.05,-0.1 -0.05,-0.09 -0.06,-0.09 -0.06,-0.09 -0.07,-0.09 -0.07,-0.08 -0.08,-0.08 -0.08,-0.08 -0.08,-0.07 -0.09,-0.07 -0.09,-0.06 -0.09,-0.06 -0.09,-0.05 -0.1,-0.05 -0.1,-0.05 -0.11,-0.04 -0.1,-0.04 -0.11,-0.03 -0.11,-0.02 -0.11,-0.02 -0.12,-0.02 -0.11,-0.01 -0.12,0 c -1.26,0 -2.28,1.02 -2.28,2.28 0,1.26 1.02,2.28 2.28,2.28 1.26,0 2.28,-1.02 2.28,-2.28 z"
   id="path45-3" />
<path
   style="fill:#000000;stroke-width:0"
   inkscape:connector-curvature="0"
   d="m 194.37,430.15 0.08,-0.08 0.08,-0.09 0.07,-0.09 0.06,-0.1 0.06,-0.09 0.06,-0.1 0.05,-0.1 0.04,-0.1 0.04,-0.11 0.04,-0.1 0.02,-0.11 0.03,-0.1 0.02,-0.11 0.01,-0.11 0.01,-0.11 0,-0.11 0,-0.11 -0.01,-0.11 -0.01,-0.11 -0.02,-0.11 -0.03,-0.1 -0.02,-0.11 -0.04,-0.1 -0.04,-0.11 -0.04,-0.1 -0.05,-0.1 -0.06,-0.1 -0.06,-0.09 -0.06,-0.1 -0.07,-0.09 -0.08,-0.09 -0.08,-0.08 c -0.89,-0.89 -2.33,-0.89 -3.22,0 -0.89,0.89 -0.89,2.33 0,3.22 0.89,0.89 2.33,0.89 3.22,0 z"
   id="path47-2" />
<path
   style="stroke-width:0.89999998"
   inkscape:connector-curvature="0"
   d="m 194.37,430.15 0.08,-0.08 0.08,-0.09 0.07,-0.09 0.06,-0.1 0.06,-0.09 0.06,-0.1 0.05,-0.1 0.04,-0.1 0.04,-0.11 0.04,-0.1 0.02,-0.11 0.03,-0.1 0.02,-0.11 0.01,-0.11 0.01,-0.11 0,-0.11 0,-0.11 -0.01,-0.11 -0.01,-0.11 -0.02,-0.11 -0.03,-0.1 -0.02,-0.11 -0.04,-0.1 -0.04,-0.11 -0.04,-0.1 -0.05,-0.1 -0.06,-0.1 -0.06,-0.09 -0.06,-0.1 -0.07,-0.09 -0.08,-0.09 -0.08,-0.08 c -0.89,-0.89 -2.33,-0.89 -3.22,0 -0.89,0.89 -0.89,2.33 0,3.22 0.89,0.89 2.33,0.89 3.22,0 z"
   id="path49-2" />
<path
   style="fill:#000000;stroke-width:0"
   inkscape:connector-curvature="0"
   d="m 225.81,372.31 0.08,-0.08 0.08,-0.09 0.07,-0.09 0.07,-0.1 0.06,-0.09 0.05,-0.1 0.05,-0.1 0.04,-0.1 0.04,-0.11 0.04,-0.1 0.03,-0.11 0.02,-0.1 0.02,-0.11 0.01,-0.11 0.01,-0.11 0,-0.11 0,-0.11 -0.01,-0.11 -0.01,-0.11 -0.02,-0.11 -0.02,-0.1 -0.03,-0.11 -0.04,-0.11 -0.04,-0.1 -0.04,-0.1 -0.05,-0.1 -0.05,-0.1 -0.06,-0.1 -0.07,-0.09 -0.07,-0.09 -0.08,-0.09 -0.08,-0.08 c -0.89,-0.89 -2.33,-0.89 -3.22,0 -0.89,0.89 -0.89,2.33 0,3.22 0.89,0.89 2.33,0.89 3.22,0 z"
   id="path51-2" />
<path
   style="stroke-width:0.89999998"
   inkscape:connector-curvature="0"
   d="m 225.81,372.31 0.08,-0.08 0.08,-0.09 0.07,-0.09 0.07,-0.1 0.06,-0.09 0.05,-0.1 0.05,-0.1 0.04,-0.1 0.04,-0.11 0.04,-0.1 0.03,-0.11 0.02,-0.1 0.02,-0.11 0.01,-0.11 0.01,-0.11 0,-0.11 0,-0.11 -0.01,-0.11 -0.01,-0.11 -0.02,-0.11 -0.02,-0.1 -0.03,-0.11 -0.04,-0.11 -0.04,-0.1 -0.04,-0.1 -0.05,-0.1 -0.05,-0.1 -0.06,-0.1 -0.07,-0.09 -0.07,-0.09 -0.08,-0.09 -0.08,-0.08 c -0.89,-0.89 -2.33,-0.89 -3.22,0 -0.89,0.89 -0.89,2.33 0,3.22 0.89,0.89 2.33,0.89 3.22,0 z"
   id="path53-5" />
<path
   style="fill:#000000;stroke-width:0"
   inkscape:connector-curvature="0"
   d="m 249.33,399.67 0.08,-0.08 0.08,-0.09 0.07,-0.09 0.06,-0.1 0.06,-0.09 0.06,-0.1 0.05,-0.1 0.04,-0.1 0.04,-0.11 0.04,-0.1 0.02,-0.11 0.03,-0.11 0.02,-0.1 0.01,-0.11 0.01,-0.11 0,-0.11 0,-0.11 -0.01,-0.11 -0.01,-0.11 -0.02,-0.11 -0.03,-0.1 -0.02,-0.11 -0.04,-0.1 -0.04,-0.11 -0.04,-0.1 -0.05,-0.1 -0.06,-0.1 -0.06,-0.09 -0.06,-0.1 -0.07,-0.09 -0.08,-0.09 -0.08,-0.08 c -0.89,-0.89 -2.33,-0.89 -3.22,0 -0.89,0.89 -0.89,2.33 0,3.22 0.89,0.89 2.33,0.89 3.22,0 z"
   id="path55-8" />
<path
   style="stroke-width:0.89999998"
   inkscape:connector-curvature="0"
   d="m 249.33,399.67 0.08,-0.08 0.08,-0.09 0.07,-0.09 0.06,-0.1 0.06,-0.09 0.06,-0.1 0.05,-0.1 0.04,-0.1 0.04,-0.11 0.04,-0.1 0.02,-0.11 0.03,-0.11 0.02,-0.1 0.01,-0.11 0.01,-0.11 0,-0.11 0,-0.11 -0.01,-0.11 -0.01,-0.11 -0.02,-0.11 -0.03,-0.1 -0.02,-0.11 -0.04,-0.1 -0.04,-0.11 -0.04,-0.1 -0.05,-0.1 -0.06,-0.1 -0.06,-0.09 -0.06,-0.1 -0.07,-0.09 -0.08,-0.09 -0.08,-0.08 c -0.89,-0.89 -2.33,-0.89 -3.22,0 -0.89,0.89 -0.89,2.33 0,3.22 0.89,0.89 2.33,0.89 3.22,0 z"
   id="path57-3" />
<path
   style="fill:#000000;stroke-width:0"
   inkscape:connector-curvature="0"
   d="m 193.23,404.35 0.08,-0.08 0.08,-0.09 0.07,-0.09 0.06,-0.1 0.06,-0.09 0.06,-0.1 0.05,-0.1 0.04,-0.1 0.04,-0.11 0.03,-0.1 0.03,-0.11 0.03,-0.11 0.01,-0.1 0.02,-0.11 0.01,-0.11 0,-0.11 0,-0.11 -0.01,-0.11 -0.02,-0.11 -0.01,-0.11 -0.03,-0.1 -0.03,-0.11 -0.03,-0.1 -0.04,-0.11 -0.04,-0.1 -0.05,-0.1 -0.06,-0.1 -0.06,-0.09 -0.06,-0.1 -0.07,-0.09 -0.08,-0.09 -0.08,-0.08 c -0.89,-0.89 -2.33,-0.89 -3.22,0 -0.89,0.89 -0.89,2.33 0,3.22 0.89,0.89 2.33,0.89 3.22,0 z"
   id="path59-4" />
<path
   style="stroke-width:0.89999998"
   inkscape:connector-curvature="0"
   d="m 193.23,404.35 0.08,-0.08 0.08,-0.09 0.07,-0.09 0.06,-0.1 0.06,-0.09 0.06,-0.1 0.05,-0.1 0.04,-0.1 0.04,-0.11 0.03,-0.1 0.03,-0.11 0.03,-0.11 0.01,-0.1 0.02,-0.11 0.01,-0.11 0,-0.11 0,-0.11 -0.01,-0.11 -0.02,-0.11 -0.01,-0.11 -0.03,-0.1 -0.03,-0.11 -0.03,-0.1 -0.04,-0.11 -0.04,-0.1 -0.05,-0.1 -0.06,-0.1 -0.06,-0.09 -0.06,-0.1 -0.07,-0.09 -0.08,-0.09 -0.08,-0.08 c -0.89,-0.89 -2.33,-0.89 -3.22,0 -0.89,0.89 -0.89,2.33 0,3.22 0.89,0.89 2.33,0.89 3.22,0 z"
   id="path61-0" />
<path
   style="fill:#000000;stroke-width:0"
   inkscape:connector-curvature="0"
   d="m 218.01,429.97 0.08,-0.08 0.08,-0.09 0.07,-0.09 0.06,-0.09 0.06,-0.1 0.06,-0.1 0.05,-0.1 0.04,-0.1 0.04,-0.11 0.04,-0.1 0.02,-0.11 0.03,-0.1 0.02,-0.11 0.01,-0.11 0.01,-0.11 0,-0.11 0,-0.11 -0.01,-0.11 -0.01,-0.11 -0.02,-0.11 -0.03,-0.1 -0.02,-0.11 -0.04,-0.11 -0.04,-0.1 -0.04,-0.1 -0.05,-0.1 -0.06,-0.1 -0.06,-0.1 -0.06,-0.09 -0.07,-0.09 -0.08,-0.09 -0.08,-0.08 c -0.89,-0.89 -2.33,-0.89 -3.22,0 -0.89,0.89 -0.89,2.33 0,3.22 0.89,0.89 2.33,0.89 3.22,0 z"
   id="path63-0" />
<path
   style="stroke-width:0.89999998"
   inkscape:connector-curvature="0"
   d="m 218.01,429.97 0.08,-0.08 0.08,-0.09 0.07,-0.09 0.06,-0.09 0.06,-0.1 0.06,-0.1 0.05,-0.1 0.04,-0.1 0.04,-0.11 0.04,-0.1 0.02,-0.11 0.03,-0.1 0.02,-0.11 0.01,-0.11 0.01,-0.11 0,-0.11 0,-0.11 -0.01,-0.11 -0.01,-0.11 -0.02,-0.11 -0.03,-0.1 -0.02,-0.11 -0.04,-0.11 -0.04,-0.1 -0.04,-0.1 -0.05,-0.1 -0.06,-0.1 -0.06,-0.1 -0.06,-0.09 -0.07,-0.09 -0.08,-0.09 -0.08,-0.08 c -0.89,-0.89 -2.33,-0.89 -3.22,0 -0.89,0.89 -0.89,2.33 0,3.22 0.89,0.89 2.33,0.89 3.22,0 z"
   id="path65-3" />
<path
   style="fill:#000000;stroke-width:0"
   inkscape:connector-curvature="0"
   d="m 207.57,384.55 0.08,-0.08 0.08,-0.09 0.07,-0.09 0.06,-0.1 0.06,-0.09 0.06,-0.1 0.05,-0.1 0.04,-0.1 0.04,-0.11 0.03,-0.1 0.03,-0.11 0.03,-0.1 0.01,-0.11 0.02,-0.11 0.01,-0.11 0,-0.11 0,-0.11 -0.01,-0.11 -0.02,-0.11 -0.01,-0.1 -0.03,-0.11 -0.03,-0.11 -0.03,-0.1 -0.04,-0.11 -0.04,-0.1 -0.05,-0.1 -0.06,-0.1 -0.06,-0.09 -0.06,-0.1 -0.07,-0.09 -0.08,-0.09 -0.08,-0.08 c -0.89,-0.89 -2.33,-0.89 -3.22,0 -0.89,0.89 -0.89,2.33 0,3.22 0.89,0.89 2.33,0.89 3.22,0 z"
   id="path67-7" />
<path
   style="stroke-width:0.89999998"
   inkscape:connector-curvature="0"
   d="m 207.57,384.55 0.08,-0.08 0.08,-0.09 0.07,-0.09 0.06,-0.1 0.06,-0.09 0.06,-0.1 0.05,-0.1 0.04,-0.1 0.04,-0.11 0.03,-0.1 0.03,-0.11 0.03,-0.1 0.01,-0.11 0.02,-0.11 0.01,-0.11 0,-0.11 0,-0.11 -0.01,-0.11 -0.02,-0.11 -0.01,-0.1 -0.03,-0.11 -0.03,-0.11 -0.03,-0.1 -0.04,-0.11 -0.04,-0.1 -0.05,-0.1 -0.06,-0.1 -0.06,-0.09 -0.06,-0.1 -0.07,-0.09 -0.08,-0.09 -0.08,-0.08 c -0.89,-0.89 -2.33,-0.89 -3.22,0 -0.89,0.89 -0.89,2.33 0,3.22 0.89,0.89 2.33,0.89 3.22,0 z"
   id="path69-3" />
<path
   style="fill:#000000;stroke-width:0"
   inkscape:connector-curvature="0"
   d="m 235.89,416.95 0.08,-0.08 0.08,-0.09 0.07,-0.09 0.06,-0.09 0.06,-0.1 0.06,-0.1 0.05,-0.1 0.04,-0.1 0.04,-0.11 0.03,-0.1 0.03,-0.11 0.03,-0.1 0.02,-0.11 0.01,-0.11 0.01,-0.11 0,-0.11 0,-0.11 -0.01,-0.11 -0.01,-0.11 -0.02,-0.11 -0.03,-0.1 -0.03,-0.11 -0.03,-0.11 -0.04,-0.1 -0.04,-0.1 -0.05,-0.1 -0.06,-0.1 -0.06,-0.1 -0.06,-0.09 -0.07,-0.09 -0.08,-0.09 -0.08,-0.08 c -0.89,-0.89 -2.33,-0.89 -3.22,0 -0.89,0.89 -0.89,2.33 0,3.22 0.89,0.89 2.33,0.89 3.22,0 z"
   id="path71-9" />
<path
   style="stroke-width:0.89999998"
   inkscape:connector-curvature="0"
   d="m 235.89,416.95 0.08,-0.08 0.08,-0.09 0.07,-0.09 0.06,-0.09 0.06,-0.1 0.06,-0.1 0.05,-0.1 0.04,-0.1 0.04,-0.11 0.03,-0.1 0.03,-0.11 0.03,-0.1 0.02,-0.11 0.01,-0.11 0.01,-0.11 0,-0.11 0,-0.11 -0.01,-0.11 -0.01,-0.11 -0.02,-0.11 -0.03,-0.1 -0.03,-0.11 -0.03,-0.11 -0.04,-0.1 -0.04,-0.1 -0.05,-0.1 -0.06,-0.1 -0.06,-0.1 -0.06,-0.09 -0.07,-0.09 -0.08,-0.09 -0.08,-0.08 c -0.89,-0.89 -2.33,-0.89 -3.22,0 -0.89,0.89 -0.89,2.33 0,3.22 0.89,0.89 2.33,0.89 3.22,0 z"
   id="path73-8" />
<path
   style="fill:#000000;stroke-width:0"
   inkscape:connector-curvature="0"
   d="m 249.87,374.53 0.08,-0.08 0.08,-0.09 0.07,-0.09 0.06,-0.1 0.06,-0.09 0.06,-0.1 0.05,-0.1 0.04,-0.1 0.04,-0.1 0.04,-0.11 0.02,-0.11 0.03,-0.1 0.02,-0.11 0.01,-0.11 0.01,-0.11 0,-0.11 0,-0.11 -0.01,-0.11 -0.01,-0.11 -0.02,-0.1 -0.03,-0.11 -0.02,-0.11 -0.04,-0.1 -0.04,-0.11 -0.04,-0.1 -0.05,-0.1 -0.06,-0.1 -0.06,-0.09 -0.06,-0.1 -0.07,-0.09 -0.08,-0.09 -0.08,-0.08 c -0.89,-0.89 -2.33,-0.89 -3.22,0 -0.89,0.89 -0.89,2.33 0,3.22 0.89,0.89 2.33,0.89 3.22,0 z"
   id="path75-1" />
<path
   style="stroke-width:0.89999998"
   inkscape:connector-curvature="0"
   d="m 249.87,374.53 0.08,-0.08 0.08,-0.09 0.07,-0.09 0.06,-0.1 0.06,-0.09 0.06,-0.1 0.05,-0.1 0.04,-0.1 0.04,-0.1 0.04,-0.11 0.02,-0.11 0.03,-0.1 0.02,-0.11 0.01,-0.11 0.01,-0.11 0,-0.11 0,-0.11 -0.01,-0.11 -0.01,-0.11 -0.02,-0.1 -0.03,-0.11 -0.02,-0.11 -0.04,-0.1 -0.04,-0.11 -0.04,-0.1 -0.05,-0.1 -0.06,-0.1 -0.06,-0.09 -0.06,-0.1 -0.07,-0.09 -0.08,-0.09 -0.08,-0.08 c -0.89,-0.89 -2.33,-0.89 -3.22,0 -0.89,0.89 -0.89,2.33 0,3.22 0.89,0.89 2.33,0.89 3.22,0 z"
   id="path77-9" />
<path
   style="fill:#000000;stroke-width:0"
   inkscape:connector-curvature="0"
   d="m 222.33,400.93 0.08,-0.08 0.08,-0.09 0.07,-0.09 0.06,-0.09 0.06,-0.1 0.06,-0.1 0.05,-0.1 0.04,-0.1 0.04,-0.1 0.04,-0.11 0.02,-0.11 0.03,-0.1 0.02,-0.11 0.01,-0.11 0.01,-0.11 0,-0.11 0,-0.11 -0.01,-0.11 -0.01,-0.11 -0.02,-0.11 -0.03,-0.1 -0.02,-0.11 -0.04,-0.1 -0.04,-0.11 -0.04,-0.1 -0.05,-0.1 -0.06,-0.1 -0.06,-0.1 -0.06,-0.09 -0.07,-0.09 -0.08,-0.09 -0.08,-0.08 c -0.89,-0.89 -2.33,-0.89 -3.22,0 -0.89,0.89 -0.89,2.33 0,3.22 0.89,0.89 2.33,0.89 3.22,0 z"
   id="path79-0" />
<path
   style="stroke-width:0.89999998"
   inkscape:connector-curvature="0"
   d="m 222.33,400.93 0.08,-0.08 0.08,-0.09 0.07,-0.09 0.06,-0.09 0.06,-0.1 0.06,-0.1 0.05,-0.1 0.04,-0.1 0.04,-0.1 0.04,-0.11 0.02,-0.11 0.03,-0.1 0.02,-0.11 0.01,-0.11 0.01,-0.11 0,-0.11 0,-0.11 -0.01,-0.11 -0.01,-0.11 -0.02,-0.11 -0.03,-0.1 -0.02,-0.11 -0.04,-0.1 -0.04,-0.11 -0.04,-0.1 -0.05,-0.1 -0.06,-0.1 -0.06,-0.1 -0.06,-0.09 -0.07,-0.09 -0.08,-0.09 -0.08,-0.08 c -0.89,-0.89 -2.33,-0.89 -3.22,0 -0.89,0.89 -0.89,2.33 0,3.22 0.89,0.89 2.33,0.89 3.22,0 z"
   id="path81-3" />
<path
   style="stroke-width:0.89999998"
   inkscape:connector-curvature="0"
   d="m 247.64,371.86 -0.82,-0.75 -0.89,-0.67 -0.94,-0.58 -1,-0.51 -1.05,-0.43 -1.1,-0.34 -1.15,-0.27 -1.19,-0.19 -1.24,-0.12 -1.28,-0.04 -1.31,0.03 -1.35,0.11 -1.38,0.19 -1.41,0.25 -1.43,0.33 -1.46,0.39 -1.48,0.47 -1.5,0.53 -1.51,0.61 -1.52,0.67 -1.53,0.74 -1.54,0.8 -1.55,0.87 -1.54,0.94 -1.55,1 -1.54,1.06 -1.54,1.12 -1.52,1.18 -1.51,1.25 -1.5,1.3 -1.48,1.37 -1.46,1.42 c -15.47,15.46 -21.17,34.84 -12.73,43.27 8.43,8.43 27.81,2.73 43.27,-12.73 15.47,-15.46 21.16,-34.84 12.73,-43.27 z"
   id="path83-0" />
<path
   style="stroke-width:0.89999998"
   inkscape:connector-curvature="0"
   d="m 307.6,376.4 -1.85,0.03 -1.83,0.08 -1.8,0.14 -1.77,0.19 -1.74,0.24 -1.71,0.29 -1.67,0.34 -1.64,0.39 -1.59,0.43 -1.56,0.48 -1.5,0.52 -1.46,0.56 -1.42,0.6 -1.36,0.64 -1.3,0.68 -1.25,0.72 -1.19,0.75 -1.14,0.78 -1.07,0.82 -1,0.84 -0.94,0.88 -0.86,0.9 -0.8,0.93 -0.72,0.96 -0.64,0.98 -0.57,1.01 -0.48,1.02 -0.41,1.05 -0.31,1.06 -0.23,1.08 -0.14,1.1 -0.05,1.11 c 0,11.93 16.12,21.6 36,21.6 19.88,0 36,-9.67 36,-21.6 0,-11.93 -16.12,-21.6 -36,-21.6 z"
   id="path85-4" />
<path
   style="fill:#000000;stroke-width:0"
   inkscape:connector-curvature="0"
   d="m 343.36,395.48 -0.12,0 -0.11,0.01 -0.12,0.02 -0.11,0.02 -0.11,0.02 -0.11,0.03 -0.1,0.04 -0.11,0.04 -0.1,0.05 -0.1,0.05 -0.09,0.05 -0.1,0.06 -0.08,0.06 -0.09,0.07 -0.08,0.07 -0.08,0.08 -0.08,0.08 -0.07,0.08 -0.07,0.09 -0.06,0.09 -0.06,0.09 -0.06,0.1 -0.05,0.09 -0.04,0.1 -0.04,0.11 -0.04,0.1 -0.03,0.11 -0.03,0.11 -0.02,0.12 -0.01,0.11 -0.01,0.11 0,0.12 c 0,1.26 1.02,2.28 2.28,2.28 1.26,0 2.28,-1.02 2.28,-2.28 0,-1.26 -1.02,-2.28 -2.28,-2.28 z"
   id="path87-6" />
<path
   style="stroke-width:0.89999998"
   inkscape:connector-curvature="0"
   d="m 343.36,395.48 -0.12,0 -0.11,0.01 -0.12,0.02 -0.11,0.02 -0.11,0.02 -0.11,0.03 -0.1,0.04 -0.11,0.04 -0.1,0.05 -0.1,0.05 -0.09,0.05 -0.1,0.06 -0.08,0.06 -0.09,0.07 -0.08,0.07 -0.08,0.08 -0.08,0.08 -0.07,0.08 -0.07,0.09 -0.06,0.09 -0.06,0.09 -0.06,0.1 -0.05,0.09 -0.04,0.1 -0.04,0.11 -0.04,0.1 -0.03,0.11 -0.03,0.11 -0.02,0.12 -0.01,0.11 -0.01,0.11 0,0.12 c 0,1.26 1.02,2.28 2.28,2.28 1.26,0 2.28,-1.02 2.28,-2.28 0,-1.26 -1.02,-2.28 -2.28,-2.28 z"
   id="path89-0" />
<path
   style="fill:#000000;stroke-width:0"
   inkscape:connector-curvature="0"
   d="m 271.6,395.48 -0.12,0 -0.11,0.01 -0.12,0.02 -0.11,0.02 -0.11,0.02 -0.11,0.03 -0.1,0.04 -0.11,0.04 -0.1,0.05 -0.09,0.05 -0.1,0.05 -0.09,0.06 -0.09,0.06 -0.09,0.07 -0.08,0.07 -0.08,0.08 -0.08,0.08 -0.07,0.08 -0.07,0.09 -0.06,0.09 -0.06,0.09 -0.05,0.1 -0.05,0.09 -0.05,0.1 -0.04,0.11 -0.04,0.1 -0.03,0.11 -0.02,0.11 -0.02,0.12 -0.02,0.11 -0.01,0.11 0,0.12 c 0,1.26 1.02,2.28 2.28,2.28 1.26,0 2.28,-1.02 2.28,-2.28 0,-1.26 -1.02,-2.28 -2.28,-2.28 z"
   id="path91-0" />
<path
   style="stroke-width:0.89999998"
   inkscape:connector-curvature="0"
   d="m 271.6,395.48 -0.12,0 -0.11,0.01 -0.12,0.02 -0.11,0.02 -0.11,0.02 -0.11,0.03 -0.1,0.04 -0.11,0.04 -0.1,0.05 -0.09,0.05 -0.1,0.05 -0.09,0.06 -0.09,0.06 -0.09,0.07 -0.08,0.07 -0.08,0.08 -0.08,0.08 -0.07,0.08 -0.07,0.09 -0.06,0.09 -0.06,0.09 -0.05,0.1 -0.05,0.09 -0.05,0.1 -0.04,0.11 -0.04,0.1 -0.03,0.11 -0.02,0.11 -0.02,0.12 -0.02,0.11 -0.01,0.11 0,0.12 c 0,1.26 1.02,2.28 2.28,2.28 1.26,0 2.28,-1.02 2.28,-2.28 0,-1.26 -1.02,-2.28 -2.28,-2.28 z"
   id="path93-0" />
<path
   style="fill:#000000;stroke-width:0"
   inkscape:connector-curvature="0"
   d="m 307.36,417.32 -0.12,0 -0.11,0.01 -0.12,0.02 -0.11,0.02 -0.11,0.02 -0.11,0.03 -0.1,0.04 -0.11,0.04 -0.1,0.05 -0.1,0.05 -0.09,0.05 -0.1,0.06 -0.08,0.06 -0.09,0.07 -0.08,0.07 -0.08,0.08 -0.08,0.08 -0.07,0.08 -0.07,0.09 -0.06,0.09 -0.06,0.09 -0.06,0.1 -0.05,0.09 -0.04,0.1 -0.04,0.11 -0.04,0.1 -0.03,0.11 -0.03,0.11 -0.02,0.11 -0.01,0.12 -0.01,0.11 0,0.12 c 0,1.26 1.02,2.28 2.28,2.28 1.26,0 2.28,-1.02 2.28,-2.28 0,-1.26 -1.02,-2.28 -2.28,-2.28 z"
   id="path95-6" />
<path
   style="stroke-width:0.89999998"
   inkscape:connector-curvature="0"
   d="m 307.36,417.32 -0.12,0 -0.11,0.01 -0.12,0.02 -0.11,0.02 -0.11,0.02 -0.11,0.03 -0.1,0.04 -0.11,0.04 -0.1,0.05 -0.1,0.05 -0.09,0.05 -0.1,0.06 -0.08,0.06 -0.09,0.07 -0.08,0.07 -0.08,0.08 -0.08,0.08 -0.07,0.08 -0.07,0.09 -0.06,0.09 -0.06,0.09 -0.06,0.1 -0.05,0.09 -0.04,0.1 -0.04,0.11 -0.04,0.1 -0.03,0.11 -0.03,0.11 -0.02,0.11 -0.01,0.12 -0.01,0.11 0,0.12 c 0,1.26 1.02,2.28 2.28,2.28 1.26,0 2.28,-1.02 2.28,-2.28 0,-1.26 -1.02,-2.28 -2.28,-2.28 z"
   id="path97-4" />
<path
   style="fill:#000000;stroke-width:0"
   inkscape:connector-curvature="0"
   d="m 307.36,374.36 -0.12,0 -0.11,0.01 -0.12,0.02 -0.11,0.02 -0.11,0.02 -0.11,0.03 -0.1,0.04 -0.11,0.04 -0.1,0.04 -0.1,0.05 -0.09,0.06 -0.1,0.06 -0.08,0.06 -0.09,0.07 -0.08,0.07 -0.08,0.08 -0.08,0.08 -0.07,0.08 -0.07,0.09 -0.06,0.09 -0.06,0.09 -0.06,0.09 -0.05,0.1 -0.04,0.1 -0.04,0.11 -0.04,0.1 -0.03,0.11 -0.03,0.11 -0.02,0.11 -0.01,0.12 -0.01,0.11 0,0.12 c 0,1.26 1.02,2.28 2.28,2.28 1.26,0 2.28,-1.02 2.28,-2.28 0,-1.26 -1.02,-2.28 -2.28,-2.28 z"
   id="path99-0" />
<path
   style="stroke-width:0.89999998"
   inkscape:connector-curvature="0"
   d="m 307.36,374.36 -0.12,0 -0.11,0.01 -0.12,0.02 -0.11,0.02 -0.11,0.02 -0.11,0.03 -0.1,0.04 -0.11,0.04 -0.1,0.04 -0.1,0.05 -0.09,0.06 -0.1,0.06 -0.08,0.06 -0.09,0.07 -0.08,0.07 -0.08,0.08 -0.08,0.08 -0.07,0.08 -0.07,0.09 -0.06,0.09 -0.06,0.09 -0.06,0.09 -0.05,0.1 -0.04,0.1 -0.04,0.11 -0.04,0.1 -0.03,0.11 -0.03,0.11 -0.02,0.11 -0.01,0.12 -0.01,0.11 0,0.12 c 0,1.26 1.02,2.28 2.28,2.28 1.26,0 2.28,-1.02 2.28,-2.28 0,-1.26 -1.02,-2.28 -2.28,-2.28 z"
   id="path101-6" />
<path
   style="fill:#000000;stroke-width:0"
   inkscape:connector-curvature="0"
   d="m 330.88,412.28 -0.12,0 -0.11,0.01 -0.12,0.02 -0.11,0.02 -0.11,0.02 -0.11,0.03 -0.1,0.04 -0.11,0.04 -0.1,0.05 -0.09,0.05 -0.1,0.05 -0.09,0.06 -0.09,0.06 -0.09,0.07 -0.08,0.07 -0.08,0.08 -0.08,0.08 -0.07,0.08 -0.06,0.09 -0.07,0.09 -0.06,0.09 -0.05,0.09 -0.05,0.1 -0.05,0.1 -0.04,0.11 -0.04,0.1 -0.03,0.11 -0.02,0.11 -0.02,0.11 -0.02,0.12 -0.01,0.11 0,0.12 c 0,1.26 1.02,2.28 2.28,2.28 1.26,0 2.28,-1.02 2.28,-2.28 0,-1.26 -1.02,-2.28 -2.28,-2.28 z"
   id="path103-4" />
<path
   style="stroke-width:0.89999998"
   inkscape:connector-curvature="0"
   d="m 330.88,412.28 -0.12,0 -0.11,0.01 -0.12,0.02 -0.11,0.02 -0.11,0.02 -0.11,0.03 -0.1,0.04 -0.11,0.04 -0.1,0.05 -0.09,0.05 -0.1,0.05 -0.09,0.06 -0.09,0.06 -0.09,0.07 -0.08,0.07 -0.08,0.08 -0.08,0.08 -0.07,0.08 -0.06,0.09 -0.07,0.09 -0.06,0.09 -0.05,0.09 -0.05,0.1 -0.05,0.1 -0.04,0.11 -0.04,0.1 -0.03,0.11 -0.02,0.11 -0.02,0.11 -0.02,0.12 -0.01,0.11 0,0.12 c 0,1.26 1.02,2.28 2.28,2.28 1.26,0 2.28,-1.02 2.28,-2.28 0,-1.26 -1.02,-2.28 -2.28,-2.28 z"
   id="path105-0" />
<path
   style="fill:#000000;stroke-width:0"
   inkscape:connector-curvature="0"
   d="m 330.88,379.4 -0.12,0 -0.11,0.01 -0.12,0.01 -0.11,0.02 -0.11,0.03 -0.11,0.03 -0.1,0.04 -0.11,0.04 -0.1,0.04 -0.09,0.05 -0.1,0.06 -0.09,0.06 -0.09,0.06 -0.09,0.07 -0.08,0.07 -0.08,0.08 -0.08,0.08 -0.07,0.08 -0.06,0.09 -0.07,0.09 -0.06,0.09 -0.05,0.09 -0.05,0.1 -0.05,0.1 -0.04,0.11 -0.04,0.1 -0.03,0.11 -0.02,0.11 -0.02,0.11 -0.02,0.12 -0.01,0.11 0,0.12 c 0,1.26 1.02,2.28 2.28,2.28 1.26,0 2.28,-1.02 2.28,-2.28 0,-1.26 -1.02,-2.28 -2.28,-2.28 z"
   id="path107-1" />
<path
   style="stroke-width:0.89999998"
   inkscape:connector-curvature="0"
   d="m 330.88,379.4 -0.12,0 -0.11,0.01 -0.12,0.01 -0.11,0.02 -0.11,0.03 -0.11,0.03 -0.1,0.04 -0.11,0.04 -0.1,0.04 -0.09,0.05 -0.1,0.06 -0.09,0.06 -0.09,0.06 -0.09,0.07 -0.08,0.07 -0.08,0.08 -0.08,0.08 -0.07,0.08 -0.06,0.09 -0.07,0.09 -0.06,0.09 -0.05,0.09 -0.05,0.1 -0.05,0.1 -0.04,0.11 -0.04,0.1 -0.03,0.11 -0.02,0.11 -0.02,0.11 -0.02,0.12 -0.01,0.11 0,0.12 c 0,1.26 1.02,2.28 2.28,2.28 1.26,0 2.28,-1.02 2.28,-2.28 0,-1.26 -1.02,-2.28 -2.28,-2.28 z"
   id="path109-6" />
<path
   style="fill:#000000;stroke-width:0"
   inkscape:connector-curvature="0"
   d="m 285.76,378.68 -0.12,0 -0.11,0.01 -0.11,0.02 -0.12,0.02 -0.11,0.02 -0.11,0.03 -0.1,0.04 -0.11,0.04 -0.1,0.05 -0.09,0.05 -0.1,0.05 -0.09,0.06 -0.09,0.06 -0.09,0.07 -0.08,0.07 -0.08,0.08 -0.08,0.08 -0.07,0.08 -0.07,0.09 -0.06,0.09 -0.06,0.09 -0.05,0.09 -0.05,0.1 -0.05,0.1 -0.04,0.11 -0.04,0.1 -0.03,0.11 -0.02,0.11 -0.02,0.11 -0.02,0.12 -0.01,0.11 0,0.12 c 0,1.25 1.02,2.28 2.28,2.28 1.26,0 2.28,-1.03 2.28,-2.28 0,-1.26 -1.02,-2.28 -2.28,-2.28 z"
   id="path111-4" />
<path
   style="stroke-width:0.89999998"
   inkscape:connector-curvature="0"
   d="m 285.76,378.68 -0.12,0 -0.11,0.01 -0.11,0.02 -0.12,0.02 -0.11,0.02 -0.11,0.03 -0.1,0.04 -0.11,0.04 -0.1,0.05 -0.09,0.05 -0.1,0.05 -0.09,0.06 -0.09,0.06 -0.09,0.07 -0.08,0.07 -0.08,0.08 -0.08,0.08 -0.07,0.08 -0.07,0.09 -0.06,0.09 -0.06,0.09 -0.05,0.09 -0.05,0.1 -0.05,0.1 -0.04,0.11 -0.04,0.1 -0.03,0.11 -0.02,0.11 -0.02,0.11 -0.02,0.12 -0.01,0.11 0,0.12 c 0,1.25 1.02,2.28 2.28,2.28 1.26,0 2.28,-1.03 2.28,-2.28 0,-1.26 -1.02,-2.28 -2.28,-2.28 z"
   id="path113-5" />
<path
   style="fill:#000000;stroke-width:0"
   inkscape:connector-curvature="0"
   d="m 285.04,412.52 -0.12,0 -0.11,0.01 -0.12,0.02 -0.11,0.02 -0.11,0.02 -0.11,0.03 -0.1,0.04 -0.11,0.04 -0.1,0.05 -0.09,0.05 -0.1,0.05 -0.09,0.06 -0.09,0.06 -0.09,0.07 -0.08,0.07 -0.08,0.08 -0.08,0.08 -0.07,0.08 -0.06,0.09 -0.07,0.09 -0.06,0.09 -0.05,0.09 -0.05,0.1 -0.05,0.1 -0.04,0.11 -0.04,0.1 -0.03,0.11 -0.02,0.11 -0.02,0.11 -0.02,0.12 -0.01,0.11 0,0.12 c 0,1.25 1.03,2.28 2.28,2.28 1.26,0 2.28,-1.03 2.28,-2.28 0,-1.26 -1.02,-2.28 -2.28,-2.28 z"
   id="path115-3" />
<path
   style="stroke-width:0.89999998"
   inkscape:connector-curvature="0"
   d="m 285.04,412.52 -0.12,0 -0.11,0.01 -0.12,0.02 -0.11,0.02 -0.11,0.02 -0.11,0.03 -0.1,0.04 -0.11,0.04 -0.1,0.05 -0.09,0.05 -0.1,0.05 -0.09,0.06 -0.09,0.06 -0.09,0.07 -0.08,0.07 -0.08,0.08 -0.08,0.08 -0.07,0.08 -0.06,0.09 -0.07,0.09 -0.06,0.09 -0.05,0.09 -0.05,0.1 -0.05,0.1 -0.04,0.11 -0.04,0.1 -0.03,0.11 -0.02,0.11 -0.02,0.11 -0.02,0.12 -0.01,0.11 0,0.12 c 0,1.25 1.03,2.28 2.28,2.28 1.26,0 2.28,-1.03 2.28,-2.28 0,-1.26 -1.02,-2.28 -2.28,-2.28 z"
   id="path117-2" />
<path
   style="fill:#000000;stroke-width:0"
   inkscape:connector-curvature="0"
   d="m 307.36,395.72 -0.12,0 -0.11,0.01 -0.12,0.02 -0.11,0.02 -0.11,0.02 -0.11,0.03 -0.1,0.04 -0.11,0.04 -0.1,0.04 -0.1,0.05 -0.09,0.06 -0.1,0.06 -0.08,0.06 -0.09,0.07 -0.08,0.07 -0.08,0.08 -0.08,0.08 -0.07,0.08 -0.07,0.09 -0.06,0.09 -0.06,0.09 -0.06,0.09 -0.05,0.1 -0.04,0.1 -0.04,0.11 -0.04,0.1 -0.03,0.11 -0.03,0.11 -0.02,0.11 -0.01,0.12 -0.01,0.11 0,0.12 c 0,1.26 1.02,2.28 2.28,2.28 1.26,0 2.28,-1.02 2.28,-2.28 0,-1.26 -1.02,-2.28 -2.28,-2.28 z"
   id="path119-8" />
<path
   style="stroke-width:0.89999998"
   inkscape:connector-curvature="0"
   d="m 307.36,395.72 -0.12,0 -0.11,0.01 -0.12,0.02 -0.11,0.02 -0.11,0.02 -0.11,0.03 -0.1,0.04 -0.11,0.04 -0.1,0.04 -0.1,0.05 -0.09,0.06 -0.1,0.06 -0.08,0.06 -0.09,0.07 -0.08,0.07 -0.08,0.08 -0.08,0.08 -0.07,0.08 -0.07,0.09 -0.06,0.09 -0.06,0.09 -0.06,0.09 -0.05,0.1 -0.04,0.1 -0.04,0.11 -0.04,0.1 -0.03,0.11 -0.03,0.11 -0.02,0.11 -0.01,0.12 -0.01,0.11 0,0.12 c 0,1.26 1.02,2.28 2.28,2.28 1.26,0 2.28,-1.02 2.28,-2.28 0,-1.26 -1.02,-2.28 -2.28,-2.28 z"
   id="path121-7" />
<path
   style="fill:#000000;stroke-width:0"
   inkscape:connector-curvature="0"
   d="m 425.85,427.11 -0.08,-0.08 -0.09,-0.08 -0.09,-0.07 -0.1,-0.06 -0.09,-0.06 -0.1,-0.06 -0.1,-0.05 -0.1,-0.04 -0.11,-0.04 -0.1,-0.03 -0.11,-0.03 -0.11,-0.03 -0.1,-0.02 -0.11,-0.01 -0.11,-0.01 -0.11,0 -0.11,0 -0.11,0.01 -0.11,0.01 -0.11,0.02 -0.1,0.03 -0.11,0.03 -0.1,0.03 -0.11,0.04 -0.1,0.04 -0.1,0.05 -0.1,0.06 -0.09,0.06 -0.1,0.06 -0.09,0.07 -0.09,0.08 -0.08,0.08 c -0.89,0.89 -0.89,2.33 0,3.22 0.89,0.89 2.33,0.89 3.22,0 0.89,-0.89 0.89,-2.33 0,-3.22 z"
   id="path123-2" />
<path
   style="stroke-width:0.89999998"
   inkscape:connector-curvature="0"
   d="m 425.85,427.11 -0.08,-0.08 -0.09,-0.08 -0.09,-0.07 -0.1,-0.06 -0.09,-0.06 -0.1,-0.06 -0.1,-0.05 -0.1,-0.04 -0.11,-0.04 -0.1,-0.03 -0.11,-0.03 -0.11,-0.03 -0.1,-0.02 -0.11,-0.01 -0.11,-0.01 -0.11,0 -0.11,0 -0.11,0.01 -0.11,0.01 -0.11,0.02 -0.1,0.03 -0.11,0.03 -0.1,0.03 -0.11,0.04 -0.1,0.04 -0.1,0.05 -0.1,0.06 -0.09,0.06 -0.1,0.06 -0.09,0.07 -0.09,0.08 -0.08,0.08 c -0.89,0.89 -0.89,2.33 0,3.22 0.89,0.89 2.33,0.89 3.22,0 0.89,-0.89 0.89,-2.33 0,-3.22 z"
   id="path125-9" />
<path
   style="fill:#000000;stroke-width:0"
   inkscape:connector-curvature="0"
   d="m 394.41,369.27 -0.08,-0.08 -0.09,-0.08 -0.09,-0.07 -0.09,-0.06 -0.1,-0.06 -0.1,-0.06 -0.1,-0.05 -0.1,-0.04 -0.1,-0.04 -0.11,-0.03 -0.11,-0.03 -0.1,-0.03 -0.11,-0.01 -0.11,-0.02 -0.11,-0.01 -0.11,0 -0.11,0 -0.11,0.01 -0.11,0.02 -0.11,0.01 -0.1,0.03 -0.11,0.03 -0.1,0.03 -0.11,0.04 -0.1,0.04 -0.1,0.05 -0.1,0.06 -0.09,0.06 -0.1,0.06 -0.09,0.07 -0.09,0.08 -0.08,0.08 c -0.89,0.89 -0.89,2.33 0,3.22 0.89,0.89 2.33,0.89 3.22,0 0.89,-0.89 0.89,-2.33 0,-3.22 z"
   id="path127-1" />
<path
   style="stroke-width:0.89999998"
   inkscape:connector-curvature="0"
   d="m 394.41,369.27 -0.08,-0.08 -0.09,-0.08 -0.09,-0.07 -0.09,-0.06 -0.1,-0.06 -0.1,-0.06 -0.1,-0.05 -0.1,-0.04 -0.1,-0.04 -0.11,-0.03 -0.11,-0.03 -0.1,-0.03 -0.11,-0.01 -0.11,-0.02 -0.11,-0.01 -0.11,0 -0.11,0 -0.11,0.01 -0.11,0.02 -0.11,0.01 -0.1,0.03 -0.11,0.03 -0.1,0.03 -0.11,0.04 -0.1,0.04 -0.1,0.05 -0.1,0.06 -0.09,0.06 -0.1,0.06 -0.09,0.07 -0.09,0.08 -0.08,0.08 c -0.89,0.89 -0.89,2.33 0,3.22 0.89,0.89 2.33,0.89 3.22,0 0.89,-0.89 0.89,-2.33 0,-3.22 z"
   id="path129-1" />
<path
   style="fill:#000000;stroke-width:0"
   inkscape:connector-curvature="0"
   d="m 370.89,396.63 -0.08,-0.08 -0.09,-0.08 -0.09,-0.07 -0.1,-0.06 -0.09,-0.06 -0.1,-0.06 -0.1,-0.05 -0.1,-0.04 -0.11,-0.04 -0.1,-0.04 -0.11,-0.02 -0.1,-0.03 -0.11,-0.02 -0.11,-0.01 -0.11,-0.01 -0.11,0 -0.11,0 -0.11,0.01 -0.11,0.01 -0.1,0.02 -0.11,0.03 -0.11,0.02 -0.1,0.04 -0.11,0.04 -0.1,0.04 -0.1,0.05 -0.1,0.06 -0.09,0.06 -0.1,0.06 -0.09,0.07 -0.09,0.08 -0.08,0.08 c -0.89,0.89 -0.89,2.33 0,3.22 0.89,0.89 2.33,0.89 3.22,0 0.89,-0.89 0.89,-2.33 0,-3.22 z"
   id="path131-4" />
<path
   style="stroke-width:0.89999998"
   inkscape:connector-curvature="0"
   d="m 370.89,396.63 -0.08,-0.08 -0.09,-0.08 -0.09,-0.07 -0.1,-0.06 -0.09,-0.06 -0.1,-0.06 -0.1,-0.05 -0.1,-0.04 -0.11,-0.04 -0.1,-0.04 -0.11,-0.02 -0.1,-0.03 -0.11,-0.02 -0.11,-0.01 -0.11,-0.01 -0.11,0 -0.11,0 -0.11,0.01 -0.11,0.01 -0.1,0.02 -0.11,0.03 -0.11,0.02 -0.1,0.04 -0.11,0.04 -0.1,0.04 -0.1,0.05 -0.1,0.06 -0.09,0.06 -0.1,0.06 -0.09,0.07 -0.09,0.08 -0.08,0.08 c -0.89,0.89 -0.89,2.33 0,3.22 0.89,0.89 2.33,0.89 3.22,0 0.89,-0.89 0.89,-2.33 0,-3.22 z"
   id="path133-0" />
<path
   style="fill:#000000;stroke-width:0"
   inkscape:connector-curvature="0"
   d="m 426.93,401.31 -0.08,-0.08 -0.09,-0.08 -0.09,-0.07 -0.09,-0.06 -0.1,-0.06 -0.1,-0.06 -0.1,-0.05 -0.1,-0.04 -0.1,-0.04 -0.11,-0.04 -0.11,-0.02 -0.1,-0.03 -0.11,-0.02 -0.11,-0.01 -0.11,-0.01 -0.11,0 -0.11,0 -0.11,0.01 -0.11,0.01 -0.11,0.02 -0.1,0.03 -0.11,0.02 -0.1,0.04 -0.11,0.04 -0.1,0.04 -0.1,0.05 -0.1,0.06 -0.1,0.06 -0.09,0.06 -0.09,0.07 -0.09,0.08 -0.08,0.08 c -0.89,0.89 -0.89,2.33 0,3.22 0.89,0.89 2.33,0.89 3.22,0 0.89,-0.89 0.89,-2.33 0,-3.22 z"
   id="path135-1" />
<path
   style="stroke-width:0.89999998"
   inkscape:connector-curvature="0"
   d="m 426.93,401.31 -0.08,-0.08 -0.09,-0.08 -0.09,-0.07 -0.09,-0.06 -0.1,-0.06 -0.1,-0.06 -0.1,-0.05 -0.1,-0.04 -0.1,-0.04 -0.11,-0.04 -0.11,-0.02 -0.1,-0.03 -0.11,-0.02 -0.11,-0.01 -0.11,-0.01 -0.11,0 -0.11,0 -0.11,0.01 -0.11,0.01 -0.11,0.02 -0.1,0.03 -0.11,0.02 -0.1,0.04 -0.11,0.04 -0.1,0.04 -0.1,0.05 -0.1,0.06 -0.1,0.06 -0.09,0.06 -0.09,0.07 -0.09,0.08 -0.08,0.08 c -0.89,0.89 -0.89,2.33 0,3.22 0.89,0.89 2.33,0.89 3.22,0 0.89,-0.89 0.89,-2.33 0,-3.22 z"
   id="path137-7" />
<path
   style="fill:#000000;stroke-width:0"
   inkscape:connector-curvature="0"
   d="m 402.21,426.93 -0.08,-0.08 -0.09,-0.08 -0.09,-0.07 -0.1,-0.06 -0.09,-0.06 -0.1,-0.06 -0.1,-0.05 -0.1,-0.04 -0.11,-0.04 -0.1,-0.03 -0.11,-0.03 -0.1,-0.03 -0.11,-0.01 -0.11,-0.02 -0.11,-0.01 -0.11,0 -0.11,0 -0.11,0.01 -0.11,0.02 -0.1,0.01 -0.11,0.03 -0.11,0.03 -0.1,0.03 -0.11,0.04 -0.1,0.04 -0.1,0.05 -0.1,0.06 -0.09,0.06 -0.1,0.06 -0.09,0.07 -0.09,0.08 -0.08,0.08 c -0.89,0.89 -0.89,2.33 0,3.22 0.89,0.89 2.33,0.89 3.22,0 0.89,-0.89 0.89,-2.33 0,-3.22 z"
   id="path139-1" />
<path
   style="stroke-width:0.89999998"
   inkscape:connector-curvature="0"
   d="m 402.21,426.93 -0.08,-0.08 -0.09,-0.08 -0.09,-0.07 -0.1,-0.06 -0.09,-0.06 -0.1,-0.06 -0.1,-0.05 -0.1,-0.04 -0.11,-0.04 -0.1,-0.03 -0.11,-0.03 -0.1,-0.03 -0.11,-0.01 -0.11,-0.02 -0.11,-0.01 -0.11,0 -0.11,0 -0.11,0.01 -0.11,0.02 -0.1,0.01 -0.11,0.03 -0.11,0.03 -0.1,0.03 -0.11,0.04 -0.1,0.04 -0.1,0.05 -0.1,0.06 -0.09,0.06 -0.1,0.06 -0.09,0.07 -0.09,0.08 -0.08,0.08 c -0.89,0.89 -0.89,2.33 0,3.22 0.89,0.89 2.33,0.89 3.22,0 0.89,-0.89 0.89,-2.33 0,-3.22 z"
   id="path141-3" />
<path
   style="fill:#000000;stroke-width:0"
   inkscape:connector-curvature="0"
   d="m 412.65,381.51 -0.08,-0.08 -0.09,-0.08 -0.09,-0.07 -0.1,-0.06 -0.09,-0.06 -0.1,-0.06 -0.1,-0.05 -0.1,-0.04 -0.11,-0.04 -0.1,-0.04 -0.11,-0.02 -0.1,-0.03 -0.11,-0.02 -0.11,-0.01 -0.11,-0.01 -0.11,0 -0.11,0 -0.11,0.01 -0.11,0.01 -0.11,0.02 -0.1,0.03 -0.11,0.02 -0.1,0.04 -0.11,0.04 -0.1,0.04 -0.1,0.05 -0.1,0.06 -0.09,0.06 -0.1,0.06 -0.09,0.07 -0.09,0.08 -0.08,0.08 c -0.89,0.89 -0.89,2.33 0,3.22 0.89,0.89 2.33,0.89 3.22,0 0.89,-0.89 0.89,-2.33 0,-3.22 z"
   id="path143-0" />
<path
   style="stroke-width:0.89999998"
   inkscape:connector-curvature="0"
   d="m 412.65,381.51 -0.08,-0.08 -0.09,-0.08 -0.09,-0.07 -0.1,-0.06 -0.09,-0.06 -0.1,-0.06 -0.1,-0.05 -0.1,-0.04 -0.11,-0.04 -0.1,-0.04 -0.11,-0.02 -0.1,-0.03 -0.11,-0.02 -0.11,-0.01 -0.11,-0.01 -0.11,0 -0.11,0 -0.11,0.01 -0.11,0.01 -0.11,0.02 -0.1,0.03 -0.11,0.02 -0.1,0.04 -0.11,0.04 -0.1,0.04 -0.1,0.05 -0.1,0.06 -0.09,0.06 -0.1,0.06 -0.09,0.07 -0.09,0.08 -0.08,0.08 c -0.89,0.89 -0.89,2.33 0,3.22 0.89,0.89 2.33,0.89 3.22,0 0.89,-0.89 0.89,-2.33 0,-3.22 z"
   id="path145-3" />
<path
   style="fill:#000000;stroke-width:0"
   inkscape:connector-curvature="0"
   d="m 384.33,413.91 -0.08,-0.08 -0.09,-0.08 -0.09,-0.07 -0.1,-0.06 -0.09,-0.06 -0.1,-0.06 -0.1,-0.05 -0.1,-0.04 -0.11,-0.04 -0.1,-0.04 -0.11,-0.02 -0.11,-0.03 -0.1,-0.02 -0.11,-0.01 -0.11,-0.01 -0.11,0 -0.11,0 -0.11,0.01 -0.11,0.01 -0.11,0.02 -0.1,0.03 -0.11,0.02 -0.1,0.04 -0.11,0.04 -0.1,0.04 -0.1,0.05 -0.1,0.06 -0.09,0.06 -0.1,0.06 -0.09,0.07 -0.09,0.08 -0.08,0.08 c -0.89,0.89 -0.89,2.33 0,3.22 0.89,0.89 2.33,0.89 3.22,0 0.89,-0.89 0.89,-2.33 0,-3.22 z"
   id="path147-0" />
<path
   style="stroke-width:0.89999998"
   inkscape:connector-curvature="0"
   d="m 384.33,413.91 -0.08,-0.08 -0.09,-0.08 -0.09,-0.07 -0.1,-0.06 -0.09,-0.06 -0.1,-0.06 -0.1,-0.05 -0.1,-0.04 -0.11,-0.04 -0.1,-0.04 -0.11,-0.02 -0.11,-0.03 -0.1,-0.02 -0.11,-0.01 -0.11,-0.01 -0.11,0 -0.11,0 -0.11,0.01 -0.11,0.01 -0.11,0.02 -0.1,0.03 -0.11,0.02 -0.1,0.04 -0.11,0.04 -0.1,0.04 -0.1,0.05 -0.1,0.06 -0.09,0.06 -0.1,0.06 -0.09,0.07 -0.09,0.08 -0.08,0.08 c -0.89,0.89 -0.89,2.33 0,3.22 0.89,0.89 2.33,0.89 3.22,0 0.89,-0.89 0.89,-2.33 0,-3.22 z"
   id="path149-8" />
<path
   style="fill:#000000;stroke-width:0"
   inkscape:connector-curvature="0"
   d="m 370.35,371.49 -0.08,-0.08 -0.09,-0.08 -0.09,-0.07 -0.1,-0.06 -0.09,-0.06 -0.1,-0.06 -0.1,-0.05 -0.1,-0.04 -0.11,-0.04 -0.1,-0.04 -0.11,-0.02 -0.11,-0.03 -0.1,-0.02 -0.11,-0.01 -0.11,-0.01 -0.11,0 -0.11,0 -0.11,0.01 -0.11,0.01 -0.11,0.02 -0.1,0.03 -0.11,0.02 -0.1,0.04 -0.11,0.04 -0.1,0.04 -0.1,0.05 -0.1,0.06 -0.09,0.06 -0.1,0.06 -0.09,0.07 -0.09,0.08 -0.08,0.08 c -0.89,0.89 -0.89,2.33 0,3.22 0.89,0.89 2.33,0.89 3.22,0 0.89,-0.89 0.89,-2.33 0,-3.22 z"
   id="path151-3" />
<path
   style="stroke-width:0.89999998"
   inkscape:connector-curvature="0"
   d="m 370.35,371.49 -0.08,-0.08 -0.09,-0.08 -0.09,-0.07 -0.1,-0.06 -0.09,-0.06 -0.1,-0.06 -0.1,-0.05 -0.1,-0.04 -0.11,-0.04 -0.1,-0.04 -0.11,-0.02 -0.11,-0.03 -0.1,-0.02 -0.11,-0.01 -0.11,-0.01 -0.11,0 -0.11,0 -0.11,0.01 -0.11,0.01 -0.11,0.02 -0.1,0.03 -0.11,0.02 -0.1,0.04 -0.11,0.04 -0.1,0.04 -0.1,0.05 -0.1,0.06 -0.09,0.06 -0.1,0.06 -0.09,0.07 -0.09,0.08 -0.08,0.08 c -0.89,0.89 -0.89,2.33 0,3.22 0.89,0.89 2.33,0.89 3.22,0 0.89,-0.89 0.89,-2.33 0,-3.22 z"
   id="path153-0" />
<path
   style="fill:#000000;stroke-width:0"
   inkscape:connector-curvature="0"
   d="m 397.89,397.89 -0.08,-0.08 -0.09,-0.08 -0.09,-0.07 -0.1,-0.06 -0.09,-0.06 -0.1,-0.06 -0.1,-0.05 -0.1,-0.04 -0.11,-0.04 -0.1,-0.03 -0.11,-0.03 -0.1,-0.03 -0.11,-0.01 -0.11,-0.02 -0.11,-0.01 -0.11,0 -0.11,0 -0.11,0.01 -0.11,0.02 -0.1,0.01 -0.11,0.03 -0.11,0.03 -0.1,0.03 -0.11,0.04 -0.1,0.04 -0.1,0.05 -0.1,0.06 -0.09,0.06 -0.1,0.06 -0.09,0.07 -0.09,0.08 -0.08,0.08 c -0.89,0.89 -0.89,2.33 0,3.22 0.89,0.89 2.33,0.89 3.22,0 0.89,-0.89 0.89,-2.33 0,-3.22 z"
   id="path155-8" />
<path
   style="stroke-width:0.89999998"
   inkscape:connector-curvature="0"
   d="m 397.89,397.89 -0.08,-0.08 -0.09,-0.08 -0.09,-0.07 -0.1,-0.06 -0.09,-0.06 -0.1,-0.06 -0.1,-0.05 -0.1,-0.04 -0.11,-0.04 -0.1,-0.03 -0.11,-0.03 -0.1,-0.03 -0.11,-0.01 -0.11,-0.02 -0.11,-0.01 -0.11,0 -0.11,0 -0.11,0.01 -0.11,0.02 -0.1,0.01 -0.11,0.03 -0.11,0.03 -0.1,0.03 -0.11,0.04 -0.1,0.04 -0.1,0.05 -0.1,0.06 -0.09,0.06 -0.1,0.06 -0.09,0.07 -0.09,0.08 -0.08,0.08 c -0.89,0.89 -0.89,2.33 0,3.22 0.89,0.89 2.33,0.89 3.22,0 0.89,-0.89 0.89,-2.33 0,-3.22 z"
   id="path157-1" />
<path
   style="stroke-width:0.89999998"
   inkscape:connector-curvature="0"
   d="m 425.36,428.04 0.75,-0.82 0.67,-0.88 0.59,-0.95 0.5,-0.99 0.43,-1.06 0.35,-1.1 0.26,-1.15 0.2,-1.19 0.11,-1.24 0.04,-1.28 -0.03,-1.31 -0.11,-1.35 -0.18,-1.38 -0.26,-1.41 -0.32,-1.43 -0.4,-1.46 -0.47,-1.48 -0.53,-1.49 -0.61,-1.52 -0.67,-1.52 -0.74,-1.53 -0.8,-1.54 -0.87,-1.55 -0.94,-1.54 -1,-1.55 -1.06,-1.54 -1.12,-1.54 -1.18,-1.52 -1.25,-1.51 -1.3,-1.5 -1.37,-1.48 -1.42,-1.46 c -15.46,-15.47 -34.84,-21.16 -43.27,-12.73 -8.43,8.43 -2.74,27.81 12.73,43.27 15.46,15.47 34.84,21.17 43.27,12.73 z"
   id="path159-4" />
<path
   style="stroke-width:0.89999998"
   inkscape:connector-curvature="0"
   d="m 493.9,399.8 -0.03,-1.85 -0.08,-1.83 -0.14,-1.8 -0.19,-1.77 -0.24,-1.74 -0.29,-1.71 -0.34,-1.68 -0.39,-1.63 -0.43,-1.6 -0.48,-1.55 -0.52,-1.5 -0.56,-1.47 -0.6,-1.41 -0.64,-1.36 -0.68,-1.3 -0.72,-1.25 -0.75,-1.2 -0.78,-1.13 -0.82,-1.07 -0.84,-1 -0.88,-0.94 -0.91,-0.86 -0.93,-0.8 -0.95,-0.72 -0.98,-0.64 -1.01,-0.57 -1.02,-0.49 -1.05,-0.4 -1.06,-0.31 -1.08,-0.23 -1.1,-0.14 -1.11,-0.05 c -11.93,0 -21.6,16.12 -21.6,36 0,19.88 9.67,36 21.6,36 11.93,0 21.6,-16.12 21.6,-36 z"
   id="path161-1" />
<path
   style="fill:#000000;stroke-width:0"
   inkscape:connector-curvature="0"
   d="m 474.82,435.56 0,-0.12 -0.01,-0.11 -0.02,-0.12 -0.02,-0.11 -0.02,-0.11 -0.03,-0.11 -0.04,-0.1 -0.04,-0.11 -0.05,-0.1 -0.05,-0.1 -0.05,-0.09 -0.06,-0.09 -0.06,-0.09 -0.07,-0.09 -0.07,-0.08 -0.08,-0.08 -0.08,-0.08 -0.08,-0.07 -0.09,-0.07 -0.09,-0.06 -0.09,-0.06 -0.09,-0.05 -0.1,-0.05 -0.1,-0.05 -0.11,-0.04 -0.1,-0.04 -0.11,-0.03 -0.11,-0.02 -0.11,-0.02 -0.12,-0.02 -0.11,-0.01 -0.12,0 c -1.26,0 -2.28,1.02 -2.28,2.28 0,1.26 1.02,2.28 2.28,2.28 1.26,0 2.28,-1.02 2.28,-2.28 z"
   id="path163-0" />
<path
   style="stroke-width:0.89999998"
   inkscape:connector-curvature="0"
   d="m 474.82,435.56 0,-0.12 -0.01,-0.11 -0.02,-0.12 -0.02,-0.11 -0.02,-0.11 -0.03,-0.11 -0.04,-0.1 -0.04,-0.11 -0.05,-0.1 -0.05,-0.1 -0.05,-0.09 -0.06,-0.09 -0.06,-0.09 -0.07,-0.09 -0.07,-0.08 -0.08,-0.08 -0.08,-0.08 -0.08,-0.07 -0.09,-0.07 -0.09,-0.06 -0.09,-0.06 -0.09,-0.05 -0.1,-0.05 -0.1,-0.05 -0.11,-0.04 -0.1,-0.04 -0.11,-0.03 -0.11,-0.02 -0.11,-0.02 -0.12,-0.02 -0.11,-0.01 -0.12,0 c -1.26,0 -2.28,1.02 -2.28,2.28 0,1.26 1.02,2.28 2.28,2.28 1.26,0 2.28,-1.02 2.28,-2.28 z"
   id="path165-0" />
<path
   style="fill:#000000;stroke-width:0"
   inkscape:connector-curvature="0"
   d="m 474.82,363.8 0,-0.12 -0.01,-0.11 -0.02,-0.12 -0.02,-0.11 -0.02,-0.11 -0.03,-0.11 -0.04,-0.1 -0.04,-0.11 -0.05,-0.1 -0.05,-0.1 -0.05,-0.09 -0.06,-0.09 -0.06,-0.09 -0.07,-0.09 -0.07,-0.08 -0.08,-0.08 -0.08,-0.08 -0.08,-0.07 -0.09,-0.07 -0.09,-0.06 -0.09,-0.06 -0.09,-0.05 -0.1,-0.05 -0.1,-0.05 -0.11,-0.04 -0.1,-0.04 -0.11,-0.03 -0.11,-0.02 -0.11,-0.02 -0.12,-0.02 -0.11,-0.01 -0.12,0 c -1.26,0 -2.28,1.02 -2.28,2.28 0,1.26 1.02,2.28 2.28,2.28 1.26,0 2.28,-1.02 2.28,-2.28 z"
   id="path167-1" />
<path
   style="stroke-width:0.89999998"
   inkscape:connector-curvature="0"
   d="m 474.82,363.8 0,-0.12 -0.01,-0.11 -0.02,-0.12 -0.02,-0.11 -0.02,-0.11 -0.03,-0.11 -0.04,-0.1 -0.04,-0.11 -0.05,-0.1 -0.05,-0.1 -0.05,-0.09 -0.06,-0.09 -0.06,-0.09 -0.07,-0.09 -0.07,-0.08 -0.08,-0.08 -0.08,-0.08 -0.08,-0.07 -0.09,-0.07 -0.09,-0.06 -0.09,-0.06 -0.09,-0.05 -0.1,-0.05 -0.1,-0.05 -0.11,-0.04 -0.1,-0.04 -0.11,-0.03 -0.11,-0.02 -0.11,-0.02 -0.12,-0.02 -0.11,-0.01 -0.12,0 c -1.26,0 -2.28,1.02 -2.28,2.28 0,1.26 1.02,2.28 2.28,2.28 1.26,0 2.28,-1.02 2.28,-2.28 z"
   id="path169-1" />
<path
   style="fill:#000000;stroke-width:0"
   inkscape:connector-curvature="0"
   d="m 452.98,399.56 0,-0.12 -0.01,-0.11 -0.02,-0.12 -0.02,-0.11 -0.02,-0.11 -0.03,-0.11 -0.04,-0.1 -0.04,-0.11 -0.05,-0.1 -0.05,-0.1 -0.05,-0.09 -0.06,-0.09 -0.06,-0.09 -0.07,-0.09 -0.07,-0.08 -0.08,-0.08 -0.08,-0.08 -0.08,-0.07 -0.09,-0.07 -0.09,-0.06 -0.09,-0.06 -0.09,-0.05 -0.1,-0.05 -0.1,-0.05 -0.11,-0.04 -0.1,-0.04 -0.11,-0.03 -0.11,-0.02 -0.11,-0.02 -0.12,-0.02 -0.11,-0.01 -0.12,0 c -1.26,0 -2.28,1.02 -2.28,2.28 0,1.26 1.02,2.28 2.28,2.28 1.26,0 2.28,-1.02 2.28,-2.28 z"
   id="path171-8" />
<path
   style="stroke-width:0.89999998"
   inkscape:connector-curvature="0"
   d="m 452.98,399.56 0,-0.12 -0.01,-0.11 -0.02,-0.12 -0.02,-0.11 -0.02,-0.11 -0.03,-0.11 -0.04,-0.1 -0.04,-0.11 -0.05,-0.1 -0.05,-0.1 -0.05,-0.09 -0.06,-0.09 -0.06,-0.09 -0.07,-0.09 -0.07,-0.08 -0.08,-0.08 -0.08,-0.08 -0.08,-0.07 -0.09,-0.07 -0.09,-0.06 -0.09,-0.06 -0.09,-0.05 -0.1,-0.05 -0.1,-0.05 -0.11,-0.04 -0.1,-0.04 -0.11,-0.03 -0.11,-0.02 -0.11,-0.02 -0.12,-0.02 -0.11,-0.01 -0.12,0 c -1.26,0 -2.28,1.02 -2.28,2.28 0,1.26 1.02,2.28 2.28,2.28 1.26,0 2.28,-1.02 2.28,-2.28 z"
   id="path173-5" />
<path
   style="fill:#000000;stroke-width:0"
   inkscape:connector-curvature="0"
   d="m 495.94,399.56 0,-0.12 -0.01,-0.11 -0.02,-0.12 -0.02,-0.11 -0.02,-0.11 -0.03,-0.11 -0.04,-0.1 -0.04,-0.11 -0.04,-0.1 -0.05,-0.1 -0.06,-0.09 -0.06,-0.09 -0.06,-0.09 -0.07,-0.09 -0.07,-0.08 -0.08,-0.08 -0.08,-0.08 -0.08,-0.07 -0.09,-0.07 -0.09,-0.06 -0.09,-0.06 -0.09,-0.05 -0.1,-0.05 -0.1,-0.05 -0.11,-0.04 -0.1,-0.04 -0.11,-0.03 -0.11,-0.02 -0.11,-0.02 -0.12,-0.02 -0.11,-0.01 -0.12,0 c -1.26,0 -2.28,1.02 -2.28,2.28 0,1.26 1.02,2.28 2.28,2.28 1.26,0 2.28,-1.02 2.28,-2.28 z"
   id="path175-9" />
<path
   style="stroke-width:0.89999998"
   inkscape:connector-curvature="0"
   d="m 495.94,399.56 0,-0.12 -0.01,-0.11 -0.02,-0.12 -0.02,-0.11 -0.02,-0.11 -0.03,-0.11 -0.04,-0.1 -0.04,-0.11 -0.04,-0.1 -0.05,-0.1 -0.06,-0.09 -0.06,-0.09 -0.06,-0.09 -0.07,-0.09 -0.07,-0.08 -0.08,-0.08 -0.08,-0.08 -0.08,-0.07 -0.09,-0.07 -0.09,-0.06 -0.09,-0.06 -0.09,-0.05 -0.1,-0.05 -0.1,-0.05 -0.11,-0.04 -0.1,-0.04 -0.11,-0.03 -0.11,-0.02 -0.11,-0.02 -0.12,-0.02 -0.11,-0.01 -0.12,0 c -1.26,0 -2.28,1.02 -2.28,2.28 0,1.26 1.02,2.28 2.28,2.28 1.26,0 2.28,-1.02 2.28,-2.28 z"
   id="path177-1" />
<path
   style="fill:#000000;stroke-width:0"
   inkscape:connector-curvature="0"
   d="m 458.02,423.08 0,-0.12 -0.01,-0.11 -0.02,-0.12 -0.02,-0.11 -0.02,-0.11 -0.03,-0.11 -0.04,-0.11 -0.04,-0.1 -0.05,-0.1 -0.05,-0.1 -0.05,-0.09 -0.06,-0.1 -0.06,-0.08 -0.07,-0.09 -0.07,-0.08 -0.08,-0.08 -0.08,-0.08 -0.08,-0.07 -0.09,-0.07 -0.09,-0.06 -0.09,-0.06 -0.1,-0.05 -0.09,-0.05 -0.1,-0.05 -0.11,-0.04 -0.1,-0.04 -0.11,-0.03 -0.11,-0.02 -0.12,-0.02 -0.11,-0.02 -0.11,-0.01 -0.12,0 c -1.26,0 -2.28,1.02 -2.28,2.28 0,1.26 1.02,2.28 2.28,2.28 1.26,0 2.28,-1.02 2.28,-2.28 z"
   id="path179-9" />
<path
   style="stroke-width:0.89999998"
   inkscape:connector-curvature="0"
   d="m 458.02,423.08 0,-0.12 -0.01,-0.11 -0.02,-0.12 -0.02,-0.11 -0.02,-0.11 -0.03,-0.11 -0.04,-0.11 -0.04,-0.1 -0.05,-0.1 -0.05,-0.1 -0.05,-0.09 -0.06,-0.1 -0.06,-0.08 -0.07,-0.09 -0.07,-0.08 -0.08,-0.08 -0.08,-0.08 -0.08,-0.07 -0.09,-0.07 -0.09,-0.06 -0.09,-0.06 -0.1,-0.05 -0.09,-0.05 -0.1,-0.05 -0.11,-0.04 -0.1,-0.04 -0.11,-0.03 -0.11,-0.02 -0.12,-0.02 -0.11,-0.02 -0.11,-0.01 -0.12,0 c -1.26,0 -2.28,1.02 -2.28,2.28 0,1.26 1.02,2.28 2.28,2.28 1.26,0 2.28,-1.02 2.28,-2.28 z"
   id="path181-7" />
<path
   style="fill:#000000;stroke-width:0"
   inkscape:connector-curvature="0"
   d="m 490.9,423.08 0,-0.12 -0.01,-0.11 -0.02,-0.12 -0.02,-0.11 -0.02,-0.11 -0.03,-0.11 -0.04,-0.11 -0.04,-0.1 -0.05,-0.1 -0.05,-0.1 -0.05,-0.09 -0.06,-0.1 -0.06,-0.08 -0.07,-0.09 -0.07,-0.08 -0.08,-0.08 -0.08,-0.08 -0.08,-0.07 -0.09,-0.07 -0.09,-0.06 -0.09,-0.06 -0.09,-0.05 -0.1,-0.05 -0.1,-0.05 -0.11,-0.04 -0.1,-0.04 -0.11,-0.03 -0.11,-0.02 -0.11,-0.02 -0.12,-0.02 -0.11,-0.01 -0.12,0 c -1.26,0 -2.28,1.02 -2.28,2.28 0,1.26 1.02,2.28 2.28,2.28 1.26,0 2.28,-1.02 2.28,-2.28 z"
   id="path183-1" />
<path
   style="stroke-width:0.89999998"
   inkscape:connector-curvature="0"
   d="m 490.9,423.08 0,-0.12 -0.01,-0.11 -0.02,-0.12 -0.02,-0.11 -0.02,-0.11 -0.03,-0.11 -0.04,-0.11 -0.04,-0.1 -0.05,-0.1 -0.05,-0.1 -0.05,-0.09 -0.06,-0.1 -0.06,-0.08 -0.07,-0.09 -0.07,-0.08 -0.08,-0.08 -0.08,-0.08 -0.08,-0.07 -0.09,-0.07 -0.09,-0.06 -0.09,-0.06 -0.09,-0.05 -0.1,-0.05 -0.1,-0.05 -0.11,-0.04 -0.1,-0.04 -0.11,-0.03 -0.11,-0.02 -0.11,-0.02 -0.12,-0.02 -0.11,-0.01 -0.12,0 c -1.26,0 -2.28,1.02 -2.28,2.28 0,1.26 1.02,2.28 2.28,2.28 1.26,0 2.28,-1.02 2.28,-2.28 z"
   id="path185-4" />
<path
   style="fill:#000000;stroke-width:0"
   inkscape:connector-curvature="0"
   d="m 491.62,377.96 0,-0.12 -0.01,-0.11 -0.02,-0.12 -0.02,-0.11 -0.02,-0.11 -0.03,-0.11 -0.04,-0.1 -0.04,-0.11 -0.04,-0.1 -0.05,-0.1 -0.06,-0.09 -0.06,-0.09 -0.06,-0.09 -0.07,-0.09 -0.07,-0.08 -0.08,-0.08 -0.08,-0.08 -0.08,-0.07 -0.09,-0.07 -0.09,-0.06 -0.09,-0.06 -0.09,-0.05 -0.1,-0.05 -0.1,-0.05 -0.11,-0.04 -0.1,-0.04 -0.11,-0.03 -0.11,-0.02 -0.11,-0.02 -0.12,-0.02 -0.11,-0.01 -0.12,0 c -1.26,0 -2.28,1.02 -2.28,2.28 0,1.26 1.02,2.28 2.28,2.28 1.26,0 2.28,-1.02 2.28,-2.28 z"
   id="path187-8" />
<path
   style="stroke-width:0.89999998"
   inkscape:connector-curvature="0"
   d="m 491.62,377.96 0,-0.12 -0.01,-0.11 -0.02,-0.12 -0.02,-0.11 -0.02,-0.11 -0.03,-0.11 -0.04,-0.1 -0.04,-0.11 -0.04,-0.1 -0.05,-0.1 -0.06,-0.09 -0.06,-0.09 -0.06,-0.09 -0.07,-0.09 -0.07,-0.08 -0.08,-0.08 -0.08,-0.08 -0.08,-0.07 -0.09,-0.07 -0.09,-0.06 -0.09,-0.06 -0.09,-0.05 -0.1,-0.05 -0.1,-0.05 -0.11,-0.04 -0.1,-0.04 -0.11,-0.03 -0.11,-0.02 -0.11,-0.02 -0.12,-0.02 -0.11,-0.01 -0.12,0 c -1.26,0 -2.28,1.02 -2.28,2.28 0,1.26 1.02,2.28 2.28,2.28 1.26,0 2.28,-1.02 2.28,-2.28 z"
   id="path189-2" />
<path
   style="fill:#000000;stroke-width:0"
   inkscape:connector-curvature="0"
   d="m 457.78,377.24 0,-0.12 -0.01,-0.11 -0.02,-0.12 -0.02,-0.11 -0.02,-0.11 -0.03,-0.11 -0.04,-0.11 -0.04,-0.1 -0.04,-0.1 -0.05,-0.1 -0.06,-0.09 -0.06,-0.1 -0.06,-0.08 -0.07,-0.09 -0.07,-0.08 -0.08,-0.08 -0.08,-0.08 -0.08,-0.07 -0.09,-0.07 -0.09,-0.06 -0.09,-0.06 -0.09,-0.05 -0.1,-0.05 -0.1,-0.05 -0.11,-0.04 -0.1,-0.04 -0.11,-0.03 -0.11,-0.02 -0.11,-0.02 -0.12,-0.02 -0.11,-0.01 -0.12,0 c -1.26,0 -2.28,1.02 -2.28,2.28 0,1.26 1.02,2.28 2.28,2.28 1.26,0 2.28,-1.02 2.28,-2.28 z"
   id="path191-5" />
<path
   style="stroke-width:0.89999998"
   inkscape:connector-curvature="0"
   d="m 457.78,377.24 0,-0.12 -0.01,-0.11 -0.02,-0.12 -0.02,-0.11 -0.02,-0.11 -0.03,-0.11 -0.04,-0.11 -0.04,-0.1 -0.04,-0.1 -0.05,-0.1 -0.06,-0.09 -0.06,-0.1 -0.06,-0.08 -0.07,-0.09 -0.07,-0.08 -0.08,-0.08 -0.08,-0.08 -0.08,-0.07 -0.09,-0.07 -0.09,-0.06 -0.09,-0.06 -0.09,-0.05 -0.1,-0.05 -0.1,-0.05 -0.11,-0.04 -0.1,-0.04 -0.11,-0.03 -0.11,-0.02 -0.11,-0.02 -0.12,-0.02 -0.11,-0.01 -0.12,0 c -1.26,0 -2.28,1.02 -2.28,2.28 0,1.26 1.02,2.28 2.28,2.28 1.26,0 2.28,-1.02 2.28,-2.28 z"
   id="path193-3" />
<path
   style="fill:#000000;stroke-width:0"
   inkscape:connector-curvature="0"
   d="m 474.58,399.56 0,-0.12 -0.01,-0.11 -0.02,-0.12 -0.02,-0.11 -0.02,-0.11 -0.03,-0.11 -0.04,-0.1 -0.04,-0.11 -0.05,-0.1 -0.05,-0.1 -0.05,-0.09 -0.06,-0.09 -0.06,-0.09 -0.07,-0.09 -0.07,-0.08 -0.08,-0.08 -0.08,-0.08 -0.08,-0.07 -0.09,-0.07 -0.09,-0.06 -0.09,-0.06 -0.09,-0.05 -0.1,-0.05 -0.1,-0.05 -0.11,-0.04 -0.1,-0.04 -0.11,-0.03 -0.11,-0.02 -0.11,-0.02 -0.12,-0.02 -0.11,-0.01 -0.12,0 c -1.26,0 -2.28,1.02 -2.28,2.28 0,1.26 1.02,2.28 2.28,2.28 1.26,0 2.28,-1.02 2.28,-2.28 z"
   id="path195-4" />
<path
   style="stroke-width:0.89999998"
   inkscape:connector-curvature="0"
   d="m 474.58,399.56 0,-0.12 -0.01,-0.11 -0.02,-0.12 -0.02,-0.11 -0.02,-0.11 -0.03,-0.11 -0.04,-0.1 -0.04,-0.11 -0.05,-0.1 -0.05,-0.1 -0.05,-0.09 -0.06,-0.09 -0.06,-0.09 -0.07,-0.09 -0.07,-0.08 -0.08,-0.08 -0.08,-0.08 -0.08,-0.07 -0.09,-0.07 -0.09,-0.06 -0.09,-0.06 -0.09,-0.05 -0.1,-0.05 -0.1,-0.05 -0.11,-0.04 -0.1,-0.04 -0.11,-0.03 -0.11,-0.02 -0.11,-0.02 -0.12,-0.02 -0.11,-0.01 -0.12,0 c -1.26,0 -2.28,1.02 -2.28,2.28 0,1.26 1.02,2.28 2.28,2.28 1.26,0 2.28,-1.02 2.28,-2.28 z"
   id="path197-9" />
<path
   style="fill:#000000;stroke-width:0"
   inkscape:connector-curvature="0"
   d="m 521.07,430.33 0.08,-0.08 0.08,-0.09 0.07,-0.09 0.06,-0.1 0.06,-0.09 0.06,-0.1 0.05,-0.1 0.04,-0.1 0.04,-0.11 0.03,-0.1 0.03,-0.11 0.03,-0.11 0.01,-0.1 0.02,-0.11 0.01,-0.11 0,-0.11 0,-0.11 -0.01,-0.11 -0.02,-0.11 -0.01,-0.11 -0.03,-0.1 -0.03,-0.11 -0.03,-0.1 -0.04,-0.11 -0.04,-0.1 -0.05,-0.1 -0.06,-0.1 -0.06,-0.09 -0.06,-0.1 -0.07,-0.09 -0.08,-0.09 -0.08,-0.08 c -0.89,-0.89 -2.33,-0.89 -3.22,0 -0.89,0.89 -0.89,2.33 0,3.22 0.89,0.89 2.33,0.89 3.22,0 z"
   id="path199-2" />
<path
   style="stroke-width:0.89999998"
   inkscape:connector-curvature="0"
   d="m 521.07,430.33 0.08,-0.08 0.08,-0.09 0.07,-0.09 0.06,-0.1 0.06,-0.09 0.06,-0.1 0.05,-0.1 0.04,-0.1 0.04,-0.11 0.03,-0.1 0.03,-0.11 0.03,-0.11 0.01,-0.1 0.02,-0.11 0.01,-0.11 0,-0.11 0,-0.11 -0.01,-0.11 -0.02,-0.11 -0.01,-0.11 -0.03,-0.1 -0.03,-0.11 -0.03,-0.1 -0.04,-0.11 -0.04,-0.1 -0.05,-0.1 -0.06,-0.1 -0.06,-0.09 -0.06,-0.1 -0.07,-0.09 -0.08,-0.09 -0.08,-0.08 c -0.89,-0.89 -2.33,-0.89 -3.22,0 -0.89,0.89 -0.89,2.33 0,3.22 0.89,0.89 2.33,0.89 3.22,0 z"
   id="path201-5" />
<path
   style="fill:#000000;stroke-width:0"
   inkscape:connector-curvature="0"
   d="m 552.51,372.49 0.08,-0.08 0.08,-0.09 0.07,-0.09 0.06,-0.1 0.06,-0.09 0.06,-0.1 0.05,-0.1 0.04,-0.1 0.04,-0.11 0.04,-0.1 0.02,-0.11 0.03,-0.1 0.02,-0.11 0.01,-0.11 0.01,-0.11 0,-0.11 0,-0.11 -0.01,-0.11 -0.01,-0.11 -0.02,-0.11 -0.03,-0.1 -0.02,-0.11 -0.04,-0.1 -0.04,-0.11 -0.04,-0.1 -0.05,-0.1 -0.06,-0.1 -0.06,-0.09 -0.06,-0.1 -0.07,-0.09 -0.08,-0.09 -0.08,-0.08 c -0.89,-0.89 -2.33,-0.89 -3.22,0 -0.89,0.89 -0.89,2.33 0,3.22 0.89,0.89 2.33,0.89 3.22,0 z"
   id="path203-2" />
<path
   style="stroke-width:0.89999998"
   inkscape:connector-curvature="0"
   d="m 552.51,372.49 0.08,-0.08 0.08,-0.09 0.07,-0.09 0.06,-0.1 0.06,-0.09 0.06,-0.1 0.05,-0.1 0.04,-0.1 0.04,-0.11 0.04,-0.1 0.02,-0.11 0.03,-0.1 0.02,-0.11 0.01,-0.11 0.01,-0.11 0,-0.11 0,-0.11 -0.01,-0.11 -0.01,-0.11 -0.02,-0.11 -0.03,-0.1 -0.02,-0.11 -0.04,-0.1 -0.04,-0.11 -0.04,-0.1 -0.05,-0.1 -0.06,-0.1 -0.06,-0.09 -0.06,-0.1 -0.07,-0.09 -0.08,-0.09 -0.08,-0.08 c -0.89,-0.89 -2.33,-0.89 -3.22,0 -0.89,0.89 -0.89,2.33 0,3.22 0.89,0.89 2.33,0.89 3.22,0 z"
   id="path205-3" />
<path
   style="fill:#000000;stroke-width:0"
   inkscape:connector-curvature="0"
   d="m 576.03,399.85 0.08,-0.08 0.08,-0.09 0.07,-0.09 0.06,-0.1 0.06,-0.09 0.06,-0.1 0.05,-0.1 0.04,-0.1 0.04,-0.11 0.04,-0.1 0.02,-0.11 0.03,-0.11 0.02,-0.1 0.01,-0.11 0.01,-0.11 0,-0.11 0,-0.11 -0.01,-0.11 -0.01,-0.11 -0.02,-0.11 -0.03,-0.1 -0.02,-0.11 -0.04,-0.1 -0.04,-0.11 -0.04,-0.1 -0.05,-0.1 -0.06,-0.1 -0.06,-0.09 -0.06,-0.1 -0.07,-0.09 -0.08,-0.09 -0.08,-0.08 c -0.88,-0.89 -2.33,-0.89 -3.22,0 -0.89,0.89 -0.89,2.33 0,3.22 0.89,0.89 2.34,0.89 3.22,0 z"
   id="path207-1" />
<path
   style="stroke-width:0.89999998"
   inkscape:connector-curvature="0"
   d="m 576.03,399.85 0.08,-0.08 0.08,-0.09 0.07,-0.09 0.06,-0.1 0.06,-0.09 0.06,-0.1 0.05,-0.1 0.04,-0.1 0.04,-0.11 0.04,-0.1 0.02,-0.11 0.03,-0.11 0.02,-0.1 0.01,-0.11 0.01,-0.11 0,-0.11 0,-0.11 -0.01,-0.11 -0.01,-0.11 -0.02,-0.11 -0.03,-0.1 -0.02,-0.11 -0.04,-0.1 -0.04,-0.11 -0.04,-0.1 -0.05,-0.1 -0.06,-0.1 -0.06,-0.09 -0.06,-0.1 -0.07,-0.09 -0.08,-0.09 -0.08,-0.08 c -0.88,-0.89 -2.33,-0.89 -3.22,0 -0.89,0.89 -0.89,2.33 0,3.22 0.89,0.89 2.34,0.89 3.22,0 z"
   id="path209-2" />
<path
   style="fill:#000000;stroke-width:0"
   inkscape:connector-curvature="0"
   d="m 519.99,404.53 0.08,-0.08 0.08,-0.09 0.07,-0.09 0.06,-0.1 0.06,-0.09 0.06,-0.1 0.05,-0.1 0.04,-0.1 0.04,-0.1 0.04,-0.11 0.02,-0.11 0.03,-0.1 0.02,-0.11 0.01,-0.11 0.01,-0.11 0,-0.11 0,-0.11 -0.01,-0.11 -0.01,-0.11 -0.02,-0.1 -0.03,-0.11 -0.02,-0.11 -0.04,-0.1 -0.04,-0.11 -0.04,-0.1 -0.05,-0.1 -0.06,-0.1 -0.06,-0.09 -0.06,-0.1 -0.07,-0.09 -0.08,-0.09 -0.08,-0.08 c -0.89,-0.89 -2.33,-0.89 -3.22,0 -0.89,0.89 -0.89,2.33 0,3.22 0.89,0.89 2.33,0.89 3.22,0 z"
   id="path211-1" />
<path
   style="stroke-width:0.89999998"
   inkscape:connector-curvature="0"
   d="m 519.99,404.53 0.08,-0.08 0.08,-0.09 0.07,-0.09 0.06,-0.1 0.06,-0.09 0.06,-0.1 0.05,-0.1 0.04,-0.1 0.04,-0.1 0.04,-0.11 0.02,-0.11 0.03,-0.1 0.02,-0.11 0.01,-0.11 0.01,-0.11 0,-0.11 0,-0.11 -0.01,-0.11 -0.01,-0.11 -0.02,-0.1 -0.03,-0.11 -0.02,-0.11 -0.04,-0.1 -0.04,-0.11 -0.04,-0.1 -0.05,-0.1 -0.06,-0.1 -0.06,-0.09 -0.06,-0.1 -0.07,-0.09 -0.08,-0.09 -0.08,-0.08 c -0.89,-0.89 -2.33,-0.89 -3.22,0 -0.89,0.89 -0.89,2.33 0,3.22 0.89,0.89 2.33,0.89 3.22,0 z"
   id="path213-4" />
<path
   style="fill:#000000;stroke-width:0"
   inkscape:connector-curvature="0"
   d="m 544.65,430.15 0.08,-0.08 0.08,-0.09 0.07,-0.09 0.06,-0.1 0.06,-0.09 0.06,-0.1 0.05,-0.1 0.04,-0.1 0.04,-0.11 0.04,-0.1 0.03,-0.11 0.02,-0.1 0.02,-0.11 0.01,-0.11 0.01,-0.11 0,-0.11 0,-0.11 -0.01,-0.11 -0.01,-0.11 -0.02,-0.11 -0.02,-0.1 -0.03,-0.11 -0.04,-0.1 -0.04,-0.11 -0.04,-0.1 -0.05,-0.1 -0.06,-0.1 -0.06,-0.09 -0.06,-0.1 -0.07,-0.09 -0.08,-0.09 -0.08,-0.08 c -0.89,-0.89 -2.33,-0.89 -3.22,0 -0.89,0.89 -0.89,2.33 0,3.22 0.89,0.89 2.33,0.89 3.22,0 z"
   id="path215-2" />
<path
   style="stroke-width:0.89999998"
   inkscape:connector-curvature="0"
   d="m 544.65,430.15 0.08,-0.08 0.08,-0.09 0.07,-0.09 0.06,-0.1 0.06,-0.09 0.06,-0.1 0.05,-0.1 0.04,-0.1 0.04,-0.11 0.04,-0.1 0.03,-0.11 0.02,-0.1 0.02,-0.11 0.01,-0.11 0.01,-0.11 0,-0.11 0,-0.11 -0.01,-0.11 -0.01,-0.11 -0.02,-0.11 -0.02,-0.1 -0.03,-0.11 -0.04,-0.1 -0.04,-0.11 -0.04,-0.1 -0.05,-0.1 -0.06,-0.1 -0.06,-0.09 -0.06,-0.1 -0.07,-0.09 -0.08,-0.09 -0.08,-0.08 c -0.89,-0.89 -2.33,-0.89 -3.22,0 -0.89,0.89 -0.89,2.33 0,3.22 0.89,0.89 2.33,0.89 3.22,0 z"
   id="path217-2" />
<path
   style="fill:#000000;stroke-width:0"
   inkscape:connector-curvature="0"
   d="m 534.27,384.73 0.08,-0.08 0.08,-0.09 0.07,-0.09 0.06,-0.1 0.06,-0.09 0.06,-0.1 0.05,-0.1 0.04,-0.1 0.04,-0.11 0.03,-0.1 0.03,-0.11 0.03,-0.1 0.01,-0.11 0.02,-0.11 0.01,-0.11 0,-0.11 0,-0.11 -0.01,-0.11 -0.02,-0.11 -0.01,-0.11 -0.03,-0.1 -0.03,-0.11 -0.03,-0.1 -0.04,-0.11 -0.04,-0.1 -0.05,-0.1 -0.06,-0.1 -0.06,-0.09 -0.06,-0.1 -0.07,-0.09 -0.08,-0.09 -0.08,-0.08 c -0.89,-0.89 -2.33,-0.89 -3.22,0 -0.89,0.89 -0.89,2.33 0,3.22 0.89,0.89 2.33,0.89 3.22,0 z"
   id="path219-8" />
<path
   style="stroke-width:0.89999998"
   inkscape:connector-curvature="0"
   d="m 534.27,384.73 0.08,-0.08 0.08,-0.09 0.07,-0.09 0.06,-0.1 0.06,-0.09 0.06,-0.1 0.05,-0.1 0.04,-0.1 0.04,-0.11 0.03,-0.1 0.03,-0.11 0.03,-0.1 0.01,-0.11 0.02,-0.11 0.01,-0.11 0,-0.11 0,-0.11 -0.01,-0.11 -0.02,-0.11 -0.01,-0.11 -0.03,-0.1 -0.03,-0.11 -0.03,-0.1 -0.04,-0.11 -0.04,-0.1 -0.05,-0.1 -0.06,-0.1 -0.06,-0.09 -0.06,-0.1 -0.07,-0.09 -0.08,-0.09 -0.08,-0.08 c -0.89,-0.89 -2.33,-0.89 -3.22,0 -0.89,0.89 -0.89,2.33 0,3.22 0.89,0.89 2.33,0.89 3.22,0 z"
   id="path221-9" />
<path
   style="fill:#000000;stroke-width:0"
   inkscape:connector-curvature="0"
   d="m 562.59,417.13 0.08,-0.08 0.08,-0.09 0.07,-0.09 0.06,-0.09 0.06,-0.1 0.06,-0.1 0.05,-0.1 0.04,-0.1 0.04,-0.11 0.04,-0.1 0.02,-0.11 0.03,-0.1 0.02,-0.11 0.01,-0.11 0.01,-0.11 0,-0.11 0,-0.11 -0.01,-0.11 -0.01,-0.11 -0.02,-0.11 -0.03,-0.1 -0.02,-0.11 -0.04,-0.11 -0.04,-0.1 -0.04,-0.1 -0.05,-0.1 -0.06,-0.1 -0.06,-0.1 -0.06,-0.09 -0.07,-0.09 -0.08,-0.09 -0.08,-0.08 c -0.89,-0.89 -2.33,-0.89 -3.22,0 -0.89,0.89 -0.89,2.33 0,3.22 0.89,0.89 2.33,0.89 3.22,0 z"
   id="path223-5" />
<path
   style="stroke-width:0.89999998"
   inkscape:connector-curvature="0"
   d="m 562.59,417.13 0.08,-0.08 0.08,-0.09 0.07,-0.09 0.06,-0.09 0.06,-0.1 0.06,-0.1 0.05,-0.1 0.04,-0.1 0.04,-0.11 0.04,-0.1 0.02,-0.11 0.03,-0.1 0.02,-0.11 0.01,-0.11 0.01,-0.11 0,-0.11 0,-0.11 -0.01,-0.11 -0.01,-0.11 -0.02,-0.11 -0.03,-0.1 -0.02,-0.11 -0.04,-0.11 -0.04,-0.1 -0.04,-0.1 -0.05,-0.1 -0.06,-0.1 -0.06,-0.1 -0.06,-0.09 -0.07,-0.09 -0.08,-0.09 -0.08,-0.08 c -0.89,-0.89 -2.33,-0.89 -3.22,0 -0.89,0.89 -0.89,2.33 0,3.22 0.89,0.89 2.33,0.89 3.22,0 z"
   id="path225-0" />
<path
   style="fill:#000000;stroke-width:0"
   inkscape:connector-curvature="0"
   d="m 576.63,374.71 0.08,-0.08 0.08,-0.09 0.07,-0.09 0.07,-0.1 0.06,-0.09 0.05,-0.1 0.05,-0.1 0.04,-0.1 0.04,-0.11 0.04,-0.1 0.03,-0.11 0.02,-0.1 0.02,-0.11 0.01,-0.11 0.01,-0.11 0,-0.11 0,-0.11 -0.01,-0.11 -0.01,-0.11 -0.02,-0.1 -0.02,-0.11 -0.03,-0.11 -0.04,-0.1 -0.04,-0.11 -0.04,-0.1 -0.05,-0.1 -0.05,-0.1 -0.06,-0.09 -0.07,-0.1 -0.07,-0.09 -0.08,-0.09 -0.08,-0.08 c -0.89,-0.89 -2.33,-0.89 -3.22,0 -0.89,0.89 -0.89,2.33 0,3.22 0.89,0.89 2.33,0.89 3.22,0 z"
   id="path227-9" />
<path
   style="stroke-width:0.89999998"
   inkscape:connector-curvature="0"
   d="m 576.63,374.71 0.08,-0.08 0.08,-0.09 0.07,-0.09 0.07,-0.1 0.06,-0.09 0.05,-0.1 0.05,-0.1 0.04,-0.1 0.04,-0.11 0.04,-0.1 0.03,-0.11 0.02,-0.1 0.02,-0.11 0.01,-0.11 0.01,-0.11 0,-0.11 0,-0.11 -0.01,-0.11 -0.01,-0.11 -0.02,-0.1 -0.02,-0.11 -0.03,-0.11 -0.04,-0.1 -0.04,-0.11 -0.04,-0.1 -0.05,-0.1 -0.05,-0.1 -0.06,-0.09 -0.07,-0.1 -0.07,-0.09 -0.08,-0.09 -0.08,-0.08 c -0.89,-0.89 -2.33,-0.89 -3.22,0 -0.89,0.89 -0.89,2.33 0,3.22 0.89,0.89 2.33,0.89 3.22,0 z"
   id="path229-8" />
<path
   style="fill:#000000;stroke-width:0"
   inkscape:connector-curvature="0"
   d="m 549.03,401.11 0.08,-0.08 0.08,-0.09 0.07,-0.09 0.06,-0.09 0.06,-0.1 0.06,-0.1 0.05,-0.1 0.04,-0.1 0.04,-0.11 0.04,-0.1 0.02,-0.11 0.03,-0.1 0.02,-0.11 0.01,-0.11 0.01,-0.11 0,-0.11 0,-0.11 -0.01,-0.11 -0.01,-0.11 -0.02,-0.11 -0.03,-0.1 -0.02,-0.11 -0.04,-0.1 -0.04,-0.11 -0.04,-0.1 -0.05,-0.1 -0.06,-0.1 -0.06,-0.1 -0.06,-0.09 -0.07,-0.09 -0.08,-0.09 -0.08,-0.08 c -0.88,-0.89 -2.33,-0.89 -3.22,0 -0.89,0.89 -0.89,2.33 0,3.22 0.89,0.89 2.34,0.89 3.22,0 z"
   id="path231-3" />
<path
   style="stroke-width:0.89999998"
   inkscape:connector-curvature="0"
   d="m 549.03,401.11 0.08,-0.08 0.08,-0.09 0.07,-0.09 0.06,-0.09 0.06,-0.1 0.06,-0.1 0.05,-0.1 0.04,-0.1 0.04,-0.11 0.04,-0.1 0.02,-0.11 0.03,-0.1 0.02,-0.11 0.01,-0.11 0.01,-0.11 0,-0.11 0,-0.11 -0.01,-0.11 -0.01,-0.11 -0.02,-0.11 -0.03,-0.1 -0.02,-0.11 -0.04,-0.1 -0.04,-0.11 -0.04,-0.1 -0.05,-0.1 -0.06,-0.1 -0.06,-0.1 -0.06,-0.09 -0.07,-0.09 -0.08,-0.09 -0.08,-0.08 c -0.88,-0.89 -2.33,-0.89 -3.22,0 -0.89,0.89 -0.89,2.33 0,3.22 0.89,0.89 2.34,0.89 3.22,0 z"
   id="path233-8" />
<path
   style="stroke-width:0.89999998"
   inkscape:connector-curvature="0"
   d="m 574.34,372.04 -0.82,-0.75 -0.88,-0.67 -0.94,-0.58 -1,-0.51 -1.05,-0.43 -1.11,-0.34 -1.15,-0.27 -1.19,-0.19 -1.24,-0.12 -1.28,-0.04 -1.31,0.03 -1.35,0.11 -1.38,0.18 -1.41,0.26 -1.43,0.33 -1.46,0.39 -1.48,0.47 -1.49,0.53 -1.51,0.61 -1.53,0.67 -1.53,0.74 -1.54,0.8 -1.55,0.87 -1.54,0.94 -1.55,1 -1.54,1.06 -1.53,1.12 -1.53,1.18 -1.51,1.25 -1.5,1.3 -1.48,1.37 -1.46,1.42 c -15.47,15.46 -21.16,34.84 -12.73,43.27 8.43,8.43 27.81,2.74 43.27,-12.73 15.46,-15.46 21.16,-34.84 12.73,-43.27 z"
   id="path235-3" />






</g>    <g
       id="g7361"
       transform="matrix(0.95,0,0,0.95,-83.366697,11.499389)">
      <g
         id="g5260"
         transform="matrix(1.6637393,0,0,-1.6637393,-11.147192,1033.524)"
         style="font-style:normal;font-variant:normal;font-weight:normal;font-stretch:normal;letter-spacing:normal;word-spacing:normal;text-anchor:start;fill:none;stroke:#000000;stroke-linecap:butt;stroke-linejoin:miter;stroke-miterlimit:10.43299961;stroke-opacity:1;stroke-dasharray:none;stroke-dashoffset:0">
        <path
           inkscape:connector-curvature="0"
           id="path4022"
           d="m 124.80891,358.66781 c 0,87.26811 0,87.26811 0,87.26811"
           style="fill:none;stroke:#000000;stroke-width:1.51466036;stroke-linecap:butt;stroke-linejoin:miter;stroke-miterlimit:10.43299961;stroke-opacity:1;stroke-dasharray:none;marker-start:url(#Arrow1Mstart);marker-end:url(#Arrow1Mend)" />
        <path
           inkscape:connector-curvature="0"
           id="path4022-4"
           d="m 81.344741,401.8748 c 87.268049,0 87.268049,0 87.268049,0"
           style="font-style:normal;font-variant:normal;font-weight:normal;font-stretch:normal;letter-spacing:normal;word-spacing:normal;text-anchor:start;fill:none;stroke:#000000;stroke-width:1.50263929;stroke-linecap:butt;stroke-linejoin:miter;stroke-miterlimit:10.43299961;stroke-opacity:1;stroke-dasharray:none;stroke-dashoffset:0;marker-start:url(#Arrow1Mstart);marker-end:url(#Arrow1Mend)" />
      </g>
      <g
         ns0:preamble=""
         ns0:text="$x$"
         word-spacing="normal"
         letter-spacing="normal"
         font-size-adjust="none"
         font-stretch="normal"
         font-weight="normal"
         font-variant="normal"
         font-style="normal"
         stroke-miterlimit="10.433"
         xml:space="preserve"
         transform="matrix(3.15875,0,0,-3.15875,-461.68964,2623.622)"
         id="content"
         style="font-style:normal;font-variant:normal;font-weight:normal;font-stretch:normal;letter-spacing:normal;word-spacing:normal;text-anchor:start;fill:none;stroke:#000000;stroke-linecap:butt;stroke-linejoin:miter;stroke-miterlimit:10.43299961;stroke-opacity:1;stroke-dasharray:none;stroke-dashoffset:0">
<path
   id="path6890"
   d="m 226.76,710.13 0.01,0.03 0,0.03 0.01,0.03 0.01,0.04 0.01,0.03 0.01,0.05 0.02,0.04 0.01,0.04 0.02,0.05 0.02,0.05 0.02,0.05 0.02,0.05 0.02,0.05 0.02,0.05 0.03,0.05 0.03,0.04 0.03,0.05 0.03,0.05 0.03,0.05 0.04,0.04 0.03,0.04 0.04,0.04 0.04,0.04 0.05,0.04 0.04,0.03 0.05,0.03 0.03,0.01 0.02,0.01 0.03,0.02 0.03,0.01 0.03,0 0.02,0.01 0.03,0.01 0.03,0 0.03,0.01 0.03,0 0.04,0 0.03,0 c 0.05,0 0.29,0 0.5,-0.12 -0.28,-0.05 -0.48,-0.3 -0.48,-0.54 0,-0.16 0.11,-0.35 0.38,-0.35 0.22,0 0.53,0.18 0.53,0.58 0,0.52 -0.58,0.65 -0.92,0.65 -0.58,0 -0.93,-0.52 -1.05,-0.75 -0.25,0.65 -0.79,0.75 -1.08,0.75 -1.03,0 -1.6,-1.28 -1.6,-1.53 0,-0.1 0.1,-0.1 0.12,-0.1 0.08,0 0.11,0.02 0.13,0.11 0.34,1.06 1,1.3 1.34,1.3 0.18,0 0.53,-0.08 0.53,-0.66 0,-0.31 -0.17,-0.98 -0.53,-2.37 -0.16,-0.62 -0.51,-1.04 -0.95,-1.04 -0.06,0 -0.29,0 -0.5,0.13 0.25,0.05 0.47,0.26 0.47,0.54 0,0.27 -0.22,0.35 -0.37,0.35 -0.3,0 -0.55,-0.26 -0.55,-0.58 0,-0.45 0.5,-0.65 0.94,-0.65 0.66,0 1.02,0.69 1.05,0.75 0.11,-0.37 0.47,-0.75 1.07,-0.75 1.03,0 1.6,1.28 1.6,1.53 0,0.1 -0.09,0.1 -0.12,0.1 -0.09,0 -0.11,-0.04 -0.13,-0.11 -0.33,-1.07 -1.01,-1.31 -1.33,-1.31 -0.39,0 -0.55,0.32 -0.55,0.66 0,0.22 0.06,0.44 0.17,0.88 z"
   inkscape:connector-curvature="0"
   style="fill:#000000;stroke-width:0" />
</g>      <g
         id="g7209"
         transform="matrix(3.15875,0,0,-3.15875,-499.32665,2552.0613)"
         xml:space="preserve"
         stroke-miterlimit="10.433"
         font-style="normal"
         font-variant="normal"
         font-weight="normal"
         font-stretch="normal"
         font-size-adjust="none"
         letter-spacing="normal"
         word-spacing="normal"
         ns0:text="$y$"
         ns0:preamble=""
         style="font-style:normal;font-variant:normal;font-weight:normal;font-stretch:normal;letter-spacing:normal;word-spacing:normal;text-anchor:start;fill:none;stroke:#000000;stroke-linecap:butt;stroke-linejoin:miter;stroke-miterlimit:10.43299961;stroke-opacity:1;stroke-dasharray:none;stroke-dashoffset:0">
<path
   style="fill:#000000;stroke-width:0"
   inkscape:connector-curvature="0"
   d="m 228.28,710.92 0,0 0,0.01 0,0.01 0,0 0.01,0.01 0,0.01 0,0.01 0.01,0.01 0,0.01 0,0.01 0,0.01 0,0.01 0,0.01 0.01,0 0,0.01 0,0.01 0,0 0,0.01 0,0 0,0.01 0,0.01 0,0.01 0.01,0.01 0,0.01 0,0.01 0,0.01 0,0 0,0.01 0,0.01 c 0,0.18 -0.14,0.26 -0.29,0.26 -0.1,0 -0.26,-0.06 -0.35,-0.2 -0.02,-0.05 -0.1,-0.36 -0.14,-0.54 -0.07,-0.26 -0.14,-0.53 -0.2,-0.8 l -0.45,-1.79 c -0.04,-0.15 -0.47,-0.85 -1.13,-0.85 -0.5,0 -0.61,0.44 -0.61,0.81 0,0.46 0.17,1.08 0.5,1.95 0.16,0.41 0.2,0.52 0.2,0.72 0,0.45 -0.31,0.81 -0.81,0.81 -0.95,0 -1.32,-1.44 -1.32,-1.53 0,-0.1 0.1,-0.1 0.12,-0.1 0.1,0 0.11,0.02 0.16,0.18 0.27,0.94 0.67,1.23 1.01,1.23 0.08,0 0.25,0 0.25,-0.31 0,-0.25 -0.1,-0.51 -0.17,-0.7 -0.4,-1.06 -0.58,-1.62 -0.58,-2.09 0,-0.89 0.63,-1.18 1.22,-1.18 0.38,0 0.72,0.16 1,0.44 -0.13,-0.51 -0.25,-1 -0.65,-1.53 -0.26,-0.34 -0.63,-0.63 -1.09,-0.63 -0.14,0 -0.59,0.03 -0.76,0.42 0.16,0 0.29,0 0.43,0.12 0.1,0.09 0.2,0.22 0.2,0.41 0,0.31 -0.27,0.35 -0.37,0.35 -0.23,0 -0.56,-0.16 -0.56,-0.65 0,-0.5 0.44,-0.86 1.06,-0.86 1.02,0 2.05,0.9 2.33,2.02 z"
   id="path7211" />
</g>    </g>
  </g>
</svg>
