<?xml version="1.0" encoding="UTF-8" standalone="no"?>
<!-- Created with Inkscape (http://www.inkscape.org/) -->

<svg
   xmlns:ns0="http://www.iki.fi/pav/software/textext/"
   xmlns:dc="http://purl.org/dc/elements/1.1/"
   xmlns:cc="http://creativecommons.org/ns#"
   xmlns:rdf="http://www.w3.org/1999/02/22-rdf-syntax-ns#"
   xmlns:svg="http://www.w3.org/2000/svg"
   xmlns="http://www.w3.org/2000/svg"
   xmlns:sodipodi="http://sodipodi.sourceforge.net/DTD/sodipodi-0.dtd"
   xmlns:inkscape="http://www.inkscape.org/namespaces/inkscape"
   width="792pt"
   height="612pt"
   id="svg3418"
   version="1.1"
   inkscape:version="0.48.1 r9760"
   sodipodi:docname="fig-onda-grav-cruz.svg">
  <sodipodi:namedview
     inkscape:document-units="in"
     pagecolor="#ffffff"
     bordercolor="#666666"
     borderopacity="1.0"
     inkscape:pageopacity="0.0"
     inkscape:pageshadow="2"
     inkscape:zoom="0.81960784"
     inkscape:cx="560.02636"
     inkscape:cy="382.5"
     inkscape:current-layer="layer1"
     id="namedview3422"
     showgrid="false"
     inkscape:window-width="1438"
     inkscape:window-height="847"
     inkscape:window-x="0"
     inkscape:window-y="0"
     inkscape:window-maximized="1" />
  <defs
     id="defs3420">
    <marker
       inkscape:stockid="Arrow1Mend"
       orient="auto"
       refY="0.0"
       refX="0.0"
       id="Arrow1Mend"
       style="overflow:visible;">
      <path
         id="path4804"
         d="M 0.0,0.0 L 5.0,-5.0 L -12.5,0.0 L 5.0,5.0 L 0.0,0.0 z "
         style="fill-rule:evenodd;stroke:#000000;stroke-width:1.0pt;marker-start:none;"
         transform="scale(0.4) rotate(180) translate(10,0)" />
    </marker>
    <marker
       inkscape:stockid="Arrow1Mend"
       orient="auto"
       refY="0"
       refX="0"
       id="Arrow1Mend-7"
       style="overflow:visible">
      <path
         inkscape:connector-curvature="0"
         id="path4804-6"
         d="M 0,0 5,-5 -12.5,0 5,5 0,0 z"
         style="fill-rule:evenodd;stroke:#000000;stroke-width:1pt;marker-start:none"
         transform="matrix(-0.4,0,0,-0.4,-4,0)" />
    </marker>
    <marker
       inkscape:stockid="Arrow1Mstart"
       orient="auto"
       refY="0"
       refX="0"
       id="Arrow1Mstart"
       style="overflow:visible">
      <path
         inkscape:connector-curvature="0"
         id="path3917"
         d="M 0,0 5,-5 -12.5,0 5,5 0,0 z"
         style="fill-rule:evenodd;stroke:#000000;stroke-width:1pt;marker-start:none"
         transform="matrix(0.4,0,0,0.4,4,0)" />
    </marker>
    <marker
       inkscape:stockid="Arrow1Mend"
       orient="auto"
       refY="0"
       refX="0"
       id="Arrow1Mend-6"
       style="overflow:visible">
      <path
         inkscape:connector-curvature="0"
         id="path4804-1"
         d="M 0,0 5,-5 -12.5,0 5,5 0,0 z"
         style="fill-rule:evenodd;stroke:#000000;stroke-width:1pt;marker-start:none"
         transform="matrix(-0.4,0,0,-0.4,-4,0)" />
    </marker>
    <marker
       inkscape:stockid="Arrow1Mstart"
       orient="auto"
       refY="0"
       refX="0"
       id="marker4575"
       style="overflow:visible">
      <path
         inkscape:connector-curvature="0"
         id="path4577"
         d="M 0,0 5,-5 -12.5,0 5,5 0,0 z"
         style="fill-rule:evenodd;stroke:#000000;stroke-width:1pt;marker-start:none"
         transform="matrix(0.4,0,0,0.4,4,0)" />
    </marker>
    <marker
       inkscape:stockid="Arrow1Mend"
       orient="auto"
       refY="0"
       refX="0"
       id="marker4579"
       style="overflow:visible">
      <path
         inkscape:connector-curvature="0"
         id="path4581"
         d="M 0,0 5,-5 -12.5,0 5,5 0,0 z"
         style="fill-rule:evenodd;stroke:#000000;stroke-width:1pt;marker-start:none"
         transform="matrix(-0.4,0,0,-0.4,-4,0)" />
    </marker>
  </defs>
  <metadata
     id="metadata3424">
    <rdf:RDF>
      <cc:Work
         rdf:about="">
        <dc:format>image/svg+xml</dc:format>
        <dc:type
           rdf:resource="http://purl.org/dc/dcmitype/StillImage" />
        <dc:title />
      </cc:Work>
    </rdf:RDF>
  </metadata>
  <g
     inkscape:label="Layer 1"
     inkscape:groupmode="layer"
     id="layer1">
    <g
       style="font-style:normal;font-variant:normal;font-weight:normal;font-stretch:normal;letter-spacing:normal;word-spacing:normal;text-anchor:start;fill:none;stroke:#000000;stroke-linecap:butt;stroke-linejoin:miter;stroke-miterlimit:10.43299961;stroke-opacity:1;stroke-dasharray:none;stroke-dashoffset:0"
       id="content-7"
       transform="matrix(1.5805523,0,0,-1.5805523,58.957312,999.52728)"
       xml:space="preserve"
       stroke-miterlimit="10.433"
       font-style="normal"
       font-variant="normal"
       font-weight="normal"
       font-stretch="normal"
       font-size-adjust="none"
       letter-spacing="normal"
       word-spacing="normal">
<path
   style="stroke-width:0.89999998"
   inkscape:connector-curvature="0"
   d="m 571.94,405.32 -0.04,-1.49 -0.11,-1.47 -0.18,-1.45 -0.26,-1.43 -0.32,-1.4 -0.39,-1.38 -0.46,-1.34 -0.52,-1.32 -0.58,-1.28 -0.64,-1.25 -0.7,-1.22 -0.76,-1.17 -0.81,-1.14 -0.86,-1.09 -0.91,-1.06 -0.97,-1 -1,-0.96 -1.06,-0.91 -1.1,-0.86 -1.13,-0.81 -1.18,-0.75 -1.22,-0.7 -1.25,-0.64 -1.29,-0.58 -1.32,-0.52 -1.35,-0.46 -1.37,-0.39 -1.41,-0.32 -1.43,-0.26 -1.45,-0.18 -1.48,-0.11 -1.49,-0.04 c -16.04,0 -29.04,12.98 -29.04,28.98 0,16 13,28.98 29.04,28.98 16.04,0 29.04,-12.98 29.04,-28.98 z"
   id="path9-0" />
<path
   style="fill:#000000;stroke-width:0"
   inkscape:connector-curvature="0"
   d="m 545.18,434.12 0,-0.12 -0.01,-0.11 -0.02,-0.12 -0.02,-0.11 -0.02,-0.11 -0.03,-0.11 -0.04,-0.1 -0.04,-0.11 -0.05,-0.1 -0.05,-0.1 -0.05,-0.09 -0.06,-0.09 -0.06,-0.09 -0.07,-0.09 -0.07,-0.08 -0.08,-0.08 -0.08,-0.08 -0.08,-0.07 -0.09,-0.07 -0.09,-0.06 -0.09,-0.06 -0.1,-0.05 -0.09,-0.05 -0.1,-0.05 -0.11,-0.04 -0.1,-0.04 -0.11,-0.03 -0.11,-0.02 -0.11,-0.02 -0.12,-0.02 -0.11,-0.01 -0.12,0 c -1.26,0 -2.28,1.02 -2.28,2.28 0,1.26 1.02,2.28 2.28,2.28 1.26,0 2.28,-1.02 2.28,-2.28 z"
   id="path11-8" />
<path
   style="stroke-width:0.89999998"
   inkscape:connector-curvature="0"
   d="m 545.18,434.12 0,-0.12 -0.01,-0.11 -0.02,-0.12 -0.02,-0.11 -0.02,-0.11 -0.03,-0.11 -0.04,-0.1 -0.04,-0.11 -0.05,-0.1 -0.05,-0.1 -0.05,-0.09 -0.06,-0.09 -0.06,-0.09 -0.07,-0.09 -0.07,-0.08 -0.08,-0.08 -0.08,-0.08 -0.08,-0.07 -0.09,-0.07 -0.09,-0.06 -0.09,-0.06 -0.1,-0.05 -0.09,-0.05 -0.1,-0.05 -0.11,-0.04 -0.1,-0.04 -0.11,-0.03 -0.11,-0.02 -0.11,-0.02 -0.12,-0.02 -0.11,-0.01 -0.12,0 c -1.26,0 -2.28,1.02 -2.28,2.28 0,1.26 1.02,2.28 2.28,2.28 1.26,0 2.28,-1.02 2.28,-2.28 z"
   id="path13-5" />
<path
   style="fill:#000000;stroke-width:0"
   inkscape:connector-curvature="0"
   d="m 516.14,405.32 0,-0.12 -0.01,-0.11 -0.02,-0.12 -0.02,-0.11 -0.02,-0.11 -0.03,-0.11 -0.04,-0.1 -0.04,-0.11 -0.04,-0.1 -0.05,-0.1 -0.06,-0.09 -0.06,-0.09 -0.06,-0.09 -0.07,-0.09 -0.07,-0.08 -0.08,-0.08 -0.08,-0.08 -0.08,-0.07 -0.09,-0.07 -0.09,-0.06 -0.09,-0.06 -0.09,-0.06 -0.1,-0.05 -0.1,-0.04 -0.11,-0.04 -0.1,-0.04 -0.11,-0.03 -0.11,-0.02 -0.11,-0.02 -0.12,-0.02 -0.11,-0.01 -0.12,0 c -1.26,0 -2.28,1.02 -2.28,2.28 0,1.26 1.02,2.28 2.28,2.28 1.26,0 2.28,-1.02 2.28,-2.28 z"
   id="path15-8" />
<path
   style="stroke-width:0.89999998"
   inkscape:connector-curvature="0"
   d="m 516.14,405.32 0,-0.12 -0.01,-0.11 -0.02,-0.12 -0.02,-0.11 -0.02,-0.11 -0.03,-0.11 -0.04,-0.1 -0.04,-0.11 -0.04,-0.1 -0.05,-0.1 -0.06,-0.09 -0.06,-0.09 -0.06,-0.09 -0.07,-0.09 -0.07,-0.08 -0.08,-0.08 -0.08,-0.08 -0.08,-0.07 -0.09,-0.07 -0.09,-0.06 -0.09,-0.06 -0.09,-0.06 -0.1,-0.05 -0.1,-0.04 -0.11,-0.04 -0.1,-0.04 -0.11,-0.03 -0.11,-0.02 -0.11,-0.02 -0.12,-0.02 -0.11,-0.01 -0.12,0 c -1.26,0 -2.28,1.02 -2.28,2.28 0,1.26 1.02,2.28 2.28,2.28 1.26,0 2.28,-1.02 2.28,-2.28 z"
   id="path17-1" />
<path
   style="fill:#000000;stroke-width:0"
   inkscape:connector-curvature="0"
   d="m 524.78,426.2 0,-0.12 -0.01,-0.11 -0.02,-0.12 -0.02,-0.11 -0.02,-0.11 -0.03,-0.11 -0.04,-0.1 -0.04,-0.11 -0.04,-0.1 -0.05,-0.1 -0.06,-0.09 -0.06,-0.09 -0.06,-0.09 -0.07,-0.09 -0.07,-0.08 -0.08,-0.08 -0.08,-0.08 -0.08,-0.07 -0.09,-0.07 -0.09,-0.06 -0.09,-0.06 -0.09,-0.05 -0.1,-0.05 -0.1,-0.05 -0.11,-0.04 -0.1,-0.04 -0.11,-0.03 -0.11,-0.02 -0.11,-0.02 -0.12,-0.02 -0.11,-0.01 -0.12,0 c -1.26,0 -2.28,1.02 -2.28,2.28 0,1.26 1.02,2.28 2.28,2.28 1.26,0 2.28,-1.02 2.28,-2.28 z"
   id="path19-7" />
<path
   style="stroke-width:0.89999998"
   inkscape:connector-curvature="0"
   d="m 524.78,426.2 0,-0.12 -0.01,-0.11 -0.02,-0.12 -0.02,-0.11 -0.02,-0.11 -0.03,-0.11 -0.04,-0.1 -0.04,-0.11 -0.04,-0.1 -0.05,-0.1 -0.06,-0.09 -0.06,-0.09 -0.06,-0.09 -0.07,-0.09 -0.07,-0.08 -0.08,-0.08 -0.08,-0.08 -0.08,-0.07 -0.09,-0.07 -0.09,-0.06 -0.09,-0.06 -0.09,-0.05 -0.1,-0.05 -0.1,-0.05 -0.11,-0.04 -0.1,-0.04 -0.11,-0.03 -0.11,-0.02 -0.11,-0.02 -0.12,-0.02 -0.11,-0.01 -0.12,0 c -1.26,0 -2.28,1.02 -2.28,2.28 0,1.26 1.02,2.28 2.28,2.28 1.26,0 2.28,-1.02 2.28,-2.28 z"
   id="path21-7" />
<path
   style="fill:#000000;stroke-width:0"
   inkscape:connector-curvature="0"
   d="m 565.82,425.54 0,-0.12 -0.01,-0.11 -0.02,-0.12 -0.02,-0.11 -0.02,-0.11 -0.03,-0.11 -0.04,-0.1 -0.04,-0.11 -0.05,-0.1 -0.05,-0.1 -0.05,-0.09 -0.06,-0.09 -0.06,-0.09 -0.07,-0.09 -0.07,-0.08 -0.08,-0.08 -0.08,-0.08 -0.08,-0.07 -0.09,-0.07 -0.09,-0.06 -0.09,-0.06 -0.09,-0.05 -0.1,-0.05 -0.1,-0.05 -0.11,-0.04 -0.1,-0.04 -0.11,-0.03 -0.11,-0.02 -0.11,-0.02 -0.12,-0.02 -0.11,-0.01 -0.12,0 c -1.26,0 -2.28,1.02 -2.28,2.28 0,1.26 1.02,2.28 2.28,2.28 1.26,0 2.28,-1.02 2.28,-2.28 z"
   id="path23-6" />
<path
   style="stroke-width:0.89999998"
   inkscape:connector-curvature="0"
   d="m 565.82,425.54 0,-0.12 -0.01,-0.11 -0.02,-0.12 -0.02,-0.11 -0.02,-0.11 -0.03,-0.11 -0.04,-0.1 -0.04,-0.11 -0.05,-0.1 -0.05,-0.1 -0.05,-0.09 -0.06,-0.09 -0.06,-0.09 -0.07,-0.09 -0.07,-0.08 -0.08,-0.08 -0.08,-0.08 -0.08,-0.07 -0.09,-0.07 -0.09,-0.06 -0.09,-0.06 -0.09,-0.05 -0.1,-0.05 -0.1,-0.05 -0.11,-0.04 -0.1,-0.04 -0.11,-0.03 -0.11,-0.02 -0.11,-0.02 -0.12,-0.02 -0.11,-0.01 -0.12,0 c -1.26,0 -2.28,1.02 -2.28,2.28 0,1.26 1.02,2.28 2.28,2.28 1.26,0 2.28,-1.02 2.28,-2.28 z"
   id="path25-6" />
<path
   style="fill:#000000;stroke-width:0"
   inkscape:connector-curvature="0"
   d="m 574.46,405.32 0,-0.12 -0.01,-0.11 -0.02,-0.12 -0.02,-0.11 -0.02,-0.11 -0.03,-0.11 -0.04,-0.1 -0.04,-0.11 -0.04,-0.1 -0.05,-0.1 -0.06,-0.09 -0.06,-0.09 -0.06,-0.09 -0.07,-0.09 -0.07,-0.08 -0.08,-0.08 -0.08,-0.08 -0.08,-0.07 -0.09,-0.07 -0.09,-0.06 -0.09,-0.06 -0.09,-0.06 -0.1,-0.05 -0.1,-0.04 -0.11,-0.04 -0.1,-0.04 -0.11,-0.03 -0.11,-0.02 -0.11,-0.02 -0.12,-0.02 -0.11,-0.01 -0.12,0 c -1.26,0 -2.28,1.02 -2.28,2.28 0,1.26 1.02,2.28 2.28,2.28 1.26,0 2.28,-1.02 2.28,-2.28 z"
   id="path27-7" />
<path
   style="stroke-width:0.89999998"
   inkscape:connector-curvature="0"
   d="m 574.46,405.32 0,-0.12 -0.01,-0.11 -0.02,-0.12 -0.02,-0.11 -0.02,-0.11 -0.03,-0.11 -0.04,-0.1 -0.04,-0.11 -0.04,-0.1 -0.05,-0.1 -0.06,-0.09 -0.06,-0.09 -0.06,-0.09 -0.07,-0.09 -0.07,-0.08 -0.08,-0.08 -0.08,-0.08 -0.08,-0.07 -0.09,-0.07 -0.09,-0.06 -0.09,-0.06 -0.09,-0.06 -0.1,-0.05 -0.1,-0.04 -0.11,-0.04 -0.1,-0.04 -0.11,-0.03 -0.11,-0.02 -0.11,-0.02 -0.12,-0.02 -0.11,-0.01 -0.12,0 c -1.26,0 -2.28,1.02 -2.28,2.28 0,1.26 1.02,2.28 2.28,2.28 1.26,0 2.28,-1.02 2.28,-2.28 z"
   id="path29-0" />
<path
   style="fill:#000000;stroke-width:0"
   inkscape:connector-curvature="0"
   d="m 545.42,376.28 0,-0.12 -0.01,-0.11 -0.01,-0.12 -0.02,-0.11 -0.03,-0.11 -0.03,-0.11 -0.04,-0.1 -0.04,-0.11 -0.04,-0.1 -0.05,-0.1 -0.06,-0.09 -0.06,-0.09 -0.06,-0.09 -0.07,-0.09 -0.07,-0.08 -0.08,-0.08 -0.08,-0.08 -0.08,-0.07 -0.09,-0.07 -0.08,-0.06 -0.1,-0.06 -0.09,-0.05 -0.1,-0.05 -0.1,-0.05 -0.11,-0.04 -0.1,-0.04 -0.11,-0.03 -0.11,-0.02 -0.11,-0.02 -0.12,-0.02 -0.11,-0.01 -0.12,0 c -1.26,0 -2.28,1.02 -2.28,2.28 0,1.26 1.02,2.28 2.28,2.28 1.26,0 2.28,-1.02 2.28,-2.28 z"
   id="path31-6" />
<path
   style="stroke-width:0.89999998"
   inkscape:connector-curvature="0"
   d="m 545.42,376.28 0,-0.12 -0.01,-0.11 -0.01,-0.12 -0.02,-0.11 -0.03,-0.11 -0.03,-0.11 -0.04,-0.1 -0.04,-0.11 -0.04,-0.1 -0.05,-0.1 -0.06,-0.09 -0.06,-0.09 -0.06,-0.09 -0.07,-0.09 -0.07,-0.08 -0.08,-0.08 -0.08,-0.08 -0.08,-0.07 -0.09,-0.07 -0.08,-0.06 -0.1,-0.06 -0.09,-0.05 -0.1,-0.05 -0.1,-0.05 -0.11,-0.04 -0.1,-0.04 -0.11,-0.03 -0.11,-0.02 -0.11,-0.02 -0.12,-0.02 -0.11,-0.01 -0.12,0 c -1.26,0 -2.28,1.02 -2.28,2.28 0,1.26 1.02,2.28 2.28,2.28 1.26,0 2.28,-1.02 2.28,-2.28 z"
   id="path33-4" />
<path
   style="fill:#000000;stroke-width:0"
   inkscape:connector-curvature="0"
   d="m 524.78,384.74 0,-0.12 -0.01,-0.11 -0.02,-0.12 -0.02,-0.11 -0.02,-0.11 -0.03,-0.11 -0.04,-0.11 -0.04,-0.1 -0.04,-0.1 -0.05,-0.1 -0.06,-0.09 -0.06,-0.1 -0.06,-0.08 -0.07,-0.09 -0.07,-0.08 -0.08,-0.08 -0.08,-0.08 -0.08,-0.07 -0.09,-0.07 -0.09,-0.06 -0.09,-0.06 -0.09,-0.05 -0.1,-0.05 -0.1,-0.05 -0.11,-0.04 -0.1,-0.04 -0.11,-0.03 -0.11,-0.02 -0.11,-0.02 -0.12,-0.02 -0.11,-0.01 -0.12,0 c -1.26,0 -2.28,1.02 -2.28,2.28 0,1.26 1.02,2.28 2.28,2.28 1.26,0 2.28,-1.02 2.28,-2.28 z"
   id="path35-7" />
<path
   style="stroke-width:0.89999998"
   inkscape:connector-curvature="0"
   d="m 524.78,384.74 0,-0.12 -0.01,-0.11 -0.02,-0.12 -0.02,-0.11 -0.02,-0.11 -0.03,-0.11 -0.04,-0.11 -0.04,-0.1 -0.04,-0.1 -0.05,-0.1 -0.06,-0.09 -0.06,-0.1 -0.06,-0.08 -0.07,-0.09 -0.07,-0.08 -0.08,-0.08 -0.08,-0.08 -0.08,-0.07 -0.09,-0.07 -0.09,-0.06 -0.09,-0.06 -0.09,-0.05 -0.1,-0.05 -0.1,-0.05 -0.11,-0.04 -0.1,-0.04 -0.11,-0.03 -0.11,-0.02 -0.11,-0.02 -0.12,-0.02 -0.11,-0.01 -0.12,0 c -1.26,0 -2.28,1.02 -2.28,2.28 0,1.26 1.02,2.28 2.28,2.28 1.26,0 2.28,-1.02 2.28,-2.28 z"
   id="path37-2" />
<path
   style="fill:#000000;stroke-width:0"
   inkscape:connector-curvature="0"
   d="m 565.58,384.74 0,-0.12 -0.01,-0.11 -0.02,-0.12 -0.02,-0.11 -0.02,-0.11 -0.03,-0.11 -0.04,-0.11 -0.04,-0.1 -0.05,-0.1 -0.05,-0.1 -0.05,-0.09 -0.06,-0.1 -0.06,-0.08 -0.07,-0.09 -0.07,-0.08 -0.08,-0.08 -0.08,-0.08 -0.08,-0.07 -0.09,-0.07 -0.09,-0.06 -0.09,-0.06 -0.09,-0.05 -0.1,-0.05 -0.1,-0.05 -0.11,-0.04 -0.1,-0.04 -0.11,-0.03 -0.11,-0.02 -0.11,-0.02 -0.12,-0.02 -0.11,-0.01 -0.12,0 c -1.26,0 -2.28,1.02 -2.28,2.28 0,1.26 1.02,2.28 2.28,2.28 1.26,0 2.28,-1.02 2.28,-2.28 z"
   id="path39-8" />
<path
   style="stroke-width:0.89999998"
   inkscape:connector-curvature="0"
   d="m 565.58,384.74 0,-0.12 -0.01,-0.11 -0.02,-0.12 -0.02,-0.11 -0.02,-0.11 -0.03,-0.11 -0.04,-0.11 -0.04,-0.1 -0.05,-0.1 -0.05,-0.1 -0.05,-0.09 -0.06,-0.1 -0.06,-0.08 -0.07,-0.09 -0.07,-0.08 -0.08,-0.08 -0.08,-0.08 -0.08,-0.07 -0.09,-0.07 -0.09,-0.06 -0.09,-0.06 -0.09,-0.05 -0.1,-0.05 -0.1,-0.05 -0.11,-0.04 -0.1,-0.04 -0.11,-0.03 -0.11,-0.02 -0.11,-0.02 -0.12,-0.02 -0.11,-0.01 -0.12,0 c -1.26,0 -2.28,1.02 -2.28,2.28 0,1.26 1.02,2.28 2.28,2.28 1.26,0 2.28,-1.02 2.28,-2.28 z"
   id="path41-1" />
<path
   style="fill:#000000;stroke-width:0"
   inkscape:connector-curvature="0"
   d="m 545.18,405.14 0,-0.12 -0.01,-0.11 -0.02,-0.12 -0.02,-0.11 -0.02,-0.11 -0.03,-0.11 -0.04,-0.1 -0.04,-0.11 -0.05,-0.1 -0.05,-0.1 -0.05,-0.09 -0.06,-0.09 -0.06,-0.09 -0.07,-0.09 -0.07,-0.08 -0.08,-0.08 -0.08,-0.08 -0.08,-0.07 -0.09,-0.07 -0.09,-0.06 -0.09,-0.06 -0.1,-0.06 -0.09,-0.05 -0.1,-0.04 -0.11,-0.04 -0.1,-0.04 -0.11,-0.03 -0.11,-0.02 -0.11,-0.02 -0.12,-0.02 -0.11,-0.01 -0.12,0 c -1.26,0 -2.28,1.02 -2.28,2.28 0,1.26 1.02,2.28 2.28,2.28 1.26,0 2.28,-1.02 2.28,-2.28 z"
   id="path43-9" />
<path
   style="stroke-width:0.89999998"
   inkscape:connector-curvature="0"
   d="m 545.18,405.14 0,-0.12 -0.01,-0.11 -0.02,-0.12 -0.02,-0.11 -0.02,-0.11 -0.03,-0.11 -0.04,-0.1 -0.04,-0.11 -0.05,-0.1 -0.05,-0.1 -0.05,-0.09 -0.06,-0.09 -0.06,-0.09 -0.07,-0.09 -0.07,-0.08 -0.08,-0.08 -0.08,-0.08 -0.08,-0.07 -0.09,-0.07 -0.09,-0.06 -0.09,-0.06 -0.1,-0.06 -0.09,-0.05 -0.1,-0.04 -0.11,-0.04 -0.1,-0.04 -0.11,-0.03 -0.11,-0.02 -0.11,-0.02 -0.12,-0.02 -0.11,-0.01 -0.12,0 c -1.26,0 -2.28,1.02 -2.28,2.28 0,1.26 1.02,2.28 2.28,2.28 1.26,0 2.28,-1.02 2.28,-2.28 z"
   id="path45-1" />
<path
   style="fill:#000000;stroke-width:0"
   inkscape:connector-curvature="0"
   d="m 153.31,435.73 0.08,-0.08 0.08,-0.09 0.07,-0.09 0.06,-0.1 0.06,-0.09 0.06,-0.1 0.05,-0.1 0.04,-0.1 0.04,-0.11 0.04,-0.1 0.02,-0.11 0.03,-0.1 0.02,-0.11 0.01,-0.11 0.01,-0.11 0,-0.11 0,-0.11 -0.01,-0.11 -0.01,-0.11 -0.02,-0.11 -0.03,-0.1 -0.02,-0.11 -0.04,-0.1 -0.04,-0.11 -0.04,-0.1 -0.05,-0.1 -0.06,-0.1 -0.06,-0.09 -0.06,-0.1 -0.07,-0.09 -0.08,-0.09 -0.08,-0.08 c -0.89,-0.89 -2.33,-0.89 -3.22,0 -0.89,0.89 -0.89,2.33 0,3.22 0.89,0.89 2.33,0.89 3.22,0 z"
   id="path47-9" />
<path
   style="stroke-width:0.89999998"
   inkscape:connector-curvature="0"
   d="m 153.31,435.73 0.08,-0.08 0.08,-0.09 0.07,-0.09 0.06,-0.1 0.06,-0.09 0.06,-0.1 0.05,-0.1 0.04,-0.1 0.04,-0.11 0.04,-0.1 0.02,-0.11 0.03,-0.1 0.02,-0.11 0.01,-0.11 0.01,-0.11 0,-0.11 0,-0.11 -0.01,-0.11 -0.01,-0.11 -0.02,-0.11 -0.03,-0.1 -0.02,-0.11 -0.04,-0.1 -0.04,-0.11 -0.04,-0.1 -0.05,-0.1 -0.06,-0.1 -0.06,-0.09 -0.06,-0.1 -0.07,-0.09 -0.08,-0.09 -0.08,-0.08 c -0.89,-0.89 -2.33,-0.89 -3.22,0 -0.89,0.89 -0.89,2.33 0,3.22 0.89,0.89 2.33,0.89 3.22,0 z"
   id="path49-3" />
<path
   style="fill:#000000;stroke-width:0"
   inkscape:connector-curvature="0"
   d="m 184.75,377.89 0.08,-0.08 0.08,-0.09 0.07,-0.09 0.07,-0.1 0.05,-0.09 0.06,-0.1 0.05,-0.1 0.04,-0.1 0.04,-0.11 0.04,-0.1 0.02,-0.11 0.03,-0.1 0.02,-0.11 0.01,-0.11 0.01,-0.11 0,-0.11 0,-0.11 -0.01,-0.11 -0.01,-0.11 -0.02,-0.1 -0.03,-0.11 -0.02,-0.11 -0.04,-0.1 -0.04,-0.11 -0.04,-0.1 -0.05,-0.1 -0.06,-0.1 -0.05,-0.09 -0.07,-0.1 -0.07,-0.09 -0.08,-0.09 -0.08,-0.08 c -0.89,-0.89 -2.33,-0.89 -3.22,0 -0.89,0.89 -0.89,2.33 0,3.22 0.89,0.89 2.33,0.89 3.22,0 z"
   id="path51-4" />
<path
   style="stroke-width:0.89999998"
   inkscape:connector-curvature="0"
   d="m 184.75,377.89 0.08,-0.08 0.08,-0.09 0.07,-0.09 0.07,-0.1 0.05,-0.09 0.06,-0.1 0.05,-0.1 0.04,-0.1 0.04,-0.11 0.04,-0.1 0.02,-0.11 0.03,-0.1 0.02,-0.11 0.01,-0.11 0.01,-0.11 0,-0.11 0,-0.11 -0.01,-0.11 -0.01,-0.11 -0.02,-0.1 -0.03,-0.11 -0.02,-0.11 -0.04,-0.1 -0.04,-0.11 -0.04,-0.1 -0.05,-0.1 -0.06,-0.1 -0.05,-0.09 -0.07,-0.1 -0.07,-0.09 -0.08,-0.09 -0.08,-0.08 c -0.89,-0.89 -2.33,-0.89 -3.22,0 -0.89,0.89 -0.89,2.33 0,3.22 0.89,0.89 2.33,0.89 3.22,0 z"
   id="path53-9" />
<path
   style="fill:#000000;stroke-width:0"
   inkscape:connector-curvature="0"
   d="m 208.27,405.25 0.08,-0.08 0.08,-0.09 0.07,-0.09 0.06,-0.09 0.06,-0.1 0.06,-0.1 0.05,-0.1 0.04,-0.1 0.04,-0.1 0.03,-0.11 0.03,-0.11 0.03,-0.1 0.01,-0.11 0.02,-0.11 0.01,-0.11 0,-0.11 0,-0.11 -0.01,-0.11 -0.02,-0.11 -0.01,-0.11 -0.03,-0.1 -0.03,-0.11 -0.03,-0.1 -0.04,-0.11 -0.04,-0.1 -0.05,-0.1 -0.06,-0.1 -0.06,-0.1 -0.06,-0.09 -0.07,-0.09 -0.08,-0.09 -0.08,-0.08 c -0.89,-0.89 -2.33,-0.89 -3.22,0 -0.89,0.89 -0.89,2.33 0,3.22 0.89,0.89 2.33,0.89 3.22,0 z"
   id="path55-7" />
<path
   style="stroke-width:0.89999998"
   inkscape:connector-curvature="0"
   d="m 208.27,405.25 0.08,-0.08 0.08,-0.09 0.07,-0.09 0.06,-0.09 0.06,-0.1 0.06,-0.1 0.05,-0.1 0.04,-0.1 0.04,-0.1 0.03,-0.11 0.03,-0.11 0.03,-0.1 0.01,-0.11 0.02,-0.11 0.01,-0.11 0,-0.11 0,-0.11 -0.01,-0.11 -0.02,-0.11 -0.01,-0.11 -0.03,-0.1 -0.03,-0.11 -0.03,-0.1 -0.04,-0.11 -0.04,-0.1 -0.05,-0.1 -0.06,-0.1 -0.06,-0.1 -0.06,-0.09 -0.07,-0.09 -0.08,-0.09 -0.08,-0.08 c -0.89,-0.89 -2.33,-0.89 -3.22,0 -0.89,0.89 -0.89,2.33 0,3.22 0.89,0.89 2.33,0.89 3.22,0 z"
   id="path57-7" />
<path
   style="fill:#000000;stroke-width:0"
   inkscape:connector-curvature="0"
   d="m 152.17,409.93 0.08,-0.08 0.08,-0.09 0.07,-0.09 0.06,-0.09 0.06,-0.1 0.06,-0.1 0.05,-0.1 0.04,-0.1 0.04,-0.1 0.04,-0.11 0.02,-0.11 0.03,-0.1 0.02,-0.11 0.01,-0.11 0.01,-0.11 0,-0.11 0,-0.11 -0.01,-0.11 -0.01,-0.11 -0.02,-0.11 -0.03,-0.1 -0.02,-0.11 -0.04,-0.1 -0.04,-0.11 -0.04,-0.1 -0.05,-0.1 -0.06,-0.1 -0.06,-0.1 -0.06,-0.09 -0.07,-0.09 -0.08,-0.09 -0.08,-0.08 c -0.89,-0.89 -2.33,-0.89 -3.22,0 -0.89,0.89 -0.89,2.33 0,3.22 0.89,0.89 2.33,0.89 3.22,0 z"
   id="path59-9" />
<path
   style="stroke-width:0.89999998"
   inkscape:connector-curvature="0"
   d="m 152.17,409.93 0.08,-0.08 0.08,-0.09 0.07,-0.09 0.06,-0.09 0.06,-0.1 0.06,-0.1 0.05,-0.1 0.04,-0.1 0.04,-0.1 0.04,-0.11 0.02,-0.11 0.03,-0.1 0.02,-0.11 0.01,-0.11 0.01,-0.11 0,-0.11 0,-0.11 -0.01,-0.11 -0.01,-0.11 -0.02,-0.11 -0.03,-0.1 -0.02,-0.11 -0.04,-0.1 -0.04,-0.11 -0.04,-0.1 -0.05,-0.1 -0.06,-0.1 -0.06,-0.1 -0.06,-0.09 -0.07,-0.09 -0.08,-0.09 -0.08,-0.08 c -0.89,-0.89 -2.33,-0.89 -3.22,0 -0.89,0.89 -0.89,2.33 0,3.22 0.89,0.89 2.33,0.89 3.22,0 z"
   id="path61-6" />
<path
   style="fill:#000000;stroke-width:0"
   inkscape:connector-curvature="0"
   d="m 176.95,435.55 0.08,-0.08 0.08,-0.09 0.07,-0.09 0.06,-0.1 0.06,-0.09 0.06,-0.1 0.05,-0.1 0.04,-0.1 0.04,-0.11 0.03,-0.1 0.03,-0.11 0.03,-0.1 0.01,-0.11 0.02,-0.11 0.01,-0.11 0,-0.11 0,-0.11 -0.01,-0.11 -0.02,-0.11 -0.01,-0.1 -0.03,-0.11 -0.03,-0.11 -0.03,-0.1 -0.04,-0.11 -0.04,-0.1 -0.05,-0.1 -0.06,-0.1 -0.06,-0.09 -0.06,-0.1 -0.07,-0.09 -0.08,-0.09 -0.08,-0.08 c -0.89,-0.89 -2.33,-0.89 -3.22,0 -0.89,0.89 -0.89,2.33 0,3.22 0.89,0.89 2.33,0.89 3.22,0 z"
   id="path63-6" />
<path
   style="stroke-width:0.89999998"
   inkscape:connector-curvature="0"
   d="m 176.95,435.55 0.08,-0.08 0.08,-0.09 0.07,-0.09 0.06,-0.1 0.06,-0.09 0.06,-0.1 0.05,-0.1 0.04,-0.1 0.04,-0.11 0.03,-0.1 0.03,-0.11 0.03,-0.1 0.01,-0.11 0.02,-0.11 0.01,-0.11 0,-0.11 0,-0.11 -0.01,-0.11 -0.02,-0.11 -0.01,-0.1 -0.03,-0.11 -0.03,-0.11 -0.03,-0.1 -0.04,-0.11 -0.04,-0.1 -0.05,-0.1 -0.06,-0.1 -0.06,-0.09 -0.06,-0.1 -0.07,-0.09 -0.08,-0.09 -0.08,-0.08 c -0.89,-0.89 -2.33,-0.89 -3.22,0 -0.89,0.89 -0.89,2.33 0,3.22 0.89,0.89 2.33,0.89 3.22,0 z"
   id="path65-8" />
<path
   style="fill:#000000;stroke-width:0"
   inkscape:connector-curvature="0"
   d="m 166.51,390.13 0.08,-0.08 0.08,-0.09 0.07,-0.09 0.06,-0.09 0.06,-0.1 0.06,-0.1 0.05,-0.1 0.04,-0.1 0.04,-0.11 0.04,-0.1 0.02,-0.11 0.03,-0.1 0.02,-0.11 0.01,-0.11 0.01,-0.11 0,-0.11 0,-0.11 -0.01,-0.11 -0.01,-0.11 -0.02,-0.11 -0.03,-0.1 -0.02,-0.11 -0.04,-0.11 -0.04,-0.1 -0.04,-0.1 -0.05,-0.1 -0.06,-0.1 -0.06,-0.1 -0.06,-0.09 -0.07,-0.09 -0.08,-0.09 -0.08,-0.08 c -0.89,-0.89 -2.33,-0.89 -3.22,0 -0.89,0.89 -0.89,2.33 0,3.22 0.89,0.89 2.33,0.89 3.22,0 z"
   id="path67-0" />
<path
   style="stroke-width:0.89999998"
   inkscape:connector-curvature="0"
   d="m 166.51,390.13 0.08,-0.08 0.08,-0.09 0.07,-0.09 0.06,-0.09 0.06,-0.1 0.06,-0.1 0.05,-0.1 0.04,-0.1 0.04,-0.11 0.04,-0.1 0.02,-0.11 0.03,-0.1 0.02,-0.11 0.01,-0.11 0.01,-0.11 0,-0.11 0,-0.11 -0.01,-0.11 -0.01,-0.11 -0.02,-0.11 -0.03,-0.1 -0.02,-0.11 -0.04,-0.11 -0.04,-0.1 -0.04,-0.1 -0.05,-0.1 -0.06,-0.1 -0.06,-0.1 -0.06,-0.09 -0.07,-0.09 -0.08,-0.09 -0.08,-0.08 c -0.89,-0.89 -2.33,-0.89 -3.22,0 -0.89,0.89 -0.89,2.33 0,3.22 0.89,0.89 2.33,0.89 3.22,0 z"
   id="path69-6" />
<path
   style="fill:#000000;stroke-width:0"
   inkscape:connector-curvature="0"
   d="m 194.83,422.53 0.08,-0.08 0.08,-0.09 0.07,-0.09 0.06,-0.1 0.06,-0.09 0.06,-0.1 0.05,-0.1 0.04,-0.1 0.04,-0.1 0.04,-0.11 0.02,-0.11 0.03,-0.1 0.02,-0.11 0.01,-0.11 0.01,-0.11 0,-0.11 0,-0.11 -0.01,-0.11 -0.01,-0.11 -0.02,-0.1 -0.03,-0.11 -0.02,-0.11 -0.04,-0.1 -0.04,-0.11 -0.04,-0.1 -0.05,-0.1 -0.06,-0.1 -0.06,-0.09 -0.06,-0.1 -0.07,-0.09 -0.08,-0.09 -0.08,-0.08 c -0.89,-0.89 -2.33,-0.89 -3.22,0 -0.89,0.89 -0.89,2.33 0,3.22 0.89,0.89 2.33,0.89 3.22,0 z"
   id="path71-1" />
<path
   style="stroke-width:0.89999998"
   inkscape:connector-curvature="0"
   d="m 194.83,422.53 0.08,-0.08 0.08,-0.09 0.07,-0.09 0.06,-0.1 0.06,-0.09 0.06,-0.1 0.05,-0.1 0.04,-0.1 0.04,-0.1 0.04,-0.11 0.02,-0.11 0.03,-0.1 0.02,-0.11 0.01,-0.11 0.01,-0.11 0,-0.11 0,-0.11 -0.01,-0.11 -0.01,-0.11 -0.02,-0.1 -0.03,-0.11 -0.02,-0.11 -0.04,-0.1 -0.04,-0.11 -0.04,-0.1 -0.05,-0.1 -0.06,-0.1 -0.06,-0.09 -0.06,-0.1 -0.07,-0.09 -0.08,-0.09 -0.08,-0.08 c -0.89,-0.89 -2.33,-0.89 -3.22,0 -0.89,0.89 -0.89,2.33 0,3.22 0.89,0.89 2.33,0.89 3.22,0 z"
   id="path73-0" />
<path
   style="fill:#000000;stroke-width:0"
   inkscape:connector-curvature="0"
   d="m 208.81,380.11 0.08,-0.08 0.08,-0.09 0.07,-0.09 0.06,-0.09 0.06,-0.1 0.06,-0.1 0.05,-0.1 0.04,-0.1 0.04,-0.11 0.04,-0.1 0.02,-0.11 0.03,-0.1 0.02,-0.11 0.01,-0.11 0.01,-0.11 0,-0.11 0,-0.11 -0.01,-0.11 -0.01,-0.11 -0.02,-0.11 -0.03,-0.1 -0.02,-0.11 -0.04,-0.1 -0.04,-0.11 -0.04,-0.1 -0.05,-0.1 -0.06,-0.1 -0.06,-0.1 -0.06,-0.09 -0.07,-0.09 -0.08,-0.09 -0.08,-0.08 c -0.89,-0.89 -2.33,-0.89 -3.22,0 -0.89,0.89 -0.89,2.33 0,3.22 0.89,0.89 2.33,0.89 3.22,0 z"
   id="path75-1" />
<path
   style="stroke-width:0.89999998"
   inkscape:connector-curvature="0"
   d="m 208.81,380.11 0.08,-0.08 0.08,-0.09 0.07,-0.09 0.06,-0.09 0.06,-0.1 0.06,-0.1 0.05,-0.1 0.04,-0.1 0.04,-0.11 0.04,-0.1 0.02,-0.11 0.03,-0.1 0.02,-0.11 0.01,-0.11 0.01,-0.11 0,-0.11 0,-0.11 -0.01,-0.11 -0.01,-0.11 -0.02,-0.11 -0.03,-0.1 -0.02,-0.11 -0.04,-0.1 -0.04,-0.11 -0.04,-0.1 -0.05,-0.1 -0.06,-0.1 -0.06,-0.1 -0.06,-0.09 -0.07,-0.09 -0.08,-0.09 -0.08,-0.08 c -0.89,-0.89 -2.33,-0.89 -3.22,0 -0.89,0.89 -0.89,2.33 0,3.22 0.89,0.89 2.33,0.89 3.22,0 z"
   id="path77-9" />
<path
   style="fill:#000000;stroke-width:0"
   inkscape:connector-curvature="0"
   d="m 181.27,406.51 0.08,-0.08 0.08,-0.09 0.07,-0.09 0.06,-0.1 0.06,-0.09 0.06,-0.1 0.05,-0.1 0.04,-0.1 0.04,-0.11 0.03,-0.1 0.03,-0.11 0.03,-0.11 0.01,-0.1 0.02,-0.11 0.01,-0.11 0,-0.11 0,-0.11 -0.01,-0.11 -0.02,-0.11 -0.01,-0.11 -0.03,-0.1 -0.03,-0.11 -0.03,-0.1 -0.04,-0.11 -0.04,-0.1 -0.05,-0.1 -0.06,-0.1 -0.06,-0.09 -0.06,-0.1 -0.07,-0.09 -0.08,-0.09 -0.08,-0.08 c -0.89,-0.89 -2.33,-0.89 -3.22,0 -0.89,0.89 -0.89,2.33 0,3.22 0.89,0.89 2.33,0.89 3.22,0 z"
   id="path79-1" />
<path
   style="stroke-width:0.89999998"
   inkscape:connector-curvature="0"
   d="m 181.27,406.51 0.08,-0.08 0.08,-0.09 0.07,-0.09 0.06,-0.1 0.06,-0.09 0.06,-0.1 0.05,-0.1 0.04,-0.1 0.04,-0.11 0.03,-0.1 0.03,-0.11 0.03,-0.11 0.01,-0.1 0.02,-0.11 0.01,-0.11 0,-0.11 0,-0.11 -0.01,-0.11 -0.02,-0.11 -0.01,-0.11 -0.03,-0.1 -0.03,-0.11 -0.03,-0.1 -0.04,-0.11 -0.04,-0.1 -0.05,-0.1 -0.06,-0.1 -0.06,-0.09 -0.06,-0.1 -0.07,-0.09 -0.08,-0.09 -0.08,-0.08 c -0.89,-0.89 -2.33,-0.89 -3.22,0 -0.89,0.89 -0.89,2.33 0,3.22 0.89,0.89 2.33,0.89 3.22,0 z"
   id="path81-0" />
<path
   style="stroke-width:0.89999998"
   inkscape:connector-curvature="0"
   d="m 206.58,377.44 -0.82,-0.75 -0.88,-0.67 -0.95,-0.59 -0.99,-0.5 -1.06,-0.43 -1.1,-0.34 -1.15,-0.27 -1.19,-0.2 -1.24,-0.11 -1.28,-0.04 -1.31,0.03 -1.35,0.11 -1.38,0.18 -1.41,0.26 -1.43,0.32 -1.46,0.4 -1.48,0.47 -1.49,0.53 -1.51,0.61 -1.53,0.67 -1.53,0.74 -1.54,0.8 -1.55,0.87 -1.54,0.94 -1.55,1 -1.54,1.06 -1.53,1.12 -1.53,1.18 -1.51,1.25 -1.5,1.3 -1.48,1.37 -1.46,1.42 c -15.47,15.46 -21.16,34.84 -12.73,43.27 8.43,8.44 27.81,2.74 43.27,-12.73 15.47,-15.46 21.17,-34.84 12.73,-43.27 z"
   id="path83-9" />
<path
   style="fill:#000000;stroke-width:0"
   inkscape:connector-curvature="0"
   d="m 447.07,435.73 0.08,-0.08 0.08,-0.09 0.07,-0.09 0.06,-0.1 0.06,-0.09 0.06,-0.1 0.05,-0.1 0.04,-0.1 0.04,-0.11 0.03,-0.1 0.03,-0.11 0.03,-0.1 0.01,-0.11 0.02,-0.11 0.01,-0.11 0,-0.11 0,-0.11 -0.01,-0.11 -0.02,-0.11 -0.01,-0.11 -0.03,-0.1 -0.03,-0.11 -0.03,-0.1 -0.04,-0.11 -0.04,-0.1 -0.05,-0.1 -0.06,-0.1 -0.06,-0.09 -0.06,-0.1 -0.07,-0.09 -0.08,-0.09 -0.08,-0.08 c -0.89,-0.89 -2.33,-0.89 -3.22,0 -0.89,0.89 -0.89,2.33 0,3.22 0.89,0.89 2.33,0.89 3.22,0 z"
   id="path85-9" />
<path
   style="stroke-width:0.89999998"
   inkscape:connector-curvature="0"
   d="m 447.07,435.73 0.08,-0.08 0.08,-0.09 0.07,-0.09 0.06,-0.1 0.06,-0.09 0.06,-0.1 0.05,-0.1 0.04,-0.1 0.04,-0.11 0.03,-0.1 0.03,-0.11 0.03,-0.1 0.01,-0.11 0.02,-0.11 0.01,-0.11 0,-0.11 0,-0.11 -0.01,-0.11 -0.02,-0.11 -0.01,-0.11 -0.03,-0.1 -0.03,-0.11 -0.03,-0.1 -0.04,-0.11 -0.04,-0.1 -0.05,-0.1 -0.06,-0.1 -0.06,-0.09 -0.06,-0.1 -0.07,-0.09 -0.08,-0.09 -0.08,-0.08 c -0.89,-0.89 -2.33,-0.89 -3.22,0 -0.89,0.89 -0.89,2.33 0,3.22 0.89,0.89 2.33,0.89 3.22,0 z"
   id="path87-7" />
<path
   style="fill:#000000;stroke-width:0"
   inkscape:connector-curvature="0"
   d="m 478.51,377.89 0.08,-0.08 0.08,-0.09 0.07,-0.09 0.06,-0.1 0.06,-0.09 0.06,-0.1 0.05,-0.1 0.04,-0.1 0.04,-0.11 0.04,-0.1 0.02,-0.11 0.03,-0.1 0.02,-0.11 0.01,-0.11 0.01,-0.11 0,-0.11 0,-0.11 -0.01,-0.11 -0.01,-0.11 -0.02,-0.1 -0.03,-0.11 -0.02,-0.11 -0.04,-0.1 -0.04,-0.11 -0.04,-0.1 -0.05,-0.1 -0.06,-0.1 -0.06,-0.09 -0.06,-0.1 -0.07,-0.09 -0.08,-0.09 -0.08,-0.08 c -0.89,-0.89 -2.33,-0.89 -3.22,0 -0.89,0.89 -0.89,2.33 0,3.22 0.89,0.89 2.33,0.89 3.22,0 z"
   id="path89-6" />
<path
   style="stroke-width:0.89999998"
   inkscape:connector-curvature="0"
   d="m 478.51,377.89 0.08,-0.08 0.08,-0.09 0.07,-0.09 0.06,-0.1 0.06,-0.09 0.06,-0.1 0.05,-0.1 0.04,-0.1 0.04,-0.11 0.04,-0.1 0.02,-0.11 0.03,-0.1 0.02,-0.11 0.01,-0.11 0.01,-0.11 0,-0.11 0,-0.11 -0.01,-0.11 -0.01,-0.11 -0.02,-0.1 -0.03,-0.11 -0.02,-0.11 -0.04,-0.1 -0.04,-0.11 -0.04,-0.1 -0.05,-0.1 -0.06,-0.1 -0.06,-0.09 -0.06,-0.1 -0.07,-0.09 -0.08,-0.09 -0.08,-0.08 c -0.89,-0.89 -2.33,-0.89 -3.22,0 -0.89,0.89 -0.89,2.33 0,3.22 0.89,0.89 2.33,0.89 3.22,0 z"
   id="path91-1" />
<path
   style="fill:#000000;stroke-width:0"
   inkscape:connector-curvature="0"
   d="m 502.03,405.25 0.08,-0.08 0.08,-0.09 0.07,-0.09 0.06,-0.09 0.06,-0.1 0.06,-0.1 0.05,-0.1 0.04,-0.1 0.04,-0.1 0.04,-0.11 0.02,-0.11 0.03,-0.1 0.02,-0.11 0.01,-0.11 0.01,-0.11 0,-0.11 0,-0.11 -0.01,-0.11 -0.01,-0.11 -0.02,-0.11 -0.03,-0.1 -0.02,-0.11 -0.04,-0.1 -0.04,-0.11 -0.04,-0.1 -0.05,-0.1 -0.06,-0.1 -0.06,-0.1 -0.06,-0.09 -0.07,-0.09 -0.08,-0.09 -0.08,-0.08 c -0.89,-0.89 -2.33,-0.89 -3.22,0 -0.89,0.89 -0.89,2.33 0,3.22 0.89,0.89 2.33,0.89 3.22,0 z"
   id="path93-5" />
<path
   style="stroke-width:0.89999998"
   inkscape:connector-curvature="0"
   d="m 502.03,405.25 0.08,-0.08 0.08,-0.09 0.07,-0.09 0.06,-0.09 0.06,-0.1 0.06,-0.1 0.05,-0.1 0.04,-0.1 0.04,-0.1 0.04,-0.11 0.02,-0.11 0.03,-0.1 0.02,-0.11 0.01,-0.11 0.01,-0.11 0,-0.11 0,-0.11 -0.01,-0.11 -0.01,-0.11 -0.02,-0.11 -0.03,-0.1 -0.02,-0.11 -0.04,-0.1 -0.04,-0.11 -0.04,-0.1 -0.05,-0.1 -0.06,-0.1 -0.06,-0.1 -0.06,-0.09 -0.07,-0.09 -0.08,-0.09 -0.08,-0.08 c -0.89,-0.89 -2.33,-0.89 -3.22,0 -0.89,0.89 -0.89,2.33 0,3.22 0.89,0.89 2.33,0.89 3.22,0 z"
   id="path95-0" />
<path
   style="fill:#000000;stroke-width:0"
   inkscape:connector-curvature="0"
   d="m 445.99,409.93 0.08,-0.08 0.08,-0.09 0.07,-0.09 0.06,-0.09 0.06,-0.1 0.06,-0.1 0.05,-0.1 0.04,-0.1 0.04,-0.1 0.04,-0.11 0.02,-0.11 0.03,-0.1 0.02,-0.11 0.01,-0.11 0.01,-0.11 0,-0.11 0,-0.11 -0.01,-0.11 -0.01,-0.11 -0.02,-0.11 -0.03,-0.1 -0.02,-0.11 -0.04,-0.1 -0.04,-0.11 -0.04,-0.1 -0.05,-0.1 -0.06,-0.1 -0.06,-0.1 -0.06,-0.09 -0.07,-0.09 -0.08,-0.09 -0.08,-0.08 c -0.89,-0.89 -2.33,-0.89 -3.22,0 -0.89,0.89 -0.89,2.33 0,3.22 0.89,0.89 2.33,0.89 3.22,0 z"
   id="path97-8" />
<path
   style="stroke-width:0.89999998"
   inkscape:connector-curvature="0"
   d="m 445.99,409.93 0.08,-0.08 0.08,-0.09 0.07,-0.09 0.06,-0.09 0.06,-0.1 0.06,-0.1 0.05,-0.1 0.04,-0.1 0.04,-0.1 0.04,-0.11 0.02,-0.11 0.03,-0.1 0.02,-0.11 0.01,-0.11 0.01,-0.11 0,-0.11 0,-0.11 -0.01,-0.11 -0.01,-0.11 -0.02,-0.11 -0.03,-0.1 -0.02,-0.11 -0.04,-0.1 -0.04,-0.11 -0.04,-0.1 -0.05,-0.1 -0.06,-0.1 -0.06,-0.1 -0.06,-0.09 -0.07,-0.09 -0.08,-0.09 -0.08,-0.08 c -0.89,-0.89 -2.33,-0.89 -3.22,0 -0.89,0.89 -0.89,2.33 0,3.22 0.89,0.89 2.33,0.89 3.22,0 z"
   id="path99-9" />
<path
   style="fill:#000000;stroke-width:0"
   inkscape:connector-curvature="0"
   d="m 470.65,435.55 0.08,-0.08 0.08,-0.09 0.07,-0.09 0.06,-0.1 0.06,-0.09 0.06,-0.1 0.05,-0.1 0.04,-0.1 0.04,-0.11 0.04,-0.1 0.02,-0.11 0.03,-0.1 0.02,-0.11 0.01,-0.11 0.01,-0.11 0,-0.11 0,-0.11 -0.01,-0.11 -0.01,-0.11 -0.02,-0.1 -0.03,-0.11 -0.02,-0.11 -0.04,-0.1 -0.04,-0.11 -0.04,-0.1 -0.05,-0.1 -0.06,-0.1 -0.06,-0.09 -0.06,-0.1 -0.07,-0.09 -0.08,-0.09 -0.08,-0.08 c -0.89,-0.89 -2.33,-0.89 -3.22,0 -0.89,0.89 -0.89,2.33 0,3.22 0.89,0.89 2.33,0.89 3.22,0 z"
   id="path101-9" />
<path
   style="stroke-width:0.89999998"
   inkscape:connector-curvature="0"
   d="m 470.65,435.55 0.08,-0.08 0.08,-0.09 0.07,-0.09 0.06,-0.1 0.06,-0.09 0.06,-0.1 0.05,-0.1 0.04,-0.1 0.04,-0.11 0.04,-0.1 0.02,-0.11 0.03,-0.1 0.02,-0.11 0.01,-0.11 0.01,-0.11 0,-0.11 0,-0.11 -0.01,-0.11 -0.01,-0.11 -0.02,-0.1 -0.03,-0.11 -0.02,-0.11 -0.04,-0.1 -0.04,-0.11 -0.04,-0.1 -0.05,-0.1 -0.06,-0.1 -0.06,-0.09 -0.06,-0.1 -0.07,-0.09 -0.08,-0.09 -0.08,-0.08 c -0.89,-0.89 -2.33,-0.89 -3.22,0 -0.89,0.89 -0.89,2.33 0,3.22 0.89,0.89 2.33,0.89 3.22,0 z"
   id="path103-2" />
<path
   style="fill:#000000;stroke-width:0"
   inkscape:connector-curvature="0"
   d="m 460.27,390.13 0.08,-0.08 0.08,-0.09 0.07,-0.09 0.06,-0.09 0.06,-0.1 0.06,-0.1 0.05,-0.1 0.04,-0.1 0.04,-0.11 0.03,-0.1 0.03,-0.11 0.03,-0.1 0.01,-0.11 0.02,-0.11 0.01,-0.11 0,-0.11 0,-0.11 -0.01,-0.11 -0.02,-0.11 -0.01,-0.11 -0.03,-0.1 -0.03,-0.11 -0.03,-0.11 -0.04,-0.1 -0.04,-0.1 -0.05,-0.1 -0.06,-0.1 -0.06,-0.1 -0.06,-0.09 -0.07,-0.09 -0.08,-0.09 -0.08,-0.08 c -0.89,-0.89 -2.33,-0.89 -3.22,0 -0.89,0.89 -0.89,2.33 0,3.22 0.89,0.89 2.33,0.89 3.22,0 z"
   id="path105-8" />
<path
   style="stroke-width:0.89999998"
   inkscape:connector-curvature="0"
   d="m 460.27,390.13 0.08,-0.08 0.08,-0.09 0.07,-0.09 0.06,-0.09 0.06,-0.1 0.06,-0.1 0.05,-0.1 0.04,-0.1 0.04,-0.11 0.03,-0.1 0.03,-0.11 0.03,-0.1 0.01,-0.11 0.02,-0.11 0.01,-0.11 0,-0.11 0,-0.11 -0.01,-0.11 -0.02,-0.11 -0.01,-0.11 -0.03,-0.1 -0.03,-0.11 -0.03,-0.11 -0.04,-0.1 -0.04,-0.1 -0.05,-0.1 -0.06,-0.1 -0.06,-0.1 -0.06,-0.09 -0.07,-0.09 -0.08,-0.09 -0.08,-0.08 c -0.89,-0.89 -2.33,-0.89 -3.22,0 -0.89,0.89 -0.89,2.33 0,3.22 0.89,0.89 2.33,0.89 3.22,0 z"
   id="path107-2" />
<path
   style="fill:#000000;stroke-width:0"
   inkscape:connector-curvature="0"
   d="m 488.59,422.53 0.08,-0.08 0.08,-0.09 0.07,-0.09 0.06,-0.1 0.06,-0.09 0.06,-0.1 0.05,-0.1 0.04,-0.1 0.04,-0.1 0.04,-0.11 0.02,-0.11 0.03,-0.1 0.02,-0.11 0.01,-0.11 0.01,-0.11 0,-0.11 0,-0.11 -0.01,-0.11 -0.01,-0.11 -0.02,-0.1 -0.03,-0.11 -0.02,-0.11 -0.04,-0.1 -0.04,-0.11 -0.04,-0.1 -0.05,-0.1 -0.06,-0.1 -0.06,-0.09 -0.06,-0.1 -0.07,-0.09 -0.08,-0.09 -0.08,-0.08 c -0.89,-0.89 -2.33,-0.89 -3.22,0 -0.89,0.89 -0.89,2.33 0,3.22 0.89,0.89 2.33,0.89 3.22,0 z"
   id="path109-1" />
<path
   style="stroke-width:0.89999998"
   inkscape:connector-curvature="0"
   d="m 488.59,422.53 0.08,-0.08 0.08,-0.09 0.07,-0.09 0.06,-0.1 0.06,-0.09 0.06,-0.1 0.05,-0.1 0.04,-0.1 0.04,-0.1 0.04,-0.11 0.02,-0.11 0.03,-0.1 0.02,-0.11 0.01,-0.11 0.01,-0.11 0,-0.11 0,-0.11 -0.01,-0.11 -0.01,-0.11 -0.02,-0.1 -0.03,-0.11 -0.02,-0.11 -0.04,-0.1 -0.04,-0.11 -0.04,-0.1 -0.05,-0.1 -0.06,-0.1 -0.06,-0.09 -0.06,-0.1 -0.07,-0.09 -0.08,-0.09 -0.08,-0.08 c -0.89,-0.89 -2.33,-0.89 -3.22,0 -0.89,0.89 -0.89,2.33 0,3.22 0.89,0.89 2.33,0.89 3.22,0 z"
   id="path111-4" />
<path
   style="fill:#000000;stroke-width:0"
   inkscape:connector-curvature="0"
   d="m 502.63,380.11 0.08,-0.08 0.08,-0.09 0.07,-0.09 0.07,-0.09 0.06,-0.1 0.05,-0.1 0.05,-0.1 0.04,-0.1 0.04,-0.11 0.04,-0.1 0.03,-0.11 0.02,-0.1 0.02,-0.11 0.01,-0.11 0.01,-0.11 0,-0.11 0,-0.11 -0.01,-0.11 -0.01,-0.11 -0.02,-0.11 -0.02,-0.1 -0.03,-0.11 -0.04,-0.1 -0.04,-0.11 -0.04,-0.1 -0.05,-0.1 -0.05,-0.1 -0.06,-0.1 -0.07,-0.09 -0.07,-0.09 -0.08,-0.09 -0.08,-0.08 c -0.89,-0.89 -2.33,-0.89 -3.22,0 -0.89,0.89 -0.89,2.33 0,3.22 0.89,0.89 2.33,0.89 3.22,0 z"
   id="path113-9" />
<path
   style="stroke-width:0.89999998"
   inkscape:connector-curvature="0"
   d="m 502.63,380.11 0.08,-0.08 0.08,-0.09 0.07,-0.09 0.07,-0.09 0.06,-0.1 0.05,-0.1 0.05,-0.1 0.04,-0.1 0.04,-0.11 0.04,-0.1 0.03,-0.11 0.02,-0.1 0.02,-0.11 0.01,-0.11 0.01,-0.11 0,-0.11 0,-0.11 -0.01,-0.11 -0.01,-0.11 -0.02,-0.11 -0.02,-0.1 -0.03,-0.11 -0.04,-0.1 -0.04,-0.11 -0.04,-0.1 -0.05,-0.1 -0.05,-0.1 -0.06,-0.1 -0.07,-0.09 -0.07,-0.09 -0.08,-0.09 -0.08,-0.08 c -0.89,-0.89 -2.33,-0.89 -3.22,0 -0.89,0.89 -0.89,2.33 0,3.22 0.89,0.89 2.33,0.89 3.22,0 z"
   id="path115-1" />
<path
   style="fill:#000000;stroke-width:0"
   inkscape:connector-curvature="0"
   d="m 475.03,406.51 0.08,-0.08 0.08,-0.09 0.07,-0.09 0.06,-0.1 0.06,-0.09 0.06,-0.1 0.05,-0.1 0.04,-0.1 0.04,-0.11 0.04,-0.1 0.02,-0.11 0.03,-0.11 0.02,-0.1 0.01,-0.11 0.01,-0.11 0,-0.11 0,-0.11 -0.01,-0.11 -0.01,-0.11 -0.02,-0.11 -0.03,-0.1 -0.02,-0.11 -0.04,-0.1 -0.04,-0.11 -0.04,-0.1 -0.05,-0.1 -0.06,-0.1 -0.06,-0.09 -0.06,-0.1 -0.07,-0.09 -0.08,-0.09 -0.08,-0.08 c -0.89,-0.89 -2.33,-0.89 -3.22,0 -0.89,0.89 -0.89,2.33 0,3.22 0.89,0.89 2.33,0.89 3.22,0 z"
   id="path117-1" />
<path
   style="stroke-width:0.89999998"
   inkscape:connector-curvature="0"
   d="m 475.03,406.51 0.08,-0.08 0.08,-0.09 0.07,-0.09 0.06,-0.1 0.06,-0.09 0.06,-0.1 0.05,-0.1 0.04,-0.1 0.04,-0.11 0.04,-0.1 0.02,-0.11 0.03,-0.11 0.02,-0.1 0.01,-0.11 0.01,-0.11 0,-0.11 0,-0.11 -0.01,-0.11 -0.01,-0.11 -0.02,-0.11 -0.03,-0.1 -0.02,-0.11 -0.04,-0.1 -0.04,-0.11 -0.04,-0.1 -0.05,-0.1 -0.06,-0.1 -0.06,-0.09 -0.06,-0.1 -0.07,-0.09 -0.08,-0.09 -0.08,-0.08 c -0.89,-0.89 -2.33,-0.89 -3.22,0 -0.89,0.89 -0.89,2.33 0,3.22 0.89,0.89 2.33,0.89 3.22,0 z"
   id="path119-6" />
<path
   style="stroke-width:0.89999998"
   inkscape:connector-curvature="0"
   d="m 500.34,377.44 -0.82,-0.75 -0.88,-0.67 -0.94,-0.59 -1,-0.5 -1.05,-0.43 -1.11,-0.34 -1.15,-0.27 -1.19,-0.2 -1.24,-0.11 -1.28,-0.04 -1.31,0.03 -1.35,0.11 -1.38,0.18 -1.41,0.26 -1.43,0.32 -1.46,0.4 -1.48,0.47 -1.49,0.53 -1.51,0.61 -1.53,0.67 -1.53,0.74 -1.54,0.8 -1.55,0.87 -1.54,0.94 -1.55,1 -1.54,1.06 -1.53,1.12 -1.53,1.18 -1.51,1.25 -1.5,1.3 -1.48,1.37 -1.46,1.42 c -15.46,15.46 -21.16,34.84 -12.73,43.27 8.43,8.44 27.81,2.74 43.27,-12.73 15.46,-15.46 21.16,-34.84 12.73,-43.27 z"
   id="path121-2" />
<path
   style="stroke-width:0.89999998"
   inkscape:connector-curvature="0"
   d="m 429.14,405.32 -0.04,-1.49 -0.11,-1.47 -0.18,-1.45 -0.26,-1.43 -0.32,-1.4 -0.39,-1.38 -0.46,-1.34 -0.52,-1.32 -0.58,-1.28 -0.64,-1.25 -0.7,-1.22 -0.76,-1.17 -0.81,-1.14 -0.86,-1.09 -0.91,-1.06 -0.97,-1 -1,-0.96 -1.06,-0.91 -1.09,-0.86 -1.14,-0.81 -1.18,-0.75 -1.22,-0.7 -1.25,-0.64 -1.29,-0.58 -1.31,-0.52 -1.35,-0.46 -1.38,-0.39 -1.41,-0.32 -1.43,-0.26 -1.45,-0.18 -1.47,-0.11 -1.5,-0.04 c -16.04,0 -29.04,12.98 -29.04,28.98 0,16 13,28.98 29.04,28.98 16.04,0 29.04,-12.98 29.04,-28.98 z"
   id="path123-7" />
<path
   style="fill:#000000;stroke-width:0"
   inkscape:connector-curvature="0"
   d="m 402.38,434.12 0,-0.12 -0.01,-0.11 -0.02,-0.12 -0.02,-0.11 -0.02,-0.11 -0.03,-0.11 -0.04,-0.1 -0.04,-0.11 -0.05,-0.1 -0.05,-0.1 -0.05,-0.09 -0.06,-0.09 -0.06,-0.09 -0.07,-0.09 -0.07,-0.08 -0.08,-0.08 -0.08,-0.08 -0.08,-0.07 -0.09,-0.07 -0.09,-0.06 -0.09,-0.06 -0.09,-0.05 -0.1,-0.05 -0.1,-0.05 -0.11,-0.04 -0.1,-0.04 -0.11,-0.03 -0.11,-0.02 -0.11,-0.02 -0.12,-0.02 -0.11,-0.01 -0.12,0 c -1.26,0 -2.28,1.02 -2.28,2.28 0,1.26 1.02,2.28 2.28,2.28 1.26,0 2.28,-1.02 2.28,-2.28 z"
   id="path125-2" />
<path
   style="stroke-width:0.89999998"
   inkscape:connector-curvature="0"
   d="m 402.38,434.12 0,-0.12 -0.01,-0.11 -0.02,-0.12 -0.02,-0.11 -0.02,-0.11 -0.03,-0.11 -0.04,-0.1 -0.04,-0.11 -0.05,-0.1 -0.05,-0.1 -0.05,-0.09 -0.06,-0.09 -0.06,-0.09 -0.07,-0.09 -0.07,-0.08 -0.08,-0.08 -0.08,-0.08 -0.08,-0.07 -0.09,-0.07 -0.09,-0.06 -0.09,-0.06 -0.09,-0.05 -0.1,-0.05 -0.1,-0.05 -0.11,-0.04 -0.1,-0.04 -0.11,-0.03 -0.11,-0.02 -0.11,-0.02 -0.12,-0.02 -0.11,-0.01 -0.12,0 c -1.26,0 -2.28,1.02 -2.28,2.28 0,1.26 1.02,2.28 2.28,2.28 1.26,0 2.28,-1.02 2.28,-2.28 z"
   id="path127-1" />
<path
   style="fill:#000000;stroke-width:0"
   inkscape:connector-curvature="0"
   d="m 373.34,405.32 0,-0.12 -0.01,-0.11 -0.02,-0.12 -0.02,-0.11 -0.02,-0.11 -0.03,-0.11 -0.04,-0.1 -0.04,-0.11 -0.05,-0.1 -0.05,-0.1 -0.05,-0.09 -0.06,-0.09 -0.06,-0.09 -0.07,-0.09 -0.07,-0.08 -0.08,-0.08 -0.08,-0.08 -0.08,-0.07 -0.09,-0.07 -0.09,-0.06 -0.09,-0.06 -0.09,-0.06 -0.1,-0.05 -0.1,-0.04 -0.11,-0.04 -0.1,-0.04 -0.11,-0.03 -0.11,-0.02 -0.11,-0.02 -0.12,-0.02 -0.11,-0.01 -0.12,0 c -1.26,0 -2.28,1.02 -2.28,2.28 0,1.26 1.02,2.28 2.28,2.28 1.26,0 2.28,-1.02 2.28,-2.28 z"
   id="path129-9" />
<path
   style="stroke-width:0.89999998"
   inkscape:connector-curvature="0"
   d="m 373.34,405.32 0,-0.12 -0.01,-0.11 -0.02,-0.12 -0.02,-0.11 -0.02,-0.11 -0.03,-0.11 -0.04,-0.1 -0.04,-0.11 -0.05,-0.1 -0.05,-0.1 -0.05,-0.09 -0.06,-0.09 -0.06,-0.09 -0.07,-0.09 -0.07,-0.08 -0.08,-0.08 -0.08,-0.08 -0.08,-0.07 -0.09,-0.07 -0.09,-0.06 -0.09,-0.06 -0.09,-0.06 -0.1,-0.05 -0.1,-0.04 -0.11,-0.04 -0.1,-0.04 -0.11,-0.03 -0.11,-0.02 -0.11,-0.02 -0.12,-0.02 -0.11,-0.01 -0.12,0 c -1.26,0 -2.28,1.02 -2.28,2.28 0,1.26 1.02,2.28 2.28,2.28 1.26,0 2.28,-1.02 2.28,-2.28 z"
   id="path131-0" />
<path
   style="fill:#000000;stroke-width:0"
   inkscape:connector-curvature="0"
   d="m 381.98,426.2 0,-0.12 -0.01,-0.11 -0.02,-0.12 -0.02,-0.11 -0.02,-0.11 -0.03,-0.11 -0.04,-0.1 -0.04,-0.11 -0.05,-0.1 -0.05,-0.1 -0.05,-0.09 -0.06,-0.09 -0.06,-0.09 -0.07,-0.09 -0.07,-0.08 -0.08,-0.08 -0.08,-0.08 -0.08,-0.07 -0.09,-0.07 -0.09,-0.06 -0.09,-0.06 -0.09,-0.05 -0.1,-0.05 -0.1,-0.05 -0.11,-0.04 -0.1,-0.04 -0.11,-0.03 -0.11,-0.02 -0.11,-0.02 -0.12,-0.02 -0.11,-0.01 -0.12,0 c -1.26,0 -2.28,1.02 -2.28,2.28 0,1.26 1.02,2.28 2.28,2.28 1.26,0 2.28,-1.02 2.28,-2.28 z"
   id="path133-4" />
<path
   style="stroke-width:0.89999998"
   inkscape:connector-curvature="0"
   d="m 381.98,426.2 0,-0.12 -0.01,-0.11 -0.02,-0.12 -0.02,-0.11 -0.02,-0.11 -0.03,-0.11 -0.04,-0.1 -0.04,-0.11 -0.05,-0.1 -0.05,-0.1 -0.05,-0.09 -0.06,-0.09 -0.06,-0.09 -0.07,-0.09 -0.07,-0.08 -0.08,-0.08 -0.08,-0.08 -0.08,-0.07 -0.09,-0.07 -0.09,-0.06 -0.09,-0.06 -0.09,-0.05 -0.1,-0.05 -0.1,-0.05 -0.11,-0.04 -0.1,-0.04 -0.11,-0.03 -0.11,-0.02 -0.11,-0.02 -0.12,-0.02 -0.11,-0.01 -0.12,0 c -1.26,0 -2.28,1.02 -2.28,2.28 0,1.26 1.02,2.28 2.28,2.28 1.26,0 2.28,-1.02 2.28,-2.28 z"
   id="path135-1" />
<path
   style="fill:#000000;stroke-width:0"
   inkscape:connector-curvature="0"
   d="m 423.02,425.54 0,-0.12 -0.01,-0.11 -0.02,-0.12 -0.02,-0.11 -0.02,-0.11 -0.03,-0.11 -0.04,-0.1 -0.04,-0.11 -0.05,-0.1 -0.05,-0.1 -0.05,-0.09 -0.06,-0.09 -0.06,-0.09 -0.07,-0.09 -0.07,-0.08 -0.08,-0.08 -0.08,-0.08 -0.08,-0.07 -0.09,-0.07 -0.09,-0.06 -0.09,-0.06 -0.1,-0.05 -0.09,-0.05 -0.1,-0.05 -0.11,-0.04 -0.1,-0.04 -0.11,-0.03 -0.11,-0.02 -0.12,-0.02 -0.11,-0.02 -0.11,-0.01 -0.12,0 c -1.26,0 -2.28,1.02 -2.28,2.28 0,1.26 1.02,2.28 2.28,2.28 1.26,0 2.28,-1.02 2.28,-2.28 z"
   id="path137-3" />
<path
   style="stroke-width:0.89999998"
   inkscape:connector-curvature="0"
   d="m 423.02,425.54 0,-0.12 -0.01,-0.11 -0.02,-0.12 -0.02,-0.11 -0.02,-0.11 -0.03,-0.11 -0.04,-0.1 -0.04,-0.11 -0.05,-0.1 -0.05,-0.1 -0.05,-0.09 -0.06,-0.09 -0.06,-0.09 -0.07,-0.09 -0.07,-0.08 -0.08,-0.08 -0.08,-0.08 -0.08,-0.07 -0.09,-0.07 -0.09,-0.06 -0.09,-0.06 -0.1,-0.05 -0.09,-0.05 -0.1,-0.05 -0.11,-0.04 -0.1,-0.04 -0.11,-0.03 -0.11,-0.02 -0.12,-0.02 -0.11,-0.02 -0.11,-0.01 -0.12,0 c -1.26,0 -2.28,1.02 -2.28,2.28 0,1.26 1.02,2.28 2.28,2.28 1.26,0 2.28,-1.02 2.28,-2.28 z"
   id="path139-5" />
<path
   style="fill:#000000;stroke-width:0"
   inkscape:connector-curvature="0"
   d="m 431.66,405.32 0,-0.12 -0.01,-0.11 -0.02,-0.12 -0.02,-0.11 -0.02,-0.11 -0.03,-0.11 -0.04,-0.1 -0.04,-0.11 -0.05,-0.1 -0.05,-0.1 -0.05,-0.09 -0.06,-0.09 -0.06,-0.09 -0.07,-0.09 -0.07,-0.08 -0.08,-0.08 -0.08,-0.08 -0.08,-0.07 -0.09,-0.07 -0.09,-0.06 -0.09,-0.06 -0.09,-0.06 -0.1,-0.05 -0.1,-0.04 -0.11,-0.04 -0.1,-0.04 -0.11,-0.03 -0.11,-0.02 -0.11,-0.02 -0.12,-0.02 -0.11,-0.01 -0.12,0 c -1.26,0 -2.28,1.02 -2.28,2.28 0,1.26 1.02,2.28 2.28,2.28 1.26,0 2.28,-1.02 2.28,-2.28 z"
   id="path141-4" />
<path
   style="stroke-width:0.89999998"
   inkscape:connector-curvature="0"
   d="m 431.66,405.32 0,-0.12 -0.01,-0.11 -0.02,-0.12 -0.02,-0.11 -0.02,-0.11 -0.03,-0.11 -0.04,-0.1 -0.04,-0.11 -0.05,-0.1 -0.05,-0.1 -0.05,-0.09 -0.06,-0.09 -0.06,-0.09 -0.07,-0.09 -0.07,-0.08 -0.08,-0.08 -0.08,-0.08 -0.08,-0.07 -0.09,-0.07 -0.09,-0.06 -0.09,-0.06 -0.09,-0.06 -0.1,-0.05 -0.1,-0.04 -0.11,-0.04 -0.1,-0.04 -0.11,-0.03 -0.11,-0.02 -0.11,-0.02 -0.12,-0.02 -0.11,-0.01 -0.12,0 c -1.26,0 -2.28,1.02 -2.28,2.28 0,1.26 1.02,2.28 2.28,2.28 1.26,0 2.28,-1.02 2.28,-2.28 z"
   id="path143-4" />
<path
   style="fill:#000000;stroke-width:0"
   inkscape:connector-curvature="0"
   d="m 402.62,376.28 0,-0.12 -0.01,-0.11 -0.02,-0.12 -0.02,-0.11 -0.02,-0.11 -0.03,-0.11 -0.04,-0.1 -0.04,-0.11 -0.04,-0.1 -0.05,-0.1 -0.06,-0.09 -0.06,-0.09 -0.06,-0.09 -0.07,-0.09 -0.07,-0.08 -0.08,-0.08 -0.08,-0.08 -0.08,-0.07 -0.09,-0.07 -0.09,-0.06 -0.09,-0.06 -0.09,-0.05 -0.1,-0.05 -0.1,-0.05 -0.11,-0.04 -0.1,-0.04 -0.11,-0.03 -0.11,-0.02 -0.11,-0.02 -0.12,-0.02 -0.11,-0.01 -0.12,0 c -1.26,0 -2.28,1.02 -2.28,2.28 0,1.26 1.02,2.28 2.28,2.28 1.26,0 2.28,-1.02 2.28,-2.28 z"
   id="path145-4" />
<path
   style="stroke-width:0.89999998"
   inkscape:connector-curvature="0"
   d="m 402.62,376.28 0,-0.12 -0.01,-0.11 -0.02,-0.12 -0.02,-0.11 -0.02,-0.11 -0.03,-0.11 -0.04,-0.1 -0.04,-0.11 -0.04,-0.1 -0.05,-0.1 -0.06,-0.09 -0.06,-0.09 -0.06,-0.09 -0.07,-0.09 -0.07,-0.08 -0.08,-0.08 -0.08,-0.08 -0.08,-0.07 -0.09,-0.07 -0.09,-0.06 -0.09,-0.06 -0.09,-0.05 -0.1,-0.05 -0.1,-0.05 -0.11,-0.04 -0.1,-0.04 -0.11,-0.03 -0.11,-0.02 -0.11,-0.02 -0.12,-0.02 -0.11,-0.01 -0.12,0 c -1.26,0 -2.28,1.02 -2.28,2.28 0,1.26 1.02,2.28 2.28,2.28 1.26,0 2.28,-1.02 2.28,-2.28 z"
   id="path147-3" />
<path
   style="fill:#000000;stroke-width:0"
   inkscape:connector-curvature="0"
   d="m 381.98,384.74 0,-0.12 -0.01,-0.11 -0.02,-0.12 -0.02,-0.11 -0.02,-0.11 -0.03,-0.11 -0.04,-0.11 -0.04,-0.1 -0.05,-0.1 -0.05,-0.1 -0.05,-0.09 -0.06,-0.1 -0.06,-0.08 -0.07,-0.09 -0.07,-0.08 -0.08,-0.08 -0.08,-0.08 -0.08,-0.07 -0.09,-0.07 -0.09,-0.06 -0.09,-0.06 -0.09,-0.05 -0.1,-0.05 -0.1,-0.05 -0.11,-0.04 -0.1,-0.04 -0.11,-0.03 -0.11,-0.02 -0.11,-0.02 -0.12,-0.02 -0.11,-0.01 -0.12,0 c -1.26,0 -2.28,1.02 -2.28,2.28 0,1.26 1.02,2.28 2.28,2.28 1.26,0 2.28,-1.02 2.28,-2.28 z"
   id="path149-3" />
<path
   style="stroke-width:0.89999998"
   inkscape:connector-curvature="0"
   d="m 381.98,384.74 0,-0.12 -0.01,-0.11 -0.02,-0.12 -0.02,-0.11 -0.02,-0.11 -0.03,-0.11 -0.04,-0.11 -0.04,-0.1 -0.05,-0.1 -0.05,-0.1 -0.05,-0.09 -0.06,-0.1 -0.06,-0.08 -0.07,-0.09 -0.07,-0.08 -0.08,-0.08 -0.08,-0.08 -0.08,-0.07 -0.09,-0.07 -0.09,-0.06 -0.09,-0.06 -0.09,-0.05 -0.1,-0.05 -0.1,-0.05 -0.11,-0.04 -0.1,-0.04 -0.11,-0.03 -0.11,-0.02 -0.11,-0.02 -0.12,-0.02 -0.11,-0.01 -0.12,0 c -1.26,0 -2.28,1.02 -2.28,2.28 0,1.26 1.02,2.28 2.28,2.28 1.26,0 2.28,-1.02 2.28,-2.28 z"
   id="path151-1" />
<path
   style="fill:#000000;stroke-width:0"
   inkscape:connector-curvature="0"
   d="m 422.78,384.74 0,-0.12 -0.01,-0.11 -0.02,-0.12 -0.02,-0.11 -0.02,-0.11 -0.03,-0.11 -0.04,-0.11 -0.04,-0.1 -0.04,-0.1 -0.05,-0.1 -0.06,-0.09 -0.06,-0.1 -0.06,-0.08 -0.07,-0.09 -0.07,-0.08 -0.08,-0.08 -0.08,-0.08 -0.08,-0.07 -0.09,-0.07 -0.09,-0.06 -0.09,-0.06 -0.09,-0.05 -0.1,-0.05 -0.1,-0.05 -0.11,-0.04 -0.1,-0.04 -0.11,-0.03 -0.11,-0.02 -0.11,-0.02 -0.12,-0.02 -0.11,-0.01 -0.12,0 c -1.26,0 -2.28,1.02 -2.28,2.28 0,1.26 1.02,2.28 2.28,2.28 1.26,0 2.28,-1.02 2.28,-2.28 z"
   id="path153-5" />
<path
   style="stroke-width:0.89999998"
   inkscape:connector-curvature="0"
   d="m 422.78,384.74 0,-0.12 -0.01,-0.11 -0.02,-0.12 -0.02,-0.11 -0.02,-0.11 -0.03,-0.11 -0.04,-0.11 -0.04,-0.1 -0.04,-0.1 -0.05,-0.1 -0.06,-0.09 -0.06,-0.1 -0.06,-0.08 -0.07,-0.09 -0.07,-0.08 -0.08,-0.08 -0.08,-0.08 -0.08,-0.07 -0.09,-0.07 -0.09,-0.06 -0.09,-0.06 -0.09,-0.05 -0.1,-0.05 -0.1,-0.05 -0.11,-0.04 -0.1,-0.04 -0.11,-0.03 -0.11,-0.02 -0.11,-0.02 -0.12,-0.02 -0.11,-0.01 -0.12,0 c -1.26,0 -2.28,1.02 -2.28,2.28 0,1.26 1.02,2.28 2.28,2.28 1.26,0 2.28,-1.02 2.28,-2.28 z"
   id="path155-8" />
<path
   style="fill:#000000;stroke-width:0"
   inkscape:connector-curvature="0"
   d="m 402.38,405.14 0,-0.12 -0.01,-0.11 -0.02,-0.12 -0.02,-0.11 -0.02,-0.11 -0.03,-0.11 -0.04,-0.1 -0.04,-0.11 -0.05,-0.1 -0.05,-0.1 -0.05,-0.09 -0.06,-0.09 -0.06,-0.09 -0.07,-0.09 -0.07,-0.08 -0.08,-0.08 -0.08,-0.08 -0.08,-0.07 -0.09,-0.07 -0.09,-0.06 -0.09,-0.06 -0.09,-0.06 -0.1,-0.05 -0.1,-0.04 -0.11,-0.04 -0.1,-0.04 -0.11,-0.03 -0.11,-0.02 -0.11,-0.02 -0.12,-0.02 -0.11,-0.01 -0.12,0 c -1.26,0 -2.28,1.02 -2.28,2.28 0,1.26 1.02,2.28 2.28,2.28 1.26,0 2.28,-1.02 2.28,-2.28 z"
   id="path157-3" />
<path
   style="stroke-width:0.89999998"
   inkscape:connector-curvature="0"
   d="m 402.38,405.14 0,-0.12 -0.01,-0.11 -0.02,-0.12 -0.02,-0.11 -0.02,-0.11 -0.03,-0.11 -0.04,-0.1 -0.04,-0.11 -0.05,-0.1 -0.05,-0.1 -0.05,-0.09 -0.06,-0.09 -0.06,-0.09 -0.07,-0.09 -0.07,-0.08 -0.08,-0.08 -0.08,-0.08 -0.08,-0.07 -0.09,-0.07 -0.09,-0.06 -0.09,-0.06 -0.09,-0.06 -0.1,-0.05 -0.1,-0.04 -0.11,-0.04 -0.1,-0.04 -0.11,-0.03 -0.11,-0.02 -0.11,-0.02 -0.12,-0.02 -0.11,-0.01 -0.12,0 c -1.26,0 -2.28,1.02 -2.28,2.28 0,1.26 1.02,2.28 2.28,2.28 1.26,0 2.28,-1.02 2.28,-2.28 z"
   id="path159-5" />
<path
   style="fill:#000000;stroke-width:0"
   inkscape:connector-curvature="0"
   d="m 354.91,432.51 -0.08,-0.08 -0.09,-0.08 -0.09,-0.07 -0.09,-0.06 -0.1,-0.06 -0.1,-0.06 -0.1,-0.05 -0.1,-0.04 -0.1,-0.04 -0.11,-0.04 -0.11,-0.02 -0.1,-0.03 -0.11,-0.02 -0.11,-0.01 -0.11,-0.01 -0.11,0 -0.11,0 -0.11,0.01 -0.11,0.01 -0.11,0.02 -0.1,0.03 -0.11,0.02 -0.1,0.04 -0.11,0.04 -0.1,0.04 -0.1,0.05 -0.1,0.06 -0.09,0.06 -0.1,0.06 -0.09,0.07 -0.09,0.08 -0.08,0.08 c -0.89,0.89 -0.89,2.33 0,3.22 0.89,0.89 2.33,0.89 3.22,0 0.89,-0.89 0.89,-2.33 0,-3.22 z"
   id="path161-7" />
<path
   style="stroke-width:0.89999998"
   inkscape:connector-curvature="0"
   d="m 354.91,432.51 -0.08,-0.08 -0.09,-0.08 -0.09,-0.07 -0.09,-0.06 -0.1,-0.06 -0.1,-0.06 -0.1,-0.05 -0.1,-0.04 -0.1,-0.04 -0.11,-0.04 -0.11,-0.02 -0.1,-0.03 -0.11,-0.02 -0.11,-0.01 -0.11,-0.01 -0.11,0 -0.11,0 -0.11,0.01 -0.11,0.01 -0.11,0.02 -0.1,0.03 -0.11,0.02 -0.1,0.04 -0.11,0.04 -0.1,0.04 -0.1,0.05 -0.1,0.06 -0.09,0.06 -0.1,0.06 -0.09,0.07 -0.09,0.08 -0.08,0.08 c -0.89,0.89 -0.89,2.33 0,3.22 0.89,0.89 2.33,0.89 3.22,0 0.89,-0.89 0.89,-2.33 0,-3.22 z"
   id="path163-4" />
<path
   style="fill:#000000;stroke-width:0"
   inkscape:connector-curvature="0"
   d="m 323.47,374.67 -0.08,-0.08 -0.09,-0.08 -0.09,-0.07 -0.09,-0.06 -0.1,-0.06 -0.1,-0.06 -0.1,-0.05 -0.1,-0.04 -0.11,-0.04 -0.1,-0.04 -0.11,-0.02 -0.1,-0.03 -0.11,-0.02 -0.11,-0.01 -0.11,-0.01 -0.11,0 -0.11,0 -0.11,0.01 -0.11,0.01 -0.11,0.02 -0.1,0.03 -0.11,0.02 -0.11,0.04 -0.1,0.04 -0.1,0.04 -0.1,0.05 -0.1,0.06 -0.1,0.06 -0.09,0.06 -0.09,0.07 -0.09,0.08 -0.08,0.08 c -0.89,0.89 -0.89,2.33 0,3.22 0.89,0.89 2.33,0.89 3.22,0 0.89,-0.89 0.89,-2.33 0,-3.22 z"
   id="path165-7" />
<path
   style="stroke-width:0.89999998"
   inkscape:connector-curvature="0"
   d="m 323.47,374.67 -0.08,-0.08 -0.09,-0.08 -0.09,-0.07 -0.09,-0.06 -0.1,-0.06 -0.1,-0.06 -0.1,-0.05 -0.1,-0.04 -0.11,-0.04 -0.1,-0.04 -0.11,-0.02 -0.1,-0.03 -0.11,-0.02 -0.11,-0.01 -0.11,-0.01 -0.11,0 -0.11,0 -0.11,0.01 -0.11,0.01 -0.11,0.02 -0.1,0.03 -0.11,0.02 -0.11,0.04 -0.1,0.04 -0.1,0.04 -0.1,0.05 -0.1,0.06 -0.1,0.06 -0.09,0.06 -0.09,0.07 -0.09,0.08 -0.08,0.08 c -0.89,0.89 -0.89,2.33 0,3.22 0.89,0.89 2.33,0.89 3.22,0 0.89,-0.89 0.89,-2.33 0,-3.22 z"
   id="path167-8" />
<path
   style="fill:#000000;stroke-width:0"
   inkscape:connector-curvature="0"
   d="m 299.95,402.03 -0.08,-0.08 -0.09,-0.08 -0.09,-0.07 -0.09,-0.07 -0.1,-0.05 -0.1,-0.06 -0.1,-0.05 -0.1,-0.04 -0.11,-0.04 -0.1,-0.04 -0.11,-0.03 -0.1,-0.02 -0.11,-0.02 -0.11,-0.01 -0.11,-0.01 -0.11,0 -0.11,0 -0.11,0.01 -0.11,0.01 -0.11,0.02 -0.1,0.02 -0.11,0.03 -0.1,0.04 -0.11,0.04 -0.1,0.04 -0.1,0.05 -0.1,0.06 -0.1,0.05 -0.09,0.07 -0.09,0.07 -0.09,0.08 -0.08,0.08 c -0.89,0.89 -0.89,2.33 0,3.22 0.89,0.89 2.33,0.89 3.22,0 0.89,-0.89 0.89,-2.33 0,-3.22 z"
   id="path169-7" />
<path
   style="stroke-width:0.89999998"
   inkscape:connector-curvature="0"
   d="m 299.95,402.03 -0.08,-0.08 -0.09,-0.08 -0.09,-0.07 -0.09,-0.07 -0.1,-0.05 -0.1,-0.06 -0.1,-0.05 -0.1,-0.04 -0.11,-0.04 -0.1,-0.04 -0.11,-0.03 -0.1,-0.02 -0.11,-0.02 -0.11,-0.01 -0.11,-0.01 -0.11,0 -0.11,0 -0.11,0.01 -0.11,0.01 -0.11,0.02 -0.1,0.02 -0.11,0.03 -0.1,0.04 -0.11,0.04 -0.1,0.04 -0.1,0.05 -0.1,0.06 -0.1,0.05 -0.09,0.07 -0.09,0.07 -0.09,0.08 -0.08,0.08 c -0.89,0.89 -0.89,2.33 0,3.22 0.89,0.89 2.33,0.89 3.22,0 0.89,-0.89 0.89,-2.33 0,-3.22 z"
   id="path171-9" />
<path
   style="fill:#000000;stroke-width:0"
   inkscape:connector-curvature="0"
   d="m 355.99,406.71 -0.08,-0.08 -0.09,-0.08 -0.09,-0.07 -0.1,-0.07 -0.09,-0.06 -0.1,-0.05 -0.1,-0.05 -0.1,-0.04 -0.11,-0.04 -0.1,-0.04 -0.11,-0.03 -0.1,-0.02 -0.11,-0.02 -0.11,-0.01 -0.11,-0.01 -0.11,0 -0.11,0 -0.11,0.01 -0.11,0.01 -0.11,0.02 -0.1,0.02 -0.11,0.03 -0.1,0.04 -0.11,0.04 -0.1,0.04 -0.1,0.05 -0.1,0.05 -0.09,0.06 -0.1,0.07 -0.09,0.07 -0.09,0.08 -0.08,0.08 c -0.89,0.89 -0.89,2.33 0,3.22 0.89,0.89 2.33,0.89 3.22,0 0.89,-0.89 0.89,-2.33 0,-3.22 z"
   id="path173-2" />
<path
   style="stroke-width:0.89999998"
   inkscape:connector-curvature="0"
   d="m 355.99,406.71 -0.08,-0.08 -0.09,-0.08 -0.09,-0.07 -0.1,-0.07 -0.09,-0.06 -0.1,-0.05 -0.1,-0.05 -0.1,-0.04 -0.11,-0.04 -0.1,-0.04 -0.11,-0.03 -0.1,-0.02 -0.11,-0.02 -0.11,-0.01 -0.11,-0.01 -0.11,0 -0.11,0 -0.11,0.01 -0.11,0.01 -0.11,0.02 -0.1,0.02 -0.11,0.03 -0.1,0.04 -0.11,0.04 -0.1,0.04 -0.1,0.05 -0.1,0.05 -0.09,0.06 -0.1,0.07 -0.09,0.07 -0.09,0.08 -0.08,0.08 c -0.89,0.89 -0.89,2.33 0,3.22 0.89,0.89 2.33,0.89 3.22,0 0.89,-0.89 0.89,-2.33 0,-3.22 z"
   id="path175-6" />
<path
   style="fill:#000000;stroke-width:0"
   inkscape:connector-curvature="0"
   d="m 331.27,432.33 -0.08,-0.08 -0.09,-0.08 -0.09,-0.07 -0.09,-0.06 -0.1,-0.06 -0.1,-0.06 -0.1,-0.05 -0.1,-0.04 -0.1,-0.04 -0.11,-0.04 -0.11,-0.02 -0.1,-0.03 -0.11,-0.02 -0.11,-0.01 -0.11,-0.01 -0.11,0 -0.11,0 -0.11,0.01 -0.11,0.01 -0.11,0.02 -0.1,0.03 -0.11,0.02 -0.1,0.04 -0.11,0.04 -0.1,0.04 -0.1,0.05 -0.1,0.06 -0.1,0.06 -0.09,0.06 -0.09,0.07 -0.09,0.08 -0.08,0.08 c -0.89,0.89 -0.89,2.33 0,3.22 0.89,0.89 2.33,0.89 3.22,0 0.89,-0.89 0.89,-2.33 0,-3.22 z"
   id="path177-2" />
<path
   style="stroke-width:0.89999998"
   inkscape:connector-curvature="0"
   d="m 331.27,432.33 -0.08,-0.08 -0.09,-0.08 -0.09,-0.07 -0.09,-0.06 -0.1,-0.06 -0.1,-0.06 -0.1,-0.05 -0.1,-0.04 -0.1,-0.04 -0.11,-0.04 -0.11,-0.02 -0.1,-0.03 -0.11,-0.02 -0.11,-0.01 -0.11,-0.01 -0.11,0 -0.11,0 -0.11,0.01 -0.11,0.01 -0.11,0.02 -0.1,0.03 -0.11,0.02 -0.1,0.04 -0.11,0.04 -0.1,0.04 -0.1,0.05 -0.1,0.06 -0.1,0.06 -0.09,0.06 -0.09,0.07 -0.09,0.08 -0.08,0.08 c -0.89,0.89 -0.89,2.33 0,3.22 0.89,0.89 2.33,0.89 3.22,0 0.89,-0.89 0.89,-2.33 0,-3.22 z"
   id="path179-5" />
<path
   style="fill:#000000;stroke-width:0"
   inkscape:connector-curvature="0"
   d="m 341.71,386.91 -0.08,-0.08 -0.09,-0.08 -0.09,-0.07 -0.1,-0.06 -0.09,-0.06 -0.1,-0.06 -0.1,-0.05 -0.1,-0.04 -0.11,-0.04 -0.1,-0.04 -0.11,-0.02 -0.1,-0.03 -0.11,-0.02 -0.11,-0.01 -0.11,-0.01 -0.11,0 -0.11,0 -0.11,0.01 -0.11,0.01 -0.1,0.02 -0.11,0.03 -0.11,0.02 -0.1,0.04 -0.11,0.04 -0.1,0.04 -0.1,0.05 -0.1,0.06 -0.09,0.06 -0.1,0.06 -0.09,0.07 -0.09,0.08 -0.08,0.08 c -0.89,0.89 -0.89,2.33 0,3.22 0.89,0.89 2.33,0.89 3.22,0 0.89,-0.89 0.89,-2.33 0,-3.22 z"
   id="path181-4" />
<path
   style="stroke-width:0.89999998"
   inkscape:connector-curvature="0"
   d="m 341.71,386.91 -0.08,-0.08 -0.09,-0.08 -0.09,-0.07 -0.1,-0.06 -0.09,-0.06 -0.1,-0.06 -0.1,-0.05 -0.1,-0.04 -0.11,-0.04 -0.1,-0.04 -0.11,-0.02 -0.1,-0.03 -0.11,-0.02 -0.11,-0.01 -0.11,-0.01 -0.11,0 -0.11,0 -0.11,0.01 -0.11,0.01 -0.1,0.02 -0.11,0.03 -0.11,0.02 -0.1,0.04 -0.11,0.04 -0.1,0.04 -0.1,0.05 -0.1,0.06 -0.09,0.06 -0.1,0.06 -0.09,0.07 -0.09,0.08 -0.08,0.08 c -0.89,0.89 -0.89,2.33 0,3.22 0.89,0.89 2.33,0.89 3.22,0 0.89,-0.89 0.89,-2.33 0,-3.22 z"
   id="path183-4" />
<path
   style="fill:#000000;stroke-width:0"
   inkscape:connector-curvature="0"
   d="m 313.39,419.31 -0.08,-0.08 -0.09,-0.08 -0.09,-0.07 -0.1,-0.06 -0.09,-0.06 -0.1,-0.06 -0.1,-0.05 -0.1,-0.04 -0.11,-0.04 -0.1,-0.04 -0.11,-0.02 -0.1,-0.03 -0.11,-0.02 -0.11,-0.01 -0.11,-0.01 -0.11,0 -0.11,0 -0.11,0.01 -0.11,0.01 -0.1,0.02 -0.11,0.03 -0.11,0.02 -0.1,0.04 -0.11,0.04 -0.1,0.04 -0.1,0.05 -0.1,0.06 -0.09,0.06 -0.1,0.06 -0.09,0.07 -0.09,0.08 -0.08,0.08 c -0.89,0.89 -0.89,2.33 0,3.22 0.89,0.89 2.33,0.89 3.22,0 0.89,-0.89 0.89,-2.33 0,-3.22 z"
   id="path185-2" />
<path
   style="stroke-width:0.89999998"
   inkscape:connector-curvature="0"
   d="m 313.39,419.31 -0.08,-0.08 -0.09,-0.08 -0.09,-0.07 -0.1,-0.06 -0.09,-0.06 -0.1,-0.06 -0.1,-0.05 -0.1,-0.04 -0.11,-0.04 -0.1,-0.04 -0.11,-0.02 -0.1,-0.03 -0.11,-0.02 -0.11,-0.01 -0.11,-0.01 -0.11,0 -0.11,0 -0.11,0.01 -0.11,0.01 -0.1,0.02 -0.11,0.03 -0.11,0.02 -0.1,0.04 -0.11,0.04 -0.1,0.04 -0.1,0.05 -0.1,0.06 -0.09,0.06 -0.1,0.06 -0.09,0.07 -0.09,0.08 -0.08,0.08 c -0.89,0.89 -0.89,2.33 0,3.22 0.89,0.89 2.33,0.89 3.22,0 0.89,-0.89 0.89,-2.33 0,-3.22 z"
   id="path187-8" />
<path
   style="fill:#000000;stroke-width:0"
   inkscape:connector-curvature="0"
   d="m 299.41,376.89 -0.08,-0.08 -0.09,-0.08 -0.09,-0.07 -0.09,-0.06 -0.1,-0.06 -0.1,-0.06 -0.1,-0.05 -0.1,-0.04 -0.1,-0.04 -0.11,-0.03 -0.11,-0.03 -0.1,-0.03 -0.11,-0.01 -0.11,-0.02 -0.11,-0.01 -0.11,0 -0.11,0 -0.11,0.01 -0.11,0.02 -0.11,0.01 -0.1,0.03 -0.11,0.03 -0.1,0.03 -0.11,0.04 -0.1,0.04 -0.1,0.05 -0.1,0.06 -0.09,0.06 -0.1,0.06 -0.09,0.07 -0.09,0.08 -0.08,0.08 c -0.89,0.89 -0.89,2.33 0,3.22 0.89,0.89 2.33,0.89 3.22,0 0.89,-0.89 0.89,-2.33 0,-3.22 z"
   id="path189-7" />
<path
   style="stroke-width:0.89999998"
   inkscape:connector-curvature="0"
   d="m 299.41,376.89 -0.08,-0.08 -0.09,-0.08 -0.09,-0.07 -0.09,-0.06 -0.1,-0.06 -0.1,-0.06 -0.1,-0.05 -0.1,-0.04 -0.1,-0.04 -0.11,-0.03 -0.11,-0.03 -0.1,-0.03 -0.11,-0.01 -0.11,-0.02 -0.11,-0.01 -0.11,0 -0.11,0 -0.11,0.01 -0.11,0.02 -0.11,0.01 -0.1,0.03 -0.11,0.03 -0.1,0.03 -0.11,0.04 -0.1,0.04 -0.1,0.05 -0.1,0.06 -0.09,0.06 -0.1,0.06 -0.09,0.07 -0.09,0.08 -0.08,0.08 c -0.89,0.89 -0.89,2.33 0,3.22 0.89,0.89 2.33,0.89 3.22,0 0.89,-0.89 0.89,-2.33 0,-3.22 z"
   id="path191-4" />
<path
   style="fill:#000000;stroke-width:0"
   inkscape:connector-curvature="0"
   d="m 326.95,403.29 -0.08,-0.08 -0.09,-0.08 -0.09,-0.07 -0.09,-0.06 -0.1,-0.06 -0.1,-0.06 -0.1,-0.05 -0.1,-0.04 -0.11,-0.04 -0.1,-0.04 -0.11,-0.02 -0.1,-0.03 -0.11,-0.02 -0.11,-0.01 -0.11,-0.01 -0.11,0 -0.11,0 -0.11,0.01 -0.11,0.01 -0.11,0.02 -0.1,0.03 -0.11,0.02 -0.11,0.04 -0.1,0.04 -0.1,0.04 -0.1,0.05 -0.1,0.06 -0.1,0.06 -0.09,0.06 -0.09,0.07 -0.09,0.08 -0.08,0.08 c -0.89,0.89 -0.89,2.33 0,3.22 0.89,0.89 2.33,0.89 3.22,0 0.89,-0.89 0.89,-2.33 0,-3.22 z"
   id="path193-9" />
<path
   style="stroke-width:0.89999998"
   inkscape:connector-curvature="0"
   d="m 326.95,403.29 -0.08,-0.08 -0.09,-0.08 -0.09,-0.07 -0.09,-0.06 -0.1,-0.06 -0.1,-0.06 -0.1,-0.05 -0.1,-0.04 -0.11,-0.04 -0.1,-0.04 -0.11,-0.02 -0.1,-0.03 -0.11,-0.02 -0.11,-0.01 -0.11,-0.01 -0.11,0 -0.11,0 -0.11,0.01 -0.11,0.01 -0.11,0.02 -0.1,0.03 -0.11,0.02 -0.11,0.04 -0.1,0.04 -0.1,0.04 -0.1,0.05 -0.1,0.06 -0.1,0.06 -0.09,0.06 -0.09,0.07 -0.09,0.08 -0.08,0.08 c -0.89,0.89 -0.89,2.33 0,3.22 0.89,0.89 2.33,0.89 3.22,0 0.89,-0.89 0.89,-2.33 0,-3.22 z"
   id="path195-1" />
<path
   style="stroke-width:0.89999998"
   inkscape:connector-curvature="0"
   d="m 354.42,433.44 0.75,-0.82 0.67,-0.88 0.58,-0.95 0.51,-1 0.43,-1.05 0.34,-1.1 0.27,-1.15 0.2,-1.19 0.11,-1.24 0.04,-1.28 -0.03,-1.31 -0.11,-1.35 -0.18,-1.38 -0.26,-1.41 -0.32,-1.43 -0.4,-1.46 -0.47,-1.48 -0.53,-1.49 -0.61,-1.52 -0.67,-1.52 -0.74,-1.53 -0.8,-1.54 -0.87,-1.55 -0.94,-1.54 -1,-1.55 -1.06,-1.54 -1.12,-1.53 -1.18,-1.53 -1.25,-1.51 -1.3,-1.5 -1.36,-1.48 -1.42,-1.46 C 326.23,374.7 306.85,369 298.42,377.44 c -8.44,8.43 -2.74,27.81 12.72,43.27 15.47,15.47 34.85,21.17 43.28,12.73 z"
   id="path197-5" />
<path
   style="stroke-width:0.89999998"
   inkscape:connector-curvature="0"
   d="m 279.38,405.32 -0.04,-1.49 -0.11,-1.47 -0.19,-1.45 -0.25,-1.43 -0.33,-1.4 -0.39,-1.38 -0.45,-1.34 -0.52,-1.32 -0.59,-1.28 -0.64,-1.25 -0.7,-1.22 -0.75,-1.17 -0.81,-1.14 -0.86,-1.09 -0.92,-1.06 -0.96,-1 -1.01,-0.96 -1.05,-0.91 -1.1,-0.86 -1.14,-0.81 -1.17,-0.75 -1.22,-0.7 -1.25,-0.64 -1.29,-0.58 -1.32,-0.52 -1.35,-0.46 -1.37,-0.39 -1.41,-0.32 -1.43,-0.26 -1.45,-0.18 -1.48,-0.11 -1.49,-0.04 c -16.04,0 -29.04,12.98 -29.04,28.98 0,16 13,28.98 29.04,28.98 16.04,0 29.04,-12.98 29.04,-28.98 z"
   id="path199-2" />
<path
   style="fill:#000000;stroke-width:0"
   inkscape:connector-curvature="0"
   d="m 252.62,434.12 0,-0.12 -0.01,-0.11 -0.02,-0.12 -0.02,-0.11 -0.02,-0.11 -0.03,-0.11 -0.04,-0.1 -0.04,-0.11 -0.04,-0.1 -0.05,-0.1 -0.06,-0.09 -0.06,-0.09 -0.06,-0.09 -0.07,-0.09 -0.07,-0.08 -0.08,-0.08 -0.08,-0.08 -0.08,-0.07 -0.09,-0.07 -0.09,-0.06 -0.09,-0.06 -0.09,-0.05 -0.1,-0.05 -0.1,-0.05 -0.11,-0.04 -0.1,-0.04 -0.11,-0.03 -0.11,-0.02 -0.11,-0.02 -0.12,-0.02 -0.11,-0.01 -0.12,0 c -1.26,0 -2.28,1.02 -2.28,2.28 0,1.26 1.02,2.28 2.28,2.28 1.26,0 2.28,-1.02 2.28,-2.28 z"
   id="path201-9" />
<path
   style="stroke-width:0.89999998"
   inkscape:connector-curvature="0"
   d="m 252.62,434.12 0,-0.12 -0.01,-0.11 -0.02,-0.12 -0.02,-0.11 -0.02,-0.11 -0.03,-0.11 -0.04,-0.1 -0.04,-0.11 -0.04,-0.1 -0.05,-0.1 -0.06,-0.09 -0.06,-0.09 -0.06,-0.09 -0.07,-0.09 -0.07,-0.08 -0.08,-0.08 -0.08,-0.08 -0.08,-0.07 -0.09,-0.07 -0.09,-0.06 -0.09,-0.06 -0.09,-0.05 -0.1,-0.05 -0.1,-0.05 -0.11,-0.04 -0.1,-0.04 -0.11,-0.03 -0.11,-0.02 -0.11,-0.02 -0.12,-0.02 -0.11,-0.01 -0.12,0 c -1.26,0 -2.28,1.02 -2.28,2.28 0,1.26 1.02,2.28 2.28,2.28 1.26,0 2.28,-1.02 2.28,-2.28 z"
   id="path203-0" />
<path
   style="fill:#000000;stroke-width:0"
   inkscape:connector-curvature="0"
   d="m 223.58,405.32 0,-0.12 -0.01,-0.11 -0.02,-0.12 -0.02,-0.11 -0.02,-0.11 -0.03,-0.11 -0.04,-0.1 -0.04,-0.11 -0.05,-0.1 -0.05,-0.1 -0.05,-0.09 -0.06,-0.09 -0.06,-0.09 -0.07,-0.09 -0.07,-0.08 -0.08,-0.08 -0.08,-0.08 -0.08,-0.07 -0.09,-0.07 -0.09,-0.06 -0.09,-0.06 -0.09,-0.06 -0.1,-0.05 -0.1,-0.04 -0.11,-0.04 -0.1,-0.04 -0.11,-0.03 -0.11,-0.02 -0.11,-0.02 -0.12,-0.02 -0.11,-0.01 -0.12,0 c -1.26,0 -2.28,1.02 -2.28,2.28 0,1.26 1.02,2.28 2.28,2.28 1.26,0 2.28,-1.02 2.28,-2.28 z"
   id="path205-6" />
<path
   style="stroke-width:0.89999998"
   inkscape:connector-curvature="0"
   d="m 223.58,405.32 0,-0.12 -0.01,-0.11 -0.02,-0.12 -0.02,-0.11 -0.02,-0.11 -0.03,-0.11 -0.04,-0.1 -0.04,-0.11 -0.05,-0.1 -0.05,-0.1 -0.05,-0.09 -0.06,-0.09 -0.06,-0.09 -0.07,-0.09 -0.07,-0.08 -0.08,-0.08 -0.08,-0.08 -0.08,-0.07 -0.09,-0.07 -0.09,-0.06 -0.09,-0.06 -0.09,-0.06 -0.1,-0.05 -0.1,-0.04 -0.11,-0.04 -0.1,-0.04 -0.11,-0.03 -0.11,-0.02 -0.11,-0.02 -0.12,-0.02 -0.11,-0.01 -0.12,0 c -1.26,0 -2.28,1.02 -2.28,2.28 0,1.26 1.02,2.28 2.28,2.28 1.26,0 2.28,-1.02 2.28,-2.28 z"
   id="path207-3" />
<path
   style="fill:#000000;stroke-width:0"
   inkscape:connector-curvature="0"
   d="m 232.22,426.2 0,-0.12 -0.01,-0.11 -0.02,-0.12 -0.02,-0.11 -0.02,-0.11 -0.03,-0.11 -0.04,-0.1 -0.04,-0.11 -0.05,-0.1 -0.05,-0.1 -0.05,-0.09 -0.06,-0.09 -0.06,-0.09 -0.07,-0.09 -0.07,-0.08 -0.08,-0.08 -0.08,-0.08 -0.08,-0.07 -0.09,-0.07 -0.09,-0.06 -0.09,-0.06 -0.09,-0.05 -0.1,-0.05 -0.1,-0.05 -0.11,-0.04 -0.1,-0.04 -0.11,-0.03 -0.11,-0.02 -0.11,-0.02 -0.12,-0.02 -0.11,-0.01 -0.12,0 c -1.26,0 -2.28,1.02 -2.28,2.28 0,1.26 1.02,2.28 2.28,2.28 1.26,0 2.28,-1.02 2.28,-2.28 z"
   id="path209-5" />
<path
   style="stroke-width:0.89999998"
   inkscape:connector-curvature="0"
   d="m 232.22,426.2 0,-0.12 -0.01,-0.11 -0.02,-0.12 -0.02,-0.11 -0.02,-0.11 -0.03,-0.11 -0.04,-0.1 -0.04,-0.11 -0.05,-0.1 -0.05,-0.1 -0.05,-0.09 -0.06,-0.09 -0.06,-0.09 -0.07,-0.09 -0.07,-0.08 -0.08,-0.08 -0.08,-0.08 -0.08,-0.07 -0.09,-0.07 -0.09,-0.06 -0.09,-0.06 -0.09,-0.05 -0.1,-0.05 -0.1,-0.05 -0.11,-0.04 -0.1,-0.04 -0.11,-0.03 -0.11,-0.02 -0.11,-0.02 -0.12,-0.02 -0.11,-0.01 -0.12,0 c -1.26,0 -2.28,1.02 -2.28,2.28 0,1.26 1.02,2.28 2.28,2.28 1.26,0 2.28,-1.02 2.28,-2.28 z"
   id="path211-1" />
<path
   style="fill:#000000;stroke-width:0"
   inkscape:connector-curvature="0"
   d="m 273.26,425.54 0,-0.12 -0.01,-0.11 -0.01,-0.12 -0.02,-0.11 -0.03,-0.11 -0.03,-0.11 -0.04,-0.1 -0.04,-0.11 -0.04,-0.1 -0.05,-0.1 -0.06,-0.09 -0.06,-0.09 -0.06,-0.09 -0.07,-0.09 -0.07,-0.08 -0.08,-0.08 -0.08,-0.08 -0.08,-0.07 -0.09,-0.07 -0.09,-0.06 -0.09,-0.06 -0.09,-0.05 -0.1,-0.05 -0.1,-0.05 -0.11,-0.04 -0.1,-0.04 -0.11,-0.03 -0.11,-0.02 -0.11,-0.02 -0.12,-0.02 -0.11,-0.01 -0.12,0 c -1.26,0 -2.28,1.02 -2.28,2.28 0,1.26 1.02,2.28 2.28,2.28 1.26,0 2.28,-1.02 2.28,-2.28 z"
   id="path213-4" />
<path
   style="stroke-width:0.89999998"
   inkscape:connector-curvature="0"
   d="m 273.26,425.54 0,-0.12 -0.01,-0.11 -0.01,-0.12 -0.02,-0.11 -0.03,-0.11 -0.03,-0.11 -0.04,-0.1 -0.04,-0.11 -0.04,-0.1 -0.05,-0.1 -0.06,-0.09 -0.06,-0.09 -0.06,-0.09 -0.07,-0.09 -0.07,-0.08 -0.08,-0.08 -0.08,-0.08 -0.08,-0.07 -0.09,-0.07 -0.09,-0.06 -0.09,-0.06 -0.09,-0.05 -0.1,-0.05 -0.1,-0.05 -0.11,-0.04 -0.1,-0.04 -0.11,-0.03 -0.11,-0.02 -0.11,-0.02 -0.12,-0.02 -0.11,-0.01 -0.12,0 c -1.26,0 -2.28,1.02 -2.28,2.28 0,1.26 1.02,2.28 2.28,2.28 1.26,0 2.28,-1.02 2.28,-2.28 z"
   id="path215-2" />
<path
   style="fill:#000000;stroke-width:0"
   inkscape:connector-curvature="0"
   d="m 281.9,405.32 0,-0.12 -0.01,-0.11 -0.02,-0.12 -0.02,-0.11 -0.02,-0.11 -0.03,-0.11 -0.04,-0.1 -0.04,-0.11 -0.05,-0.1 -0.05,-0.1 -0.05,-0.09 -0.06,-0.09 -0.06,-0.09 -0.07,-0.09 -0.07,-0.08 -0.08,-0.08 -0.08,-0.08 -0.08,-0.07 -0.09,-0.07 -0.09,-0.06 -0.09,-0.06 -0.09,-0.06 -0.1,-0.05 -0.1,-0.04 -0.11,-0.04 -0.1,-0.04 -0.11,-0.03 -0.11,-0.02 -0.11,-0.02 -0.12,-0.02 -0.11,-0.01 -0.12,0 c -1.26,0 -2.28,1.02 -2.28,2.28 0,1.26 1.02,2.28 2.28,2.28 1.26,0 2.28,-1.02 2.28,-2.28 z"
   id="path217-9" />
<path
   style="stroke-width:0.89999998"
   inkscape:connector-curvature="0"
   d="m 281.9,405.32 0,-0.12 -0.01,-0.11 -0.02,-0.12 -0.02,-0.11 -0.02,-0.11 -0.03,-0.11 -0.04,-0.1 -0.04,-0.11 -0.05,-0.1 -0.05,-0.1 -0.05,-0.09 -0.06,-0.09 -0.06,-0.09 -0.07,-0.09 -0.07,-0.08 -0.08,-0.08 -0.08,-0.08 -0.08,-0.07 -0.09,-0.07 -0.09,-0.06 -0.09,-0.06 -0.09,-0.06 -0.1,-0.05 -0.1,-0.04 -0.11,-0.04 -0.1,-0.04 -0.11,-0.03 -0.11,-0.02 -0.11,-0.02 -0.12,-0.02 -0.11,-0.01 -0.12,0 c -1.26,0 -2.28,1.02 -2.28,2.28 0,1.26 1.02,2.28 2.28,2.28 1.26,0 2.28,-1.02 2.28,-2.28 z"
   id="path219-0" />
<path
   style="fill:#000000;stroke-width:0"
   inkscape:connector-curvature="0"
   d="m 252.86,376.28 0,-0.12 -0.01,-0.11 -0.02,-0.12 -0.02,-0.11 -0.02,-0.11 -0.03,-0.11 -0.04,-0.1 -0.04,-0.11 -0.05,-0.1 -0.05,-0.1 -0.05,-0.09 -0.06,-0.09 -0.06,-0.09 -0.07,-0.09 -0.07,-0.08 -0.08,-0.08 -0.08,-0.08 -0.08,-0.07 -0.09,-0.07 -0.09,-0.06 -0.09,-0.06 -0.1,-0.05 -0.09,-0.05 -0.1,-0.05 -0.11,-0.04 -0.1,-0.04 -0.11,-0.03 -0.11,-0.02 -0.12,-0.02 -0.11,-0.02 -0.11,-0.01 -0.12,0 c -1.26,0 -2.28,1.02 -2.28,2.28 0,1.26 1.02,2.28 2.28,2.28 1.26,0 2.28,-1.02 2.28,-2.28 z"
   id="path221-8" />
<path
   style="stroke-width:0.89999998"
   inkscape:connector-curvature="0"
   d="m 252.86,376.28 0,-0.12 -0.01,-0.11 -0.02,-0.12 -0.02,-0.11 -0.02,-0.11 -0.03,-0.11 -0.04,-0.1 -0.04,-0.11 -0.05,-0.1 -0.05,-0.1 -0.05,-0.09 -0.06,-0.09 -0.06,-0.09 -0.07,-0.09 -0.07,-0.08 -0.08,-0.08 -0.08,-0.08 -0.08,-0.07 -0.09,-0.07 -0.09,-0.06 -0.09,-0.06 -0.1,-0.05 -0.09,-0.05 -0.1,-0.05 -0.11,-0.04 -0.1,-0.04 -0.11,-0.03 -0.11,-0.02 -0.12,-0.02 -0.11,-0.02 -0.11,-0.01 -0.12,0 c -1.26,0 -2.28,1.02 -2.28,2.28 0,1.26 1.02,2.28 2.28,2.28 1.26,0 2.28,-1.02 2.28,-2.28 z"
   id="path223-7" />
<path
   style="fill:#000000;stroke-width:0"
   inkscape:connector-curvature="0"
   d="m 232.22,384.74 0,-0.12 -0.01,-0.11 -0.02,-0.12 -0.02,-0.11 -0.02,-0.11 -0.03,-0.11 -0.04,-0.11 -0.04,-0.1 -0.05,-0.1 -0.05,-0.1 -0.05,-0.09 -0.06,-0.1 -0.06,-0.08 -0.07,-0.09 -0.07,-0.08 -0.08,-0.08 -0.08,-0.08 -0.08,-0.07 -0.09,-0.07 -0.09,-0.06 -0.09,-0.06 -0.09,-0.05 -0.1,-0.05 -0.1,-0.05 -0.11,-0.04 -0.1,-0.04 -0.11,-0.03 -0.11,-0.02 -0.11,-0.02 -0.12,-0.02 -0.11,-0.01 -0.12,0 c -1.26,0 -2.28,1.02 -2.28,2.28 0,1.26 1.02,2.28 2.28,2.28 1.26,0 2.28,-1.02 2.28,-2.28 z"
   id="path225-4" />
<path
   style="stroke-width:0.89999998"
   inkscape:connector-curvature="0"
   d="m 232.22,384.74 0,-0.12 -0.01,-0.11 -0.02,-0.12 -0.02,-0.11 -0.02,-0.11 -0.03,-0.11 -0.04,-0.11 -0.04,-0.1 -0.05,-0.1 -0.05,-0.1 -0.05,-0.09 -0.06,-0.1 -0.06,-0.08 -0.07,-0.09 -0.07,-0.08 -0.08,-0.08 -0.08,-0.08 -0.08,-0.07 -0.09,-0.07 -0.09,-0.06 -0.09,-0.06 -0.09,-0.05 -0.1,-0.05 -0.1,-0.05 -0.11,-0.04 -0.1,-0.04 -0.11,-0.03 -0.11,-0.02 -0.11,-0.02 -0.12,-0.02 -0.11,-0.01 -0.12,0 c -1.26,0 -2.28,1.02 -2.28,2.28 0,1.26 1.02,2.28 2.28,2.28 1.26,0 2.28,-1.02 2.28,-2.28 z"
   id="path227-5" />
<path
   style="fill:#000000;stroke-width:0"
   inkscape:connector-curvature="0"
   d="m 273.02,384.74 0,-0.12 -0.01,-0.11 -0.02,-0.12 -0.02,-0.11 -0.02,-0.11 -0.03,-0.11 -0.04,-0.11 -0.04,-0.1 -0.05,-0.1 -0.05,-0.1 -0.05,-0.09 -0.06,-0.1 -0.06,-0.08 -0.07,-0.09 -0.07,-0.08 -0.08,-0.08 -0.08,-0.08 -0.08,-0.07 -0.09,-0.07 -0.09,-0.06 -0.09,-0.06 -0.1,-0.05 -0.09,-0.05 -0.1,-0.05 -0.11,-0.04 -0.1,-0.04 -0.11,-0.03 -0.11,-0.02 -0.12,-0.02 -0.11,-0.02 -0.11,-0.01 -0.12,0 c -1.26,0 -2.28,1.02 -2.28,2.28 0,1.26 1.02,2.28 2.28,2.28 1.26,0 2.28,-1.02 2.28,-2.28 z"
   id="path229-7" />
<path
   style="stroke-width:0.89999998"
   inkscape:connector-curvature="0"
   d="m 273.02,384.74 0,-0.12 -0.01,-0.11 -0.02,-0.12 -0.02,-0.11 -0.02,-0.11 -0.03,-0.11 -0.04,-0.11 -0.04,-0.1 -0.05,-0.1 -0.05,-0.1 -0.05,-0.09 -0.06,-0.1 -0.06,-0.08 -0.07,-0.09 -0.07,-0.08 -0.08,-0.08 -0.08,-0.08 -0.08,-0.07 -0.09,-0.07 -0.09,-0.06 -0.09,-0.06 -0.1,-0.05 -0.09,-0.05 -0.1,-0.05 -0.11,-0.04 -0.1,-0.04 -0.11,-0.03 -0.11,-0.02 -0.12,-0.02 -0.11,-0.02 -0.11,-0.01 -0.12,0 c -1.26,0 -2.28,1.02 -2.28,2.28 0,1.26 1.02,2.28 2.28,2.28 1.26,0 2.28,-1.02 2.28,-2.28 z"
   id="path231-1" />
<path
   style="fill:#000000;stroke-width:0"
   inkscape:connector-curvature="0"
   d="m 252.62,405.14 0,-0.12 -0.01,-0.11 -0.02,-0.12 -0.02,-0.11 -0.02,-0.11 -0.03,-0.11 -0.04,-0.1 -0.04,-0.11 -0.04,-0.1 -0.05,-0.1 -0.06,-0.09 -0.06,-0.09 -0.06,-0.09 -0.07,-0.09 -0.07,-0.08 -0.08,-0.08 -0.08,-0.08 -0.08,-0.07 -0.09,-0.07 -0.09,-0.06 -0.09,-0.06 -0.09,-0.06 -0.1,-0.05 -0.1,-0.04 -0.11,-0.04 -0.1,-0.04 -0.11,-0.03 -0.11,-0.02 -0.11,-0.02 -0.12,-0.02 -0.11,-0.01 -0.12,0 c -1.26,0 -2.28,1.02 -2.28,2.28 0,1.26 1.02,2.28 2.28,2.28 1.26,0 2.28,-1.02 2.28,-2.28 z"
   id="path233-6" />
<path
   style="stroke-width:0.89999998"
   inkscape:connector-curvature="0"
   d="m 252.62,405.14 0,-0.12 -0.01,-0.11 -0.02,-0.12 -0.02,-0.11 -0.02,-0.11 -0.03,-0.11 -0.04,-0.1 -0.04,-0.11 -0.04,-0.1 -0.05,-0.1 -0.06,-0.09 -0.06,-0.09 -0.06,-0.09 -0.07,-0.09 -0.07,-0.08 -0.08,-0.08 -0.08,-0.08 -0.08,-0.07 -0.09,-0.07 -0.09,-0.06 -0.09,-0.06 -0.09,-0.06 -0.1,-0.05 -0.1,-0.04 -0.11,-0.04 -0.1,-0.04 -0.11,-0.03 -0.11,-0.02 -0.11,-0.02 -0.12,-0.02 -0.11,-0.01 -0.12,0 c -1.26,0 -2.28,1.02 -2.28,2.28 0,1.26 1.02,2.28 2.28,2.28 1.26,0 2.28,-1.02 2.28,-2.28 z"
   id="path235-1" />
<path
   style="stroke-width:0.89999998"
   inkscape:connector-curvature="0"
   d="m 132.74,405.32 -0.04,-1.49 -0.11,-1.47 -0.19,-1.45 -0.25,-1.43 -0.33,-1.4 -0.39,-1.38 -0.45,-1.34 -0.52,-1.32 -0.59,-1.28 -0.64,-1.25 -0.7,-1.22 -0.75,-1.17 -0.81,-1.14 -0.86,-1.09 -0.92,-1.06 -0.96,-1 -1.01,-0.96 -1.05,-0.91 -1.1,-0.86 -1.14,-0.81 -1.17,-0.75 -1.22,-0.7 -1.25,-0.64 -1.29,-0.58 -1.32,-0.52 -1.35,-0.46 -1.37,-0.39 -1.41,-0.32 -1.43,-0.26 -1.45,-0.18 -1.48,-0.11 -1.49,-0.04 c -16.036,0 -29.04,12.98 -29.04,28.98 0,16 13.004,28.98 29.04,28.98 16.03,0 29.04,-12.98 29.04,-28.98 z"
   id="path237-9" />
<path
   style="fill:#000000;stroke-width:0"
   inkscape:connector-curvature="0"
   d="m 105.98,434.12 0,-0.12 -0.01,-0.11 -0.02,-0.12 -0.02,-0.11 -0.02,-0.11 -0.03,-0.11 -0.04,-0.1 -0.04,-0.11 -0.05,-0.1 -0.05,-0.1 -0.05,-0.09 -0.06,-0.09 -0.06,-0.09 -0.07,-0.09 -0.07,-0.08 -0.08,-0.08 -0.08,-0.08 -0.08,-0.07 -0.09,-0.07 -0.09,-0.06 -0.09,-0.06 -0.09,-0.05 -0.1,-0.05 -0.1,-0.05 -0.11,-0.04 -0.1,-0.04 -0.11,-0.03 -0.11,-0.02 -0.11,-0.02 -0.12,-0.02 -0.11,-0.01 -0.12,0 c -1.26,0 -2.28,1.02 -2.28,2.28 0,1.26 1.02,2.28 2.28,2.28 1.26,0 2.28,-1.02 2.28,-2.28 z"
   id="path239-0" />
<path
   style="stroke-width:0.89999998"
   inkscape:connector-curvature="0"
   d="m 105.98,434.12 0,-0.12 -0.01,-0.11 -0.02,-0.12 -0.02,-0.11 -0.02,-0.11 -0.03,-0.11 -0.04,-0.1 -0.04,-0.11 -0.05,-0.1 -0.05,-0.1 -0.05,-0.09 -0.06,-0.09 -0.06,-0.09 -0.07,-0.09 -0.07,-0.08 -0.08,-0.08 -0.08,-0.08 -0.08,-0.07 -0.09,-0.07 -0.09,-0.06 -0.09,-0.06 -0.09,-0.05 -0.1,-0.05 -0.1,-0.05 -0.11,-0.04 -0.1,-0.04 -0.11,-0.03 -0.11,-0.02 -0.11,-0.02 -0.12,-0.02 -0.11,-0.01 -0.12,0 c -1.26,0 -2.28,1.02 -2.28,2.28 0,1.26 1.02,2.28 2.28,2.28 1.26,0 2.28,-1.02 2.28,-2.28 z"
   id="path241-6" />
<path
   style="fill:#000000;stroke-width:0"
   inkscape:connector-curvature="0"
   d="m 76.941,405.32 -0.003,-0.12 -0.008,-0.11 -0.015,-0.12 -0.02,-0.11 -0.026,-0.11 -0.03,-0.11 -0.036,-0.1 -0.041,-0.11 -0.046,-0.1 -0.05,-0.1 -0.055,-0.09 -0.06,-0.09 -0.063,-0.09 -0.068,-0.09 -0.072,-0.08 -0.076,-0.08 -0.079,-0.08 -0.083,-0.07 -0.086,-0.07 -0.089,-0.06 -0.093,-0.06 -0.095,-0.06 -0.099,-0.05 -0.101,-0.04 -0.103,-0.04 -0.106,-0.04 -0.108,-0.03 -0.111,-0.02 -0.112,-0.02 -0.114,-0.02 -0.116,-0.01 -0.117,0 c -1.258,0 -2.281,1.02 -2.281,2.28 0,1.26 1.023,2.28 2.281,2.28 1.258,0 2.281,-1.02 2.281,-2.28 z"
   id="path243-5" />
<path
   style="stroke-width:0.89999998"
   inkscape:connector-curvature="0"
   d="m 76.941,405.32 -0.003,-0.12 -0.008,-0.11 -0.015,-0.12 -0.02,-0.11 -0.026,-0.11 -0.03,-0.11 -0.036,-0.1 -0.041,-0.11 -0.046,-0.1 -0.05,-0.1 -0.055,-0.09 -0.06,-0.09 -0.063,-0.09 -0.068,-0.09 -0.072,-0.08 -0.076,-0.08 -0.079,-0.08 -0.083,-0.07 -0.086,-0.07 -0.089,-0.06 -0.093,-0.06 -0.095,-0.06 -0.099,-0.05 -0.101,-0.04 -0.103,-0.04 -0.106,-0.04 -0.108,-0.03 -0.111,-0.02 -0.112,-0.02 -0.114,-0.02 -0.116,-0.01 -0.117,0 c -1.258,0 -2.281,1.02 -2.281,2.28 0,1.26 1.023,2.28 2.281,2.28 1.258,0 2.281,-1.02 2.281,-2.28 z"
   id="path245-5" />
<path
   style="fill:#000000;stroke-width:0"
   inkscape:connector-curvature="0"
   d="m 85.578,426.2 -0.003,-0.12 -0.009,-0.11 -0.014,-0.12 -0.02,-0.11 -0.026,-0.11 -0.03,-0.11 -0.036,-0.1 -0.041,-0.11 -0.045,-0.1 -0.051,-0.1 -0.055,-0.09 -0.059,-0.09 -0.063,-0.09 -0.068,-0.09 -0.071,-0.08 -0.076,-0.08 -0.079,-0.08 -0.083,-0.07 -0.086,-0.07 -0.089,-0.06 -0.092,-0.06 -0.096,-0.05 -0.098,-0.05 -0.101,-0.05 -0.103,-0.04 -0.106,-0.04 -0.108,-0.03 -0.11,-0.02 -0.112,-0.02 -0.114,-0.02 -0.116,-0.01 -0.117,0 c -1.258,0 -2.281,1.02 -2.281,2.28 0,1.26 1.023,2.28 2.281,2.28 1.258,0 2.277,-1.02 2.277,-2.28 z"
   id="path247-0" />
<path
   style="stroke-width:0.89999998"
   inkscape:connector-curvature="0"
   d="m 85.578,426.2 -0.003,-0.12 -0.009,-0.11 -0.014,-0.12 -0.02,-0.11 -0.026,-0.11 -0.03,-0.11 -0.036,-0.1 -0.041,-0.11 -0.045,-0.1 -0.051,-0.1 -0.055,-0.09 -0.059,-0.09 -0.063,-0.09 -0.068,-0.09 -0.071,-0.08 -0.076,-0.08 -0.079,-0.08 -0.083,-0.07 -0.086,-0.07 -0.089,-0.06 -0.092,-0.06 -0.096,-0.05 -0.098,-0.05 -0.101,-0.05 -0.103,-0.04 -0.106,-0.04 -0.108,-0.03 -0.11,-0.02 -0.112,-0.02 -0.114,-0.02 -0.116,-0.01 -0.117,0 c -1.258,0 -2.281,1.02 -2.281,2.28 0,1.26 1.023,2.28 2.281,2.28 1.258,0 2.277,-1.02 2.277,-2.28 z"
   id="path249-4" />
<path
   style="fill:#000000;stroke-width:0"
   inkscape:connector-curvature="0"
   d="m 126.62,425.54 0,-0.12 -0.01,-0.11 -0.02,-0.12 -0.02,-0.11 -0.02,-0.11 -0.03,-0.11 -0.04,-0.1 -0.04,-0.11 -0.04,-0.1 -0.05,-0.1 -0.06,-0.09 -0.06,-0.09 -0.06,-0.09 -0.07,-0.09 -0.07,-0.08 -0.08,-0.08 -0.08,-0.08 -0.08,-0.07 -0.09,-0.07 -0.09,-0.06 -0.09,-0.06 -0.09,-0.05 -0.1,-0.05 -0.1,-0.05 -0.11,-0.04 -0.1,-0.04 -0.11,-0.03 -0.11,-0.02 -0.11,-0.02 -0.12,-0.02 -0.11,-0.01 -0.12,0 c -1.26,0 -2.28,1.02 -2.28,2.28 0,1.26 1.02,2.28 2.28,2.28 1.26,0 2.28,-1.02 2.28,-2.28 z"
   id="path251-4" />
<path
   style="stroke-width:0.89999998"
   inkscape:connector-curvature="0"
   d="m 126.62,425.54 0,-0.12 -0.01,-0.11 -0.02,-0.12 -0.02,-0.11 -0.02,-0.11 -0.03,-0.11 -0.04,-0.1 -0.04,-0.11 -0.04,-0.1 -0.05,-0.1 -0.06,-0.09 -0.06,-0.09 -0.06,-0.09 -0.07,-0.09 -0.07,-0.08 -0.08,-0.08 -0.08,-0.08 -0.08,-0.07 -0.09,-0.07 -0.09,-0.06 -0.09,-0.06 -0.09,-0.05 -0.1,-0.05 -0.1,-0.05 -0.11,-0.04 -0.1,-0.04 -0.11,-0.03 -0.11,-0.02 -0.11,-0.02 -0.12,-0.02 -0.11,-0.01 -0.12,0 c -1.26,0 -2.28,1.02 -2.28,2.28 0,1.26 1.02,2.28 2.28,2.28 1.26,0 2.28,-1.02 2.28,-2.28 z"
   id="path253-4" />
<path
   style="fill:#000000;stroke-width:0"
   inkscape:connector-curvature="0"
   d="m 135.26,405.32 0,-0.12 -0.01,-0.11 -0.01,-0.12 -0.02,-0.11 -0.03,-0.11 -0.03,-0.11 -0.04,-0.1 -0.04,-0.11 -0.04,-0.1 -0.05,-0.1 -0.06,-0.09 -0.06,-0.09 -0.06,-0.09 -0.07,-0.09 -0.07,-0.08 -0.08,-0.08 -0.08,-0.08 -0.08,-0.07 -0.09,-0.07 -0.09,-0.06 -0.09,-0.06 -0.09,-0.06 -0.1,-0.05 -0.1,-0.04 -0.11,-0.04 -0.1,-0.04 -0.11,-0.03 -0.11,-0.02 -0.11,-0.02 -0.12,-0.02 -0.11,-0.01 -0.12,0 c -1.26,0 -2.28,1.02 -2.28,2.28 0,1.26 1.02,2.28 2.28,2.28 1.26,0 2.28,-1.02 2.28,-2.28 z"
   id="path255-3" />
<path
   style="stroke-width:0.89999998"
   inkscape:connector-curvature="0"
   d="m 135.26,405.32 0,-0.12 -0.01,-0.11 -0.01,-0.12 -0.02,-0.11 -0.03,-0.11 -0.03,-0.11 -0.04,-0.1 -0.04,-0.11 -0.04,-0.1 -0.05,-0.1 -0.06,-0.09 -0.06,-0.09 -0.06,-0.09 -0.07,-0.09 -0.07,-0.08 -0.08,-0.08 -0.08,-0.08 -0.08,-0.07 -0.09,-0.07 -0.09,-0.06 -0.09,-0.06 -0.09,-0.06 -0.1,-0.05 -0.1,-0.04 -0.11,-0.04 -0.1,-0.04 -0.11,-0.03 -0.11,-0.02 -0.11,-0.02 -0.12,-0.02 -0.11,-0.01 -0.12,0 c -1.26,0 -2.28,1.02 -2.28,2.28 0,1.26 1.02,2.28 2.28,2.28 1.26,0 2.28,-1.02 2.28,-2.28 z"
   id="path257-8" />
<path
   style="fill:#000000;stroke-width:0"
   inkscape:connector-curvature="0"
   d="m 106.22,376.28 0,-0.12 -0.01,-0.11 -0.02,-0.12 -0.02,-0.11 -0.02,-0.11 -0.03,-0.11 -0.04,-0.1 -0.04,-0.11 -0.05,-0.1 -0.05,-0.1 -0.05,-0.09 -0.06,-0.09 -0.06,-0.09 -0.07,-0.09 -0.07,-0.08 -0.08,-0.08 -0.08,-0.08 -0.08,-0.07 -0.09,-0.07 -0.09,-0.06 -0.09,-0.06 -0.09,-0.05 -0.1,-0.05 -0.1,-0.05 -0.11,-0.04 -0.1,-0.04 -0.11,-0.03 -0.11,-0.02 -0.11,-0.02 -0.12,-0.02 -0.11,-0.01 -0.12,0 c -1.26,0 -2.28,1.02 -2.28,2.28 0,1.26 1.02,2.28 2.28,2.28 1.26,0 2.28,-1.02 2.28,-2.28 z"
   id="path259-2" />
<path
   style="stroke-width:0.89999998"
   inkscape:connector-curvature="0"
   d="m 106.22,376.28 0,-0.12 -0.01,-0.11 -0.02,-0.12 -0.02,-0.11 -0.02,-0.11 -0.03,-0.11 -0.04,-0.1 -0.04,-0.11 -0.05,-0.1 -0.05,-0.1 -0.05,-0.09 -0.06,-0.09 -0.06,-0.09 -0.07,-0.09 -0.07,-0.08 -0.08,-0.08 -0.08,-0.08 -0.08,-0.07 -0.09,-0.07 -0.09,-0.06 -0.09,-0.06 -0.09,-0.05 -0.1,-0.05 -0.1,-0.05 -0.11,-0.04 -0.1,-0.04 -0.11,-0.03 -0.11,-0.02 -0.11,-0.02 -0.12,-0.02 -0.11,-0.01 -0.12,0 c -1.26,0 -2.28,1.02 -2.28,2.28 0,1.26 1.02,2.28 2.28,2.28 1.26,0 2.28,-1.02 2.28,-2.28 z"
   id="path261-7" />
<path
   style="fill:#000000;stroke-width:0"
   inkscape:connector-curvature="0"
   d="m 85.578,384.74 -0.003,-0.12 -0.009,-0.11 -0.014,-0.12 -0.02,-0.11 -0.026,-0.11 -0.03,-0.11 -0.036,-0.11 -0.041,-0.1 -0.045,-0.1 -0.051,-0.1 -0.055,-0.09 -0.059,-0.1 -0.063,-0.08 -0.068,-0.09 -0.071,-0.08 -0.076,-0.08 -0.079,-0.08 -0.083,-0.07 -0.086,-0.07 -0.089,-0.06 -0.092,-0.06 -0.096,-0.05 -0.098,-0.05 -0.101,-0.05 -0.103,-0.04 -0.106,-0.04 -0.108,-0.03 -0.11,-0.02 -0.112,-0.02 -0.114,-0.02 -0.116,-0.01 -0.117,0 c -1.258,0 -2.281,1.02 -2.281,2.28 0,1.26 1.023,2.28 2.281,2.28 1.258,0 2.277,-1.02 2.277,-2.28 z"
   id="path263-7" />
<path
   style="stroke-width:0.89999998"
   inkscape:connector-curvature="0"
   d="m 85.578,384.74 -0.003,-0.12 -0.009,-0.11 -0.014,-0.12 -0.02,-0.11 -0.026,-0.11 -0.03,-0.11 -0.036,-0.11 -0.041,-0.1 -0.045,-0.1 -0.051,-0.1 -0.055,-0.09 -0.059,-0.1 -0.063,-0.08 -0.068,-0.09 -0.071,-0.08 -0.076,-0.08 -0.079,-0.08 -0.083,-0.07 -0.086,-0.07 -0.089,-0.06 -0.092,-0.06 -0.096,-0.05 -0.098,-0.05 -0.101,-0.05 -0.103,-0.04 -0.106,-0.04 -0.108,-0.03 -0.11,-0.02 -0.112,-0.02 -0.114,-0.02 -0.116,-0.01 -0.117,0 c -1.258,0 -2.281,1.02 -2.281,2.28 0,1.26 1.023,2.28 2.281,2.28 1.258,0 2.277,-1.02 2.277,-2.28 z"
   id="path265-4" />
<path
   style="fill:#000000;stroke-width:0"
   inkscape:connector-curvature="0"
   d="m 126.38,384.74 0,-0.12 -0.01,-0.11 -0.02,-0.12 -0.02,-0.11 -0.02,-0.11 -0.03,-0.11 -0.04,-0.11 -0.04,-0.1 -0.05,-0.1 -0.05,-0.1 -0.05,-0.09 -0.06,-0.1 -0.06,-0.08 -0.07,-0.09 -0.07,-0.08 -0.08,-0.08 -0.08,-0.08 -0.08,-0.07 -0.09,-0.07 -0.09,-0.06 -0.09,-0.06 -0.09,-0.05 -0.1,-0.05 -0.1,-0.05 -0.11,-0.04 -0.1,-0.04 -0.11,-0.03 -0.11,-0.02 -0.11,-0.02 -0.12,-0.02 -0.11,-0.01 -0.12,0 c -1.26,0 -2.28,1.02 -2.28,2.28 0,1.26 1.02,2.28 2.28,2.28 1.26,0 2.28,-1.02 2.28,-2.28 z"
   id="path267-6" />
<path
   style="stroke-width:0.89999998"
   inkscape:connector-curvature="0"
   d="m 126.38,384.74 0,-0.12 -0.01,-0.11 -0.02,-0.12 -0.02,-0.11 -0.02,-0.11 -0.03,-0.11 -0.04,-0.11 -0.04,-0.1 -0.05,-0.1 -0.05,-0.1 -0.05,-0.09 -0.06,-0.1 -0.06,-0.08 -0.07,-0.09 -0.07,-0.08 -0.08,-0.08 -0.08,-0.08 -0.08,-0.07 -0.09,-0.07 -0.09,-0.06 -0.09,-0.06 -0.09,-0.05 -0.1,-0.05 -0.1,-0.05 -0.11,-0.04 -0.1,-0.04 -0.11,-0.03 -0.11,-0.02 -0.11,-0.02 -0.12,-0.02 -0.11,-0.01 -0.12,0 c -1.26,0 -2.28,1.02 -2.28,2.28 0,1.26 1.02,2.28 2.28,2.28 1.26,0 2.28,-1.02 2.28,-2.28 z"
   id="path269-0" />
<path
   style="fill:#000000;stroke-width:0"
   inkscape:connector-curvature="0"
   d="m 105.98,405.14 0,-0.12 -0.01,-0.11 -0.02,-0.12 -0.02,-0.11 -0.02,-0.11 -0.03,-0.11 -0.04,-0.1 -0.04,-0.11 -0.05,-0.1 -0.05,-0.1 -0.05,-0.09 -0.06,-0.09 -0.06,-0.09 -0.07,-0.09 -0.07,-0.08 -0.08,-0.08 -0.08,-0.08 -0.08,-0.07 -0.09,-0.07 -0.09,-0.06 -0.09,-0.06 -0.09,-0.06 -0.1,-0.05 -0.1,-0.04 -0.11,-0.04 -0.1,-0.04 -0.11,-0.03 -0.11,-0.02 -0.11,-0.02 -0.12,-0.02 -0.11,-0.01 -0.12,0 c -1.26,0 -2.28,1.02 -2.28,2.28 0,1.26 1.02,2.28 2.28,2.28 1.26,0 2.28,-1.02 2.28,-2.28 z"
   id="path271-9" />
<path
   style="stroke-width:0.89999998"
   inkscape:connector-curvature="0"
   d="m 105.98,405.14 0,-0.12 -0.01,-0.11 -0.02,-0.12 -0.02,-0.11 -0.02,-0.11 -0.03,-0.11 -0.04,-0.1 -0.04,-0.11 -0.05,-0.1 -0.05,-0.1 -0.05,-0.09 -0.06,-0.09 -0.06,-0.09 -0.07,-0.09 -0.07,-0.08 -0.08,-0.08 -0.08,-0.08 -0.08,-0.07 -0.09,-0.07 -0.09,-0.06 -0.09,-0.06 -0.09,-0.06 -0.1,-0.05 -0.1,-0.04 -0.11,-0.04 -0.1,-0.04 -0.11,-0.03 -0.11,-0.02 -0.11,-0.02 -0.12,-0.02 -0.11,-0.01 -0.12,0 c -1.26,0 -2.28,1.02 -2.28,2.28 0,1.26 1.02,2.28 2.28,2.28 1.26,0 2.28,-1.02 2.28,-2.28 z"
   id="path273-7" />






</g>    <g
       id="g7361"
       transform="matrix(0.95,0,0,0.95,-106.30929,12.719483)">
      <g
         id="g5260"
         transform="matrix(1.6637393,0,0,-1.6637393,-11.147192,1033.524)"
         style="font-style:normal;font-variant:normal;font-weight:normal;font-stretch:normal;letter-spacing:normal;word-spacing:normal;text-anchor:start;fill:none;stroke:#000000;stroke-linecap:butt;stroke-linejoin:miter;stroke-miterlimit:10.43299961;stroke-opacity:1;stroke-dasharray:none;stroke-dashoffset:0">
        <path
           inkscape:connector-curvature="0"
           id="path4022"
           d="m 124.80891,358.66781 c 0,87.26811 0,87.26811 0,87.26811"
           style="fill:none;stroke:#000000;stroke-width:1.51466036;stroke-linecap:butt;stroke-linejoin:miter;stroke-miterlimit:10.43299961;stroke-opacity:1;stroke-dasharray:none;marker-start:url(#Arrow1Mstart);marker-end:url(#Arrow1Mend)" />
        <path
           inkscape:connector-curvature="0"
           id="path4022-4"
           d="m 81.344741,401.8748 c 87.268049,0 87.268049,0 87.268049,0"
           style="font-style:normal;font-variant:normal;font-weight:normal;font-stretch:normal;letter-spacing:normal;word-spacing:normal;text-anchor:start;fill:none;stroke:#000000;stroke-width:1.50263929;stroke-linecap:butt;stroke-linejoin:miter;stroke-miterlimit:10.43299961;stroke-opacity:1;stroke-dasharray:none;stroke-dashoffset:0;marker-start:url(#Arrow1Mstart);marker-end:url(#Arrow1Mend)" />
      </g>
      <g
         ns0:preamble=""
         ns0:text="$x$"
         word-spacing="normal"
         letter-spacing="normal"
         font-size-adjust="none"
         font-stretch="normal"
         font-weight="normal"
         font-variant="normal"
         font-style="normal"
         stroke-miterlimit="10.433"
         xml:space="preserve"
         transform="matrix(3.15875,0,0,-3.15875,-461.68964,2623.622)"
         id="content"
         style="font-style:normal;font-variant:normal;font-weight:normal;font-stretch:normal;letter-spacing:normal;word-spacing:normal;text-anchor:start;fill:none;stroke:#000000;stroke-linecap:butt;stroke-linejoin:miter;stroke-miterlimit:10.43299961;stroke-opacity:1;stroke-dasharray:none;stroke-dashoffset:0">
<path
   id="path6890"
   d="m 226.76,710.13 0.01,0.03 0,0.03 0.01,0.03 0.01,0.04 0.01,0.03 0.01,0.05 0.02,0.04 0.01,0.04 0.02,0.05 0.02,0.05 0.02,0.05 0.02,0.05 0.02,0.05 0.02,0.05 0.03,0.05 0.03,0.04 0.03,0.05 0.03,0.05 0.03,0.05 0.04,0.04 0.03,0.04 0.04,0.04 0.04,0.04 0.05,0.04 0.04,0.03 0.05,0.03 0.03,0.01 0.02,0.01 0.03,0.02 0.03,0.01 0.03,0 0.02,0.01 0.03,0.01 0.03,0 0.03,0.01 0.03,0 0.04,0 0.03,0 c 0.05,0 0.29,0 0.5,-0.12 -0.28,-0.05 -0.48,-0.3 -0.48,-0.54 0,-0.16 0.11,-0.35 0.38,-0.35 0.22,0 0.53,0.18 0.53,0.58 0,0.52 -0.58,0.65 -0.92,0.65 -0.58,0 -0.93,-0.52 -1.05,-0.75 -0.25,0.65 -0.79,0.75 -1.08,0.75 -1.03,0 -1.6,-1.28 -1.6,-1.53 0,-0.1 0.1,-0.1 0.12,-0.1 0.08,0 0.11,0.02 0.13,0.11 0.34,1.06 1,1.3 1.34,1.3 0.18,0 0.53,-0.08 0.53,-0.66 0,-0.31 -0.17,-0.98 -0.53,-2.37 -0.16,-0.62 -0.51,-1.04 -0.95,-1.04 -0.06,0 -0.29,0 -0.5,0.13 0.25,0.05 0.47,0.26 0.47,0.54 0,0.27 -0.22,0.35 -0.37,0.35 -0.3,0 -0.55,-0.26 -0.55,-0.58 0,-0.45 0.5,-0.65 0.94,-0.65 0.66,0 1.02,0.69 1.05,0.75 0.11,-0.37 0.47,-0.75 1.07,-0.75 1.03,0 1.6,1.28 1.6,1.53 0,0.1 -0.09,0.1 -0.12,0.1 -0.09,0 -0.11,-0.04 -0.13,-0.11 -0.33,-1.07 -1.01,-1.31 -1.33,-1.31 -0.39,0 -0.55,0.32 -0.55,0.66 0,0.22 0.06,0.44 0.17,0.88 z"
   inkscape:connector-curvature="0"
   style="fill:#000000;stroke-width:0" />
</g>      <g
         id="g7209"
         transform="matrix(3.15875,0,0,-3.15875,-499.32665,2552.0613)"
         xml:space="preserve"
         stroke-miterlimit="10.433"
         font-style="normal"
         font-variant="normal"
         font-weight="normal"
         font-stretch="normal"
         font-size-adjust="none"
         letter-spacing="normal"
         word-spacing="normal"
         ns0:text="$y$"
         ns0:preamble=""
         style="font-style:normal;font-variant:normal;font-weight:normal;font-stretch:normal;letter-spacing:normal;word-spacing:normal;text-anchor:start;fill:none;stroke:#000000;stroke-linecap:butt;stroke-linejoin:miter;stroke-miterlimit:10.43299961;stroke-opacity:1;stroke-dasharray:none;stroke-dashoffset:0">
<path
   style="fill:#000000;stroke-width:0"
   inkscape:connector-curvature="0"
   d="m 228.28,710.92 0,0 0,0.01 0,0.01 0,0 0.01,0.01 0,0.01 0,0.01 0.01,0.01 0,0.01 0,0.01 0,0.01 0,0.01 0,0.01 0.01,0 0,0.01 0,0.01 0,0 0,0.01 0,0 0,0.01 0,0.01 0,0.01 0.01,0.01 0,0.01 0,0.01 0,0.01 0,0 0,0.01 0,0.01 c 0,0.18 -0.14,0.26 -0.29,0.26 -0.1,0 -0.26,-0.06 -0.35,-0.2 -0.02,-0.05 -0.1,-0.36 -0.14,-0.54 -0.07,-0.26 -0.14,-0.53 -0.2,-0.8 l -0.45,-1.79 c -0.04,-0.15 -0.47,-0.85 -1.13,-0.85 -0.5,0 -0.61,0.44 -0.61,0.81 0,0.46 0.17,1.08 0.5,1.95 0.16,0.41 0.2,0.52 0.2,0.72 0,0.45 -0.31,0.81 -0.81,0.81 -0.95,0 -1.32,-1.44 -1.32,-1.53 0,-0.1 0.1,-0.1 0.12,-0.1 0.1,0 0.11,0.02 0.16,0.18 0.27,0.94 0.67,1.23 1.01,1.23 0.08,0 0.25,0 0.25,-0.31 0,-0.25 -0.1,-0.51 -0.17,-0.7 -0.4,-1.06 -0.58,-1.62 -0.58,-2.09 0,-0.89 0.63,-1.18 1.22,-1.18 0.38,0 0.72,0.16 1,0.44 -0.13,-0.51 -0.25,-1 -0.65,-1.53 -0.26,-0.34 -0.63,-0.63 -1.09,-0.63 -0.14,0 -0.59,0.03 -0.76,0.42 0.16,0 0.29,0 0.43,0.12 0.1,0.09 0.2,0.22 0.2,0.41 0,0.31 -0.27,0.35 -0.37,0.35 -0.23,0 -0.56,-0.16 -0.56,-0.65 0,-0.5 0.44,-0.86 1.06,-0.86 1.02,0 2.05,0.9 2.33,2.02 z"
   id="path7211" />
</g>    </g>
  </g>
</svg>
