<?xml version="1.0" encoding="UTF-8" standalone="no"?>
<svg
   xmlns:ns0="http://www.iki.fi/pav/software/textext/"
   xmlns:dc="http://purl.org/dc/elements/1.1/"
   xmlns:cc="http://creativecommons.org/ns#"
   xmlns:rdf="http://www.w3.org/1999/02/22-rdf-syntax-ns#"
   xmlns:svg="http://www.w3.org/2000/svg"
   xmlns="http://www.w3.org/2000/svg"
   xmlns:xlink="http://www.w3.org/1999/xlink"
   xmlns:sodipodi="http://sodipodi.sourceforge.net/DTD/sodipodi-0.dtd"
   xmlns:inkscape="http://www.inkscape.org/namespaces/inkscape"
   sodipodi:docname="fig-potencial-efectivo-01-editado.svg"
   inkscape:version="0.48.1 r9760"
   version="1.1"
   id="svg2"
   viewBox="0 0 600 480"
   height="480"
   width="600">
  <sodipodi:namedview
     pagecolor="#ffffff"
     bordercolor="#666666"
     borderopacity="1"
     objecttolerance="10"
     gridtolerance="10"
     guidetolerance="10"
     inkscape:pageopacity="0"
     inkscape:pageshadow="2"
     inkscape:window-width="1440"
     inkscape:window-height="848"
     id="namedview162"
     showgrid="false"
     inkscape:zoom="1.30625"
     inkscape:cx="448.70932"
     inkscape:cy="270.62201"
     inkscape:window-x="0"
     inkscape:window-y="0"
     inkscape:window-maximized="1"
     inkscape:current-layer="svg2" />
  <metadata
     id="metadata164">
    <rdf:RDF>
      <cc:Work
         rdf:about="">
        <dc:format>image/svg+xml</dc:format>
        <dc:type
           rdf:resource="http://purl.org/dc/dcmitype/StillImage" />
        <dc:title></dc:title>
      </cc:Work>
    </rdf:RDF>
  </metadata>
  <desc
     id="desc4">Produced by GNUPLOT 4.4 patchlevel 3 </desc>
  <defs
     id="defs6">
    <circle
       stroke-width="0.5"
       r="0.5"
       id="gpDot" />
    <path
       d="M-1,0 h2 M0,-1 v2"
       stroke="currentColor"
       stroke-width="0.222"
       id="gpPt0" />
    <path
       d="M-1,-1 L1,1 M1,-1 L-1,1"
       stroke="currentColor"
       stroke-width="0.222"
       id="gpPt1" />
    <path
       d="M-1,0 L1,0 M0,-1 L0,1 M-1,-1 L1,1 M-1,1 L1,-1"
       stroke="currentColor"
       stroke-width="0.222"
       id="gpPt2" />
    <rect
       height="2"
       width="2"
       y="-1"
       x="-1"
       stroke="currentColor"
       stroke-width="0.222"
       id="gpPt3" />
    <rect
       height="2"
       width="2"
       y="-1"
       x="-1"
       fill="currentColor"
       stroke="currentColor"
       stroke-width="0.222"
       id="gpPt4" />
    <circle
       r="1"
       cy="0"
       cx="0"
       stroke="currentColor"
       stroke-width="0.222"
       id="gpPt5" />
    <use
       stroke="none"
       fill="currentColor"
       id="gpPt6"
       xlink:href="#gpPt5" />
    <path
       d="M0,-1.33 L-1.33,0.67 L1.33,0.67 z"
       stroke="currentColor"
       stroke-width="0.222"
       id="gpPt7" />
    <use
       stroke="none"
       fill="currentColor"
       id="gpPt8"
       xlink:href="#gpPt7" />
    <use
       transform="rotate(180)"
       stroke="currentColor"
       id="gpPt9"
       xlink:href="#gpPt7" />
    <use
       stroke="none"
       fill="currentColor"
       id="gpPt10"
       xlink:href="#gpPt9" />
    <use
       transform="rotate(45)"
       stroke="currentColor"
       id="gpPt11"
       xlink:href="#gpPt3" />
    <use
       stroke="none"
       fill="currentColor"
       id="gpPt12"
       xlink:href="#gpPt11" />
  </defs>
  <g
     transform="translate(14,0)"
     id="g22"
     style="color:#ffffff;fill:none;stroke:currentColor;stroke-width:1;stroke-linecap:butt;stroke-linejoin:miter" />
  <g
     transform="translate(14,0)"
     id="g24"
     style="color:#000000;fill:none;stroke:currentColor;stroke-width:1;stroke-linecap:butt;stroke-linejoin:miter">
    <path
       inkscape:connector-curvature="0"
       id="path26"
       d="m 53.9,422.4 9,0 m 512.1,0 -9,0" />
    <g
       id="g28"
       style="font-size:15px;text-anchor:end;fill:#000000;stroke:none;font-family:Arial"
       transform="translate(45.6,426.9)">
      <text
         id="text30">0</text>
    </g>
    <path
       inkscape:connector-curvature="0"
       id="path32"
       d="m 53.9,364.4 9,0 m 512.1,0 -9,0" />
    <g
       id="g34"
       style="font-size:15px;text-anchor:end;fill:#000000;stroke:none;font-family:Arial"
       transform="translate(45.6,368.9)">
      <text
         id="text36">0.2</text>
    </g>
    <path
       inkscape:connector-curvature="0"
       id="path38"
       d="m 53.9,306.5 9,0 m 512.1,0 -9,0" />
    <g
       id="g40"
       style="font-size:15px;text-anchor:end;fill:#000000;stroke:none;font-family:Arial"
       transform="translate(45.6,311)">
      <text
         id="text42">0.4</text>
    </g>
    <path
       inkscape:connector-curvature="0"
       id="path44"
       d="m 53.9,248.5 9,0 m 512.1,0 -9,0" />
    <g
       id="g46"
       style="font-size:15px;text-anchor:end;fill:#000000;stroke:none;font-family:Arial"
       transform="translate(45.6,253)">
      <text
         id="text48">0.6</text>
    </g>
    <path
       inkscape:connector-curvature="0"
       id="path50"
       d="m 53.9,190.6 9,0 m 512.1,0 -9,0" />
    <g
       id="g52"
       style="font-size:15px;text-anchor:end;fill:#000000;stroke:none;font-family:Arial"
       transform="translate(45.6,195.1)">
      <text
         id="text54">0.8</text>
    </g>
    <path
       inkscape:connector-curvature="0"
       id="path56"
       d="m 53.9,132.6 9,0 m 512.1,0 -9,0" />
    <g
       id="g58"
       style="font-size:15px;text-anchor:end;fill:#000000;stroke:none;font-family:Arial"
       transform="translate(45.6,137.1)">
      <text
         id="text60">1</text>
    </g>
    <path
       inkscape:connector-curvature="0"
       id="path62"
       d="m 53.9,74.7 9,0 m 512.1,0 -9,0" />
    <g
       id="g64"
       style="font-size:15px;text-anchor:end;fill:#000000;stroke:none;font-family:Arial"
       transform="translate(45.6,79.2)">
      <text
         id="text66">1.2</text>
    </g>
    <path
       inkscape:connector-curvature="0"
       id="path68"
       d="m 53.9,16.7 9,0 m 512.1,0 -9,0" />
    <g
       id="g70"
       style="font-size:15px;text-anchor:end;fill:#000000;stroke:none;font-family:Arial"
       transform="translate(45.6,21.2)">
      <text
         id="text72">1.4</text>
    </g>
    <path
       inkscape:connector-curvature="0"
       id="path74"
       d="m 53.9,422.4 0,-4.5 m 0,-401.2 0,4.5 m 54,401.2 0,-4.5 m 0,-401.2 0,4.5 m 38.3,401.2 0,-4.5 m 0,-401.2 0,4.5 m 29.8,401.2 0,-4.5 m 0,-401.2 0,4.5 m 24.2,401.2 0,-4.5 m 0,-401.2 0,4.5 m 20.6,401.2 0,-4.5 m 0,-401.2 0,4.5 m 17.8,401.2 0,-4.5 m 0,-401.2 0,4.5 m 15.7,401.2 0,-4.5 m 0,-401.2 0,4.5 m 14,401.2 0,-9 m 0,-396.7 0,9" />
    <g
       id="g76"
       style="font-size:15px;text-anchor:middle;fill:#000000;stroke:none;font-family:Arial"
       transform="translate(268.3,444.9)">
      <text
         id="text78">10</text>
    </g>
    <path
       inkscape:connector-curvature="0"
       id="path80"
       d="m 360.6,422.4 0,-4.5 m 0,-401.2 0,4.5 m 54,401.2 0,-4.5 m 0,-401.2 0,4.5 m 38.3,401.2 0,-4.5 m 0,-401.2 0,4.5 m 29.8,401.2 0,-4.5 m 0,-401.2 0,4.5 m 24.3,401.2 0,-4.5 m 0,-401.2 0,4.5 m 20.5,401.2 0,-4.5 m 0,-401.2 0,4.5 m 17.8,401.2 0,-4.5 m 0,-401.2 0,4.5 m 15.7,401.2 0,-4.5 m 0,-401.2 0,4.5 m 14,401.2 0,-9 m 0,-396.7 0,9" />
    <g
       id="g82"
       style="font-size:15px;text-anchor:middle;fill:#000000;stroke:none;font-family:Arial"
       transform="translate(575,444.9)">
      <text
         id="text84">100</text>
    </g>
  </g>
  <g
     transform="translate(14,0)"
     id="g86"
     style="color:#808080;fill:none;stroke:currentColor;stroke-width:1;stroke-linecap:butt;stroke-linejoin:miter">
    <path
       inkscape:connector-curvature="0"
       id="path88"
       d="m 53.9,422.4 521.1,0" />
  </g>
  <g
     transform="translate(14,0)"
     id="g90"
     style="color:#000000;fill:none;stroke:currentColor;stroke-width:1;stroke-linecap:butt;stroke-linejoin:miter">
    <path
       inkscape:connector-curvature="0"
       id="path92"
       d="m 53.9,16.7 0,405.7 521.1,0 0,-405.7 -521.1,0 z" />
    <g
       id="g94"
       style="font-size:15px;text-anchor:middle;fill:#000000;stroke:none;font-family:Arial"
       transform="translate(314.4,471.9)" />
  </g>
  <a
     transform="translate(14,0)"
     id="a98"
     xlink:title="Plot #1">
    <g
       id="g100"
       style="color:#0000ff;fill:none;stroke:currentColor;stroke-width:1.25;stroke-linecap:butt;stroke-linejoin:miter;stroke-miterlimit:4;stroke-dasharray:3.75, 3.75;stroke-dashoffset:0">
      <path
         style="stroke-width:1.25;stroke-miterlimit:4;stroke-dasharray:3.75, 3.75;stroke-dashoffset:0"
         inkscape:connector-curvature="0"
         id="path106"
         d="m 516.2,34.7 42.2,0 m -504.5,387.7 2.2,-4.8 2.3,-4.8 2.2,-4.7 2.3,-4.6 2.2,-4.5 2.3,-4.5 2.2,-4.4 2.3,-4.3 2.2,-4.2 2.3,-4.2 2.2,-4.1 2.3,-4 2.2,-3.9 2.2,-3.9 2.3,-3.9 2.2,-3.7 2.3,-3.7 2.2,-3.7 2.3,-3.5 2.2,-3.6 2.3,-3.4 2.2,-3.4 2.3,-3.4 2.2,-3.2 2.3,-3.3 2.2,-3.2 2.2,-3.1 2.3,-3.1 2.2,-3 2.3,-2.9 2.2,-3 2.3,-2.8 2.2,-2.9 2.3,-2.7 2.2,-2.8 2.3,-2.7 2.2,-2.6 2.3,-2.6 2.2,-2.6 2.2,-2.5 2.3,-2.4 2.2,-2.5 2.3,-2.3 2.2,-2.4 2.3,-2.3 2.2,-2.3 2.3,-2.2 2.2,-2.2 2.3,-2.1 2.2,-2.2 2.3,-2.1 2.2,-2 2.2,-2 2.3,-2 2.2,-2 2.3,-1.9 2.2,-1.9 2.3,-1.8 2.2,-1.8 2.3,-1.8 2.2,-1.8 2.3,-1.7 2.2,-1.7 2.3,-1.7 2.2,-1.6 2.2,-1.7 2.3,-1.6 2.2,-1.5 2.3,-1.6 2.2,-1.5 2.3,-1.5 2.2,-1.4 2.3,-1.5 2.2,-1.4 2.3,-1.4 2.2,-1.3 2.3,-1.4 2.2,-1.3 2.2,-1.3 2.3,-1.3 2.2,-1.2 2.3,-1.3 2.2,-1.2 2.3,-1.2 2.2,-1.2 2.3,-1.1 2.2,-1.2 2.3,-1.1 2.2,-1.1 2.3,-1.1 2.2,-1 2.2,-1.1 2.3,-1 2.2,-1 2.3,-1 2.2,-1 2.3,-0.9 2.2,-1 2.3,-0.9 2.2,-0.9 2.3,-0.9 2.2,-0.9 2.3,-0.9 2.2,-0.8 2.2,-0.9 2.3,-0.8 2.2,-0.8 2.3,-0.8 2.2,-0.8 2.3,-0.7 2.2,-0.8 2.3,-0.7 2.2,-0.8 2.3,-0.7 2.2,-0.7 2.3,-0.7 2.2,-0.7 2.2,-0.7 2.3,-0.6 2.2,-0.7 2.3,-0.6 2.2,-0.6 2.3,-0.7 2.2,-0.6 2.3,-0.6 2.2,-0.6 2.3,-0.5 2.2,-0.6 2.2,-0.6 2.3,-0.5 2.2,-0.6 2.3,-0.5 2.2,-0.5 2.3,-0.5 2.2,-0.5 2.3,-0.5 2.2,-0.5 2.3,-0.5 2.2,-0.5 2.3,-0.4 2.2,-0.5 2.2,-0.5 2.3,-0.4 2.2,-0.4 2.3,-0.5 2.2,-0.4 2.3,-0.4 2.2,-0.4 2.3,-0.4 2.2,-0.4 2.3,-0.4 2.2,-0.4 2.3,-0.3 2.2,-0.4 2.2,-0.4 2.3,-0.3 2.2,-0.4 2.3,-0.3 2.2,-0.3 2.3,-0.4 2.2,-0.3 2.3,-0.3 2.2,-0.3 2.3,-0.3 2.2,-0.3 2.3,-0.3 2.2,-0.3 2.2,-0.3 2.3,-0.3 2.2,-0.3 2.3,-0.3 2.2,-0.2 2.3,-0.3 2.2,-0.3 2.3,-0.2 2.2,-0.3 2.3,-0.2 2.2,-0.3 2.3,-0.2 2.2,-0.3 2.2,-0.2 2.3,-0.2 2.2,-0.2 2.3,-0.3 2.2,-0.2 2.3,-0.2 2.2,-0.2 2.3,-0.2 2.2,-0.2 2.3,-0.2 2.2,-0.2 2.3,-0.2 2.2,-0.2 2.2,-0.2 2.3,-0.2 2.2,-0.2 2.3,-0.1 2.2,-0.2 2.3,-0.2 2.2,-0.1 2.3,-0.2 2.2,-0.2 2.3,-0.1 2.2,-0.2 2.3,-0.1 2.2,-0.2 2.2,-0.2 2.3,-0.1 2.2,-0.1 2.3,-0.2 2.2,-0.1 2.3,-0.2 2.2,-0.1 2.3,-0.1 2.2,-0.2 2.3,-0.1 2.2,-0.1 2.3,-0.1 2.2,-0.2 2.2,-0.1 2.3,-0.1 2.2,-0.1 2.3,-0.1 2.2,-0.2 2.3,-0.1 2.2,-0.1 2.3,-0.1 2.2,-0.1 2.3,-0.1 2.2,-0.1 2.3,-0.1" />
    </g>
  </a>
  <a
     transform="translate(14,0)"
     id="a108"
     xlink:title="Plot #2">
    <g
       id="g110"
       style="color:#ff0000;fill:none;stroke:currentColor;stroke-width:1.25;stroke-linecap:butt;stroke-linejoin:miter;stroke-miterlimit:4;stroke-dasharray:none">
      <path
         style="stroke-width:1.25;stroke-miterlimit:4;stroke-dasharray:10, 2.5, 1.25, 2.5;stroke-dashoffset:0"
         inkscape:connector-curvature="0"
         id="path116"
         d="m 516.2,52.7 42.2,0 m -504.5,369.7 1.1,-6.2 1.1,-6 1.2,-5.8 1.1,-5.6 1.1,-5.5 1.1,-5.4 1.2,-5.2 1.1,-5 1.1,-4.9 1.1,-4.8 1.2,-4.6 1.1,-4.5 1.1,-4.3 1.1,-4.3 1.1,-4.1 1.2,-4 1.1,-3.9 1.1,-3.8 1.1,-3.6 1.2,-3.6 1.1,-3.5 1.1,-3.4 1.1,-3.2 1.2,-3.2 1.1,-3.1 1.1,-3 1.1,-3 1.1,-2.8 1.2,-2.8 1.1,-2.7 1.1,-2.6 1.1,-2.5 1.2,-2.5 1.1,-2.4 1.1,-2.4 1.1,-2.3 1.2,-2.2 1.1,-2.1 1.1,-2.1 1.1,-2.1 1.1,-2 1.2,-1.9 1.1,-1.9 1.1,-1.8 1.1,-1.8 1.2,-1.8 1.1,-1.7 1.1,-1.6 1.1,-1.6 1.2,-1.6 1.1,-1.5 1.1,-1.5 1.1,-1.5 1.1,-1.4 1.2,-1.4 1.1,-1.3 1.1,-1.4 1.1,-1.2 1.2,-1.3 1.1,-1.2 1.1,-1.2 1.1,-1.2 1.2,-1.1 1.1,-1.1 1.1,-1.1 1.1,-1.1 1.1,-1 1.2,-1 1.1,-1 1.1,-1 1.1,-0.9 1.2,-1 1.1,-0.9 1.1,-0.8 1.1,-0.9 1.2,-0.9 1.1,-0.8 1.1,-0.8 1.1,-0.8 1.1,-0.8 1.2,-0.8 1.1,-0.7 1.1,-0.8 1.1,-0.7 1.2,-0.7 1.1,-0.7 1.1,-0.7 1.1,-0.7 1.2,-0.6 1.1,-0.7 1.1,-0.6 1.1,-0.7 1.1,-0.6 1.2,-0.6 1.1,-0.6 1.1,-0.6 1.1,-0.6 1.2,-0.5 1.1,-0.6 1.1,-0.5 1.1,-0.6 1.2,-0.5 1.1,-0.6 1.1,-0.5 1.1,-0.5 1.1,-0.5 1.2,-0.5 1.1,-0.5 1.1,-0.5 1.1,-0.5 1.2,-0.5 1.1,-0.4 2.2,-1 2.3,-0.9 2.2,-0.8 2.3,-0.9 2.2,-0.9 2.3,-0.8 2.2,-0.8 2.3,-0.8 2.2,-0.8 2.2,-0.8 2.3,-0.8 2.2,-0.7 2.3,-0.7 2.2,-0.8 2.3,-0.7 2.2,-0.7 2.3,-0.7 2.2,-0.7 2.3,-0.7 2.2,-0.6 2.3,-0.7 2.2,-0.7 2.2,-0.6 2.3,-0.7 2.2,-0.6 2.3,-0.6 2.2,-0.7 2.3,-0.6 2.2,-0.6 2.3,-0.6 2.2,-0.6 2.3,-0.6 4.5,-1.1 4.4,-1.2 4.5,-1.1 4.5,-1.1 4.5,-1.1 4.5,-1.1 4.5,-1 4.5,-1 4.5,-1 4.5,-1 4.5,-1 4.5,-0.9 4.5,-1 4.5,-0.9 4.4,-0.9 4.5,-0.8 4.5,-0.9 4.5,-0.8 4.5,-0.9 4.5,-0.8 4.5,-0.7 4.5,-0.8 4.5,-0.8 4.5,-0.7 4.5,-0.7 4.5,-0.7 4.4,-0.7 4.5,-0.6 4.5,-0.7 4.5,-0.6 4.5,-0.6 4.5,-0.6 4.5,-0.6 4.5,-0.6 4.5,-0.5 4.5,-0.6 4.5,-0.5 4.5,-0.5 4.5,-0.5 4.4,-0.5 4.5,-0.5 4.5,-0.4 4.5,-0.5 4.5,-0.4 2.3,-0.2 2.2,-0.2 2.3,-0.2 2.2,-0.3 2.2,-0.2 2.3,-0.2 2.2,-0.1 2.3,-0.2 2.2,-0.2 2.3,-0.2 2.2,-0.2 2.3,-0.2 2.2,-0.2 2.3,-0.1 2.2,-0.2 2.3,-0.2 2.2,-0.1 2.2,-0.2 2.3,-0.2 2.2,-0.1 2.3,-0.2 2.2,-0.2 2.3,-0.1 2.2,-0.2 2.3,-0.1 2.2,-0.2 2.3,-0.1 2.2,-0.1 2.3,-0.2 2.2,-0.1 2.2,-0.2 2.3,-0.1 2.2,-0.1 2.3,-0.2 2.2,-0.1 2.3,-0.1 2.2,-0.1 2.3,-0.2 2.2,-0.1 2.3,-0.1 2.2,-0.1 2.3,-0.1 2.2,-0.1 2.2,-0.2 2.3,-0.1 2.2,-0.1 2.3,-0.1 2.2,-0.1 2.3,-0.1 2.2,-0.1 2.3,-0.1 2.2,-0.1 2.3,-0.1 2.2,-0.1 2.3,-0.1" />
    </g>
  </a>
  <a
     transform="translate(14,0)"
     id="a118"
     xlink:title="Plot #3">
    <g
       id="g120"
       style="color:#008000;fill:none;stroke:currentColor;stroke-width:1.25;stroke-linecap:butt;stroke-linejoin:miter;stroke-miterlimit:4;stroke-dasharray:1.25, 1.25;stroke-dashoffset:0">
      <path
         style="stroke-width:1.25;stroke-miterlimit:4;stroke-dasharray:1.25, 1.25;stroke-dashoffset:0"
         inkscape:connector-curvature="0"
         id="path126"
         d="m 516.2,70.7 42.2,0 m -504.5,351.7 1.1,-9.6 1.1,-9.3 1.2,-8.9 1.1,-8.7 1.1,-8.4 1.1,-8.1 1.2,-7.8 1.1,-7.5 1.1,-7.3 1.1,-7.1 1.2,-6.8 1.1,-6.6 1.1,-6.3 1.1,-6.1 1.1,-5.9 1.2,-5.7 1.1,-5.5 1.1,-5.4 1.1,-5.1 1.2,-4.9 1.1,-4.8 1.1,-4.6 1.1,-4.4 1.2,-4.3 1.1,-4.1 1.1,-4 1.1,-3.8 1.1,-3.7 1.2,-3.5 1.1,-3.4 1.1,-3.3 1.1,-3.2 1.2,-3 1.1,-3 1.1,-2.8 1.1,-2.7 1.2,-2.6 1.1,-2.5 1.1,-2.4 1.1,-2.3 1.1,-2.3 1.2,-2.1 1.1,-2 1.1,-2 1.1,-1.9 1.2,-1.8 1.1,-1.8 1.1,-1.6 1.1,-1.6 1.2,-1.6 1.1,-1.4 1.1,-1.4 1.1,-1.4 1.1,-1.3 1.2,-1.2 1.1,-1.2 1.1,-1.1 1.1,-1.1 1.2,-1.1 1.1,-0.9 1.1,-1 1.1,-0.9 1.2,-0.8 1.1,-0.9 1.1,-0.7 1.1,-0.8 1.1,-0.7 1.2,-0.7 1.1,-0.6 1.1,-0.6 1.1,-0.6 1.2,-0.6 1.1,-0.5 1.1,-0.5 1.1,-0.5 1.2,-0.4 1.1,-0.4 1.1,-0.4 1.1,-0.4 1.1,-0.4 1.2,-0.3 1.1,-0.3 1.1,-0.3 1.1,-0.3 0.6,-0.2 0.6,-0.1 0.5,-0.1 0.6,-0.1 0.5,-0.2 0.6,-0.1 0.6,-0.1 0.5,-0.1 0.6,-0.1 0.6,-0.1 0.5,-0.1 0.6,-0.1 0.5,-0.1 0.6,-0.1 0.6,-0.1 0.5,-0.1 0.6,0 0.5,-0.1 0.6,-0.1 0.6,-0.1 0.5,0 0.6,-0.1 0.6,-0.1 0.5,0 0.6,-0.1 0.5,-0.1 0.6,0 0.6,-0.1 0.5,0 0.6,-0.1 0.5,0 0.6,-0.1 0.6,0 0.5,-0.1 0.6,0 0.6,0 0.5,-0.1 0.6,0 0.5,-0.1 0.6,0 0.6,0 0.5,0 0.6,-0.1 0.5,0 0.6,0 0.6,-0.1 0.5,0 0.6,0 0.6,0 0.5,0 0.6,-0.1 0.5,0 0.6,0 0.6,0 0.5,0 0.6,0 0.5,-0.1 0.6,0 0.6,0 0.5,0 0.6,0 0.6,0 0.5,0 0.6,0 0.5,0 0.6,-0.1 0.6,0 0.5,0 0.6,0 0.5,0 0.6,0 0.6,0 0.2,0 0.3,0 0.3,0 0.3,0 0.3,0 0.3,0 0.2,0 0.3,0 0.3,0 0.3,0 0.3,0 0.2,0 0.3,0 0.3,0 0.3,0 0.3,0 0.2,0 0.3,0 0.3,0 0.3,0 0.3,0 0.2,0 0.3,0 0.3,0 0.3,0 0.3,0 0.2,0 0.3,0 0.3,0 0.3,0 0.3,0 0.3,0 0.2,0 0.3,0 0.3,0 0.3,0 0.3,0 0.2,0 0.3,0 0.3,0 0.3,0 0.3,0 0.2,0 0.3,0 0.3,0 0.3,0 0.3,0 0.2,0 0.3,0 0.3,0 0.3,0 0.3,0 0.2,0 0.3,0 0.3,0 0.3,0 0.3,0 0.3,0 0.2,0 0.3,0 0.3,0 0.3,0 0.3,0 0.2,0 0.3,0 0.3,-0.1 0.3,0 0.3,0 0.2,0 0.3,0 0.3,0 0.3,0 0.5,0 0.6,0 0.6,0 0.5,0 0.6,0 0.6,0 0.5,0 0.6,0 0.5,0 0.6,0 0.6,0 0.5,0 0.6,0 0.5,0 0.6,0 0.6,0 0.5,0 0.6,0 0.6,0 0.5,-0.1 1.1,0 1.2,0 1.1,0 1.1,0 1.1,0 1.2,-0.1 1.1,0 1.1,0 1.1,0 1.1,-0.1 1.2,0 1.1,0 2.2,-0.1 2.3,-0.1 2.2,-0.1 2.3,0 2.2,-0.1 2.3,-0.1 2.2,-0.1 2.3,-0.2 2.2,-0.1 2.3,-0.1 2.2,-0.1 2.2,-0.2 2.3,-0.1 2.2,-0.2 2.3,-0.1 2.2,-0.2 2.3,-0.1 2.2,-0.2 2.3,-0.2 2.2,-0.2 2.3,-0.1 2.2,-0.2 2.3,-0.2 2.2,-0.2 2.2,-0.2 2.3,-0.2 2.2,-0.2 2.3,-0.2 2.2,-0.2 2.3,-0.3 2.2,-0.2 2.3,-0.2 2.2,-0.2 2.3,-0.2 2.2,-0.3 2.3,-0.2 2.2,-0.2 2.2,-0.3 2.3,-0.2 2.2,-0.2 2.3,-0.3 2.2,-0.2 2.3,-0.2 2.2,-0.3 2.3,-0.2 2.2,-0.3 2.3,-0.2 2.2,-0.2 2.2,-0.3 2.3,-0.2 2.2,-0.3 2.3,-0.2 2.2,-0.3 2.3,-0.2 2.2,-0.2 2.3,-0.3 2.2,-0.2 2.3,-0.3 2.2,-0.2 2.3,-0.2 2.2,-0.3 2.2,-0.2 2.3,-0.2 2.2,-0.3 2.3,-0.2 2.2,-0.2 2.3,-0.3 2.2,-0.2 2.3,-0.2 2.2,-0.3 2.3,-0.2 2.2,-0.2 4.5,-0.4 4.5,-0.5 4.5,-0.4 4.5,-0.4 4.5,-0.5 4.5,-0.4 4.5,-0.4 4.4,-0.4 4.5,-0.3 4.5,-0.4 4.5,-0.4 4.5,-0.4 4.5,-0.3 4.5,-0.4 4.5,-0.3 4.5,-0.3 4.5,-0.4 4.5,-0.3 4.5,-0.3 4.5,-0.3 4.4,-0.3 4.5,-0.3 4.5,-0.3 4.5,-0.2 4.5,-0.3 4.5,-0.3 4.5,-0.2 4.5,-0.3 4.5,-0.2 4.5,-0.2 4.5,-0.3 4.5,-0.2 2.2,-0.1 2.3,-0.1 2.2,-0.1 2.2,-0.1 2.3,-0.1 2.2,-0.1 2.3,-0.1 2.2,-0.1 2.3,-0.1 2.2,-0.1 2.3,-0.1 2.2,-0.1 2.3,-0.1 2.2,-0.1 2.3,0" />
    </g>
  </a>
  <a
     style="stroke-width:1.25;stroke-miterlimit:4;stroke-dasharray:none"
     transform="translate(14,0)"
     id="a128"
     xlink:title="Plot #4">
    <g
       id="g130"
       style="color:#00ffff;fill:none;stroke:#000080;stroke-width:1.25;stroke-linecap:butt;stroke-linejoin:miter;stroke-miterlimit:4;stroke-dasharray:10, 10;stroke-dashoffset:0">
      <path
         style="stroke:#000080;stroke-width:1.25;stroke-miterlimit:4;stroke-dasharray:10, 10;stroke-dashoffset:0"
         inkscape:connector-curvature="0"
         id="path136"
         d="m 516.2,88.7 42.2,0 m -504.5,333.7 1.1,-12 1.1,-11.6 1.2,-11.2 1.1,-10.7 1.1,-10.4 1.1,-10.1 1.2,-9.6 1.1,-9.4 1.1,-9 1.1,-8.6 1.2,-8.4 1.1,-8 1.1,-7.7 1.1,-7.5 1.1,-7.2 1.2,-6.9 1.1,-6.6 1.1,-6.4 1.1,-6.1 1.2,-5.9 1.1,-5.7 1.1,-5.5 1.1,-5.2 1.2,-5.1 1.1,-4.8 1.1,-4.6 1.1,-4.5 1.1,-4.2 1.2,-4.1 1.1,-4 1.1,-3.7 1.1,-3.6 1.2,-3.5 1.1,-3.3 1.1,-3.1 1.1,-3 1.2,-2.9 1.1,-2.8 1.1,-2.6 1.1,-2.5 1.1,-2.4 1.2,-2.3 1.1,-2.1 1.1,-2.1 1.1,-2 1.2,-1.8 1.1,-1.8 1.1,-1.7 1.1,-1.6 1.2,-1.5 1.1,-1.4 1.1,-1.4 1.1,-1.2 1.1,-1.2 1.2,-1.2 1.1,-1 1.1,-1 1.1,-1 1.2,-0.9 1.1,-0.8 0.5,-0.4 0.6,-0.3 0.6,-0.4 0.5,-0.4 0.6,-0.3 0.6,-0.3 0.5,-0.3 0.6,-0.3 0.5,-0.3 0.6,-0.3 0.6,-0.3 0.5,-0.2 0.6,-0.3 0.5,-0.2 0.6,-0.2 0.6,-0.2 0.5,-0.2 0.6,-0.2 0.6,-0.2 0.5,-0.2 0.6,-0.2 0.5,-0.1 0.6,-0.2 0.6,-0.1 0.5,-0.1 0.6,-0.2 0.5,-0.1 0.6,-0.1 0.6,-0.1 0.5,-0.1 0.6,-0.1 0.6,0 0.5,-0.1 0.6,-0.1 0.5,0 0.6,-0.1 0.6,0 0.5,-0.1 0.6,0 0.5,0 0.3,0 0.3,-0.1 0.3,0 0.3,0 0.2,0 0.3,0 0.3,0 0.3,0 0.3,0 0.3,0 0.2,0 0.3,0 0.3,0 0.3,0 0.3,0 0.2,0 0.3,0.1 0.3,0 0.3,0 0.3,0 0.2,0 0.3,0 0.3,0 0.3,0.1 0.5,0 0.6,0 0.6,0.1 0.5,0 0.6,0.1 0.6,0 0.5,0.1 0.6,0.1 0.5,0 0.6,0.1 0.6,0.1 0.5,0.1 0.6,0 0.5,0.1 0.6,0.1 0.6,0.1 0.5,0.1 0.6,0.1 0.6,0.1 0.5,0.1 0.6,0.1 0.5,0.1 0.6,0.1 0.6,0.1 0.5,0.1 0.6,0.1 0.5,0.1 0.6,0.1 0.6,0.1 0.5,0.2 0.6,0.1 0.6,0.1 0.5,0.1 0.6,0.2 0.5,0.1 0.6,0.1 0.6,0.1 0.5,0.2 0.6,0.1 0.5,0.1 0.6,0.2 0.6,0.1 0.5,0.1 0.6,0.2 1.1,0.2 1.1,0.3 1.2,0.3 1.1,0.3 1.1,0.3 1.1,0.2 1.2,0.3 1.1,0.3 1.1,0.3 1.1,0.3 1.1,0.3 1.2,0.3 1.1,0.2 1.1,0.3 1.1,0.3 1.2,0.3 1.1,0.3 1.1,0.3 1.1,0.2 1.2,0.3 1.1,0.3 1.1,0.3 1.1,0.2 1.1,0.3 1.2,0.3 1.1,0.2 1.1,0.3 1.1,0.3 1.2,0.2 1.1,0.3 1.1,0.2 1.1,0.3 1.2,0.2 1.1,0.2 1.1,0.3 1.1,0.2 4.5,0.9 4.5,0.8 4.5,0.8 4.5,0.7 2.2,0.3 2.3,0.4 2.2,0.3 2.3,0.2 1.1,0.2 1.1,0.1 1.1,0.1 1.2,0.2 1.1,0.1 1.1,0.1 1.1,0.1 1.2,0.1 1.1,0.1 1.1,0.1 1.1,0.1 1.2,0.1 1.1,0.1 1.1,0.1 1.1,0.1 1.1,0.1 1.2,0.1 1.1,0.1 1.1,0 1.1,0.1 1.2,0.1 1.1,0 1.1,0.1 1.1,0 1.2,0.1 1.1,0 1.1,0.1 1.1,0 1.1,0.1 1.2,0 1.1,0.1 1.1,0 0.6,0 0.5,0 0.6,0 0.6,0 0.5,0.1 0.6,0 0.5,0 0.6,0 0.6,0 0.5,0 0.6,0 0.6,0 0.5,0 0.6,0 0.5,0.1 0.6,0 0.6,0 0.5,0 0.6,0 0.5,0 0.3,0 0.3,0 0.3,0 0.3,0 0.2,0 0.3,0 0.3,0 0.3,0 0.1,0 0.2,0 0.1,0 0.2,0 0.1,0 0.1,0 0.2,0 0.1,0 0.3,0 0.3,0 0.3,0 0.2,0 0.6,0 0.6,0 0.5,0 0.6,0 0.5,0 0.6,0 0.6,0 0.5,-0.1 0.6,0 0.6,0 0.5,0 0.6,0 1.1,0 1.1,0 1.1,0 1.2,-0.1 1.1,0 1.1,0 1.1,0 1.2,-0.1 1.1,0 1.1,0 1.1,-0.1 1.2,0 1.1,0 1.1,-0.1 1.1,0 1.1,-0.1 1.2,0 1.1,-0.1 1.1,0 1.1,-0.1 1.2,0 1.1,-0.1 1.1,0 1.1,-0.1 1.1,0 1.2,-0.1 1.1,0 1.1,-0.1 1.1,0 1.2,-0.1 1.1,-0.1 1.1,0 1.1,-0.1 1.2,-0.1 1.1,0 1.1,-0.1 1.1,-0.1 1.1,0 1.2,-0.1 1.1,-0.1 1.1,0 1.1,-0.1 1.2,-0.1 1.1,-0.1 2.2,-0.1 2.3,-0.1 2.2,-0.2 2.3,-0.2 2.2,-0.1 2.3,-0.2 2.2,-0.1 2.3,-0.2 2.2,-0.2 2.2,-0.1 2.3,-0.2 2.2,-0.1 2.3,-0.2 2.2,-0.2 2.3,-0.2 2.2,-0.1 2.3,-0.2 2.2,-0.2 2.3,-0.1 2.2,-0.2 2.3,-0.2 2.2,-0.1 2.2,-0.2 2.3,-0.2 2.2,-0.2 2.3,-0.1 2.2,-0.2 2.3,-0.2 2.2,-0.1 2.3,-0.2 2.2,-0.2 2.3,-0.1 2.2,-0.2 2.3,-0.2 2.2,-0.1 2.2,-0.2 2.3,-0.2 2.2,-0.1 2.3,-0.2 2.2,-0.2 2.3,-0.1 2.2,-0.2 2.3,-0.1 2.2,-0.2 4.5,-0.3 4.5,-0.3 4.5,-0.3 4.5,-0.3 4.5,-0.3 4.5,-0.3 4.5,-0.3 4.5,-0.2 4.4,-0.3 4.5,-0.3 4.5,-0.2 4.5,-0.3 4.5,-0.2 4.5,-0.2 4.5,-0.3 4.5,-0.2 4.5,-0.2 4.5,-0.3 4.5,-0.2 4.5,-0.2 4.5,-0.2 4.4,-0.2 4.5,-0.2 4.5,-0.1 4.5,-0.2 4.5,-0.2 4.5,-0.2" />
    </g>
  </a>
  <a
     transform="translate(14,0)"
     id="a138"
     xlink:title="Plot #5">
    <g
       id="g140"
       style="color:#000000;fill:none;stroke:currentColor;stroke-width:1;stroke-linecap:butt;stroke-linejoin:miter">
      <path
         style="stroke-width:1.25;stroke-miterlimit:4;stroke-dasharray:none"
         inkscape:connector-curvature="0"
         id="path146"
         d="m 516.2,106.7 42.2,0 M 53.9,422.4 55,405 l 1.1,-16.7 1.2,-16.1 1.1,-15.6 1.1,-14.9 1.1,-14.3 1.2,-13.8 1.1,-13.3 1.1,-12.8 1.1,-12.2 1.2,-11.8 1.1,-11.3 1.1,-10.9 1.1,-10.4 1.1,-10 1.2,-9.6 1.1,-9.2 1.1,-8.8 1.1,-8.4 1.2,-8.1 1.1,-7.7 1.1,-7.4 1.1,-7 1.2,-6.7 1.1,-6.5 1.1,-6.1 1.1,-5.9 1.1,-5.6 1.2,-5.3 1.1,-5 1.1,-4.8 1.1,-4.6 1.2,-4.3 1.1,-4.2 1.1,-3.9 1.1,-3.6 1.2,-3.5 1.1,-3.3 1.1,-3.1 1.1,-3 1.1,-2.7 1.2,-2.6 1.1,-2.4 1.1,-2.3 0.6,-1.1 0.5,-1 0.6,-1 0.6,-1 0.5,-1 0.6,-0.9 0.5,-0.8 0.6,-0.9 0.6,-0.8 0.5,-0.7 0.6,-0.8 0.6,-0.7 0.5,-0.7 0.6,-0.6 0.5,-0.7 0.6,-0.5 0.6,-0.6 0.5,-0.6 0.6,-0.5 0.5,-0.5 0.6,-0.4 0.6,-0.5 0.5,-0.4 0.6,-0.4 0.6,-0.3 0.5,-0.4 0.6,-0.3 0.5,-0.3 0.6,-0.3 0.6,-0.2 0.5,-0.3 0.6,-0.2 0.5,-0.2 0.6,-0.2 0.6,-0.1 0.5,-0.2 0.6,-0.1 0.6,-0.1 0.5,-0.1 0.6,0 0.3,-0.1 0.2,0 0.3,0 0.3,0 0.3,0 0.3,-0.1 0.2,0 0.3,0 0.3,0 0.3,0.1 0.3,0 0.2,0 0.3,0 0.3,0 0.3,0 0.3,0.1 0.2,0 0.3,0 0.3,0.1 0.3,0 0.3,0.1 0.3,0 0.2,0.1 0.3,0 0.6,0.1 0.5,0.2 0.6,0.1 0.6,0.2 0.5,0.1 0.6,0.2 0.5,0.2 0.6,0.2 0.6,0.2 0.5,0.2 0.6,0.3 0.6,0.2 0.5,0.3 0.6,0.2 0.5,0.3 0.6,0.3 0.6,0.3 0.5,0.2 0.6,0.4 0.5,0.3 0.6,0.3 0.6,0.3 0.5,0.3 0.6,0.4 0.6,0.3 0.5,0.4 0.6,0.3 0.5,0.4 0.6,0.3 0.6,0.4 0.5,0.4 0.6,0.4 0.5,0.4 0.6,0.4 0.6,0.4 0.5,0.4 1.2,0.8 1.1,0.8 1.1,0.9 1.1,0.9 1.1,0.9 1.2,0.9 1.1,0.9 1.1,0.9 1.1,0.9 1.2,0.9 1.1,1 1.1,0.9 1.1,1 1.2,1 1.1,0.9 1.1,1 1.1,1 1.1,0.9 1.2,1 1.1,1 1.1,1 1.1,0.9 1.2,1 1.1,1 1.1,1 1.1,0.9 1.2,1 1.1,1 1.1,0.9 1.1,1 1.1,1 1.2,0.9 1.1,0.9 1.1,1 1.1,0.9 1.2,0.9 1.1,1 1.1,0.9 1.1,0.9 1.2,0.9 2.2,1.8 2.2,1.7 2.3,1.8 2.2,1.6 2.3,1.7 2.2,1.6 2.3,1.6 2.2,1.6 2.3,1.5 2.2,1.5 2.3,1.4 2.2,1.4 2.3,1.4 2.2,1.3 2.2,1.3 2.3,1.3 2.2,1.2 2.3,1.2 2.2,1.2 2.3,1.1 2.2,1.1 2.3,1 2.2,1 2.3,1 2.2,1 2.3,0.9 2.2,0.9 2.2,0.8 1.2,0.4 1.1,0.4 1.1,0.4 1.1,0.4 1.2,0.4 1.1,0.4 1.1,0.4 1.1,0.3 1.2,0.4 1.1,0.3 1.1,0.4 1.1,0.3 1.1,0.3 1.2,0.3 1.1,0.4 1.1,0.3 1.1,0.3 1.2,0.3 1.1,0.2 1.1,0.3 1.1,0.3 1.2,0.3 1.1,0.2 1.1,0.3 1.1,0.2 1.1,0.3 1.2,0.2 1.1,0.3 1.1,0.2 1.1,0.2 1.2,0.2 1.1,0.3 1.1,0.2 1.1,0.2 1.2,0.2 1.1,0.2 1.1,0.1 1.1,0.2 1.1,0.2 1.2,0.2 1.1,0.1 1.1,0.2 1.1,0.2 1.2,0.1 1.1,0.2 1.1,0.1 1.1,0.2 1.2,0.1 1.1,0.1 1.1,0.2 1.1,0.1 1.1,0.1 1.2,0.1 1.1,0.1 1.1,0.1 1.1,0.2 1.2,0.1 1.1,0.1 1.1,0.1 1.1,0 1.1,0.1 1.2,0.1 1.1,0.1 1.1,0.1 1.1,0.1 1.2,0 1.1,0.1 1.1,0.1 1.1,0 1.2,0.1 1.1,0.1 1.1,0 1.1,0.1 1.1,0 1.2,0.1 1.1,0 1.1,0.1 1.1,0 1.2,0 1.1,0.1 0.5,0 0.6,0 0.6,0 0.5,0 0.6,0 0.6,0.1 0.5,0 0.6,0 0.5,0 0.6,0 0.6,0 0.5,0 0.6,0 0.5,0.1 0.6,0 0.6,0 0.5,0 0.6,0 0.6,0 0.5,0 0.6,0 0.5,0 0.6,0 0.6,0 0.5,0 0.6,0 0.5,0 0.6,0 0.6,0 0.5,0.1 0.6,0 0.6,0 0.2,0 0.3,0 0.3,0 0.3,0 0.1,0 0.2,0 0.1,0 0.1,0 0.2,0 0.1,0 0.2,0 0.1,0 0.3,0 0.3,0 0.2,0 0.3,0 0.3,0 0.3,0 0.3,0 0.2,0 0.6,0 0.6,-0.1 0.5,0 0.6,0 0.6,0 0.5,0 0.6,0 0.5,0 0.6,0 0.6,0 0.5,0 0.6,0 0.5,0 0.6,0 0.6,0 0.5,0 1.2,0 1.1,-0.1 1.1,0 1.1,0 1.1,0 1.2,0 1.1,-0.1 1.1,0 1.1,0 1.2,0 1.1,-0.1 1.1,0 1.1,0 1.2,0 1.1,-0.1 1.1,0 1.1,0 1.1,-0.1 1.2,0 1.1,0 1.1,-0.1 1.1,0 1.2,0 1.1,-0.1 1.1,0 1.1,-0.1 1.2,0 1.1,0 1.1,-0.1 1.1,0 1.1,-0.1 1.2,0 1.1,0 1.1,-0.1 1.1,0 1.2,-0.1 1.1,0 1.1,-0.1 1.1,0 1.2,0 1.1,-0.1 1.1,0 1.1,-0.1 1.1,0 2.3,-0.1 2.2,-0.1 2.3,-0.1 2.2,-0.1 2.3,-0.1 2.2,-0.1 2.3,-0.1 2.2,-0.1 2.3,-0.1 2.2,-0.1 2.3,-0.1 2.2,-0.1 2.2,-0.1 2.3,-0.1 2.2,-0.2 2.3,-0.1 2.2,-0.1 2.3,-0.1 2.2,-0.1 2.3,-0.1 2.2,-0.1 2.3,-0.1 2.2,-0.1 2.3,-0.1 2.2,-0.1 2.2,-0.1 2.3,-0.1 2.2,-0.1 2.3,-0.1 2.2,-0.1 2.3,-0.1 2.2,-0.1 2.3,-0.1 2.2,-0.1 2.3,-0.1 2.2,-0.1 2.3,-0.1 2.2,-0.1 2.2,-0.1 2.3,-0.1 4.5,-0.2 4.5,-0.1 4.5,-0.2 4.5,-0.2 4.5,-0.2 4.4,-0.1 4.5,-0.2 4.5,-0.2 4.5,-0.1 4.5,-0.2 4.5,-0.2" />
    </g>
  </a>
  <a
     transform="translate(14,0)"
     style="stroke-width:1.25;stroke-miterlimit:4;stroke-dasharray:none"
     id="a148"
     xlink:title="Plot #6">
    <g
       id="g150"
       style="color:#157545;fill:none;stroke:currentColor;stroke-width:1.25;stroke-linecap:butt;stroke-linejoin:miter;stroke-miterlimit:4;stroke-dasharray:1.25, 5;stroke-dashoffset:0">
      <g
         id="g152"
         style="font-size:15px;text-anchor:end;fill:#000000;stroke:none;font-family:Arial"
         transform="translate(507.9,129.2)" />
      <path
         sodipodi:nodetypes="ccccccccccccccccccccccccccccccccccccccccccccccccccccccccccccccccccccccccccccccccccccccccccccccccccccccccccccccccccccc"
         inkscape:connector-curvature="0"
         style="stroke-width:1.25;stroke-miterlimit:4;stroke-dasharray:1.25, 5;stroke-dashoffset:0"
         id="path156"
         d="m 53.9,132.6 4.5,0 4.5,0 4.5,0 4.5,0 4.5,0 4.5,0 4.4,0 4.5,0 4.5,0 4.5,0 4.5,0 4.5,0 4.5,0 4.5,0 4.5,0 4.5,0 4.5,0 4.5,0 4.5,0 4.4,0 4.5,0 4.5,0 4.5,0 4.5,0 4.5,0 4.5,0 4.5,0 4.5,0 4.5,0 4.5,0 4.5,0 4.5,0 4.4,0 4.5,0 4.5,0 4.5,0 4.5,0 4.5,0 4.5,0 4.5,0 4.5,0 4.5,0 4.5,0 4.5,0 4.5,0 4.4,0 4.5,0 4.5,0 4.5,0 4.5,0 4.5,0 4.5,0 4.5,0 4.5,0 4.5,0 4.5,0 4.5,0 4.5,0 4.4,0 4.5,0 4.5,0 4.5,0 4.5,0 4.5,0 4.5,0 4.5,0 4.5,0 4.5,0 4.5,0 4.5,0 4.4,0 4.5,0 4.5,0 4.5,0 4.5,0 4.5,0 4.5,0 4.5,0 4.5,0 4.5,0 4.5,0 4.5,0 4.5,0 4.4,0 4.5,0 4.5,0 4.5,0 4.5,0 4.5,0 4.5,0 4.5,0 4.5,0 4.5,0 4.5,0 4.5,0 4.5,0 4.4,0 4.5,0 4.5,0 4.5,0 4.5,0 4.5,0 4.5,0 4.5,0 4.5,0 4.5,0 4.5,0 4.5,0 4.5,0 4.4,0 4.5,0 4.5,0 4.5,0 4.5,0 4.5,0 4.5,0" />
    </g>
  </a>
  <g
     transform="translate(14,0)"
     id="g158"
     style="color:#000000;fill:none;stroke:currentColor;stroke-width:1;stroke-linecap:butt;stroke-linejoin:miter">
    <path
       inkscape:connector-curvature="0"
       id="path160"
       d="m 53.9,16.7 0,405.7 521.1,0 0,-405.7 -521.1,0 z" />
  </g>
  <g
     style="font-style:normal;font-variant:normal;font-weight:normal;font-stretch:normal;letter-spacing:normal;word-spacing:normal;text-anchor:start;fill:none;stroke:#000000;stroke-linecap:butt;stroke-linejoin:miter;stroke-miterlimit:10.43299961;stroke-opacity:1;stroke-dasharray:none;stroke-dashoffset:0"
     ns0:preamble=""
     ns0:text="Coordenada Radial $r/m$"
     word-spacing="normal"
     letter-spacing="normal"
     font-size-adjust="none"
     font-stretch="normal"
     font-weight="normal"
     font-variant="normal"
     font-style="normal"
     stroke-miterlimit="10.433"
     xml:space="preserve"
     transform="matrix(2.5,0,0,-2.5,-380.74641,2239.7465)"
     id="content">
<path
   id="path4797"
   d="m 223.99,710.53 0,-0.19 0.02,-0.19 0.02,-0.19 0.03,-0.18 0.04,-0.18 0.05,-0.17 0.06,-0.17 0.06,-0.17 0.07,-0.16 0.08,-0.15 0.09,-0.16 0.09,-0.14 0.1,-0.14 0.1,-0.14 0.11,-0.13 0.12,-0.13 0.12,-0.11 0.13,-0.12 0.13,-0.1 0.14,-0.1 0.14,-0.09 0.14,-0.09 0.15,-0.08 0.15,-0.07 0.16,-0.06 0.16,-0.06 0.16,-0.04 0.17,-0.04 0.16,-0.03 0.17,-0.03 0.18,-0.01 0.17,0 c 1.62,0 2.6,1.38 2.6,2.53 0,0.1 0,0.17 -0.13,0.17 -0.11,0 -0.11,-0.06 -0.12,-0.16 -0.08,-1.42 -1.15,-2.23 -2.23,-2.23 -0.61,0 -2.56,0.33 -2.56,3.3 0,2.97 1.94,3.31 2.55,3.31 1.08,0 1.97,-0.9 2.17,-2.36 0.02,-0.13 0.02,-0.17 0.16,-0.17 0.16,0 0.16,0.04 0.16,0.24 v 2.36 c 0,0.17 0,0.24 -0.11,0.24 -0.04,0 -0.08,0 -0.16,-0.12 l -0.5,-0.73 c -0.36,0.35 -0.87,0.85 -1.83,0.85 -1.86,0 -3.47,-1.58 -3.47,-3.61 z"
   inkscape:connector-curvature="0"
   style="fill:#000000;stroke-width:0" />
<path
   id="path4799"
   d="m 235.32,709.26 0,0.11 -0.01,0.12 -0.01,0.12 -0.02,0.11 -0.03,0.11 -0.03,0.11 -0.03,0.11 -0.04,0.11 -0.05,0.1 -0.05,0.1 -0.05,0.1 -0.06,0.09 -0.06,0.09 -0.06,0.09 -0.07,0.09 -0.08,0.08 -0.07,0.07 -0.08,0.08 -0.09,0.07 -0.08,0.06 -0.09,0.06 -0.1,0.06 -0.09,0.05 -0.1,0.05 -0.1,0.04 -0.1,0.04 -0.1,0.03 -0.11,0.03 -0.11,0.02 -0.11,0.01 -0.11,0.01 -0.11,0 -0.01,-0.22 c 0.44,0 0.87,-0.21 1.13,-0.64 0.25,-0.43 0.25,-1.01 0.25,-1.39 0,-0.35 0,-0.89 -0.22,-1.33 -0.21,-0.45 -0.65,-0.74 -1.15,-0.74 h 0 c -0.43,0 -0.87,0.21 -1.14,0.67 -0.25,0.44 -0.25,1.05 -0.25,1.4 0,0.39 0,0.93 0.24,1.37 0.27,0.46 0.74,0.66 1.14,0.66 l 0.01,0.22 c -1.25,0 -2.21,-1.08 -2.21,-2.32 0,-1.29 1.03,-2.24 2.2,-2.24 1.21,0 2.21,0.97 2.21,2.24 z"
   inkscape:connector-curvature="0"
   style="fill:#000000;stroke-width:0" />
<path
   id="path4801"
   d="m 240.58,709.26 0,0.11 -0.01,0.12 -0.01,0.12 -0.02,0.11 -0.03,0.11 -0.03,0.11 -0.03,0.11 -0.04,0.11 -0.05,0.1 -0.05,0.1 -0.05,0.1 -0.06,0.09 -0.06,0.09 -0.06,0.09 -0.07,0.09 -0.08,0.08 -0.07,0.07 -0.08,0.08 -0.09,0.07 -0.08,0.06 -0.09,0.06 -0.1,0.06 -0.09,0.05 -0.1,0.05 -0.1,0.04 -0.1,0.04 -0.1,0.03 -0.11,0.03 -0.11,0.02 -0.11,0.01 -0.11,0.01 -0.11,0 -0.01,-0.22 c 0.44,0 0.87,-0.21 1.13,-0.64 0.26,-0.43 0.26,-1.01 0.26,-1.39 0,-0.35 0,-0.89 -0.22,-1.33 -0.22,-0.45 -0.66,-0.74 -1.16,-0.74 h 0 c -0.43,0 -0.87,0.21 -1.14,0.67 -0.25,0.44 -0.25,1.05 -0.25,1.4 0,0.39 0,0.93 0.24,1.37 0.27,0.46 0.74,0.66 1.14,0.66 l 0.01,0.22 c -1.25,0 -2.21,-1.08 -2.21,-2.32 0,-1.29 1.03,-2.24 2.2,-2.24 1.2,0 2.21,0.97 2.21,2.24 z"
   inkscape:connector-curvature="0"
   style="fill:#000000;stroke-width:0" />
<path
   id="path4803"
   d="m 242.53,710.43 v 1.09 l -1.38,-0.11 v -0.3 c 0.7,0 0.78,-0.07 0.78,-0.56 v -2.67 c 0,-0.45 -0.11,-0.45 -0.78,-0.45 v -0.31 c 0.39,0.02 0.86,0.04 1.13,0.04 0.4,0 0.87,0 1.27,-0.04 v 0.31 h -0.21 c -0.74,0 -0.76,0.11 -0.76,0.47 v 1.53 c 0,0.99 0.42,1.87 1.18,1.87 0.07,0 0.09,0 0.11,-0.01 -0.03,-0.01 -0.23,-0.12 -0.23,-0.38 0,-0.28 0.21,-0.43 0.43,-0.43 0.18,0 0.43,0.12 0.43,0.44 0,0.31 -0.31,0.6 -0.74,0.6 -0.73,0 -1.09,-0.66 -1.23,-1.09 z"
   inkscape:connector-curvature="0"
   style="fill:#000000;stroke-width:0" />
<path
   id="path4805"
   d="m 248.56,707.67 v -0.65 l 1.46,0.1 v 0.31 c -0.69,0 -0.77,0.07 -0.77,0.56 v 6.04 l -1.44,-0.11 v -0.31 c 0.7,0 0.78,-0.07 0.78,-0.55 v -2.15 c -0.29,0.36 -0.72,0.61 -1.26,0.61 l 0.04,-0.22 c 0.35,0 0.77,-0.14 1.08,-0.59 0.11,-0.17 0.11,-0.19 0.11,-0.37 h 0 v -2.04 c 0,-0.18 0,-0.2 -0.11,-0.37 -0.3,-0.48 -0.75,-0.7 -1.18,-0.7 -0.45,0 -0.81,0.26 -1.04,0.64 -0.26,0.41 -0.29,0.98 -0.29,1.39 0,0.36 0.02,0.96 0.31,1.41 0.21,0.31 0.58,0.63 1.12,0.63 l -0.04,0.22 c -1.17,0 -2.22,-0.97 -2.22,-2.25 0,-1.27 0.98,-2.25 2.11,-2.25 0.64,0 1.09,0.33 1.34,0.65 z"
   inkscape:connector-curvature="0"
   style="fill:#000000;stroke-width:0" />
<path
   id="path4807"
   d="m 251.41,709.42 0.01,0.21 c 0.06,1.49 0.9,1.73 1.24,1.73 1.02,0 1.13,-1.34 1.13,-1.73 h -2.37 l -0.01,-0.21 h 2.78 c 0.22,0 0.25,0 0.25,0.21 0,0.99 -0.54,1.95 -1.78,1.95 -1.16,0 -2.07,-1.02 -2.07,-2.26 0,-1.34 1.04,-2.3 2.19,-2.3 1.21,0 1.66,1.1 1.66,1.29 0,0.1 -0.08,0.12 -0.13,0.12 -0.09,0 -0.11,-0.06 -0.13,-0.14 -0.34,-1.03 -1.24,-1.03 -1.34,-1.03 -0.5,0 -0.9,0.3 -1.13,0.67 -0.3,0.48 -0.3,1.14 -0.3,1.49 z"
   inkscape:connector-curvature="0"
   style="fill:#000000;stroke-width:0" />
<path
   id="path4809"
   d="m 255.83,710.55 v -2.67 c 0,-0.45 -0.11,-0.45 -0.78,-0.45 v -0.31 c 0.35,0.02 0.86,0.04 1.13,0.04 0.26,0 0.78,-0.02 1.12,-0.04 v 0.31 c -0.67,0 -0.78,0 -0.78,0.45 v 1.83 c 0,1.04 0.71,1.59 1.34,1.59 0.63,0 0.74,-0.53 0.74,-1.1 v -2.32 c 0,-0.45 -0.11,-0.45 -0.78,-0.45 v -0.31 c 0.35,0.02 0.86,0.04 1.13,0.04 0.26,0 0.78,-0.02 1.12,-0.04 v 0.31 c -0.52,0 -0.77,0 -0.78,0.3 v 1.9 c 0,0.86 0,1.17 -0.31,1.53 -0.14,0.17 -0.47,0.36 -1.05,0.36 -0.72,0 -1.19,-0.42 -1.47,-1.04 v 1.04 l -1.41,-0.11 v -0.3 c 0.7,0 0.78,-0.07 0.78,-0.56 z"
   inkscape:connector-curvature="0"
   style="fill:#000000;stroke-width:0" />
<path
   id="path4811"
   d="m 263.59,707.88 0,-0.04 0.01,-0.03 0.01,-0.04 0,-0.04 0.01,-0.04 0.01,-0.03 0.02,-0.04 0.01,-0.03 0.02,-0.04 0.01,-0.03 0.02,-0.04 0.02,-0.03 0.02,-0.03 0.02,-0.04 0.02,-0.03 0.03,-0.03 0.02,-0.02 0.03,-0.03 0.03,-0.03 0.02,-0.02 0.03,-0.02 0.04,-0.03 0.03,-0.02 0.03,-0.01 0.04,-0.02 0.03,-0.01 0.04,-0.02 0.04,-0.01 0.04,0 0.04,-0.01 0.04,0 0.05,0 c 0.21,0 0.81,0.14 0.81,0.94 v 0.56 h -0.25 v -0.56 c 0,-0.58 -0.25,-0.64 -0.35,-0.64 -0.33,0 -0.37,0.45 -0.37,0.5 v 1.99 c 0,0.42 0,0.81 -0.36,1.18 -0.39,0.38 -0.89,0.54 -1.37,0.54 -0.82,0 -1.5,-0.46 -1.5,-1.12 0,-0.3 0.2,-0.47 0.45,-0.47 0.28,0 0.46,0.2 0.46,0.46 0,0.12 -0.05,0.45 -0.5,0.46 0.26,0.35 0.75,0.45 1.07,0.45 0.49,0 1.06,-0.38 1.06,-1.27 v -0.37 -0.21 -0.99 c 0,-0.95 -0.72,-1.29 -1.17,-1.29 -0.49,0 -0.9,0.35 -0.9,0.85 0,0.55 0.42,1.37 2.07,1.43 h 0 v 0.21 c -0.51,-0.03 -1.21,-0.06 -1.84,-0.36 -0.74,-0.33 -0.99,-0.85 -0.99,-1.29 0,-0.81 0.96,-1.05 1.59,-1.05 0.66,0 1.12,0.39 1.31,0.86 z"
   inkscape:connector-curvature="0"
   style="fill:#000000;stroke-width:0" />
<path
   id="path4813"
   d="m 269.04,707.67 v -0.65 l 1.46,0.1 v 0.31 c -0.7,0 -0.77,0.07 -0.77,0.56 v 6.04 l -1.44,-0.11 v -0.31 c 0.7,0 0.78,-0.07 0.78,-0.55 v -2.15 c -0.29,0.36 -0.72,0.61 -1.26,0.61 l 0.04,-0.22 c 0.35,0 0.77,-0.14 1.08,-0.59 0.11,-0.17 0.11,-0.19 0.11,-0.37 h 0 v -2.04 c 0,-0.18 0,-0.2 -0.11,-0.37 -0.3,-0.48 -0.75,-0.7 -1.18,-0.7 -0.45,0 -0.8,0.26 -1.05,0.64 -0.25,0.41 -0.28,0.98 -0.28,1.39 0,0.36 0.02,0.96 0.31,1.41 0.2,0.31 0.58,0.63 1.12,0.63 l -0.04,0.22 c -1.17,0 -2.22,-0.97 -2.22,-2.25 0,-1.27 0.98,-2.25 2.11,-2.25 0.64,0 1.09,0.33 1.34,0.65 z"
   inkscape:connector-curvature="0"
   style="fill:#000000;stroke-width:0" />
<path
   id="path4815"
   d="m 274.11,707.88 0,-0.04 0.01,-0.03 0,-0.04 0.01,-0.04 0.01,-0.04 0.01,-0.03 0.01,-0.04 0.02,-0.03 0.01,-0.04 0.02,-0.03 0.02,-0.04 0.01,-0.03 0.02,-0.03 0.03,-0.04 0.02,-0.03 0.02,-0.03 0.03,-0.02 0.02,-0.03 0.03,-0.03 0.03,-0.02 0.03,-0.02 0.03,-0.03 0.03,-0.02 0.04,-0.01 0.03,-0.02 0.04,-0.01 0.04,-0.02 0.04,-0.01 0.04,0 0.04,-0.01 0.04,0 0.04,0 c 0.21,0 0.82,0.14 0.82,0.94 v 0.56 h -0.25 v -0.56 c 0,-0.58 -0.25,-0.64 -0.36,-0.64 -0.33,0 -0.37,0.45 -0.37,0.5 v 1.99 c 0,0.42 0,0.81 -0.36,1.18 -0.38,0.38 -0.88,0.54 -1.36,0.54 -0.82,0 -1.51,-0.46 -1.51,-1.12 0,-0.3 0.2,-0.47 0.46,-0.47 0.28,0 0.46,0.2 0.46,0.46 0,0.12 -0.05,0.45 -0.51,0.46 0.27,0.35 0.76,0.45 1.08,0.45 0.49,0 1.06,-0.38 1.06,-1.27 v -0.37 -0.21 -0.99 c 0,-0.95 -0.72,-1.29 -1.17,-1.29 -0.49,0 -0.9,0.35 -0.9,0.85 0,0.55 0.42,1.37 2.07,1.43 h 0 v 0.21 c -0.51,-0.03 -1.21,-0.06 -1.84,-0.36 -0.75,-0.33 -1,-0.85 -1,-1.29 0,-0.81 0.97,-1.05 1.6,-1.05 0.66,0 1.12,0.39 1.31,0.86 z"
   inkscape:connector-curvature="0"
   style="fill:#000000;stroke-width:0" />
<path
   id="path4817"
   d="m 283.42,710.51 0.09,0.02 0.09,0.03 0.09,0.03 0.08,0.03 0.09,0.03 0.08,0.03 0.08,0.04 0.08,0.03 0.08,0.04 0.07,0.04 0.08,0.05 0.07,0.04 0.07,0.05 0.06,0.05 0.06,0.05 0.07,0.05 0.05,0.05 0.06,0.06 0.05,0.05 0.05,0.06 0.04,0.06 0.05,0.06 0.03,0.06 0.04,0.06 0.03,0.07 0.03,0.06 0.02,0.07 0.02,0.07 0.01,0.07 0.02,0.07 0,0.07 0.01,0.07 c 0,0.96 -1.14,1.79 -2.61,1.79 h -3.13 v -0.31 h 0.24 c 0.77,0 0.79,-0.1 0.79,-0.46 v -5.25 c 0,-0.36 -0.02,-0.47 -0.79,-0.47 h -0.24 v -0.31 c 0.36,0.04 1.07,0.04 1.46,0.04 0.39,0 1.09,0 1.45,-0.04 v 0.31 h -0.24 c -0.76,0 -0.78,0.11 -0.78,0.47 v 2.52 0.22 2.58 c 0,0.23 0,0.34 0.22,0.37 0.1,0.02 0.38,0.02 0.58,0.02 0.9,0 2.02,-0.04 2.02,-1.48 0,-0.69 -0.24,-1.49 -1.72,-1.49 h -1.1 v -0.22 h 1.14 c 0.16,0 0.58,0 0.93,-0.34 0.38,-0.36 0.38,-0.67 0.38,-1.33 0,-0.65 0,-1.05 0.41,-1.43 0.41,-0.35 0.96,-0.41 1.25,-0.41 0.78,0 0.95,0.81 0.95,1.09 0,0.06 0,0.17 -0.13,0.17 -0.11,0 -0.11,-0.09 -0.12,-0.16 -0.06,-0.71 -0.41,-0.89 -0.66,-0.89 -0.49,0 -0.57,0.51 -0.7,1.44 l -0.13,0.79 c -0.18,0.64 -0.67,0.97 -1.22,1.16 z"
   inkscape:connector-curvature="0"
   style="fill:#000000;stroke-width:0" />
<path
   id="path4819"
   d="m 289.74,707.88 0,-0.04 0.01,-0.03 0,-0.04 0.01,-0.04 0.01,-0.04 0.01,-0.03 0.02,-0.04 0.01,-0.03 0.01,-0.04 0.02,-0.03 0.02,-0.04 0.02,-0.03 0.02,-0.03 0.02,-0.04 0.02,-0.03 0.03,-0.03 0.02,-0.02 0.03,-0.03 0.02,-0.03 0.03,-0.02 0.03,-0.02 0.03,-0.03 0.04,-0.02 0.03,-0.01 0.04,-0.02 0.03,-0.01 0.04,-0.02 0.04,-0.01 0.04,0 0.04,-0.01 0.04,0 0.04,0 c 0.21,0 0.82,0.14 0.82,0.94 v 0.56 h -0.25 v -0.56 c 0,-0.58 -0.25,-0.64 -0.36,-0.64 -0.33,0 -0.36,0.45 -0.36,0.5 v 1.99 c 0,0.42 0,0.81 -0.36,1.18 -0.39,0.38 -0.89,0.54 -1.37,0.54 -0.82,0 -1.51,-0.46 -1.51,-1.12 0,-0.3 0.21,-0.47 0.46,-0.47 0.28,0 0.46,0.2 0.46,0.46 0,0.12 -0.05,0.45 -0.51,0.46 0.27,0.35 0.76,0.45 1.08,0.45 0.49,0 1.06,-0.38 1.06,-1.27 v -0.37 -0.21 -0.99 c 0,-0.95 -0.72,-1.29 -1.17,-1.29 -0.49,0 -0.9,0.35 -0.9,0.85 0,0.55 0.42,1.37 2.07,1.43 h 0 v 0.21 c -0.51,-0.03 -1.21,-0.06 -1.84,-0.36 -0.75,-0.33 -0.99,-0.85 -0.99,-1.29 0,-0.81 0.96,-1.05 1.59,-1.05 0.66,0 1.12,0.39 1.31,0.86 z"
   inkscape:connector-curvature="0"
   style="fill:#000000;stroke-width:0" />
<path
   id="path4821"
   d="m 295.19,707.67 v -0.65 l 1.46,0.1 v 0.31 c -0.7,0 -0.78,0.07 -0.78,0.56 v 6.04 l -1.43,-0.11 v -0.31 c 0.7,0 0.78,-0.07 0.78,-0.55 v -2.15 c -0.29,0.36 -0.72,0.61 -1.26,0.61 L 294,711.3 c 0.35,0 0.77,-0.14 1.08,-0.59 0.11,-0.17 0.11,-0.19 0.11,-0.37 h 0 v -2.04 c 0,-0.18 0,-0.2 -0.11,-0.37 -0.3,-0.48 -0.75,-0.7 -1.18,-0.7 -0.45,0 -0.81,0.26 -1.05,0.64 -0.25,0.41 -0.28,0.98 -0.28,1.39 0,0.36 0.01,0.96 0.3,1.41 0.21,0.31 0.59,0.63 1.13,0.63 l -0.04,0.22 c -1.18,0 -2.22,-0.97 -2.22,-2.25 0,-1.27 0.97,-2.25 2.11,-2.25 0.64,0 1.09,0.33 1.34,0.65 z"
   inkscape:connector-curvature="0"
   style="fill:#000000;stroke-width:0" />
<path
   id="path4823"
   d="m 298.7,711.52 -1.4,-0.11 v -0.3 c 0.65,0 0.74,-0.06 0.74,-0.55 v -2.68 c 0,-0.45 -0.11,-0.45 -0.78,-0.45 v -0.31 c 0.32,0.02 0.86,0.04 1.1,0.04 0.35,0 0.7,-0.02 1.04,-0.04 v 0.31 c -0.66,0 -0.7,0.05 -0.7,0.44 z"
   inkscape:connector-curvature="0"
   style="fill:#000000;stroke-width:0" />
<path
   id="path4825"
   d="m 298.74,713.26 0,0.03 0,0.02 -0.01,0.03 0,0.03 -0.01,0.03 -0.01,0.02 -0.01,0.03 -0.01,0.02 -0.01,0.03 -0.01,0.02 -0.01,0.02 -0.02,0.02 -0.01,0.02 -0.02,0.02 -0.01,0.02 -0.02,0.02 -0.02,0.02 -0.02,0.01 -0.02,0.02 -0.02,0.01 -0.02,0.01 -0.02,0.01 -0.03,0.02 -0.02,0.01 -0.02,0 -0.03,0.01 -0.02,0.01 -0.03,0 -0.02,0.01 -0.03,0 -0.02,0 -0.03,0 c -0.31,0 -0.53,-0.26 -0.53,-0.52 0,-0.27 0.22,-0.53 0.53,-0.53 0.28,0 0.53,0.21 0.53,0.53 z"
   inkscape:connector-curvature="0"
   style="fill:#000000;stroke-width:0" />
<path
   id="path4827"
   d="m 303.02,707.88 0.01,-0.04 0,-0.03 0.01,-0.04 0.01,-0.04 0.01,-0.04 0.01,-0.03 0.01,-0.04 0.01,-0.03 0.02,-0.04 0.01,-0.03 0.02,-0.04 0.02,-0.03 0.02,-0.03 0.02,-0.04 0.03,-0.03 0.02,-0.03 0.02,-0.02 0.03,-0.03 0.03,-0.03 0.03,-0.02 0.03,-0.02 0.03,-0.03 0.03,-0.02 0.03,-0.01 0.04,-0.02 0.04,-0.01 0.03,-0.02 0.04,-0.01 0.04,0 0.04,-0.01 0.04,0 0.05,0 c 0.21,0 0.82,0.14 0.82,0.94 v 0.56 h -0.25 v -0.56 c 0,-0.58 -0.25,-0.64 -0.36,-0.64 -0.33,0 -0.37,0.45 -0.37,0.5 v 1.99 c 0,0.42 0,0.81 -0.36,1.18 -0.39,0.38 -0.89,0.54 -1.37,0.54 -0.81,0 -1.5,-0.46 -1.5,-1.12 0,-0.3 0.2,-0.47 0.46,-0.47 0.28,0 0.46,0.2 0.46,0.46 0,0.12 -0.05,0.45 -0.51,0.46 0.27,0.35 0.76,0.45 1.07,0.45 0.49,0 1.06,-0.38 1.06,-1.27 v -0.37 -0.21 -0.99 c 0,-0.95 -0.72,-1.29 -1.16,-1.29 -0.49,0 -0.9,0.35 -0.9,0.85 0,0.55 0.42,1.37 2.06,1.43 h 0 v 0.21 c -0.51,-0.03 -1.21,-0.06 -1.83,-0.36 -0.75,-0.33 -1,-0.85 -1,-1.29 0,-0.81 0.97,-1.05 1.59,-1.05 0.66,0 1.12,0.39 1.31,0.86 z"
   inkscape:connector-curvature="0"
   style="fill:#000000;stroke-width:0" />
<path
   id="path4829"
   d="m 306.45,714.03 -1.44,-0.11 v -0.31 c 0.7,0 0.78,-0.07 0.78,-0.55 v -5.18 c 0,-0.45 -0.11,-0.45 -0.78,-0.45 v -0.31 c 0.33,0.02 0.86,0.04 1.11,0.04 0.25,0 0.74,-0.02 1.11,-0.04 v 0.31 c -0.67,0 -0.78,0 -0.78,0.45 z"
   inkscape:connector-curvature="0"
   style="fill:#000000;stroke-width:0" />
<path
   id="path4831"
   d="m 311.65,707.71 0,-0.01 -0.01,-0.02 0,-0.01 0,-0.02 -0.01,-0.03 -0.01,-0.03 -0.01,-0.03 0,-0.04 -0.01,-0.03 -0.01,-0.03 0,-0.01 0,-0.02 -0.01,-0.01 0,-0.02 0,-0.01 -0.01,-0.01 0,-0.02 0,-0.01 0,-0.01 -0.01,-0.01 0,-0.01 0,-0.01 0,-0.01 0,0 0,-0.01 0,-0.01 c 0,-0.18 0.14,-0.26 0.29,-0.26 0.12,0 0.3,0.07 0.37,0.27 0.02,0.04 0.36,1.4 0.39,1.58 0.09,0.33 0.26,1.02 0.32,1.29 0.04,0.13 0.32,0.6 0.56,0.82 0.08,0.07 0.37,0.32 0.8,0.32 0.26,0 0.41,-0.11 0.42,-0.11 -0.3,-0.05 -0.52,-0.29 -0.52,-0.55 0,-0.16 0.11,-0.35 0.38,-0.35 0.27,0 0.55,0.23 0.55,0.59 0,0.34 -0.32,0.64 -0.83,0.64 -0.65,0 -1.09,-0.48 -1.28,-0.76 -0.08,0.45 -0.43,0.76 -0.9,0.76 -0.46,0 -0.65,-0.38 -0.74,-0.56 -0.18,-0.34 -0.31,-0.94 -0.31,-0.97 0,-0.1 0.1,-0.1 0.12,-0.1 0.1,0 0.11,0.01 0.17,0.23 0.17,0.71 0.37,1.18 0.73,1.18 0.17,0 0.31,-0.08 0.31,-0.45 0,-0.21 -0.03,-0.32 -0.16,-0.84 z"
   inkscape:connector-curvature="0"
   style="fill:#000000;stroke-width:0" />
<path
   id="path4833"
   d="m 319.92,714.21 0,0.01 0.01,0 0,0.01 0,0 0,0.01 0,0.01 0.01,0 0,0.01 0,0.01 0,0 0.01,0.01 0,0.01 0,0.01 0,0.01 0.01,0.01 0,0 0,0.01 0,0 0,0.01 0,0.01 0.01,0 0,0.01 0,0 0,0 0,0.01 0,0 0,0 0,0.01 0,0 0,0 0,0 0,0 0,0.01 0,0 0,0 0,0 c 0,0.11 -0.09,0.2 -0.2,0.2 -0.07,0 -0.14,-0.03 -0.17,-0.09 l -3.46,-9.48 c -0.05,-0.13 -0.05,-0.17 -0.05,-0.18 0,-0.11 0.09,-0.2 0.2,-0.2 0.13,0 0.16,0.07 0.22,0.24 z"
   inkscape:connector-curvature="0"
   style="fill:#000000;stroke-width:0" />
<path
   id="path4835"
   d="m 321.4,707.71 0,-0.01 0,-0.02 -0.01,-0.01 0,-0.02 -0.01,-0.03 0,-0.03 -0.01,-0.03 -0.01,-0.04 -0.01,-0.03 0,-0.03 -0.01,-0.01 0,-0.02 0,-0.01 -0.01,-0.02 0,-0.01 0,-0.01 0,-0.02 -0.01,-0.01 0,-0.01 0,-0.01 0,-0.01 0,-0.01 0,-0.01 -0.01,0 0,-0.01 0,-0.01 c 0,-0.18 0.14,-0.26 0.29,-0.26 0.12,0 0.3,0.07 0.37,0.27 0.01,0.02 0.13,0.49 0.19,0.74 l 0.22,0.9 c 0.06,0.22 0.12,0.43 0.17,0.66 0.04,0.17 0.12,0.46 0.13,0.5 0.15,0.31 0.68,1.21 1.62,1.21 0.45,0 0.54,-0.36 0.54,-0.69 0,-0.25 -0.07,-0.53 -0.15,-0.83 l -0.28,-1.15 -0.2,-0.76 c -0.04,-0.2 -0.13,-0.54 -0.13,-0.59 0,-0.18 0.15,-0.26 0.29,-0.26 0.31,0 0.37,0.24 0.45,0.56 0.14,0.56 0.51,2.01 0.6,2.4 0.03,0.13 0.56,1.32 1.65,1.32 0.42,0 0.53,-0.33 0.53,-0.69 0,-0.57 -0.42,-1.7 -0.61,-2.23 -0.09,-0.24 -0.13,-0.35 -0.13,-0.55 0,-0.47 0.34,-0.81 0.81,-0.81 0.94,0 1.31,1.45 1.31,1.53 0,0.1 -0.09,0.1 -0.12,0.1 -0.1,0 -0.1,-0.03 -0.15,-0.18 -0.15,-0.53 -0.47,-1.24 -1.02,-1.24 -0.17,0 -0.24,0.1 -0.24,0.33 0,0.25 0.09,0.49 0.18,0.71 0.19,0.52 0.61,1.62 0.61,2.19 0,0.65 -0.4,1.06 -1.14,1.06 -0.75,0 -1.26,-0.43 -1.63,-0.96 -0.01,0.13 -0.04,0.47 -0.32,0.71 -0.25,0.2 -0.57,0.25 -0.82,0.25 -0.89,0 -1.38,-0.63 -1.55,-0.86 -0.05,0.56 -0.47,0.86 -0.92,0.86 -0.46,0 -0.65,-0.38 -0.74,-0.56 -0.17,-0.35 -0.3,-0.94 -0.3,-0.97 0,-0.1 0.1,-0.1 0.11,-0.1 0.11,0 0.12,0.01 0.18,0.23 0.16,0.71 0.36,1.18 0.72,1.18 0.16,0 0.31,-0.08 0.31,-0.45 0,-0.21 -0.03,-0.32 -0.16,-0.84 z"
   inkscape:connector-curvature="0"
   style="fill:#000000;stroke-width:0" />
</g>  <g
     id="g5109"
     transform="matrix(0,-2.5,-2.5,0,1790.3366,917.5678)"
     xml:space="preserve"
     stroke-miterlimit="10.433"
     font-style="normal"
     font-variant="normal"
     font-weight="normal"
     font-stretch="normal"
     font-size-adjust="none"
     letter-spacing="normal"
     word-spacing="normal"
     ns0:text="Potencial Efectivo $\\tilde{V}(r)$"
     ns0:preamble=""
     style="font-style:normal;font-variant:normal;font-weight:normal;font-stretch:normal;letter-spacing:normal;word-spacing:normal;text-anchor:start;fill:none;stroke:#000000;stroke-linecap:butt;stroke-linejoin:miter;stroke-miterlimit:10.43299961;stroke-opacity:1;stroke-dasharray:none;stroke-dashoffset:0">
<path
   style="fill:#000000;stroke-width:0"
   inkscape:connector-curvature="0"
   d="m 225.7,710.27 -0.04,0.26 v 2.69 c 0,0.32 0.02,0.39 0.49,0.39 h 0.89 c 1.59,0 1.59,-1.05 1.59,-1.54 0,-0.47 0,-1.54 -1.59,-1.54 h -1.38 l 0.04,-0.26 h 1.68 c 1.2,0 2.27,0.81 2.27,1.8 0,0.98 -0.99,1.85 -2.35,1.85 h -3.52 v -0.31 h 0.24 c 0.77,0 0.79,-0.1 0.79,-0.46 v -5.25 c 0,-0.36 -0.02,-0.47 -0.79,-0.47 h -0.24 v -0.31 c 0.35,0.04 1.09,0.04 1.47,0.04 0.37,0 1.12,0 1.47,-0.04 v 0.31 h -0.24 c -0.77,0 -0.78,0.11 -0.78,0.47 z"
   id="path5111" />
<path
   style="fill:#000000;stroke-width:0"
   inkscape:connector-curvature="0"
   d="m 234.63,709.26 0,0.11 -0.01,0.12 -0.02,0.12 -0.02,0.11 -0.02,0.11 -0.03,0.11 -0.04,0.11 -0.04,0.11 -0.04,0.1 -0.05,0.1 -0.05,0.1 -0.06,0.09 -0.06,0.09 -0.07,0.09 -0.07,0.09 -0.07,0.08 -0.08,0.07 -0.08,0.08 -0.08,0.07 -0.09,0.06 -0.09,0.06 -0.09,0.06 -0.09,0.05 -0.1,0.05 -0.1,0.04 -0.1,0.04 -0.11,0.03 -0.1,0.03 -0.11,0.02 -0.11,0.01 -0.11,0.01 -0.11,0 -0.01,-0.22 c 0.43,0 0.86,-0.21 1.12,-0.64 0.26,-0.43 0.26,-1.01 0.26,-1.39 0,-0.35 0,-0.89 -0.22,-1.33 -0.22,-0.45 -0.66,-0.74 -1.15,-0.74 h 0 c -0.43,0 -0.87,0.21 -1.14,0.67 -0.25,0.44 -0.25,1.05 -0.25,1.4 0,0.39 0,0.93 0.24,1.37 0.27,0.46 0.74,0.66 1.14,0.66 l 0.01,0.22 c -1.25,0 -2.22,-1.08 -2.22,-2.32 0,-1.29 1.04,-2.24 2.21,-2.24 1.2,0 2.21,0.97 2.21,2.24 z"
   id="path5113" />
<path
   style="fill:#000000;stroke-width:0"
   inkscape:connector-curvature="0"
   d="m 236.64,711.11 h 1.43 v 0.3 h -1.43 v 1.84 h -0.25 c -0.01,-0.82 -0.31,-1.89 -1.29,-1.92 v -0.22 h 0.85 v -2.75 c 0,-1.22 0.93,-1.34 1.29,-1.34 0.71,0 0.98,0.7 0.98,1.34 v 0.57 h -0.24 v -0.55 c 0,-0.74 -0.3,-1.12 -0.67,-1.12 -0.67,0 -0.67,0.91 -0.67,1.08 z"
   id="path5115" />
<path
   style="fill:#000000;stroke-width:0"
   inkscape:connector-curvature="0"
   d="m 239.9,709.42 0.01,0.21 c 0.06,1.49 0.89,1.73 1.23,1.73 1.03,0 1.13,-1.34 1.13,-1.73 h -2.36 l -0.01,-0.21 h 2.78 c 0.22,0 0.25,0 0.25,0.21 0,0.99 -0.54,1.95 -1.79,1.95 -1.15,0 -2.07,-1.02 -2.07,-2.26 0,-1.34 1.05,-2.3 2.19,-2.3 1.22,0 1.67,1.1 1.67,1.29 0,0.1 -0.08,0.12 -0.13,0.12 -0.09,0 -0.11,-0.06 -0.13,-0.14 -0.35,-1.03 -1.25,-1.03 -1.35,-1.03 -0.5,0 -0.9,0.3 -1.12,0.67 -0.3,0.48 -0.3,1.14 -0.3,1.49 z"
   id="path5117" />
<path
   style="fill:#000000;stroke-width:0"
   inkscape:connector-curvature="0"
   d="m 244.31,710.55 v -2.67 c 0,-0.45 -0.11,-0.45 -0.77,-0.45 v -0.31 c 0.34,0.02 0.85,0.04 1.12,0.04 0.26,0 0.78,-0.02 1.12,-0.04 v 0.31 c -0.67,0 -0.78,0 -0.78,0.45 v 1.83 c 0,1.04 0.71,1.59 1.35,1.59 0.63,0 0.73,-0.53 0.73,-1.1 v -2.32 c 0,-0.45 -0.1,-0.45 -0.77,-0.45 v -0.31 c 0.35,0.02 0.85,0.04 1.12,0.04 0.26,0 0.78,-0.02 1.12,-0.04 v 0.31 c -0.52,0 -0.77,0 -0.78,0.3 v 1.9 c 0,0.86 0,1.17 -0.31,1.53 -0.14,0.17 -0.47,0.36 -1.04,0.36 -0.73,0 -1.2,-0.42 -1.48,-1.04 v 1.04 l -1.4,-0.11 v -0.3 c 0.69,0 0.77,-0.07 0.77,-0.56 z"
   id="path5119" />
<path
   style="fill:#000000;stroke-width:0"
   inkscape:connector-curvature="0"
   d="m 249.92,709.29 0,0.08 0,0.07 0,0.08 0.01,0.07 0,0.06 0.01,0.07 0.01,0.07 0,0.06 0.01,0.06 0.01,0.06 0.01,0.06 0.02,0.06 0.02,0.1 0.03,0.11 0.04,0.1 0.03,0.09 0.04,0.08 0.04,0.08 0.05,0.08 0.04,0.07 0.05,0.06 0.05,0.06 0.05,0.06 0.06,0.05 0.05,0.05 0.06,0.04 0.05,0.03 0.06,0.04 0.05,0.03 0.06,0.02 0.06,0.03 0.05,0.02 0.06,0.01 0.05,0.01 0.06,0.01 0.05,0.01 0.05,0 0.05,0.01 c 0.09,0 0.72,-0.01 1.07,-0.37 -0.41,-0.03 -0.47,-0.33 -0.47,-0.46 0,-0.26 0.18,-0.46 0.46,-0.46 0.26,0 0.46,0.17 0.46,0.47 0,0.68 -0.76,1.06 -1.53,1.06 -1.24,0 -2.16,-1.07 -2.16,-2.3 0,-1.28 0.99,-2.26 2.14,-2.26 1.34,0 1.66,1.19 1.66,1.29 0,0.1 -0.1,0.1 -0.13,0.1 -0.09,0 -0.11,-0.04 -0.13,-0.1 -0.29,-0.93 -0.94,-1.05 -1.31,-1.05 -0.53,0 -1.4,0.43 -1.4,2.03 z"
   id="path5121" />
<path
   style="fill:#000000;stroke-width:0"
   inkscape:connector-curvature="0"
   d="m 254.94,711.52 -1.39,-0.11 v -0.3 c 0.65,0 0.74,-0.06 0.74,-0.55 v -2.68 c 0,-0.45 -0.11,-0.45 -0.78,-0.45 v -0.31 c 0.32,0.02 0.86,0.04 1.09,0.04 0.35,0 0.7,-0.02 1.04,-0.04 v 0.31 c -0.66,0 -0.7,0.05 -0.7,0.44 z"
   id="path5123" />
<path
   style="fill:#000000;stroke-width:0"
   inkscape:connector-curvature="0"
   d="m 254.98,713.26 0,0.03 0,0.02 0,0.03 -0.01,0.03 0,0.03 -0.01,0.02 -0.01,0.03 -0.01,0.02 -0.01,0.03 -0.01,0.02 -0.02,0.02 -0.01,0.02 -0.01,0.02 -0.02,0.02 -0.02,0.02 -0.02,0.02 -0.01,0.02 -0.02,0.01 -0.02,0.02 -0.03,0.01 -0.02,0.01 -0.02,0.01 -0.02,0.02 -0.02,0.01 -0.03,0 -0.02,0.01 -0.03,0.01 -0.02,0 -0.03,0.01 -0.02,0 -0.03,0 -0.02,0 c -0.31,0 -0.53,-0.26 -0.53,-0.52 0,-0.27 0.22,-0.53 0.53,-0.53 0.27,0 0.52,0.21 0.52,0.53 z"
   id="path5125" />
<path
   style="fill:#000000;stroke-width:0"
   inkscape:connector-curvature="0"
   d="m 259.27,707.88 0,-0.04 0.01,-0.03 0,-0.04 0.01,-0.04 0.01,-0.04 0.01,-0.03 0.01,-0.04 0.02,-0.03 0.01,-0.04 0.02,-0.03 0.02,-0.04 0.02,-0.03 0.02,-0.03 0.02,-0.04 0.02,-0.03 0.02,-0.03 0.03,-0.02 0.03,-0.03 0.02,-0.03 0.03,-0.02 0.03,-0.02 0.03,-0.03 0.04,-0.02 0.03,-0.01 0.04,-0.02 0.03,-0.01 0.04,-0.02 0.04,-0.01 0.04,0 0.04,-0.01 0.04,0 0.04,0 c 0.21,0 0.82,0.14 0.82,0.94 v 0.56 h -0.25 v -0.56 c 0,-0.58 -0.25,-0.64 -0.36,-0.64 -0.33,0 -0.37,0.45 -0.37,0.5 v 1.99 c 0,0.42 0,0.81 -0.35,1.18 -0.39,0.38 -0.89,0.54 -1.37,0.54 -0.82,0 -1.51,-0.46 -1.51,-1.12 0,-0.3 0.2,-0.47 0.46,-0.47 0.28,0 0.46,0.2 0.46,0.46 0,0.12 -0.05,0.45 -0.51,0.46 0.27,0.35 0.76,0.45 1.08,0.45 0.49,0 1.06,-0.38 1.06,-1.27 v -0.37 -0.21 -0.99 c 0,-0.95 -0.72,-1.29 -1.17,-1.29 -0.49,0 -0.9,0.35 -0.9,0.85 0,0.55 0.42,1.37 2.07,1.43 h 0 v 0.21 c -0.51,-0.03 -1.21,-0.06 -1.84,-0.36 -0.75,-0.33 -0.99,-0.85 -0.99,-1.29 0,-0.81 0.96,-1.05 1.59,-1.05 0.66,0 1.12,0.39 1.31,0.86 z"
   id="path5127" />
<path
   style="fill:#000000;stroke-width:0"
   inkscape:connector-curvature="0"
   d="m 262.69,714.03 -1.43,-0.11 v -0.31 c 0.69,0 0.78,-0.07 0.78,-0.55 v -5.18 c 0,-0.45 -0.12,-0.45 -0.78,-0.45 v -0.31 c 0.33,0.02 0.85,0.04 1.1,0.04 0.25,0 0.74,-0.02 1.11,-0.04 v 0.31 c -0.67,0 -0.78,0 -0.78,0.45 z"
   id="path5129" />
<path
   style="fill:#000000;stroke-width:0"
   inkscape:connector-curvature="0"
   d="m 268.38,707.9 0,-0.03 0,-0.03 0,-0.03 0,-0.03 -0.01,-0.03 0,-0.03 0,-0.02 -0.01,-0.02 0,-0.03 -0.01,-0.02 -0.01,-0.02 -0.01,-0.01 -0.01,-0.02 -0.01,-0.02 -0.02,-0.01 -0.02,-0.02 -0.02,-0.01 -0.02,-0.01 -0.01,-0.01 -0.01,0 -0.02,-0.01 -0.01,0 -0.02,-0.01 -0.01,0 -0.02,-0.01 -0.02,0 -0.01,0 -0.02,-0.01 -0.02,0 -0.02,0 -0.02,-0.01 -0.02,0 -0.03,0 -0.02,0 -0.03,-0.01 -0.02,0 -0.03,0 -0.02,0 -0.03,0 -0.03,0 -0.03,0 -0.03,0 -0.04,-0.01 -0.03,0 -0.03,0 -0.04,0 h -0.24 v -0.31 h 5.75 l 0.42,2.57 h -0.25 c -0.25,-1.53 -0.47,-2.26 -2.19,-2.26 h -1.32 c -0.47,0 -0.49,0.07 -0.49,0.4 v 2.66 h 0.89 c 0.97,0 1.08,-0.32 1.08,-1.17 h 0.25 v 2.64 h -0.25 c 0,-0.85 -0.11,-1.16 -1.08,-1.16 h -0.89 v 2.39 c 0,0.33 0.02,0.39 0.49,0.39 h 1.28 c 1.53,0 1.79,-0.54 1.95,-1.93 h 0.25 l -0.28,2.24 h -5.61 v -0.31 h 0.24 c 0.77,0 0.79,-0.11 0.79,-0.46 z"
   id="path5131" />
<path
   style="fill:#000000;stroke-width:0"
   inkscape:connector-curvature="0"
   d="m 275.54,711.41 v 1.16 c 0,0.88 0.48,1.35 0.91,1.35 0.03,0 0.19,0 0.33,-0.07 -0.11,-0.04 -0.3,-0.17 -0.3,-0.42 0,-0.22 0.16,-0.42 0.43,-0.42 0.29,0 0.44,0.2 0.44,0.44 0,0.36 -0.37,0.69 -0.9,0.69 -0.69,0 -1.54,-0.53 -1.54,-1.58 v -1.15 h -0.79 v -0.3 h 0.79 v -3.23 c 0,-0.45 -0.11,-0.45 -0.78,-0.45 v -0.31 c 0.39,0.02 0.86,0.04 1.14,0.04 0.4,0 0.87,0 1.27,-0.04 v 0.31 h -0.21 c -0.74,0 -0.76,0.11 -0.76,0.47 v 3.21 h 1.13 v 0.3 z"
   id="path5133" />
<path
   style="fill:#000000;stroke-width:0"
   inkscape:connector-curvature="0"
   d="m 277.95,709.42 0,0.21 c 0.07,1.49 0.9,1.73 1.24,1.73 1.03,0 1.13,-1.34 1.13,-1.73 h -2.37 l 0,-0.21 h 2.78 c 0.22,0 0.25,0 0.25,0.21 0,0.99 -0.54,1.95 -1.79,1.95 -1.15,0 -2.07,-1.02 -2.07,-2.26 0,-1.34 1.04,-2.3 2.19,-2.3 1.22,0 1.67,1.1 1.67,1.29 0,0.1 -0.08,0.12 -0.13,0.12 -0.09,0 -0.11,-0.06 -0.13,-0.14 -0.35,-1.03 -1.25,-1.03 -1.35,-1.03 -0.5,0 -0.9,0.3 -1.13,0.67 -0.29,0.48 -0.29,1.14 -0.29,1.49 z"
   id="path5135" />
<path
   style="fill:#000000;stroke-width:0"
   inkscape:connector-curvature="0"
   d="m 282.43,709.29 0,0.08 0,0.07 0.01,0.08 0,0.07 0.01,0.06 0,0.07 0.01,0.07 0.01,0.06 0.01,0.06 0.01,0.06 0.01,0.06 0.01,0.06 0.03,0.1 0.03,0.11 0.03,0.1 0.04,0.09 0.04,0.08 0.04,0.08 0.04,0.08 0.05,0.07 0.05,0.06 0.05,0.06 0.05,0.06 0.05,0.05 0.05,0.05 0.06,0.04 0.06,0.03 0.05,0.04 0.06,0.03 0.05,0.02 0.06,0.03 0.06,0.02 0.05,0.01 0.06,0.01 0.05,0.01 0.06,0.01 0.05,0 0.05,0.01 c 0.09,0 0.71,-0.01 1.06,-0.37 -0.4,-0.03 -0.46,-0.33 -0.46,-0.46 0,-0.26 0.17,-0.46 0.45,-0.46 0.26,0 0.46,0.17 0.46,0.47 0,0.68 -0.75,1.06 -1.52,1.06 -1.25,0 -2.16,-1.07 -2.16,-2.3 0,-1.28 0.98,-2.26 2.14,-2.26 1.33,0 1.65,1.19 1.65,1.29 0,0.1 -0.1,0.1 -0.13,0.1 -0.09,0 -0.11,-0.04 -0.13,-0.1 -0.29,-0.93 -0.93,-1.05 -1.3,-1.05 -0.53,0 -1.41,0.43 -1.41,2.03 z"
   id="path5137" />
<path
   style="fill:#000000;stroke-width:0"
   inkscape:connector-curvature="0"
   d="m 287.43,711.11 h 1.42 v 0.3 h -1.42 v 1.84 h -0.25 c -0.01,-0.82 -0.31,-1.89 -1.29,-1.92 v -0.22 h 0.85 v -2.75 c 0,-1.22 0.93,-1.34 1.29,-1.34 0.7,0 0.98,0.7 0.98,1.34 v 0.57 h -0.25 v -0.55 c 0,-0.74 -0.3,-1.12 -0.66,-1.12 -0.67,0 -0.67,0.91 -0.67,1.08 z"
   id="path5139" />
<path
   style="fill:#000000;stroke-width:0"
   inkscape:connector-curvature="0"
   d="m 291.34,711.52 -1.39,-0.11 v -0.3 c 0.64,0 0.73,-0.06 0.73,-0.55 v -2.68 c 0,-0.45 -0.11,-0.45 -0.77,-0.45 v -0.31 c 0.32,0.02 0.85,0.04 1.09,0.04 0.35,0 0.7,-0.02 1.04,-0.04 v 0.31 c -0.66,0 -0.7,0.05 -0.7,0.44 z"
   id="path5141" />
<path
   style="fill:#000000;stroke-width:0"
   inkscape:connector-curvature="0"
   d="m 291.38,713.26 0,0.03 0,0.02 0,0.03 -0.01,0.03 -0.01,0.03 0,0.02 -0.01,0.03 -0.01,0.02 -0.01,0.03 -0.01,0.02 -0.02,0.02 -0.01,0.02 -0.02,0.02 -0.01,0.02 -0.02,0.02 -0.02,0.02 -0.02,0.02 -0.02,0.01 -0.02,0.02 -0.02,0.01 -0.02,0.01 -0.02,0.01 -0.02,0.02 -0.03,0.01 -0.02,0 -0.02,0.01 -0.03,0.01 -0.02,0 -0.03,0.01 -0.02,0 -0.03,0 -0.03,0 c -0.31,0 -0.52,-0.26 -0.52,-0.52 0,-0.27 0.21,-0.53 0.52,-0.53 0.28,0 0.53,0.21 0.53,0.53 z"
   id="path5143" />
<path
   style="fill:#000000;stroke-width:0"
   inkscape:connector-curvature="0"
   d="m 296.49,710.44 0.01,0.02 0.01,0.02 0.01,0.03 0.01,0.02 0.01,0.03 0.01,0.02 0.02,0.03 0.01,0.03 0.02,0.03 0.01,0.02 0.02,0.03 0.02,0.03 0.02,0.03 0.02,0.02 0.02,0.03 0.03,0.02 0.02,0.03 0.03,0.02 0.03,0.03 0.03,0.02 0.04,0.02 0.03,0.02 0.04,0.02 0.04,0.02 0.04,0.02 0.05,0.01 0.04,0.01 0.05,0.01 0.06,0.01 0.02,0.01 0.03,0 0.03,0 0.03,0 0.03,0.01 0.03,0 v 0.3 c -0.23,-0.01 -0.52,-0.02 -0.75,-0.02 -0.24,0 -0.7,0.02 -0.87,0.02 v -0.3 c 0.37,-0.01 0.48,-0.24 0.48,-0.43 0,-0.09 -0.02,-0.13 -0.06,-0.24 l -1.01,-2.54 -1.12,2.78 c -0.06,0.13 -0.06,0.15 -0.06,0.17 0,0.26 0.39,0.26 0.57,0.26 v 0.3 c -0.3,0 -0.86,-0.02 -1.09,-0.02 -0.27,0 -0.67,0.01 -0.97,0.02 v -0.3 c 0.63,0 0.67,-0.06 0.8,-0.37 l 1.44,-3.53 c 0.06,-0.14 0.08,-0.19 0.21,-0.19 0.13,0 0.17,0.08 0.21,0.19 z"
   id="path5145" />
<path
   style="fill:#000000;stroke-width:0"
   inkscape:connector-curvature="0"
   d="m 302.02,709.26 0,0.11 -0.01,0.12 -0.02,0.12 -0.02,0.11 -0.02,0.11 -0.03,0.11 -0.03,0.11 -0.04,0.11 -0.05,0.1 -0.05,0.1 -0.05,0.1 -0.06,0.09 -0.06,0.09 -0.07,0.09 -0.07,0.09 -0.07,0.08 -0.08,0.07 -0.08,0.08 -0.08,0.07 -0.09,0.06 -0.09,0.06 -0.09,0.06 -0.09,0.05 -0.1,0.05 -0.1,0.04 -0.1,0.04 -0.11,0.03 -0.1,0.03 -0.11,0.02 -0.11,0.01 -0.11,0.01 -0.11,0 -0.01,-0.22 c 0.43,0 0.86,-0.21 1.12,-0.64 0.26,-0.43 0.26,-1.01 0.26,-1.39 0,-0.35 0,-0.89 -0.22,-1.33 -0.22,-0.45 -0.65,-0.74 -1.15,-0.74 h 0 c -0.43,0 -0.87,0.21 -1.14,0.67 -0.25,0.44 -0.25,1.05 -0.25,1.4 0,0.39 0,0.93 0.24,1.37 0.27,0.46 0.74,0.66 1.14,0.66 l 0.01,0.22 c -1.25,0 -2.22,-1.08 -2.22,-2.32 0,-1.29 1.04,-2.24 2.21,-2.24 1.2,0 2.21,0.97 2.21,2.24 z"
   id="path5147" />
<path
   style="fill:#000000;stroke-width:0"
   inkscape:connector-curvature="0"
   d="m 311.29,716.14 -0.16,0.15 c 0,-0.01 -0.37,-0.48 -0.81,-0.48 -0.23,0 -0.48,0.15 -0.65,0.25 -0.27,0.16 -0.45,0.23 -0.62,0.23 -0.38,0 -0.57,-0.22 -1.08,-0.77 l 0.16,-0.15 c 0,0.01 0.38,0.47 0.82,0.47 0.23,0 0.48,-0.15 0.65,-0.25 0.27,-0.16 0.45,-0.22 0.62,-0.22 0.38,0 0.56,0.22 1.07,0.77 z"
   id="path5149" />
<path
   style="fill:#000000;stroke-width:0"
   inkscape:connector-curvature="0"
   d="m 311.88,712.79 0.05,0.07 0.04,0.06 0.05,0.07 0.04,0.06 0.05,0.05 0.04,0.05 0.04,0.05 0.05,0.04 0.04,0.04 0.04,0.04 0.04,0.03 0.05,0.04 0.04,0.02 0.04,0.03 0.04,0.02 0.04,0.02 0.04,0.02 0.04,0.02 0.03,0.02 0.04,0.01 0.04,0.01 0.04,0.01 0.04,0.01 0.03,0.01 0.04,0 0.04,0.01 0.07,0 0.07,0.01 0.07,0 c 0.12,0.01 0.13,0.18 0.13,0.19 0,0.08 -0.05,0.12 -0.13,0.12 -0.26,0 -0.55,-0.03 -0.82,-0.03 -0.33,0 -0.67,0.03 -0.98,0.03 -0.06,0 -0.19,0 -0.19,-0.19 0,-0.11 0.09,-0.12 0.16,-0.12 0.27,-0.02 0.45,-0.12 0.45,-0.32 0,-0.15 -0.14,-0.37 -0.14,-0.38 l -3.06,-4.86 -0.68,5.27 c 0,0.16 0.23,0.29 0.68,0.29 0.14,0 0.25,0 0.25,0.2 0,0.09 -0.08,0.11 -0.14,0.11 -0.39,0 -0.82,-0.03 -1.23,-0.03 -0.18,0 -0.37,0.01 -0.55,0.01 -0.18,0 -0.37,0.02 -0.54,0.02 -0.07,0 -0.19,0 -0.19,-0.19 0,-0.12 0.09,-0.12 0.25,-0.12 0.56,0 0.57,-0.09 0.6,-0.33 l 0.79,-6.14 c 0.03,-0.2 0.07,-0.23 0.2,-0.23 0.16,0 0.2,0.05 0.28,0.18 z"
   id="path5151" />
<path
   style="fill:#000000;stroke-width:0"
   inkscape:connector-curvature="0"
   d="m 316.95,704.74 0,0 0,0.01 0,0 0,0 0,0.01 0,0 0,0 -0.01,0.01 0,0 0,0 0,0.01 -0.01,0 0,0.01 0,0 -0.01,0.01 0,0.01 -0.01,0 0,0.01 -0.01,0 0,0.01 0,0 -0.01,0.01 0,0 0,0 -0.01,0.01 0,0 -0.01,0.01 0,0 -0.01,0.01 0,0 -0.01,0.01 0,0.01 -0.01,0 0,0.01 -0.01,0 -0.01,0.01 0,0.01 -0.01,0.01 -0.01,0 -0.01,0.01 0,0.01 -0.01,0.01 c -1.25,1.25 -1.57,3.13 -1.57,4.65 0,1.73 0.38,3.47 1.61,4.71 0.13,0.12 0.13,0.14 0.13,0.17 0,0.07 -0.04,0.1 -0.1,0.1 -0.1,0 -1,-0.68 -1.59,-1.94 -0.5,-1.1 -0.62,-2.2 -0.62,-3.04 0,-0.77 0.11,-1.98 0.65,-3.1 0.6,-1.23 1.46,-1.87 1.56,-1.87 0.06,0 0.1,0.03 0.1,0.1 z"
   id="path5153" />
<path
   style="fill:#000000;stroke-width:0"
   inkscape:connector-curvature="0"
   d="m 318.4,707.71 0,-0.01 0,-0.02 -0.01,-0.01 0,-0.02 -0.01,-0.03 -0.01,-0.03 0,-0.03 -0.01,-0.04 -0.01,-0.03 -0.01,-0.03 0,-0.01 0,-0.02 -0.01,-0.01 0,-0.02 0,-0.01 0,-0.01 -0.01,-0.02 0,-0.01 0,-0.01 0,-0.01 0,-0.01 -0.01,-0.01 0,-0.01 0,0 0,-0.01 0,-0.01 c 0,-0.18 0.14,-0.26 0.29,-0.26 0.12,0 0.3,0.07 0.37,0.27 0.02,0.04 0.36,1.4 0.4,1.58 0.08,0.33 0.26,1.02 0.32,1.29 0.04,0.13 0.32,0.6 0.55,0.82 0.09,0.07 0.37,0.32 0.8,0.32 0.26,0 0.41,-0.11 0.42,-0.11 -0.3,-0.05 -0.52,-0.29 -0.52,-0.55 0,-0.16 0.11,-0.35 0.38,-0.35 0.27,0 0.55,0.23 0.55,0.59 0,0.34 -0.32,0.64 -0.83,0.64 -0.65,0 -1.08,-0.48 -1.27,-0.76 -0.08,0.45 -0.44,0.76 -0.91,0.76 -0.46,0 -0.65,-0.38 -0.74,-0.56 -0.18,-0.34 -0.31,-0.94 -0.31,-0.97 0,-0.1 0.1,-0.1 0.12,-0.1 0.1,0 0.11,0.01 0.17,0.23 0.17,0.71 0.37,1.18 0.73,1.18 0.17,0 0.31,-0.08 0.31,-0.45 0,-0.21 -0.03,-0.32 -0.16,-0.84 z"
   id="path5155" />
<path
   style="fill:#000000;stroke-width:0"
   inkscape:connector-curvature="0"
   d="m 325.18,709.61 0,0.08 -0.01,0.07 0,0.08 0,0.08 -0.01,0.17 -0.01,0.18 -0.02,0.18 -0.02,0.19 -0.02,0.2 -0.04,0.19 -0.04,0.21 -0.04,0.21 -0.06,0.21 -0.06,0.21 -0.07,0.21 -0.08,0.21 -0.04,0.11 -0.04,0.11 -0.05,0.1 -0.05,0.11 c -0.6,1.22 -1.46,1.87 -1.56,1.87 -0.06,0 -0.1,-0.04 -0.1,-0.1 0,-0.03 0,-0.05 0.19,-0.23 0.98,-0.98 1.55,-2.57 1.55,-4.65 0,-1.7 -0.37,-3.45 -1.61,-4.7 -0.13,-0.12 -0.13,-0.14 -0.13,-0.17 0,-0.06 0.04,-0.1 0.1,-0.1 0.1,0 1,0.67 1.59,1.94 0.51,1.09 0.63,2.2 0.63,3.03 z"
   id="path5157" />
</g>  <g
     ns0:preamble=""
     ns0:text="$h=0$"
     word-spacing="normal"
     letter-spacing="normal"
     font-size-adjust="none"
     font-stretch="normal"
     font-weight="normal"
     font-variant="normal"
     font-style="normal"
     stroke-miterlimit="10.433"
     xml:space="preserve"
     transform="matrix(2,0,0,-2,2.880383,1454.067)"
     id="g5403"
     style="font-style:normal;font-variant:normal;font-weight:normal;font-stretch:normal;letter-spacing:normal;word-spacing:normal;text-anchor:start;fill:none;stroke:#000000;stroke-linecap:butt;stroke-linejoin:miter;stroke-miterlimit:10.43299961;stroke-opacity:1;stroke-dasharray:none;stroke-dashoffset:0">
<path
   id="path5405"
   d="m 226.29,713.92 0,0 0,0 0,0.01 0,0 0,0 0,0 0,0.01 0,0 0,0 0,0.01 0,0 0,0.01 0,0 -0.01,0.01 0,0 0,0.01 0,0 -0.01,0.01 0,0 0,0.01 -0.01,0 0,0 0,0 -0.01,0.01 0,0 0,0 -0.01,0 0,0 0,0.01 -0.01,0 0,0 0,0 -0.01,0 0,0 -0.01,0.01 0,0 0,0 -0.01,0 0,0 -0.01,0 0,0 -0.01,0 -0.01,0 0,0 -0.01,0 c -0.23,0 -0.95,-0.08 -1.21,-0.1 -0.08,-0.01 -0.19,-0.02 -0.19,-0.2 0,-0.12 0.09,-0.12 0.24,-0.12 0.48,0 0.49,-0.07 0.49,-0.16 l -0.02,-0.2 -1.45,-5.74 c -0.04,-0.14 -0.04,-0.16 -0.04,-0.22 0,-0.22 0.2,-0.27 0.29,-0.27 0.16,0 0.32,0.12 0.37,0.25 l 0.19,0.76 0.22,0.9 c 0.06,0.22 0.12,0.43 0.17,0.66 0.02,0.06 0.1,0.39 0.11,0.45 0.03,0.09 0.33,0.65 0.67,0.92 0.22,0.16 0.53,0.34 0.96,0.34 0.43,0 0.54,-0.33 0.54,-0.69 0,-0.54 -0.38,-1.62 -0.62,-2.23 -0.08,-0.23 -0.13,-0.35 -0.13,-0.55 0,-0.47 0.35,-0.81 0.82,-0.81 0.94,0 1.31,1.45 1.31,1.53 0,0.1 -0.09,0.1 -0.12,0.1 -0.11,0 -0.11,-0.03 -0.15,-0.18 -0.15,-0.53 -0.47,-1.24 -1.02,-1.24 -0.17,0 -0.24,0.1 -0.24,0.33 0,0.25 0.09,0.49 0.18,0.71 0.16,0.43 0.61,1.61 0.61,2.19 0,0.65 -0.4,1.06 -1.15,1.06 -0.63,0 -1.11,-0.3 -1.48,-0.76 z"
   inkscape:connector-curvature="0"
   style="fill:#000000;stroke-width:0" />
<path
   id="path5407"
   d="m 238.79,710.38 0.03,0 0.02,0 0.03,0 0.02,0 0.01,0 0.02,0 0.01,0.01 0.02,0 0.01,0 0.01,0 0.02,0.01 0.01,0 0.01,0 0.01,0.01 0.02,0 0.01,0.01 0.01,0.01 0.01,0.01 0.01,0 0.01,0.01 0,0.01 0.01,0.01 0,0 0,0.01 0.01,0.01 0,0 0,0.01 0.01,0.01 0,0 0,0.01 0,0.01 0,0 0,0.01 0,0.01 0.01,0.01 0,0.01 0,0.01 c 0,0.2 -0.19,0.2 -0.33,0.2 h -5.97 c -0.14,0 -0.33,0 -0.33,-0.2 0,-0.2 0.19,-0.2 0.34,-0.2 z"
   inkscape:connector-curvature="0"
   style="fill:#000000;stroke-width:0" />
<path
   id="path5409"
   d="m 238.8,708.45 0.02,0 0.03,0 0.03,0 0.01,0 0.02,0 0.01,0 0.02,0.01 0.01,0 0.01,0 0.02,0 0.01,0.01 0.01,0 0.01,0 0.02,0.01 0.01,0 0.01,0.01 0.01,0.01 0.01,0.01 0.01,0 0.01,0.01 0,0.01 0,0 0.01,0.01 0,0 0,0.01 0.01,0.01 0,0 0,0.01 0.01,0.01 0,0 0,0.01 0,0.01 0,0 0,0.01 0,0.01 0.01,0.01 0,0.01 0,0.01 c 0,0.2 -0.19,0.2 -0.34,0.2 h -5.95 c -0.15,0 -0.34,0 -0.34,-0.2 0,-0.2 0.19,-0.2 0.33,-0.2 z"
   inkscape:connector-curvature="0"
   style="fill:#000000;stroke-width:0" />
<path
   id="path5411"
   d="m 247.04,710.31 0,0.15 0,0.15 0,0.15 -0.01,0.15 -0.01,0.14 -0.01,0.15 -0.02,0.15 -0.02,0.15 -0.02,0.14 -0.03,0.15 -0.03,0.14 -0.04,0.15 -0.04,0.14 -0.05,0.14 -0.05,0.14 -0.03,0.07 -0.04,0.07 c -0.45,0.95 -1.27,1.11 -1.69,1.11 -0.6,0 -1.33,-0.26 -1.74,-1.18 -0.31,-0.69 -0.36,-1.46 -0.36,-2.26 0,-0.75 0.04,-1.64 0.44,-2.4 0.43,-0.81 1.16,-1 1.65,-1 v 0.21 c -0.39,0 -0.98,0.25 -1.16,1.21 -0.11,0.6 -0.11,1.51 -0.11,2.1 0,0.64 0,1.29 0.08,1.83 0.19,1.19 0.94,1.27 1.19,1.27 0.33,0 0.99,-0.18 1.18,-1.16 0.1,-0.56 0.1,-1.31 0.1,-1.94 0,-0.75 0,-1.42 -0.11,-2.06 -0.15,-0.95 -0.72,-1.25 -1.17,-1.25 h 0 v -0.21 c 0.54,0 1.3,0.2 1.73,1.15 0.32,0.69 0.37,1.46 0.37,2.25 z"
   inkscape:connector-curvature="0"
   style="fill:#000000;stroke-width:0" />
</g>  <g
     id="g5697"
     transform="matrix(2,0,0,-2,2.759904,1472.7199)"
     xml:space="preserve"
     stroke-miterlimit="10.433"
     font-style="normal"
     font-variant="normal"
     font-weight="normal"
     font-stretch="normal"
     font-size-adjust="none"
     letter-spacing="normal"
     word-spacing="normal"
     ns0:text="$h=2.5$"
     ns0:preamble=""
     style="font-style:normal;font-variant:normal;font-weight:normal;font-stretch:normal;letter-spacing:normal;word-spacing:normal;text-anchor:start;fill:none;stroke:#000000;stroke-linecap:butt;stroke-linejoin:miter;stroke-miterlimit:10.43299961;stroke-opacity:1;stroke-dasharray:none;stroke-dashoffset:0">
<path
   style="fill:#000000;stroke-width:0"
   inkscape:connector-curvature="0"
   d="m 226.29,713.92 0,0 0,0 0,0.01 0,0 0,0 0,0 0,0.01 0,0 0,0 0,0.01 0,0 0,0.01 0,0 -0.01,0.01 0,0 0,0.01 0,0 -0.01,0.01 0,0 0,0.01 -0.01,0 0,0 0,0 -0.01,0.01 0,0 0,0 -0.01,0 0,0 0,0.01 -0.01,0 0,0 0,0 -0.01,0 0,0 -0.01,0.01 0,0 0,0 -0.01,0 0,0 -0.01,0 0,0 -0.01,0 -0.01,0 0,0 -0.01,0 c -0.23,0 -0.95,-0.08 -1.21,-0.1 -0.08,-0.01 -0.19,-0.02 -0.19,-0.2 0,-0.12 0.09,-0.12 0.24,-0.12 0.48,0 0.49,-0.07 0.49,-0.16 l -0.02,-0.2 -1.45,-5.74 c -0.04,-0.14 -0.04,-0.16 -0.04,-0.22 0,-0.22 0.2,-0.27 0.29,-0.27 0.16,0 0.32,0.12 0.37,0.25 l 0.19,0.76 0.22,0.9 c 0.06,0.22 0.12,0.43 0.17,0.66 0.02,0.06 0.1,0.39 0.11,0.45 0.03,0.09 0.33,0.65 0.67,0.92 0.22,0.16 0.53,0.34 0.96,0.34 0.43,0 0.54,-0.33 0.54,-0.69 0,-0.54 -0.38,-1.62 -0.62,-2.23 -0.08,-0.23 -0.13,-0.35 -0.13,-0.55 0,-0.47 0.35,-0.81 0.82,-0.81 0.94,0 1.31,1.45 1.31,1.53 0,0.1 -0.09,0.1 -0.12,0.1 -0.11,0 -0.11,-0.03 -0.15,-0.18 -0.15,-0.53 -0.47,-1.24 -1.02,-1.24 -0.17,0 -0.24,0.1 -0.24,0.33 0,0.25 0.09,0.49 0.18,0.71 0.16,0.43 0.61,1.61 0.61,2.19 0,0.65 -0.4,1.06 -1.15,1.06 -0.63,0 -1.11,-0.3 -1.48,-0.76 z"
   id="path5699" />
<path
   style="fill:#000000;stroke-width:0"
   inkscape:connector-curvature="0"
   d="m 238.79,710.38 0.03,0 0.02,0 0.03,0 0.02,0 0.01,0 0.02,0 0.01,0.01 0.02,0 0.01,0 0.01,0 0.02,0.01 0.01,0 0.01,0 0.01,0.01 0.02,0 0.01,0.01 0.01,0.01 0.01,0.01 0.01,0 0.01,0.01 0,0.01 0.01,0.01 0,0 0,0.01 0.01,0.01 0,0 0,0.01 0.01,0.01 0,0 0,0.01 0,0.01 0,0 0,0.01 0,0.01 0.01,0.01 0,0.01 0,0.01 c 0,0.2 -0.19,0.2 -0.33,0.2 h -5.97 c -0.14,0 -0.33,0 -0.33,-0.2 0,-0.2 0.19,-0.2 0.34,-0.2 z"
   id="path5701" />
<path
   style="fill:#000000;stroke-width:0"
   inkscape:connector-curvature="0"
   d="m 238.8,708.45 0.02,0 0.03,0 0.03,0 0.01,0 0.02,0 0.01,0 0.02,0.01 0.01,0 0.01,0 0.02,0 0.01,0.01 0.01,0 0.01,0 0.02,0.01 0.01,0 0.01,0.01 0.01,0.01 0.01,0.01 0.01,0 0.01,0.01 0,0.01 0,0 0.01,0.01 0,0 0,0.01 0.01,0.01 0,0 0,0.01 0.01,0.01 0,0 0,0.01 0,0.01 0,0 0,0.01 0,0.01 0.01,0.01 0,0.01 0,0.01 c 0,0.2 -0.19,0.2 -0.34,0.2 h -5.95 c -0.15,0 -0.34,0 -0.34,-0.2 0,-0.2 0.19,-0.2 0.33,-0.2 z"
   id="path5703" />
<path
   style="fill:#000000;stroke-width:0"
   inkscape:connector-curvature="0"
   d="m 243.72,707.89 1.06,1.03 c 1.56,1.37 2.15,1.91 2.15,2.9 0,1.14 -0.89,1.93 -2.11,1.93 -1.13,0 -1.86,-0.91 -1.86,-1.8 0,-0.55 0.49,-0.55 0.52,-0.55 0.17,0 0.52,0.11 0.52,0.52 0,0.26 -0.18,0.52 -0.53,0.52 -0.07,0 -0.09,0 -0.12,-0.01 0.22,0.65 0.76,1.02 1.34,1.02 0.91,0 1.34,-0.81 1.34,-1.63 0,-0.79 -0.5,-1.58 -1.05,-2.2 l -1.91,-2.13 c -0.11,-0.11 -0.11,-0.13 -0.11,-0.37 h 3.69 l 0.28,1.74 h -0.25 c -0.05,-0.3 -0.12,-0.74 -0.22,-0.89 -0.06,-0.08 -0.72,-0.08 -0.94,-0.08 z"
   id="path5705" />
<path
   style="fill:#000000;stroke-width:0"
   inkscape:connector-curvature="0"
   d="m 249.35,707.65 0,0.03 0,0.03 -0.01,0.02 0,0.03 -0.01,0.02 0,0.03 -0.01,0.02 -0.01,0.03 -0.01,0.02 -0.01,0.02 -0.02,0.02 -0.01,0.03 -0.01,0.02 -0.02,0.02 -0.02,0.02 -0.01,0.01 -0.02,0.02 -0.02,0.02 -0.02,0.01 -0.02,0.02 -0.02,0.01 -0.03,0.02 -0.02,0.01 -0.02,0.01 -0.03,0.01 -0.02,0.01 -0.03,0 -0.02,0.01 -0.03,0 -0.02,0.01 -0.03,0 -0.03,0 c -0.29,0 -0.53,-0.24 -0.53,-0.53 0,-0.29 0.24,-0.53 0.53,-0.53 0.29,0 0.53,0.24 0.53,0.53 z"
   id="path5707" />
<path
   style="fill:#000000;stroke-width:0"
   inkscape:connector-curvature="0"
   d="m 254.68,709.12 0,0.12 -0.01,0.1 -0.01,0.11 -0.02,0.11 -0.02,0.1 -0.02,0.11 -0.03,0.1 -0.03,0.1 -0.04,0.09 -0.04,0.1 -0.05,0.09 -0.05,0.09 -0.05,0.08 -0.05,0.08 -0.06,0.08 -0.06,0.08 -0.07,0.07 -0.07,0.07 -0.07,0.07 -0.07,0.06 -0.08,0.05 -0.08,0.06 -0.08,0.05 -0.08,0.04 -0.09,0.04 -0.09,0.04 -0.09,0.03 -0.09,0.02 -0.1,0.02 -0.1,0.01 -0.09,0.01 -0.1,0 c -0.48,0 -0.91,-0.15 -1.27,-0.5 v 1.94 c 0.2,-0.06 0.53,-0.13 0.85,-0.13 1.22,0 1.92,0.91 1.92,1.03 0,0.06 -0.03,0.11 -0.1,0.11 -0.01,0 -0.03,0 -0.08,-0.03 -0.2,-0.09 -0.69,-0.29 -1.35,-0.29 -0.4,0 -0.86,0.08 -1.33,0.28 -0.08,0.03 -0.1,0.03 -0.12,0.03 -0.1,0 -0.1,-0.08 -0.1,-0.23 v -2.95 c 0,-0.18 0,-0.26 0.14,-0.26 0.07,0 0.09,0.03 0.13,0.09 0.11,0.16 0.48,0.7 1.29,0.7 0.51,0 0.76,-0.46 0.84,-0.64 0.16,-0.37 0.18,-0.76 0.18,-1.25 0,-0.35 0,-0.95 -0.24,-1.37 -0.24,-0.39 -0.6,-0.65 -1.06,-0.65 -0.73,0 -1.3,0.53 -1.47,1.12 0.03,-0.01 0.06,-0.02 0.17,-0.02 0.33,0 0.5,0.25 0.5,0.49 0,0.24 -0.17,0.49 -0.5,0.49 -0.14,0 -0.49,-0.08 -0.49,-0.53 0,-0.86 0.69,-1.82 1.81,-1.82 1.15,0 2.17,0.95 2.17,2.21 z"
   id="path5709" />
</g>  <g
     style="font-style:normal;font-variant:normal;font-weight:normal;font-stretch:normal;letter-spacing:normal;word-spacing:normal;text-anchor:start;fill:none;stroke:#000000;stroke-linecap:butt;stroke-linejoin:miter;stroke-miterlimit:10.43299961;stroke-opacity:1;stroke-dasharray:none;stroke-dashoffset:0"
     ns0:preamble=""
     ns0:text="$h=3.46$"
     word-spacing="normal"
     letter-spacing="normal"
     font-size-adjust="none"
     font-stretch="normal"
     font-weight="normal"
     font-variant="normal"
     font-style="normal"
     stroke-miterlimit="10.433"
     xml:space="preserve"
     transform="matrix(2,0,0,-2,2.784976,1491.6194)"
     id="g6015">
<path
   id="path6017"
   d="m 226.29,713.92 0,0 0,0 0,0.01 0,0 0,0 0,0 0,0.01 0,0 0,0 0,0.01 0,0 0,0.01 0,0 -0.01,0.01 0,0 0,0.01 0,0 -0.01,0.01 0,0 0,0.01 -0.01,0 0,0 0,0 -0.01,0.01 0,0 0,0 -0.01,0 0,0 0,0.01 -0.01,0 0,0 0,0 -0.01,0 0,0 -0.01,0.01 0,0 0,0 -0.01,0 0,0 -0.01,0 0,0 -0.01,0 -0.01,0 0,0 -0.01,0 c -0.23,0 -0.95,-0.08 -1.21,-0.1 -0.08,-0.01 -0.19,-0.02 -0.19,-0.2 0,-0.12 0.09,-0.12 0.24,-0.12 0.48,0 0.49,-0.07 0.49,-0.16 l -0.02,-0.2 -1.45,-5.74 c -0.04,-0.14 -0.04,-0.16 -0.04,-0.22 0,-0.22 0.2,-0.27 0.29,-0.27 0.16,0 0.32,0.12 0.37,0.25 l 0.19,0.76 0.22,0.9 c 0.06,0.22 0.12,0.43 0.17,0.66 0.02,0.06 0.1,0.39 0.11,0.45 0.03,0.09 0.33,0.65 0.67,0.92 0.22,0.16 0.53,0.34 0.96,0.34 0.43,0 0.54,-0.33 0.54,-0.69 0,-0.54 -0.38,-1.62 -0.62,-2.23 -0.08,-0.23 -0.13,-0.35 -0.13,-0.55 0,-0.47 0.35,-0.81 0.82,-0.81 0.94,0 1.31,1.45 1.31,1.53 0,0.1 -0.09,0.1 -0.12,0.1 -0.11,0 -0.11,-0.03 -0.15,-0.18 -0.15,-0.53 -0.47,-1.24 -1.02,-1.24 -0.17,0 -0.24,0.1 -0.24,0.33 0,0.25 0.09,0.49 0.18,0.71 0.16,0.43 0.61,1.61 0.61,2.19 0,0.65 -0.4,1.06 -1.15,1.06 -0.63,0 -1.11,-0.3 -1.48,-0.76 z"
   inkscape:connector-curvature="0"
   style="fill:#000000;stroke-width:0" />
<path
   id="path6019"
   d="m 238.79,710.38 0.03,0 0.02,0 0.03,0 0.02,0 0.01,0 0.02,0 0.01,0.01 0.02,0 0.01,0 0.01,0 0.02,0.01 0.01,0 0.01,0 0.01,0.01 0.02,0 0.01,0.01 0.01,0.01 0.01,0.01 0.01,0 0.01,0.01 0,0.01 0.01,0.01 0,0 0,0.01 0.01,0.01 0,0 0,0.01 0.01,0.01 0,0 0,0.01 0,0.01 0,0 0,0.01 0,0.01 0.01,0.01 0,0.01 0,0.01 c 0,0.2 -0.19,0.2 -0.33,0.2 h -5.97 c -0.14,0 -0.33,0 -0.33,-0.2 0,-0.2 0.19,-0.2 0.34,-0.2 z"
   inkscape:connector-curvature="0"
   style="fill:#000000;stroke-width:0" />
<path
   id="path6021"
   d="m 238.8,708.45 0.02,0 0.03,0 0.03,0 0.01,0 0.02,0 0.01,0 0.02,0.01 0.01,0 0.01,0 0.02,0 0.01,0.01 0.01,0 0.01,0 0.02,0.01 0.01,0 0.01,0.01 0.01,0.01 0.01,0.01 0.01,0 0.01,0.01 0,0.01 0,0 0.01,0.01 0,0 0,0.01 0.01,0.01 0,0 0,0.01 0.01,0.01 0,0 0,0.01 0,0.01 0,0 0,0.01 0,0.01 0.01,0.01 0,0.01 0,0.01 c 0,0.2 -0.19,0.2 -0.34,0.2 h -5.95 c -0.15,0 -0.34,0 -0.34,-0.2 0,-0.2 0.19,-0.2 0.33,-0.2 z"
   inkscape:connector-curvature="0"
   style="fill:#000000;stroke-width:0" />
<path
   id="path6023"
   d="m 245.35,710.63 0.07,0.02 0.08,0.03 0.07,0.03 0.07,0.04 0.07,0.03 0.07,0.04 0.07,0.04 0.06,0.04 0.06,0.05 0.06,0.05 0.06,0.04 0.06,0.05 0.05,0.06 0.06,0.05 0.05,0.05 0.04,0.06 0.05,0.06 0.04,0.06 0.04,0.06 0.04,0.06 0.03,0.06 0.03,0.07 0.03,0.07 0.03,0.06 0.02,0.07 0.03,0.07 0.01,0.07 0.02,0.07 0.01,0.07 0.01,0.07 0,0.08 0,0.07 c 0,0.82 -0.87,1.37 -1.83,1.37 -1.01,0 -1.76,-0.59 -1.76,-1.35 0,-0.33 0.22,-0.52 0.5,-0.52 0.31,0 0.51,0.22 0.51,0.51 0,0.5 -0.47,0.5 -0.62,0.5 0.31,0.49 0.97,0.62 1.33,0.62 0.41,0 0.96,-0.22 0.96,-1.12 0,-0.12 -0.02,-0.7 -0.28,-1.13 -0.3,-0.48 -0.64,-0.51 -0.89,-0.52 -0.08,-0.01 -0.32,-0.03 -0.39,-0.03 -0.08,-0.01 -0.15,-0.02 -0.15,-0.12 0,-0.11 0.07,-0.11 0.24,-0.11 h 0.44 c 0.82,0 1.19,-0.68 1.19,-1.65 0,-1.36 -0.69,-1.65 -1.13,-1.65 -0.43,0 -1.18,0.17 -1.52,0.76 0.34,-0.05 0.65,0.17 0.65,0.55 0,0.36 -0.27,0.56 -0.56,0.56 -0.23,0 -0.55,-0.14 -0.55,-0.58 0,-0.91 0.92,-1.56 2.01,-1.56 1.22,0 2.12,0.9 2.12,1.92 0,0.81 -0.63,1.59 -1.66,1.8 z"
   inkscape:connector-curvature="0"
   style="fill:#000000;stroke-width:0" />
<path
   id="path6025"
   d="m 249.35,707.65 0,0.03 0,0.03 -0.01,0.02 0,0.03 -0.01,0.02 0,0.03 -0.01,0.02 -0.01,0.03 -0.01,0.02 -0.01,0.02 -0.02,0.02 -0.01,0.03 -0.01,0.02 -0.02,0.02 -0.02,0.02 -0.01,0.01 -0.02,0.02 -0.02,0.02 -0.02,0.01 -0.02,0.02 -0.02,0.01 -0.03,0.02 -0.02,0.01 -0.02,0.01 -0.03,0.01 -0.02,0.01 -0.03,0 -0.02,0.01 -0.03,0 -0.02,0.01 -0.03,0 -0.03,0 c -0.29,0 -0.53,-0.24 -0.53,-0.53 0,-0.29 0.24,-0.53 0.53,-0.53 0.29,0 0.53,0.24 0.53,0.53 z"
   inkscape:connector-curvature="0"
   style="fill:#000000;stroke-width:0" />
<path
   id="path6027"
   d="m 253.13,708.77 v -0.87 c 0,-0.36 -0.01,-0.47 -0.75,-0.47 h -0.21 v -0.31 c 0.41,0.04 0.93,0.04 1.34,0.04 0.42,0 0.95,0 1.36,-0.04 v 0.31 h -0.21 c -0.74,0 -0.76,0.11 -0.76,0.47 v 0.87 h 1 v 0.31 h -1 v 4.52 c 0,0.2 0,0.26 -0.16,0.26 -0.09,0 -0.12,0 -0.2,-0.12 l -3.06,-4.66 h 0.28 l 2.44,3.71 v -3.71 h -2.44 -0.28 v -0.31 z"
   inkscape:connector-curvature="0"
   style="fill:#000000;stroke-width:0" />
<path
   id="path6029"
   d="m 256.5,710.39 v 0.24 c 0,2.52 1.24,2.88 1.75,2.88 0.23,0 0.65,-0.06 0.87,-0.4 -0.15,0 -0.55,0 -0.55,-0.45 0,-0.31 0.24,-0.46 0.46,-0.46 0.16,0 0.46,0.09 0.46,0.48 0,0.6 -0.44,1.07 -1.26,1.07 -1.28,0 -2.63,-1.28 -2.63,-3.48 0,-2.66 1.16,-3.36 2.09,-3.36 1.1,0 2.05,0.93 2.05,2.25 0,1.26 -0.89,2.22 -1.99,2.22 l -0.01,-0.23 c 0.16,0 0.62,0 0.92,-0.62 0.18,-0.37 0.18,-0.88 0.18,-1.37 0,-0.47 0,-0.97 -0.17,-1.33 -0.29,-0.6 -0.75,-0.65 -0.98,-0.65 h 0 c -0.63,0 -0.93,0.6 -0.99,0.75 -0.18,0.47 -0.18,1.27 -0.18,1.44 0,0.78 0.32,1.78 1.22,1.78 l 0.01,0.23 c -0.68,0 -1.05,-0.51 -1.25,-0.99 z"
   inkscape:connector-curvature="0"
   style="fill:#000000;stroke-width:0" />
</g>  <g
     id="g6354"
     transform="matrix(2,0,0,-2,2.997703,1510.0405)"
     xml:space="preserve"
     stroke-miterlimit="10.433"
     font-style="normal"
     font-variant="normal"
     font-weight="normal"
     font-stretch="normal"
     font-size-adjust="none"
     letter-spacing="normal"
     word-spacing="normal"
     ns0:text="$h=4$"
     ns0:preamble=""
     style="font-style:normal;font-variant:normal;font-weight:normal;font-stretch:normal;letter-spacing:normal;word-spacing:normal;text-anchor:start;fill:none;stroke:#000000;stroke-linecap:butt;stroke-linejoin:miter;stroke-miterlimit:10.43299961;stroke-opacity:1;stroke-dasharray:none;stroke-dashoffset:0">
<path
   style="fill:#000000;stroke-width:0"
   inkscape:connector-curvature="0"
   d="m 226.29,713.92 0,0 0,0 0,0.01 0,0 0,0 0,0 0,0.01 0,0 0,0 0,0.01 0,0 0,0.01 0,0 -0.01,0.01 0,0 0,0.01 0,0 -0.01,0.01 0,0 0,0.01 -0.01,0 0,0 0,0 -0.01,0.01 0,0 0,0 -0.01,0 0,0 0,0.01 -0.01,0 0,0 0,0 -0.01,0 0,0 -0.01,0.01 0,0 0,0 -0.01,0 0,0 -0.01,0 0,0 -0.01,0 -0.01,0 0,0 -0.01,0 c -0.23,0 -0.95,-0.08 -1.21,-0.1 -0.08,-0.01 -0.19,-0.02 -0.19,-0.2 0,-0.12 0.09,-0.12 0.24,-0.12 0.48,0 0.49,-0.07 0.49,-0.16 l -0.02,-0.2 -1.45,-5.74 c -0.04,-0.14 -0.04,-0.16 -0.04,-0.22 0,-0.22 0.2,-0.27 0.29,-0.27 0.16,0 0.32,0.12 0.37,0.25 l 0.19,0.76 0.22,0.9 c 0.06,0.22 0.12,0.43 0.17,0.66 0.02,0.06 0.1,0.39 0.11,0.45 0.03,0.09 0.33,0.65 0.67,0.92 0.22,0.16 0.53,0.34 0.96,0.34 0.43,0 0.54,-0.33 0.54,-0.69 0,-0.54 -0.38,-1.62 -0.62,-2.23 -0.08,-0.23 -0.13,-0.35 -0.13,-0.55 0,-0.47 0.35,-0.81 0.82,-0.81 0.94,0 1.31,1.45 1.31,1.53 0,0.1 -0.09,0.1 -0.12,0.1 -0.11,0 -0.11,-0.03 -0.15,-0.18 -0.15,-0.53 -0.47,-1.24 -1.02,-1.24 -0.17,0 -0.24,0.1 -0.24,0.33 0,0.25 0.09,0.49 0.18,0.71 0.16,0.43 0.61,1.61 0.61,2.19 0,0.65 -0.4,1.06 -1.15,1.06 -0.63,0 -1.11,-0.3 -1.48,-0.76 z"
   id="path6356" />
<path
   style="fill:#000000;stroke-width:0"
   inkscape:connector-curvature="0"
   d="m 238.79,710.38 0.03,0 0.02,0 0.03,0 0.02,0 0.01,0 0.02,0 0.01,0.01 0.02,0 0.01,0 0.01,0 0.02,0.01 0.01,0 0.01,0 0.01,0.01 0.02,0 0.01,0.01 0.01,0.01 0.01,0.01 0.01,0 0.01,0.01 0,0.01 0.01,0.01 0,0 0,0.01 0.01,0.01 0,0 0,0.01 0.01,0.01 0,0 0,0.01 0,0.01 0,0 0,0.01 0,0.01 0.01,0.01 0,0.01 0,0.01 c 0,0.2 -0.19,0.2 -0.33,0.2 h -5.97 c -0.14,0 -0.33,0 -0.33,-0.2 0,-0.2 0.19,-0.2 0.34,-0.2 z"
   id="path6358" />
<path
   style="fill:#000000;stroke-width:0"
   inkscape:connector-curvature="0"
   d="m 238.8,708.45 0.02,0 0.03,0 0.03,0 0.01,0 0.02,0 0.01,0 0.02,0.01 0.01,0 0.01,0 0.02,0 0.01,0.01 0.01,0 0.01,0 0.02,0.01 0.01,0 0.01,0.01 0.01,0.01 0.01,0.01 0.01,0 0.01,0.01 0,0.01 0,0 0.01,0.01 0,0 0,0.01 0.01,0.01 0,0 0,0.01 0.01,0.01 0,0 0,0.01 0,0.01 0,0 0,0.01 0,0.01 0.01,0.01 0,0.01 0,0.01 c 0,0.2 -0.19,0.2 -0.34,0.2 h -5.95 c -0.15,0 -0.34,0 -0.34,-0.2 0,-0.2 0.19,-0.2 0.33,-0.2 z"
   id="path6360" />
<path
   style="fill:#000000;stroke-width:0"
   inkscape:connector-curvature="0"
   d="m 245.39,708.77 v -0.87 c 0,-0.36 -0.02,-0.47 -0.76,-0.47 h -0.21 v -0.31 c 0.41,0.04 0.93,0.04 1.35,0.04 0.42,0 0.94,0 1.35,-0.04 v 0.31 h -0.21 c -0.73,0 -0.75,0.11 -0.75,0.47 v 0.87 h 0.99 v 0.31 h -0.99 v 4.52 c 0,0.2 0,0.26 -0.16,0.26 -0.09,0 -0.12,0 -0.2,-0.12 l -3.06,-4.66 h 0.28 l 2.43,3.71 v -3.71 h -2.43 -0.28 v -0.31 z"
   id="path6362" />
</g>  <g
     style="font-style:normal;font-variant:normal;font-weight:normal;font-stretch:normal;letter-spacing:normal;word-spacing:normal;text-anchor:start;fill:none;stroke:#000000;stroke-linecap:butt;stroke-linejoin:miter;stroke-miterlimit:10.43299961;stroke-opacity:1;stroke-dasharray:none;stroke-dashoffset:0"
     ns0:preamble=""
     ns0:text="$h=5$"
     word-spacing="normal"
     letter-spacing="normal"
     font-size-adjust="none"
     font-stretch="normal"
     font-weight="normal"
     font-variant="normal"
     font-style="normal"
     stroke-miterlimit="10.433"
     xml:space="preserve"
     transform="matrix(2,0,0,-2,2.946559,1527.4615)"
     id="g6688">
<path
   id="path6690"
   d="m 226.29,713.92 0,0 0,0 0,0.01 0,0 0,0 0,0 0,0.01 0,0 0,0 0,0.01 0,0 0,0.01 0,0 -0.01,0.01 0,0 0,0.01 0,0 -0.01,0.01 0,0 0,0.01 -0.01,0 0,0 0,0 -0.01,0.01 0,0 0,0 -0.01,0 0,0 0,0.01 -0.01,0 0,0 0,0 -0.01,0 0,0 -0.01,0.01 0,0 0,0 -0.01,0 0,0 -0.01,0 0,0 -0.01,0 -0.01,0 0,0 -0.01,0 c -0.23,0 -0.95,-0.08 -1.21,-0.1 -0.08,-0.01 -0.19,-0.02 -0.19,-0.2 0,-0.12 0.09,-0.12 0.24,-0.12 0.48,0 0.49,-0.07 0.49,-0.16 l -0.02,-0.2 -1.45,-5.74 c -0.04,-0.14 -0.04,-0.16 -0.04,-0.22 0,-0.22 0.2,-0.27 0.29,-0.27 0.16,0 0.32,0.12 0.37,0.25 l 0.19,0.76 0.22,0.9 c 0.06,0.22 0.12,0.43 0.17,0.66 0.02,0.06 0.1,0.39 0.11,0.45 0.03,0.09 0.33,0.65 0.67,0.92 0.22,0.16 0.53,0.34 0.96,0.34 0.43,0 0.54,-0.33 0.54,-0.69 0,-0.54 -0.38,-1.62 -0.62,-2.23 -0.08,-0.23 -0.13,-0.35 -0.13,-0.55 0,-0.47 0.35,-0.81 0.82,-0.81 0.94,0 1.31,1.45 1.31,1.53 0,0.1 -0.09,0.1 -0.12,0.1 -0.11,0 -0.11,-0.03 -0.15,-0.18 -0.15,-0.53 -0.47,-1.24 -1.02,-1.24 -0.17,0 -0.24,0.1 -0.24,0.33 0,0.25 0.09,0.49 0.18,0.71 0.16,0.43 0.61,1.61 0.61,2.19 0,0.65 -0.4,1.06 -1.15,1.06 -0.63,0 -1.11,-0.3 -1.48,-0.76 z"
   inkscape:connector-curvature="0"
   style="fill:#000000;stroke-width:0" />
<path
   id="path6692"
   d="m 238.79,710.38 0.03,0 0.02,0 0.03,0 0.02,0 0.01,0 0.02,0 0.01,0.01 0.02,0 0.01,0 0.01,0 0.02,0.01 0.01,0 0.01,0 0.01,0.01 0.02,0 0.01,0.01 0.01,0.01 0.01,0.01 0.01,0 0.01,0.01 0,0.01 0.01,0.01 0,0 0,0.01 0.01,0.01 0,0 0,0.01 0.01,0.01 0,0 0,0.01 0,0.01 0,0 0,0.01 0,0.01 0.01,0.01 0,0.01 0,0.01 c 0,0.2 -0.19,0.2 -0.33,0.2 h -5.97 c -0.14,0 -0.33,0 -0.33,-0.2 0,-0.2 0.19,-0.2 0.34,-0.2 z"
   inkscape:connector-curvature="0"
   style="fill:#000000;stroke-width:0" />
<path
   id="path6694"
   d="m 238.8,708.45 0.02,0 0.03,0 0.03,0 0.01,0 0.02,0 0.01,0 0.02,0.01 0.01,0 0.01,0 0.02,0 0.01,0.01 0.01,0 0.01,0 0.02,0.01 0.01,0 0.01,0.01 0.01,0.01 0.01,0.01 0.01,0 0.01,0.01 0,0.01 0,0 0.01,0.01 0,0 0,0.01 0.01,0.01 0,0 0,0.01 0.01,0.01 0,0 0,0.01 0,0.01 0,0 0,0.01 0,0.01 0.01,0.01 0,0.01 0,0.01 c 0,0.2 -0.19,0.2 -0.34,0.2 h -5.95 c -0.15,0 -0.34,0 -0.34,-0.2 0,-0.2 0.19,-0.2 0.33,-0.2 z"
   inkscape:connector-curvature="0"
   style="fill:#000000;stroke-width:0" />
<path
   id="path6696"
   d="m 246.93,709.12 0,0.12 -0.01,0.1 -0.01,0.11 -0.01,0.11 -0.02,0.1 -0.03,0.11 -0.03,0.1 -0.03,0.1 -0.04,0.09 -0.04,0.1 -0.04,0.09 -0.05,0.09 -0.05,0.08 -0.06,0.08 -0.06,0.08 -0.06,0.08 -0.07,0.07 -0.06,0.07 -0.07,0.07 -0.08,0.06 -0.08,0.05 -0.07,0.06 -0.09,0.05 -0.08,0.04 -0.09,0.04 -0.09,0.04 -0.09,0.03 -0.09,0.02 -0.1,0.02 -0.09,0.01 -0.1,0.01 -0.1,0 c -0.48,0 -0.91,-0.15 -1.27,-0.5 v 1.94 c 0.2,-0.06 0.53,-0.13 0.85,-0.13 1.23,0 1.92,0.91 1.92,1.03 0,0.06 -0.03,0.11 -0.09,0.11 -0.02,0 -0.04,0 -0.08,-0.03 -0.2,-0.09 -0.69,-0.29 -1.36,-0.29 -0.4,0 -0.86,0.08 -1.33,0.28 -0.08,0.03 -0.1,0.03 -0.12,0.03 -0.1,0 -0.1,-0.08 -0.1,-0.23 v -2.95 c 0,-0.18 0,-0.26 0.14,-0.26 0.07,0 0.09,0.03 0.13,0.09 0.11,0.16 0.48,0.7 1.29,0.7 0.52,0 0.77,-0.46 0.85,-0.64 0.16,-0.37 0.18,-0.76 0.18,-1.25 0,-0.35 0,-0.95 -0.24,-1.37 -0.24,-0.39 -0.61,-0.65 -1.07,-0.65 -0.73,0 -1.3,0.53 -1.47,1.12 0.03,-0.01 0.07,-0.02 0.17,-0.02 0.33,0 0.5,0.25 0.5,0.49 0,0.24 -0.17,0.49 -0.5,0.49 -0.14,0 -0.48,-0.08 -0.48,-0.53 0,-0.86 0.68,-1.82 1.8,-1.82 1.16,0 2.17,0.95 2.17,2.21 z"
   inkscape:connector-curvature="0"
   style="fill:#000000;stroke-width:0" />
</g></svg>
