<?xml version="1.0" encoding="UTF-8" standalone="no"?>
<!-- Created with Inkscape (http://www.inkscape.org/) -->

<svg
   xmlns:ns0="http://www.iki.fi/pav/software/textext/"
   xmlns:dc="http://purl.org/dc/elements/1.1/"
   xmlns:cc="http://creativecommons.org/ns#"
   xmlns:rdf="http://www.w3.org/1999/02/22-rdf-syntax-ns#"
   xmlns:svg="http://www.w3.org/2000/svg"
   xmlns="http://www.w3.org/2000/svg"
   xmlns:sodipodi="http://sodipodi.sourceforge.net/DTD/sodipodi-0.dtd"
   xmlns:inkscape="http://www.inkscape.org/namespaces/inkscape"
   width="297mm"
   height="210mm"
   id="svg8385"
   version="1.1"
   inkscape:version="0.48.1 r9760"
   sodipodi:docname="fuente.svg">
  <sodipodi:namedview
     inkscape:document-units="mm"
     pagecolor="#ffffff"
     bordercolor="#666666"
     borderopacity="1.0"
     inkscape:pageopacity="0.0"
     inkscape:pageshadow="2"
     inkscape:zoom="0.84532276"
     inkscape:cx="454.78506"
     inkscape:cy="372.04724"
     inkscape:current-layer="layer1"
     id="namedview8389"
     showgrid="false"
     inkscape:window-width="1438"
     inkscape:window-height="847"
     inkscape:window-x="0"
     inkscape:window-y="0"
     inkscape:window-maximized="1" />
  <defs
     id="defs8387">
    <marker
       inkscape:stockid="Arrow2Lend"
       orient="auto"
       refY="0.0"
       refX="0.0"
       id="Arrow2Lend"
       style="overflow:visible;">
      <path
         id="path4270"
         style="font-size:12.0;fill-rule:evenodd;stroke-width:0.62500000;stroke-linejoin:round;"
         d="M 8.7185878,4.0337352 L -2.2072895,0.016013256 L 8.7185884,-4.0017078 C 6.9730900,-1.6296469 6.9831476,1.6157441 8.7185878,4.0337352 z "
         transform="scale(1.1) rotate(180) translate(1,0)" />
    </marker>
    <marker
       inkscape:stockid="Arrow1Lend"
       orient="auto"
       refY="0"
       refX="0"
       id="Arrow1Lend"
       style="overflow:visible">
      <path
         id="path3700"
         d="M 0,0 5,-5 -12.5,0 5,5 0,0 z"
         style="fill-rule:evenodd;stroke:#000000;stroke-width:1pt;marker-start:none"
         transform="matrix(-0.8,0,0,-0.8,-10,0)"
         inkscape:connector-curvature="0" />
    </marker>
    <marker
       inkscape:stockid="Arrow1Lend"
       orient="auto"
       refY="0"
       refX="0"
       id="marker8316"
       style="overflow:visible">
      <path
         id="path8318"
         d="M 0,0 5,-5 -12.5,0 5,5 0,0 z"
         style="fill-rule:evenodd;stroke:#000000;stroke-width:1pt;marker-start:none"
         transform="matrix(-0.8,0,0,-0.8,-10,0)"
         inkscape:connector-curvature="0" />
    </marker>
    <marker
       inkscape:stockid="Arrow1Lend"
       orient="auto"
       refY="0"
       refX="0"
       id="marker8320"
       style="overflow:visible">
      <path
         id="path8322"
         d="M 0,0 5,-5 -12.5,0 5,5 0,0 z"
         style="fill-rule:evenodd;stroke:#000000;stroke-width:1pt;marker-start:none"
         transform="matrix(-0.8,0,0,-0.8,-10,0)"
         inkscape:connector-curvature="0" />
    </marker>
    <marker
       inkscape:stockid="Arrow1Mend"
       orient="auto"
       refY="0"
       refX="0"
       id="Arrow1Mend"
       style="overflow:visible">
      <path
         id="path3674"
         d="M 0,0 5,-5 -12.5,0 5,5 0,0 z"
         style="fill-rule:evenodd;stroke:#000000;stroke-width:1pt;marker-start:none"
         transform="matrix(-0.4,0,0,-0.4,-4,0)"
         inkscape:connector-curvature="0" />
    </marker>
    <marker
       inkscape:stockid="Arrow2Mend"
       orient="auto"
       refY="0"
       refX="0"
       id="Arrow2Mend"
       style="overflow:visible">
      <path
         id="path3724"
         style="font-size:12px;fill-rule:evenodd;stroke-width:0.625;stroke-linejoin:round"
         d="M 8.7185878,4.0337352 -2.2072895,0.01601326 8.7185884,-4.0017078 c -1.7454984,2.3720609 -1.7354408,5.6174519 -6e-7,8.035443 z"
         transform="scale(-0.6,-0.6)"
         inkscape:connector-curvature="0" />
    </marker>
    <marker
       inkscape:stockid="Arrow2Mend"
       orient="auto"
       refY="0"
       refX="0"
       id="marker8328"
       style="overflow:visible">
      <path
         id="path8330"
         style="font-size:12px;fill-rule:evenodd;stroke-width:0.625;stroke-linejoin:round"
         d="M 8.7185878,4.0337352 -2.2072895,0.01601326 8.7185884,-4.0017078 c -1.7454984,2.3720609 -1.7354408,5.6174519 -6e-7,8.035443 z"
         transform="scale(-0.6,-0.6)"
         inkscape:connector-curvature="0" />
    </marker>
    <marker
       inkscape:stockid="Arrow2Mend"
       orient="auto"
       refY="0"
       refX="0"
       id="Arrow2Mend-8"
       style="overflow:visible">
      <path
         id="path3724-4"
         style="font-size:12px;fill-rule:evenodd;stroke-width:0.625;stroke-linejoin:round"
         d="M 8.7185878,4.0337352 -2.2072895,0.01601326 8.7185884,-4.0017078 c -1.7454984,2.3720609 -1.7354408,5.6174519 -6e-7,8.035443 z"
         transform="scale(-0.6,-0.6)"
         inkscape:connector-curvature="0" />
    </marker>
  </defs>
  <metadata
     id="metadata8391">
    <rdf:RDF>
      <cc:Work
         rdf:about="">
        <dc:format>image/svg+xml</dc:format>
        <dc:type
           rdf:resource="http://purl.org/dc/dcmitype/StillImage" />
        <dc:title />
      </cc:Work>
    </rdf:RDF>
  </metadata>
  <g
     id="layer1"
     inkscape:groupmode="layer"
     inkscape:label="Layer 1">
    <path
       sodipodi:type="arc"
       style="fill:#00ffff;stroke:#000000;stroke-width:2.07599998;stroke-miterlimit:4;stroke-opacity:1;stroke-dasharray:none;stroke-dashoffset:0"
       id="path2977"
       sodipodi:cx="162.93279"
       sodipodi:cy="451.29083"
       sodipodi:rx="106.33988"
       sodipodi:ry="105.42709"
       d="m 269.27267,451.29083 a 106.33988,105.42709 0 1 1 -212.679767,0 106.33988,105.42709 0 1 1 212.679767,0 z"
       transform="matrix(1.9745404,0,0,1.9875217,202.61306,-446.4798)" />
    <path
       style="fill:none;stroke:#000000;stroke-width:1.98102045;stroke-linecap:butt;stroke-linejoin:miter;stroke-miterlimit:4;stroke-opacity:1;stroke-dasharray:1.98102046, 5.94306137;stroke-dashoffset:0"
       d="m 343.8927,344.59354 c 117.60422,-36.98078 236.26932,-34.55358 355.57033,-8.33836"
       id="path5957"
       sodipodi:nodetypes="cc"
       inkscape:connector-curvature="0" />
    <path
       inkscape:connector-curvature="0"
       style="fill:none;stroke:#000000;stroke-width:1.66320157000000002;stroke-linecap:butt;stroke-linejoin:miter;stroke-miterlimit:4;stroke-opacity:1;stroke-dasharray:none;marker-start:none;marker-end:url(#Arrow2Lend)"
       d="M 514.97595,467.13237 894.08522,463.1867"
       id="path2411" />
    <path
       inkscape:connector-curvature="0"
       style="fill:none;stroke:#000000;stroke-width:1.79951298000000004;stroke-linecap:butt;stroke-linejoin:miter;stroke-miterlimit:4;stroke-opacity:1;stroke-dasharray:none;marker-end:url(#Arrow2Lend)"
       d="M 519.66513,466.61712 515.80354,39.154699"
       id="path6037"
       sodipodi:nodetypes="cc" />
    <path
       inkscape:connector-curvature="0"
       style="fill:none;stroke:#000000;stroke-width:1.50272858000000009;stroke-linecap:butt;stroke-linejoin:miter;stroke-miterlimit:4;stroke-opacity:1;stroke-dasharray:none;marker-end:url(#Arrow2Lend)"
       d="M 516.20678,465.7616 253.3255,655.23433"
       id="path7606"
       sodipodi:nodetypes="cc" />
    <text
       transform="scale(0.99672894,1.0032818)"
       xml:space="preserve"
       style="font-size:79.24082184px;font-style:normal;font-weight:normal;fill:#000000;fill-opacity:1;stroke:none;font-family:Bitstream Vera Sans"
       x="411.9021"
       y="246.73582"
       id="text20980"><tspan
         sodipodi:role="line"
         id="tspan20982"
         x="411.9021"
         y="246.73582" /></text>
    <path
       inkscape:connector-curvature="0"
       style="fill:none;stroke:#000000;stroke-width:1.98102045px;stroke-linecap:butt;stroke-linejoin:miter;stroke-opacity:1"
       d="m 732.50048,465.89114 c -134.00159,64.63725 -269.40274,77.25803 -417.80082,1.81419"
       id="path2979"
       sodipodi:nodetypes="cc" />
    <path
       style="fill:none;stroke:#000000;stroke-width:1.98102045;stroke-linecap:butt;stroke-linejoin:miter;stroke-miterlimit:4;stroke-opacity:1;stroke-dasharray:1.98102046, 5.94306137;stroke-dashoffset:0"
       d="M 732.50048,464.07695 C 590.92854,421.17592 451.13132,414.00226 314.35804,467.70533"
       id="path2981"
       sodipodi:nodetypes="cc"
       inkscape:connector-curvature="0" />
    <text
       transform="scale(0.99672894,1.0032818)"
       xml:space="preserve"
       style="font-size:79.24082184px;font-style:normal;font-weight:normal;fill:#000000;fill-opacity:1;stroke:none;font-family:Bitstream Vera Sans"
       x="338.89694"
       y="82.825783"
       id="text3777"><tspan
         sodipodi:role="line"
         id="tspan3779"
         x="338.89694"
         y="82.825783" /></text>
    <path
       style="fill:none;stroke:#000000;stroke-width:1.98102045px;stroke-linecap:butt;stroke-linejoin:miter;stroke-opacity:1"
       d="m 341.39311,344.34059 c 127.47296,54.36057 243.69638,34.45051 356.86296,-7.25676"
       id="path5396"
       sodipodi:nodetypes="cc"
       inkscape:connector-curvature="0" />
    <path
       style="fill:none;stroke:#000000;stroke-width:1.98102045px;stroke-linecap:butt;stroke-linejoin:miter;stroke-opacity:1"
       d="m 431.82945,360.62885 12.10723,12.82824 -14.65612,7.69694"
       id="path5402"
       inkscape:connector-curvature="0" />
    <path
       style="fill:none;stroke:#000000;stroke-width:1.98102045px;stroke-linecap:butt;stroke-linejoin:miter;stroke-opacity:1"
       d="m 503.83563,508.15363 11.47001,10.904 -12.10723,12.82824"
       id="path5404"
       inkscape:connector-curvature="0" />
    <path
       inkscape:connector-curvature="0"
       style="fill:none;stroke:#000000;stroke-width:1.98102045px;stroke-linecap:butt;stroke-linejoin:miter;stroke-opacity:1"
       d="m 351.53939,568.44637 c 142.4248,70.72827 232.19707,49.47584 347.28641,0"
       id="path5406"
       sodipodi:nodetypes="cc" />
    <path
       style="fill:none;stroke:#000000;stroke-width:1.98102045;stroke-linecap:butt;stroke-linejoin:miter;stroke-miterlimit:4;stroke-opacity:1;stroke-dasharray:1.98102046, 5.94306137;stroke-dashoffset:0"
       d="m 696.27691,569.08778 c -113.60011,-23.76573 -227.54081,-37.16775 -342.82585,0"
       id="path5408"
       sodipodi:nodetypes="cc"
       inkscape:connector-curvature="0" />
    <path
       style="fill:none;stroke:#000000;stroke-width:1.98102045px;stroke-linecap:butt;stroke-linejoin:miter;stroke-opacity:1"
       d="m 616.62407,587.68874 14.65612,7.05552 -10.19558,11.54542"
       id="path5412"
       sodipodi:nodetypes="ccc"
       inkscape:connector-curvature="0" />
    <path
       style="fill:none;stroke:#000000;stroke-width:1.98102045;stroke-linecap:butt;stroke-linejoin:miter;stroke-miterlimit:4;stroke-opacity:1;stroke-dasharray:none;stroke-dashoffset:0"
       d="m 433.1039,543.43128 -4.46055,7.69694 5.735,8.33837"
       id="path5414"
       inkscape:connector-curvature="0" />
    <path
       style="fill:none;stroke:#000000;stroke-width:1.98102045;stroke-linecap:butt;stroke-linejoin:miter;stroke-miterlimit:4;stroke-opacity:1;stroke-dasharray:none;stroke-dashoffset:0"
       d="m 464.63061,425.48723 -4.46056,6.41413 4.46056,7.05552"
       id="path5418"
       inkscape:connector-curvature="0" />
    <path
       style="fill:none;stroke:#000000;stroke-width:1.98102045px;stroke-linecap:butt;stroke-linejoin:miter;stroke-opacity:1"
       d="m 650.39686,319.57846 -9.55833,7.05554 7.00946,7.69694"
       id="path5959"
       inkscape:connector-curvature="0" />
    <path
       sodipodi:nodetypes="cc"
       style="fill:none;stroke:#ff0000;stroke-width:5.54685735999999974;stroke-linecap:butt;stroke-linejoin:miter;stroke-miterlimit:4;stroke-opacity:1;stroke-dasharray:none;marker-start:none;marker-end:url(#Arrow2Mend)"
       d="m 647.79061,353.41152 91.34935,-29.65821"
       id="path10045"
       inkscape:connector-curvature="0" />
    <path
       style="fill:#fffa06;fill-opacity:1;fill-rule:evenodd;stroke:#d8206c;stroke-width:1.98102045px;stroke-linecap:butt;stroke-linejoin:miter;stroke-opacity:1"
       d="M 514.41757,465.89114 418.89365,268.14471"
       id="path2444"
       inkscape:connector-curvature="0" />
    <g
       ns0:preamble=""
       ns0:text="$x$"
       word-spacing="normal"
       letter-spacing="normal"
       font-size-adjust="none"
       font-stretch="normal"
       font-weight="normal"
       font-variant="normal"
       font-style="normal"
       stroke-miterlimit="10.433"
       xml:space="preserve"
       transform="matrix(3.9490809,0,0,-3.9750435,-585.40076,3469.1091)"
       id="content"
       style="font-style:normal;font-variant:normal;font-weight:normal;font-stretch:normal;letter-spacing:normal;word-spacing:normal;text-anchor:start;fill:none;stroke:#000000;stroke-linecap:butt;stroke-linejoin:miter;stroke-miterlimit:10.43299961;stroke-opacity:1;stroke-dasharray:none;stroke-dashoffset:0">
<path
   id="path3281"
   d="m 226.76,710.13 0.01,0.03 0,0.03 0.01,0.03 0.01,0.04 0.01,0.03 0.01,0.05 0.02,0.04 0.01,0.04 0.02,0.05 0.01,0.05 0.02,0.05 0.02,0.05 0.03,0.05 0.02,0.05 0.03,0.05 0.02,0.05 0.03,0.04 0.03,0.05 0.04,0.05 0.03,0.04 0.04,0.05 0.04,0.04 0.04,0.03 0.05,0.04 0.04,0.03 0.05,0.03 0.03,0.01 0.02,0.02 0.03,0.01 0.03,0.01 0.02,0.01 0.03,0 0.03,0.01 0.03,0.01 0.03,0 0.03,0 0.03,0.01 0.04,0 c 0.05,0 0.29,0 0.49,-0.13 -0.28,-0.05 -0.47,-0.3 -0.47,-0.54 0,-0.16 0.11,-0.35 0.38,-0.35 0.21,0 0.53,0.18 0.53,0.58 0,0.52 -0.58,0.66 -0.92,0.66 -0.58,0 -0.93,-0.53 -1.05,-0.76 -0.25,0.66 -0.79,0.76 -1.08,0.76 -1.03,0 -1.6,-1.29 -1.6,-1.54 0,-0.1 0.1,-0.1 0.12,-0.1 0.08,0 0.11,0.02 0.13,0.11 0.34,1.06 1,1.31 1.33,1.31 0.19,0 0.54,-0.09 0.54,-0.67 0,-0.31 -0.17,-0.98 -0.54,-2.37 -0.15,-0.62 -0.5,-1.04 -0.94,-1.04 -0.06,0 -0.29,0 -0.5,0.13 0.25,0.05 0.47,0.26 0.47,0.54 0,0.27 -0.22,0.35 -0.37,0.35 -0.3,0 -0.55,-0.26 -0.55,-0.58 0,-0.46 0.5,-0.66 0.94,-0.66 0.66,0 1.01,0.7 1.04,0.76 0.12,-0.37 0.48,-0.76 1.08,-0.76 1.03,0 1.59,1.29 1.59,1.54 0,0.1 -0.09,0.1 -0.12,0.1 -0.09,0 -0.1,-0.04 -0.13,-0.11 -0.32,-1.07 -1,-1.31 -1.32,-1.31 -0.39,0 -0.55,0.32 -0.55,0.66 0,0.22 0.06,0.44 0.17,0.88 z"
   inkscape:connector-curvature="0"
   style="fill:#000000;stroke-width:0" />
</g>    <g
       id="g3452"
       transform="matrix(3.9490809,0,0,-3.9750435,-28.097377,3314.0545)"
       xml:space="preserve"
       stroke-miterlimit="10.433"
       font-style="normal"
       font-variant="normal"
       font-weight="normal"
       font-stretch="normal"
       font-size-adjust="none"
       letter-spacing="normal"
       word-spacing="normal"
       ns0:text="$y$"
       ns0:preamble=""
       style="font-style:normal;font-variant:normal;font-weight:normal;font-stretch:normal;letter-spacing:normal;word-spacing:normal;text-anchor:start;fill:none;stroke:#000000;stroke-linecap:butt;stroke-linejoin:miter;stroke-miterlimit:10.43299961;stroke-opacity:1;stroke-dasharray:none;stroke-dashoffset:0">
<path
   style="fill:#000000;stroke-width:0"
   inkscape:connector-curvature="0"
   d="m 228.27,710.92 0.01,0 0,0.01 0,0.01 0,0 0,0.01 0.01,0.02 0,0.01 0,0.01 0,0 0.01,0.01 0,0.01 0,0.01 0,0.01 0,0 0.01,0.01 0,0.01 0,0 0,0.01 0,0 0,0.01 0,0.01 0,0 0,0.01 0,0.01 0,0.01 0,0.01 0,0.01 0,0 0,0.01 0,0.01 c 0,0.18 -0.13,0.27 -0.29,0.27 -0.09,0 -0.25,-0.06 -0.34,-0.21 -0.02,-0.05 -0.1,-0.36 -0.14,-0.54 -0.07,-0.26 -0.14,-0.53 -0.2,-0.8 l -0.45,-1.79 c -0.04,-0.15 -0.47,-0.85 -1.13,-0.85 -0.5,0 -0.61,0.44 -0.61,0.81 0,0.46 0.17,1.07 0.5,1.95 0.16,0.41 0.2,0.52 0.2,0.72 0,0.45 -0.31,0.82 -0.81,0.82 -0.95,0 -1.32,-1.45 -1.32,-1.54 0,-0.1 0.1,-0.1 0.12,-0.1 0.1,0 0.11,0.02 0.16,0.18 0.27,0.94 0.67,1.24 1.01,1.24 0.08,0 0.25,0 0.25,-0.32 0,-0.25 -0.1,-0.51 -0.17,-0.7 -0.4,-1.06 -0.58,-1.62 -0.58,-2.09 0,-0.89 0.63,-1.19 1.21,-1.19 0.39,0 0.73,0.17 1.01,0.45 -0.13,-0.52 -0.25,-1 -0.65,-1.53 -0.26,-0.34 -0.63,-0.63 -1.09,-0.63 -0.14,0 -0.59,0.03 -0.76,0.42 0.16,0 0.29,0 0.43,0.12 0.1,0.09 0.2,0.22 0.2,0.41 0,0.3 -0.27,0.34 -0.37,0.34 -0.23,0 -0.56,-0.16 -0.56,-0.64 0,-0.5 0.44,-0.87 1.06,-0.87 1.02,0 2.05,0.91 2.33,2.03 z"
   id="path3454" />
</g>    <g
       style="font-style:normal;font-variant:normal;font-weight:normal;font-stretch:normal;letter-spacing:normal;word-spacing:normal;text-anchor:start;fill:none;stroke:#000000;stroke-linecap:butt;stroke-linejoin:miter;stroke-miterlimit:10.43299961;stroke-opacity:1;stroke-dasharray:none;stroke-dashoffset:0"
       ns0:preamble=""
       ns0:text="$z$"
       word-spacing="normal"
       letter-spacing="normal"
       font-size-adjust="none"
       font-stretch="normal"
       font-weight="normal"
       font-variant="normal"
       font-style="normal"
       stroke-miterlimit="10.433"
       xml:space="preserve"
       transform="matrix(3.9490809,0,0,-3.9750435,-350.50305,2880.0454)"
       id="g3613">
<path
   id="path3615"
   d="m 224.76,707.95 0.05,0.05 0.05,0.05 0.04,0.05 0.05,0.05 0.04,0.05 0.05,0.04 0.04,0.05 0.04,0.04 0.04,0.04 0.04,0.04 0.04,0.03 0.03,0.04 0.04,0.04 0.04,0.03 0.07,0.07 0.07,0.06 0.06,0.06 0.07,0.06 0.06,0.06 0.13,0.11 0.07,0.06 0.06,0.06 c 0,0 0.62,0.53 0.98,0.89 0.95,0.93 1.17,1.41 1.17,1.45 0,0.1 -0.1,0.1 -0.11,0.1 -0.07,0 -0.1,-0.02 -0.15,-0.11 -0.3,-0.48 -0.51,-0.64 -0.75,-0.64 -0.24,0 -0.36,0.15 -0.51,0.32 -0.19,0.23 -0.36,0.43 -0.69,0.43 -0.74,0 -1.2,-0.93 -1.2,-1.14 0,-0.05 0.03,-0.11 0.12,-0.11 0.09,0 0.11,0.05 0.13,0.11 0.19,0.46 0.76,0.47 0.84,0.47 0.21,0 0.4,-0.07 0.63,-0.15 0.4,-0.15 0.51,-0.15 0.77,-0.15 -0.36,-0.43 -1.2,-1.15 -1.39,-1.3 -0.49,-0.45 -0.5,-0.46 -0.89,-0.84 -0.68,-0.67 -1.03,-1.24 -1.03,-1.31 0,-0.1 0.1,-0.1 0.12,-0.1 0.08,0 0.1,0.02 0.16,0.13 0.23,0.35 0.53,0.62 0.85,0.62 0.23,0 0.33,-0.09 0.57,-0.38 0.17,-0.21 0.35,-0.37 0.64,-0.37 0.99,0 1.57,1.27 1.57,1.54 0,0.05 -0.04,0.1 -0.12,0.1 -0.09,0 -0.11,-0.06 -0.14,-0.13 -0.23,-0.65 -0.87,-0.84 -1.2,-0.84 -0.2,0 -0.38,0.06 -0.59,0.13 -0.34,0.13 -0.48,0.17 -0.69,0.17 -0.02,0 -0.18,0 -0.27,-0.03 z"
   inkscape:connector-curvature="0"
   style="fill:#000000;stroke-width:0" />
</g>    <g
       style="font-style:normal;font-variant:normal;font-weight:normal;font-stretch:normal;letter-spacing:normal;word-spacing:normal;text-anchor:start;fill:none;stroke:#000000;stroke-linecap:butt;stroke-linejoin:miter;stroke-miterlimit:10.43299961;stroke-opacity:1;stroke-dasharray:none;stroke-dashoffset:0"
       id="g3786"
       transform="matrix(5.9236213,0,0,-5.9625652,-775.64487,4399.8643)"
       xml:space="preserve"
       stroke-miterlimit="10.433"
       font-style="normal"
       font-variant="normal"
       font-weight="normal"
       font-stretch="normal"
       font-size-adjust="none"
       letter-spacing="normal"
       word-spacing="normal"
       ns0:text="$\\hat{\\omega}$"
       ns0:preamble="">
<polygon
   style="fill:#000000;stroke-width:0"
   points="227.86,712.5 228.04,712.68 226.71,714.04 225.38,712.68 225.55,712.5 226.71,713.52 "
   id="polygon3788" />
<path
   style="fill:#000000;stroke-width:0"
   inkscape:connector-curvature="0"
   d="m 226.06,707.94 0.01,-0.06 0.01,-0.05 0.01,-0.06 0.02,-0.05 0.01,-0.05 0.02,-0.05 0.02,-0.05 0.02,-0.04 0.02,-0.04 0.02,-0.04 0.02,-0.04 0.02,-0.04 0.03,-0.03 0.03,-0.04 0.02,-0.03 0.03,-0.03 0.03,-0.03 0.04,-0.02 0.03,-0.03 0.03,-0.02 0.04,-0.02 0.03,-0.02 0.04,-0.02 0.04,-0.01 0.04,-0.01 0.04,-0.02 0.04,0 0.05,-0.01 0.04,-0.01 0.05,0 0.04,-0.01 0.05,0 c 0.59,0 1.12,0.38 1.52,0.93 0.75,1.04 0.94,2.54 0.94,2.88 0,0.71 -0.37,0.71 -0.43,0.71 -0.25,0 -0.5,-0.26 -0.5,-0.48 0,-0.13 0.06,-0.19 0.15,-0.27 0.32,-0.33 0.35,-0.65 0.35,-0.87 0,-0.84 -0.85,-2.18 -1.89,-2.18 -0.09,0 -0.37,0 -0.55,0.23 -0.12,0.16 -0.2,0.35 -0.2,0.55 0,0.03 0,0.05 0.06,0.16 0.19,0.44 0.33,0.99 0.33,1.12 0,0.12 -0.07,0.23 -0.21,0.23 -0.11,0 -0.2,-0.09 -0.28,-0.25 -0.02,-0.05 -0.14,-0.49 -0.21,-1 -0.02,-0.18 -0.02,-0.2 -0.09,-0.27 -0.44,-0.61 -0.89,-0.77 -1.23,-0.77 -0.66,0 -0.88,0.55 -0.88,1.14 0,0.74 0.37,1.57 0.84,2.24 0.1,0.14 0.1,0.16 0.1,0.19 0,0.08 -0.06,0.12 -0.12,0.12 -0.16,0 -0.62,-0.88 -0.76,-1.2 -0.37,-0.89 -0.38,-1.7 -0.38,-1.79 0,-0.8 0.3,-1.42 1.06,-1.42 0.65,0 1.12,0.46 1.44,0.93 z"
   id="path3790" />
</g>    <g
       style="font-style:normal;font-variant:normal;font-weight:normal;font-stretch:normal;letter-spacing:normal;word-spacing:normal;text-anchor:start;fill:#ff0000;stroke:#000000;stroke-linecap:butt;stroke-linejoin:miter;stroke-miterlimit:10.43299960999999954;stroke-opacity:1;stroke-dasharray:none;stroke-dashoffset:0"
       ns0:preamble=""
       ns0:text="$\\vec{v}(\\vec{x})$"
       word-spacing="normal"
       letter-spacing="normal"
       font-size-adjust="none"
       font-stretch="normal"
       font-weight="normal"
       font-variant="normal"
       font-style="normal"
       stroke-miterlimit="10.433"
       xml:space="preserve"
       transform="matrix(5.9236213,0,0,-5.9625652,-611.79877,4516.0564)"
       id="g3956">
<path
   style="fill:#ff0000;stroke-width:0"
   inkscape:connector-curvature="0"
   id="path3958"
   d="m 228.39,713.05 -0.01,-0.01 -0.02,-0.02 -0.01,-0.01 -0.02,-0.01 -0.02,-0.02 -0.01,-0.02 -0.02,-0.01 -0.02,-0.02 -0.02,-0.02 -0.02,-0.02 -0.04,-0.04 -0.04,-0.03 -0.03,-0.04 -0.02,-0.03 -0.02,-0.02 -0.02,-0.02 -0.01,-0.02 -0.02,-0.02 -0.02,-0.02 -0.01,-0.02 -0.01,-0.02 -0.01,-0.02 -0.01,-0.02 -0.01,-0.02 -0.01,-0.02 -0.01,-0.01 0,-0.02 -0.01,-0.02 0,-0.02 c 0,-0.1 0.1,-0.2 0.2,-0.2 0.09,0 0.14,0.07 0.19,0.13 0.12,0.15 0.35,0.43 0.79,0.65 0.07,0.04 0.17,0.09 0.17,0.21 0,0.1 -0.07,0.15 -0.14,0.2 -0.22,0.15 -0.33,0.33 -0.41,0.57 -0.02,0.09 -0.06,0.22 -0.2,0.22 -0.14,0 -0.2,-0.13 -0.2,-0.21 0,-0.05 0.08,-0.37 0.24,-0.58 h -3.36 c -0.16,0 -0.34,0 -0.34,-0.2 0,-0.2 0.18,-0.2 0.34,-0.2 z" />
<path
   style="fill:#ff0000;stroke-width:0"
   inkscape:connector-curvature="0"
   id="path3960"
   d="m 228.1,710.83 -0.01,0.02 0,0.03 0,0.02 0,0.03 0,0.02 0,0.02 0,0.02 -0.01,0.02 0,0.04 -0.01,0.04 -0.01,0.04 -0.01,0.03 -0.01,0.04 -0.01,0.03 -0.01,0.03 -0.02,0.03 -0.01,0.02 -0.02,0.03 -0.01,0.02 -0.02,0.02 -0.01,0.02 -0.02,0.02 -0.02,0.01 -0.02,0.02 -0.01,0.01 -0.02,0.01 -0.02,0.01 -0.02,0.01 -0.02,0.01 -0.02,0.01 -0.01,0 -0.02,0.01 -0.02,0 -0.02,0 -0.02,0.01 -0.01,0 c -0.25,0 -0.49,-0.26 -0.49,-0.48 0,-0.13 0.05,-0.19 0.16,-0.3 0.21,-0.2 0.34,-0.46 0.34,-0.82 0,-0.42 -0.61,-2.7 -1.78,-2.7 -0.51,0 -0.73,0.35 -0.73,0.87 0,0.56 0.27,1.28 0.57,2.11 0.07,0.17 0.12,0.31 0.12,0.5 0,0.45 -0.31,0.82 -0.81,0.82 -0.94,0 -1.32,-1.45 -1.32,-1.54 0,-0.1 0.1,-0.1 0.12,-0.1 0.1,0 0.11,0.02 0.16,0.18 0.29,1.01 0.72,1.24 1.01,1.24 0.08,0 0.25,0 0.25,-0.32 0,-0.25 -0.1,-0.52 -0.17,-0.7 -0.44,-1.15 -0.57,-1.61 -0.57,-2.04 0,-1.08 0.88,-1.24 1.33,-1.24 1.68,0 2.25,3.3 2.25,3.82 z" />
<path
   style="fill:#ff0000;stroke-width:0"
   inkscape:connector-curvature="0"
   id="path3962"
   d="m 231.92,704.73 0,0.01 0,0 0,0.01 0,0 0,0 0,0 0,0.01 -0.01,0 0,0.01 0,0 0,0 0,0.01 -0.01,0 0,0.01 -0.01,0 0,0.01 -0.01,0.01 0,0 0,0.01 -0.01,0 0,0.01 0,0 -0.01,0.01 0,0 -0.01,0 0,0.01 -0.01,0 0,0.01 -0.01,0 0,0.01 -0.01,0.01 0,0 -0.01,0.01 0,0 -0.01,0.01 -0.01,0.01 0,0 -0.01,0.01 -0.01,0.01 0,0.01 -0.01,0 -0.01,0.01 c -1.24,1.26 -1.56,3.14 -1.56,4.66 0,1.74 0.38,3.47 1.6,4.72 0.13,0.12 0.13,0.14 0.13,0.16 0,0.08 -0.04,0.1 -0.1,0.1 -0.1,0 -1,-0.67 -1.58,-1.94 -0.51,-1.09 -0.63,-2.2 -0.63,-3.04 0,-0.77 0.11,-1.98 0.66,-3.1 0.59,-1.23 1.45,-1.88 1.55,-1.88 0.06,0 0.1,0.03 0.1,0.1 z" />
<path
   style="fill:#ff0000;stroke-width:0"
   inkscape:connector-curvature="0"
   id="path3964"
   d="m 237.71,713.05 -0.02,-0.01 -0.01,-0.02 -0.02,-0.01 -0.01,-0.01 -0.02,-0.02 -0.02,-0.02 -0.02,-0.01 -0.01,-0.02 -0.02,-0.02 -0.02,-0.02 -0.04,-0.04 -0.04,-0.03 -0.04,-0.04 -0.02,-0.03 -0.02,-0.02 -0.01,-0.02 -0.02,-0.02 -0.02,-0.02 -0.01,-0.02 -0.01,-0.02 -0.02,-0.02 -0.01,-0.02 -0.01,-0.02 -0.01,-0.02 -0.01,-0.02 0,-0.01 -0.01,-0.02 0,-0.02 0,-0.02 c 0,-0.1 0.1,-0.2 0.2,-0.2 0.09,0 0.14,0.07 0.19,0.13 0.12,0.15 0.35,0.43 0.78,0.65 0.08,0.04 0.17,0.09 0.17,0.21 0,0.1 -0.07,0.15 -0.13,0.2 -0.22,0.15 -0.33,0.33 -0.41,0.57 -0.02,0.09 -0.06,0.22 -0.2,0.22 -0.14,0 -0.2,-0.13 -0.2,-0.21 0,-0.05 0.08,-0.37 0.24,-0.58 h -3.36 c -0.17,0 -0.35,0 -0.35,-0.2 0,-0.2 0.18,-0.2 0.35,-0.2 z" />
<path
   style="fill:#ff0000;stroke-width:0"
   inkscape:connector-curvature="0"
   id="path3966"
   d="m 235.82,710.13 0.01,0.03 0,0.03 0.01,0.03 0.01,0.04 0.01,0.03 0.01,0.05 0.02,0.04 0.01,0.04 0.02,0.05 0.01,0.05 0.02,0.05 0.02,0.05 0.03,0.05 0.02,0.05 0.03,0.05 0.02,0.05 0.03,0.04 0.03,0.05 0.04,0.05 0.03,0.04 0.04,0.05 0.04,0.04 0.04,0.03 0.05,0.04 0.04,0.03 0.05,0.03 0.03,0.01 0.02,0.02 0.03,0.01 0.03,0.01 0.02,0.01 0.03,0 0.03,0.01 0.03,0.01 0.03,0 0.03,0 0.03,0.01 0.04,0 c 0.05,0 0.29,0 0.49,-0.13 -0.28,-0.05 -0.47,-0.3 -0.47,-0.54 0,-0.16 0.11,-0.35 0.38,-0.35 0.21,0 0.53,0.18 0.53,0.58 0,0.52 -0.59,0.66 -0.92,0.66 -0.58,0 -0.93,-0.53 -1.05,-0.76 -0.25,0.66 -0.79,0.76 -1.08,0.76 -1.03,0 -1.6,-1.29 -1.6,-1.54 0,-0.1 0.1,-0.1 0.12,-0.1 0.08,0 0.11,0.02 0.13,0.11 0.34,1.06 1,1.31 1.33,1.31 0.19,0 0.54,-0.09 0.54,-0.67 0,-0.31 -0.17,-0.98 -0.54,-2.37 -0.16,-0.62 -0.5,-1.04 -0.94,-1.04 -0.06,0 -0.29,0 -0.5,0.13 0.25,0.05 0.47,0.26 0.47,0.54 0,0.27 -0.22,0.35 -0.37,0.35 -0.3,0 -0.55,-0.26 -0.55,-0.58 0,-0.46 0.5,-0.66 0.94,-0.66 0.66,0 1.01,0.7 1.04,0.76 0.12,-0.37 0.48,-0.76 1.08,-0.76 1.03,0 1.59,1.29 1.59,1.54 0,0.1 -0.09,0.1 -0.12,0.1 -0.08,0 -0.1,-0.04 -0.13,-0.11 -0.32,-1.07 -1,-1.31 -1.32,-1.31 -0.39,0 -0.55,0.32 -0.55,0.66 0,0.22 0.06,0.44 0.17,0.88 z" />
<path
   style="fill:#ff0000;stroke-width:0"
   inkscape:connector-curvature="0"
   id="path3968"
   d="m 241.06,709.61 0,0.08 0,0.07 0,0.08 0,0.08 -0.01,0.17 -0.01,0.18 -0.02,0.18 -0.02,0.19 -0.03,0.2 -0.03,0.2 -0.04,0.2 -0.04,0.21 -0.06,0.21 -0.06,0.21 -0.07,0.21 -0.08,0.22 -0.04,0.1 -0.05,0.11 -0.04,0.11 -0.05,0.1 c -0.6,1.23 -1.46,1.87 -1.56,1.87 -0.06,0 -0.1,-0.04 -0.1,-0.1 0,-0.02 0,-0.04 0.19,-0.22 0.98,-0.99 1.55,-2.57 1.55,-4.66 0,-1.7 -0.37,-3.45 -1.61,-4.71 -0.13,-0.12 -0.13,-0.14 -0.13,-0.17 0,-0.06 0.04,-0.1 0.1,-0.1 0.1,0 1,0.68 1.59,1.95 0.51,1.09 0.62,2.2 0.62,3.03 z" />
</g>    <g
       id="g4144"
       transform="matrix(5.9236213,0,0,-5.9625652,-724.9154,4646.4646)"
       xml:space="preserve"
       stroke-miterlimit="10.433"
       font-style="normal"
       font-variant="normal"
       font-weight="normal"
       font-stretch="normal"
       font-size-adjust="none"
       letter-spacing="normal"
       word-spacing="normal"
       ns0:text="$\\vec{x}$"
       ns0:preamble=""
       style="font-style:normal;font-variant:normal;font-weight:normal;font-stretch:normal;letter-spacing:normal;word-spacing:normal;text-anchor:start;fill:#000080;stroke:#000000;stroke-linecap:butt;stroke-linejoin:miter;stroke-miterlimit:10.43299961;stroke-opacity:1;stroke-dasharray:none;stroke-dashoffset:0">
<path
   style="fill:#000080;stroke-width:0"
   inkscape:connector-curvature="0"
   d="m 228.65,713.05 -0.02,-0.01 -0.01,-0.02 -0.02,-0.01 -0.01,-0.01 -0.02,-0.02 -0.02,-0.02 -0.02,-0.01 -0.01,-0.02 -0.02,-0.02 -0.02,-0.02 -0.04,-0.04 -0.04,-0.03 -0.04,-0.04 -0.02,-0.03 -0.02,-0.02 -0.01,-0.02 -0.02,-0.02 -0.02,-0.02 -0.01,-0.02 -0.01,-0.02 -0.02,-0.02 -0.01,-0.02 -0.01,-0.02 -0.01,-0.02 -0.01,-0.02 0,-0.01 -0.01,-0.02 0,-0.02 0,-0.02 c 0,-0.1 0.1,-0.2 0.2,-0.2 0.09,0 0.14,0.07 0.19,0.13 0.12,0.15 0.35,0.43 0.78,0.65 0.08,0.04 0.17,0.09 0.17,0.21 0,0.1 -0.07,0.15 -0.14,0.2 -0.22,0.15 -0.32,0.33 -0.4,0.57 -0.02,0.09 -0.06,0.22 -0.2,0.22 -0.14,0 -0.2,-0.13 -0.2,-0.21 0,-0.05 0.08,-0.37 0.24,-0.58 h -3.36 c -0.17,0 -0.35,0 -0.35,-0.2 0,-0.2 0.18,-0.2 0.35,-0.2 z"
   id="path4146" />
<path
   style="fill:#000080;stroke-width:0"
   inkscape:connector-curvature="0"
   d="m 226.75,710.13 0.01,0.03 0.01,0.03 0,0.03 0.01,0.04 0.01,0.03 0.02,0.05 0.01,0.04 0.01,0.04 0.02,0.05 0.02,0.05 0.02,0.05 0.02,0.05 0.02,0.05 0.02,0.05 0.03,0.05 0.03,0.05 0.03,0.04 0.03,0.05 0.03,0.05 0.04,0.04 0.03,0.05 0.04,0.04 0.04,0.03 0.05,0.04 0.05,0.03 0.04,0.03 0.03,0.01 0.03,0.02 0.02,0.01 0.03,0.01 0.03,0.01 0.02,0 0.03,0.01 0.03,0.01 0.03,0 0.03,0 0.04,0.01 0.03,0 c 0.05,0 0.29,0 0.5,-0.13 -0.28,-0.05 -0.48,-0.3 -0.48,-0.54 0,-0.16 0.11,-0.35 0.38,-0.35 0.22,0 0.54,0.18 0.54,0.58 0,0.52 -0.59,0.66 -0.93,0.66 -0.58,0 -0.93,-0.53 -1.05,-0.76 -0.25,0.66 -0.78,0.76 -1.07,0.76 -1.04,0 -1.61,-1.29 -1.61,-1.54 0,-0.1 0.1,-0.1 0.12,-0.1 0.08,0 0.11,0.02 0.13,0.11 0.34,1.06 1,1.31 1.34,1.31 0.19,0 0.54,-0.09 0.54,-0.67 0,-0.31 -0.17,-0.98 -0.54,-2.37 -0.16,-0.62 -0.51,-1.04 -0.95,-1.04 -0.06,0 -0.29,0 -0.5,0.13 0.25,0.05 0.47,0.26 0.47,0.54 0,0.27 -0.22,0.35 -0.37,0.35 -0.3,0 -0.55,-0.26 -0.55,-0.58 0,-0.46 0.5,-0.66 0.94,-0.66 0.66,0 1.02,0.7 1.05,0.76 0.12,-0.37 0.48,-0.76 1.07,-0.76 1.03,0 1.6,1.29 1.6,1.54 0,0.1 -0.09,0.1 -0.12,0.1 -0.09,0 -0.11,-0.04 -0.13,-0.11 -0.33,-1.07 -1.01,-1.31 -1.33,-1.31 -0.39,0 -0.55,0.32 -0.55,0.66 0,0.22 0.06,0.44 0.17,0.88 z"
   id="path4148" />
</g>    <path
       sodipodi:nodetypes="cc"
       inkscape:connector-curvature="0"
       id="path6735"
       d="M 517.05668,464.21864 C 620.35431,375.99009 645.01869,353.14971 645.01869,353.14971"
       style="fill:#0000ff;stroke:#000080;stroke-width:5.54685736;stroke-linecap:butt;stroke-linejoin:miter;stroke-miterlimit:4;stroke-opacity:1;stroke-dasharray:none;marker-end:url(#Arrow2Mend)" />
    <path
       style="fill:none;stroke:#fd0000;stroke-width:6.43464567000000010;stroke-linecap:butt;stroke-linejoin:miter;stroke-miterlimit:4;stroke-opacity:1;stroke-dasharray:none;marker-end:url(#Arrow2Mend-8)"
       d="m 516.44357,467.85809 0,-331.54977"
       id="path8088"
       inkscape:connector-curvature="0" />
    <path
       style="fill:none;stroke:#280b0b;stroke-width:5.54685736;stroke-linecap:butt;stroke-linejoin:miter;stroke-miterlimit:4;stroke-opacity:1;stroke-dasharray:none;marker-end:none"
       d="m 489.82206,205.49077 c -19.96002,30.07858 71.99907,29.68608 53.01434,-0.64141"
       id="path6011"
       sodipodi:nodetypes="cc"
       inkscape:connector-curvature="0" />
    <g
       style="font-style:normal;font-variant:normal;font-weight:normal;font-stretch:normal;letter-spacing:normal;word-spacing:normal;text-anchor:start;fill:none;stroke:#000000;stroke-linecap:butt;stroke-linejoin:miter;stroke-miterlimit:10.43299961;stroke-opacity:1;stroke-dasharray:none;stroke-dashoffset:0"
       ns0:preamble=""
       ns0:text="$R$"
       word-spacing="normal"
       letter-spacing="normal"
       font-size-adjust="none"
       font-stretch="normal"
       font-weight="normal"
       font-variant="normal"
       font-style="normal"
       stroke-miterlimit="10.433"
       xml:space="preserve"
       transform="matrix(3.9490809,0,0,-3.9750435,-413.45012,3173.0594)"
       id="g8046">
<path
   id="path8048"
   d="m 228.6,710.51 0.1,0.02 0.09,0.03 0.1,0.02 0.1,0.03 0.09,0.04 0.1,0.03 0.09,0.04 0.1,0.04 0.09,0.04 0.1,0.05 0.09,0.05 0.09,0.05 0.09,0.05 0.08,0.06 0.09,0.06 0.08,0.06 0.07,0.06 0.08,0.06 0.07,0.07 0.07,0.07 0.06,0.07 0.06,0.07 0.05,0.08 0.05,0.08 0.05,0.08 0.04,0.08 0.03,0.08 0.03,0.09 0.02,0.09 0.02,0.09 0.01,0.09 0,0.09 c 0,0.86 -0.89,1.5 -2.2,1.5 h -2.84 c -0.2,0 -0.29,0 -0.29,-0.2 0,-0.11 0.09,-0.11 0.28,-0.11 0.02,0 0.21,0 0.38,-0.02 0.18,-0.02 0.27,-0.03 0.27,-0.16 0,-0.04 -0.01,-0.07 -0.04,-0.19 l -1.33,-5.35 c -0.1,-0.39 -0.12,-0.47 -0.91,-0.47 -0.18,0 -0.27,0 -0.27,-0.2 0,-0.11 0.12,-0.11 0.14,-0.11 0.28,0 0.98,0.03 1.26,0.03 0.27,0 0.98,-0.03 1.26,-0.03 0.08,0 0.2,0 0.2,0.2 0,0.11 -0.09,0.11 -0.28,0.11 -0.37,0 -0.65,0 -0.65,0.18 0,0.06 0.02,0.11 0.03,0.17 l 0.66,2.64 h 1.19 l -0.01,0.22 h -1.12 l 0.65,2.6 c 0.06,0.24 0.09,0.34 0.28,0.37 0.09,0.01 0.41,0.01 0.6,0.01 0.71,0 1.82,0 1.82,-0.99 0,-0.34 -0.16,-1.02 -0.55,-1.41 -0.26,-0.26 -0.79,-0.58 -1.68,-0.58 l 0.01,-0.22 c 0.9,0 1.08,-0.56 1.08,-0.91 0,-0.15 -0.08,-0.46 -0.14,-0.68 -0.07,-0.28 -0.16,-0.65 -0.16,-0.85 0,-1.08 1.2,-1.08 1.33,-1.08 0.85,0 1.19,1.01 1.19,1.15 0,0.12 -0.1,0.12 -0.11,0.12 -0.1,0 -0.11,-0.07 -0.13,-0.14 -0.25,-0.74 -0.68,-0.91 -0.91,-0.91 -0.33,0 -0.4,0.22 -0.4,0.61 0,0.31 0.06,0.82 0.1,1.14 0.02,0.14 0.04,0.33 0.04,0.46 0,0.77 -0.67,1.08 -0.94,1.18 z"
   inkscape:connector-curvature="0"
   style="fill:#000000;stroke-width:0" />
</g>    <g
       style="font-style:normal;font-variant:normal;font-weight:normal;font-stretch:normal;letter-spacing:normal;word-spacing:normal;text-anchor:start;fill:none;stroke:#000000;stroke-linecap:butt;stroke-linejoin:miter;stroke-miterlimit:10.43299961;stroke-opacity:1;stroke-dasharray:none;stroke-dashoffset:0"
       ns0:preamble=""
       ns0:text="$\\rho(r)$"
       text-anchor="start"
       word-spacing="normal"
       letter-spacing="normal"
       font-size-adjust="none"
       font-stretch="normal"
       font-weight="normal"
       font-variant="normal"
       font-style="normal"
       fill-opacity="1"
       fill-rule="evenodd"
       fill="none"
       stroke-opacity="1"
       stroke-dashoffset="0"
       stroke-dasharray="none"
       stroke-miterlimit="10.433"
       stroke-linejoin="miter"
       stroke-linecap="butt"
       stroke="black"
       xml:space="preserve"
       transform="matrix(3.6514331,0,0,-3.6690309,-448.2836,3071.4572)"
       id="g3111">
<path
   id="path3113"
   fill="black"
   stroke-width="0"
   d="M223.76,705.4 L223.76,705.39 L223.76,705.39 L223.76,705.38 L223.76,705.38 L223.75,705.37 L223.75,705.37 L223.75,705.36 L223.75,705.36 L223.75,705.35 L223.75,705.35 L223.75,705.35 L223.75,705.34 L223.75,705.34 L223.75,705.33 L223.74,705.33 L223.74,705.32 L223.74,705.31 L223.74,705.31 L223.74,705.3 L223.74,705.3 L223.74,705.29 L223.74,705.29 L223.73,705.28 L223.73,705.28 L223.73,705.27 L223.73,705.27 L223.73,705.27 L223.73,705.26 L223.73,705.26 L223.73,705.26 L223.73,705.26 L223.73,705.25 L223.73,705.25 L223.73,705.25 L223.73,705.24 L223.73,705.24 C223.73,705.09,223.84,704.97,224.01,704.97 C224.22,704.97,224.34,705.15,224.36,705.18 C224.41,705.27,224.73,706.6,225,707.68 C225.2,707.28,225.51,707.01,225.98,707.01 L225.97,707.23 C225.28,707.23,225.12,708.03,225.12,708.12 C225.12,708.16,225.17,708.36,225.2,708.49 C225.48,709.6,225.57,709.96,225.79,710.36 C226.22,711.09,226.72,711.31,227.03,711.31 C227.4,711.31,227.72,711.02,227.72,710.33 C227.72,709.78,227.43,708.67,227.16,708.18 C226.83,707.55,226.35,707.23,225.97,707.23 H225.97 L225.98,707.01 C227.15,707.01,228.43,708.42,228.43,709.9 C228.43,710.96,227.78,711.53,227.05,711.53 C226.08,711.53,225.04,710.53,224.74,709.31 Z " />
<path
   id="path3115"
   fill="black"
   stroke-width="0"
   d="M231.88,704.73 L231.88,704.74 L231.88,704.74 L231.88,704.75 L231.88,704.75 L231.88,704.75 L231.88,704.75 L231.88,704.76 L231.88,704.76 L231.88,704.77 L231.87,704.77 L231.87,704.77 L231.87,704.78 L231.87,704.78 L231.86,704.79 L231.86,704.79 L231.85,704.8 L231.85,704.81 L231.84,704.81 L231.84,704.82 L231.83,704.82 L231.83,704.83 L231.83,704.83 L231.82,704.84 L231.82,704.84 L231.82,704.84 L231.81,704.85 L231.81,704.85 L231.8,704.86 L231.8,704.86 L231.79,704.87 L231.79,704.88 L231.78,704.88 L231.78,704.89 L231.77,704.89 L231.76,704.9 L231.76,704.91 L231.75,704.91 L231.74,704.92 L231.74,704.93 L231.73,704.94 L231.72,704.94 L231.71,704.95 C230.47,706.21,230.15,708.09,230.15,709.61 C230.15,711.35,230.53,713.08,231.75,714.33 C231.88,714.45,231.88,714.47,231.88,714.49 C231.88,714.57,231.84,714.59,231.78,714.59 C231.68,714.59,230.79,713.92,230.2,712.65 C229.69,711.56,229.57,710.45,229.57,709.61 C229.57,708.84,229.68,707.63,230.23,706.51 C230.83,705.28,231.68,704.63,231.78,704.63 C231.84,704.63,231.88,704.66,231.88,704.73 Z " />
<path
   id="path3117"
   fill="black"
   stroke-width="0"
   d="M233.33,707.71 L233.33,707.7 L233.33,707.68 L233.32,707.67 L233.32,707.65 L233.31,707.62 L233.31,707.59 L233.3,707.55 L233.29,707.52 L233.28,707.49 L233.28,707.46 L233.27,707.44 L233.27,707.43 L233.27,707.41 L233.26,707.4 L233.26,707.39 L233.26,707.37 L233.25,707.36 L233.25,707.35 L233.25,707.34 L233.25,707.33 L233.25,707.32 L233.24,707.31 L233.24,707.3 L233.24,707.29 L233.24,707.29 L233.24,707.28 C233.24,707.1,233.38,707.01,233.53,707.01 C233.65,707.01,233.83,707.09,233.9,707.29 C233.92,707.33,234.26,708.69,234.3,708.87 C234.38,709.2,234.56,709.89,234.62,710.16 C234.66,710.29,234.94,710.76,235.18,710.98 C235.26,711.05,235.54,711.31,235.97,711.31 C236.23,711.31,236.38,711.19,236.39,711.19 C236.09,711.14,235.87,710.9,235.87,710.64 C235.87,710.48,235.98,710.29,236.25,710.29 C236.52,710.29,236.8,710.52,236.8,710.88 C236.8,711.23,236.48,711.53,235.97,711.53 C235.32,711.53,234.89,711.04,234.7,710.76 C234.62,711.21,234.26,711.53,233.79,711.53 C233.33,711.53,233.14,711.14,233.05,710.96 C232.87,710.62,232.74,710.02,232.74,709.99 C232.74,709.89,232.84,709.89,232.86,709.89 C232.96,709.89,232.97,709.9,233.03,710.12 C233.2,710.83,233.4,711.31,233.76,711.31 C233.93,711.31,234.07,711.23,234.07,710.85 C234.07,710.64,234.04,710.53,233.91,710.01 Z " />
<path
   id="path3119"
   fill="black"
   stroke-width="0"
   d="M240.11,709.61 L240.11,709.69 L240.11,709.76 L240.11,709.84 L240.11,709.92 L240.1,710.09 L240.09,710.27 L240.07,710.45 L240.05,710.64 L240.02,710.84 L239.99,711.04 L239.95,711.24 L239.9,711.45 L239.85,711.66 L239.79,711.87 L239.72,712.08 L239.64,712.3 L239.6,712.4 L239.55,712.51 L239.5,712.62 L239.45,712.72 C238.86,713.95,238,714.59,237.9,714.59 C237.84,714.59,237.8,714.55,237.8,714.49 C237.8,714.47,237.8,714.45,237.99,714.27 C238.97,713.28,239.53,711.7,239.53,709.61 C239.53,707.91,239.16,706.16,237.93,704.9 C237.8,704.78,237.8,704.76,237.8,704.73 C237.8,704.67,237.84,704.63,237.9,704.63 C238,704.63,238.9,705.31,239.48,706.58 C239.99,707.67,240.11,708.78,240.11,709.61 Z " />
</g>    <path
       sodipodi:nodetypes="cc"
       style="fill:none;stroke:#ff0000;stroke-width:4.42798662;stroke-linecap:butt;stroke-linejoin:miter;stroke-miterlimit:4;stroke-opacity:1;stroke-dasharray:none;marker-start:none;marker-end:url(#Arrow2Mend)"
       d="m 520.38682,227.4738 10.19626,-0.0694"
       id="path10045-3"
       inkscape:connector-curvature="0" />
  </g>
</svg>
