<?xml version="1.0" encoding="UTF-8" standalone="no"?>
<!-- Created with Inkscape (http://www.inkscape.org/) -->

<svg
   xmlns:ns0="http://www.iki.fi/pav/software/textext/"
   xmlns:dc="http://purl.org/dc/elements/1.1/"
   xmlns:cc="http://creativecommons.org/ns#"
   xmlns:rdf="http://www.w3.org/1999/02/22-rdf-syntax-ns#"
   xmlns:svg="http://www.w3.org/2000/svg"
   xmlns="http://www.w3.org/2000/svg"
   xmlns:sodipodi="http://sodipodi.sourceforge.net/DTD/sodipodi-0.dtd"
   xmlns:inkscape="http://www.inkscape.org/namespaces/inkscape"
   sodipodi:modified="true"
   inkscape:output_extension="org.inkscape.output.svg.inkscape"
   sodipodi:docname="Killing.svg"
   version="1.0"
   height="768"
   width="1024"
   inkscape:version="0.48.0 r9654"
   sodipodi:version="0.32"
   id="svg1974">
  <sodipodi:namedview
     inkscape:window-height="974"
     inkscape:window-width="1280"
     inkscape:pageshadow="2"
     inkscape:pageopacity="0.0"
     guidetolerance="10.0"
     gridtolerance="10.0"
     objecttolerance="10.0"
     borderopacity="1.0"
     bordercolor="#666666"
     pagecolor="#ffffff"
     id="base"
     showguides="false"
     inkscape:zoom="0.98177083"
     inkscape:cx="512"
     inkscape:cy="384"
     inkscape:window-x="0"
     inkscape:window-y="0"
     inkscape:current-layer="svg1974"
     showgrid="false"
     inkscape:window-maximized="1" />
  <metadata
     id="metadata1979">
    <rdf:RDF>
      <cc:Work
         rdf:about="">
        <dc:format>image/svg+xml</dc:format>
        <dc:type
           rdf:resource="http://purl.org/dc/dcmitype/StillImage" />
        <dc:title></dc:title>
      </cc:Work>
    </rdf:RDF>
  </metadata>
  <defs
     id="defs1977">
    <marker
       inkscape:stockid="Arrow2Mend"
       orient="auto"
       refY="0.0"
       refX="0.0"
       id="Arrow2Mend"
       style="overflow:visible;">
      <path
         id="path3395"
         style="font-size:12.0;fill-rule:evenodd;stroke-width:0.62500000;stroke-linejoin:round;"
         d="M 8.7185878,4.0337352 L -2.2072895,0.016013256 L 8.7185884,-4.0017078 C 6.9730900,-1.6296469 6.9831476,1.6157441 8.7185878,4.0337352 z "
         transform="scale(0.6) rotate(180) translate(0,0)" />
    </marker>
    <marker
       inkscape:stockid="Arrow2Lend"
       orient="auto"
       refY="0.0"
       refX="0.0"
       id="Arrow2Lend"
       style="overflow:visible;">
      <path
         id="path3389"
         style="font-size:12.0;fill-rule:evenodd;stroke-width:0.62500000;stroke-linejoin:round;"
         d="M 8.7185878,4.0337352 L -2.2072895,0.016013256 L 8.7185884,-4.0017078 C 6.9730900,-1.6296469 6.9831476,1.6157441 8.7185878,4.0337352 z "
         transform="scale(1.1) rotate(180) translate(1,0)" />
    </marker>
    <inkscape:perspective
       sodipodi:type="inkscape:persp3d"
       inkscape:vp_x="0 : 384 : 1"
       inkscape:vp_y="0 : 1000 : 0"
       inkscape:vp_z="1024 : 384 : 1"
       inkscape:persp3d-origin="512 : 256 : 1"
       id="perspective42" />
    <marker
       inkscape:stockid="Arrow2Mend"
       orient="auto"
       refY="0"
       refX="0"
       id="Arrow2Mend-3"
       style="overflow:visible">
      <path
         inkscape:connector-curvature="0"
         id="path3395-7"
         style="font-size:12px;fill-rule:evenodd;stroke-width:0.625;stroke-linejoin:round"
         d="M 8.7185878,4.0337352 -2.2072895,0.01601326 8.7185884,-4.0017078 c -1.7454984,2.3720609 -1.7354408,5.6174519 -6e-7,8.035443 z"
         transform="scale(-0.6,-0.6)" />
    </marker>
    <marker
       inkscape:stockid="Arrow2Mend"
       orient="auto"
       refY="0"
       refX="0"
       id="Arrow2Mend-1"
       style="overflow:visible">
      <path
         inkscape:connector-curvature="0"
         id="path3395-6"
         style="font-size:12px;fill-rule:evenodd;stroke-width:0.625;stroke-linejoin:round"
         d="M 8.7185878,4.0337352 -2.2072895,0.01601326 8.7185884,-4.0017078 c -1.7454984,2.3720609 -1.7354408,5.6174519 -6e-7,8.035443 z"
         transform="scale(-0.6,-0.6)" />
    </marker>
    <marker
       inkscape:stockid="Arrow2Mend"
       orient="auto"
       refY="0"
       refX="0"
       id="Arrow2Mend-6"
       style="overflow:visible">
      <path
         inkscape:connector-curvature="0"
         id="path3395-0"
         style="font-size:12px;fill-rule:evenodd;stroke-width:0.625;stroke-linejoin:round"
         d="M 8.7185878,4.0337352 -2.2072895,0.01601326 8.7185884,-4.0017078 c -1.7454984,2.3720609 -1.7354408,5.6174519 -6e-7,8.035443 z"
         transform="scale(-0.6,-0.6)" />
    </marker>
  </defs>
  <text
     xml:space="preserve"
     style="font-size:13.29090214px;font-style:normal;font-weight:normal;fill:#000000;fill-opacity:1;stroke:none;stroke-width:1px;stroke-linecap:butt;stroke-linejoin:miter;stroke-opacity:1;font-family:Bitstream Vera Sans"
     x="313.33624"
     y="364.66507"
     id="text2013"
     transform="scale(0.969553,1.0314031)"><tspan
       sodipodi:role="line"
       id="tspan2015"
       x="313.33624"
       y="364.66507" /></text>
  <path
     style="opacity:0.98418974;fill:#f50b0b;fill-opacity:0.96078431;fill-rule:nonzero;stroke:#f50e18;stroke-width:5;stroke-linecap:round;stroke-linejoin:miter;stroke-miterlimit:0.2;stroke-opacity:0.96078431;stroke-dasharray:none;marker-mid:none;marker-end:url(#Arrow2Mend)"
     d="M 368.4047,316.71906 C 525.32416,269.945 627.92534,239.76819 627.92534,239.76819"
     id="path2593"
     inkscape:connector-curvature="0"
     sodipodi:nodetypes="cc" />
  <path
     sodipodi:type="arc"
     id="path2030"
     sodipodi:cx="432.48462"
     sodipodi:cy="384.55664"
     sodipodi:rx="3.9496312"
     sodipodi:ry="3.6204953"
     d="m 436.43425,384.55664 a 3.9496312,3.6204953 0 1 1 -7.89926,0 3.9496312,3.6204953 0 1 1 7.89926,0 z"
     style="fill:#0000ff;fill-opacity:1"
     transform="matrix(3.2472215,0,0,3.4543694,-1042.7141,-1009.1615)" />
  <svg
     version="1.0"
     baseProfile="full"
     id="body"
     width="8in"
     height="8in"
     viewBox="0 0 1 1"
     preserveAspectRatio="none"
     sodipodi:version="0.32"
     inkscape:version="0.46"
     transform="scale(1.0771402e20,1.1458535e20)" />
  <svg
     preserveAspectRatio="none"
     viewBox="0 0 1 1"
     height="8in"
     width="8in"
     id="svg2526"
     baseProfile="full"
     version="1.0"
     sodipodi:version="0.32"
     inkscape:version="0.46"
     transform="scale(1.0771402e20,1.1458535e20)" />
  <path
     sodipodi:type="arc"
     id="path2030-2"
     sodipodi:cx="432.48462"
     sodipodi:cy="384.55664"
     sodipodi:rx="3.9496312"
     sodipodi:ry="3.6204953"
     d="m 436.43425,384.55664 a 3.9496312,3.6204953 0 1 1 -7.89926,0 3.9496312,3.6204953 0 1 1 7.89926,0 z"
     style="fill:#0000ff;fill-opacity:1"
     transform="matrix(3.2472215,0,0,3.4543694,-757.02408,-1092.4966)" />
  <g
     inkscape:groupmode="layer"
     id="layer1"
     inkscape:label="Capa" />
  <path
     style="opacity:0.98418974;fill:#ff0000;fill-opacity:0.96078431;fill-rule:nonzero;stroke:#f50e18;stroke-width:5;stroke-linecap:round;stroke-linejoin:miter;stroke-miterlimit:0.2;stroke-opacity:0.96078431;stroke-dasharray:none;marker-mid:none;marker-end:url(#Arrow2Mend)"
     d="M 330.26977,524.88813 C 487.18923,478.11407 589.79041,447.93726 589.79041,447.93726"
     id="path2593-0"
     inkscape:connector-curvature="0"
     sodipodi:nodetypes="cc" />
  <path
     sodipodi:type="arc"
     id="path2030-5"
     sodipodi:cx="432.48462"
     sodipodi:cy="384.55664"
     sodipodi:rx="3.9496312"
     sodipodi:ry="3.6204953"
     d="m 436.43425,384.55664 a 3.9496312,3.6204953 0 1 1 -7.89926,0 3.9496312,3.6204953 0 1 1 7.89926,0 z"
     style="fill:#0000ff;fill-opacity:1"
     transform="matrix(3.2472215,0,0,3.4543694,-1080.849,-800.99247)" />
  <path
     sodipodi:type="arc"
     id="path2030-2-6"
     sodipodi:cx="432.48462"
     sodipodi:cy="384.55664"
     sodipodi:rx="3.9496312"
     sodipodi:ry="3.6204953"
     d="m 436.43425,384.55664 a 3.9496312,3.6204953 0 1 1 -7.89926,0 3.9496312,3.6204953 0 1 1 7.89926,0 z"
     style="fill:#0000ff;fill-opacity:1"
     transform="matrix(3.2472215,0,0,3.4543694,-795.159,-884.32757)" />
  <path
     style="fill:#00ff00;fill-opacity:1;stroke:#0000ff;stroke-width:4.5999999;stroke-linecap:butt;stroke-linejoin:miter;stroke-miterlimit:4;stroke-opacity:1;stroke-dasharray:none"
     d="M 323.02947,526.58546 C 359.24165,318.36542 359.24165,318.36542 359.24165,318.36542"
     id="path3236"
     inkscape:connector-curvature="0" />
  <path
     style="fill:#00ff00;fill-opacity:1;stroke:#0101ff;stroke-width:4.5999999;stroke-linecap:butt;stroke-linejoin:miter;stroke-miterlimit:4;stroke-opacity:1;stroke-dasharray:none"
     d="M 609.70924,451.14342 C 645.92142,242.92338 645.92142,242.92338 645.92142,242.92338"
     id="path3236-6"
     inkscape:connector-curvature="0" />
  <g
     style="font-style:normal;font-variant:normal;font-weight:normal;font-stretch:normal;letter-spacing:normal;word-spacing:normal;text-anchor:start;fill:none;stroke:#000000;stroke-linecap:butt;stroke-linejoin:miter;stroke-miterlimit:10.43299961;stroke-opacity:1;stroke-dasharray:none;stroke-dashoffset:0"
     id="content"
     transform="matrix(4,0,0,-4,-623.92042,3382.9814)"
     xml:space="preserve"
     stroke-miterlimit="10.433"
     font-style="normal"
     font-variant="normal"
     font-weight="normal"
     font-stretch="normal"
     font-size-adjust="none"
     letter-spacing="normal"
     word-spacing="normal"
     ns0:text="$P$"
     ns0:preamble="">
<path
   style="fill:#000000;stroke-width:0"
   inkscape:connector-curvature="0"
   d="m 226.45,710.27 0.04,0.26 0.68,2.71 c 0.09,0.35 0.11,0.38 0.54,0.38 h 0.95 c 0.83,0 1.36,-0.27 1.36,-0.96 0,-0.39 -0.2,-1.24 -0.59,-1.6 -0.5,-0.45 -1.1,-0.53 -1.53,-0.53 h -1.41 l -0.04,-0.26 h 1.7 c 1.41,0 2.79,1.04 2.79,2.15 0,0.77 -0.65,1.51 -1.96,1.51 h -3.23 c -0.19,0 -0.29,0 -0.29,-0.19 0,-0.12 0.08,-0.12 0.28,-0.12 0.13,0 0.31,-0.01 0.43,-0.02 0.16,-0.02 0.22,-0.05 0.22,-0.16 0,-0.04 -0.01,-0.07 -0.04,-0.19 l -1.33,-5.35 c -0.1,-0.39 -0.12,-0.47 -0.91,-0.47 -0.17,0 -0.28,0 -0.28,-0.19 0,-0.12 0.12,-0.12 0.15,-0.12 0.28,0 0.99,0.03 1.27,0.03 0.21,0 0.42,-0.01 0.63,-0.01 0.22,0 0.44,-0.02 0.65,-0.02 0.07,0 0.2,0 0.2,0.2 0,0.11 -0.09,0.11 -0.28,0.11 -0.37,0 -0.65,0 -0.65,0.18 0,0.06 0.02,0.11 0.03,0.17 z"
   id="path4232" />
</g>  <g
     style="font-style:normal;font-variant:normal;font-weight:normal;font-stretch:normal;letter-spacing:normal;word-spacing:normal;text-anchor:start;fill:none;stroke:#000000;stroke-linecap:butt;stroke-linejoin:miter;stroke-miterlimit:10.43299961;stroke-opacity:1;stroke-dasharray:none;stroke-dashoffset:0"
     ns0:preamble=""
     ns0:text="$Q$"
     word-spacing="normal"
     letter-spacing="normal"
     font-size-adjust="none"
     font-stretch="normal"
     font-weight="normal"
     font-variant="normal"
     font-style="normal"
     stroke-miterlimit="10.433"
     xml:space="preserve"
     transform="matrix(4,0,0,-4,-588.86095,3140.5403)"
     id="g4325">
<path
   id="path4327"
   d="m 227.8,707.18 0.14,0.06 0.14,0.07 0.15,0.07 0.14,0.08 0.14,0.08 0.14,0.09 0.13,0.1 0.14,0.1 0.13,0.11 0.13,0.11 0.12,0.12 0.13,0.12 0.12,0.13 0.11,0.13 0.11,0.13 0.11,0.14 0.1,0.15 0.1,0.14 0.09,0.16 0.09,0.15 0.08,0.16 0.08,0.16 0.07,0.16 0.06,0.17 0.06,0.17 0.05,0.17 0.04,0.17 0.04,0.17 0.03,0.18 0.02,0.18 0.01,0.18 0,0.18 c 0,1.6 -1.05,2.68 -2.54,2.68 l -0.05,-0.25 c 0.99,0 1.72,-0.78 1.72,-2.12 0,-0.99 -0.51,-3.32 -2.18,-4.26 -0.05,0.35 -0.15,1.08 -0.88,1.08 v -0.22 c 0.42,0 0.61,-0.24 0.61,-0.85 0,-0.15 -0.01,-0.16 -0.11,-0.2 -0.26,-0.11 -0.56,-0.18 -0.84,-0.18 h 0 c -0.14,0 -0.46,0 -0.46,0.43 0,0.4 0.38,0.8 0.8,0.8 v 0.22 c -0.53,0 -1.02,-0.5 -1.02,-1.02 0,-0.2 0.06,-0.31 0.06,-0.32 h 0 c -0.77,0.31 -1.11,1.09 -1.11,1.98 0,0.69 0.26,2.11 1.01,3.18 0.73,1.02 1.67,1.48 2.4,1.48 l 0.05,0.25 c -2.15,0 -4.34,-2.26 -4.34,-4.59 0,-1.65 1.12,-2.66 2.55,-2.66 0.25,0 0.59,0.04 0.98,0.15 -0.04,-0.62 -0.04,-0.64 -0.04,-0.76 0,-0.32 0,-1.1 0.82,-1.1 1.19,0 1.67,1.82 1.67,1.93 0,0.07 -0.07,0.1 -0.11,0.1 -0.08,0 -0.1,-0.05 -0.12,-0.11 -0.24,-0.7 -0.82,-0.95 -1.17,-0.95 -0.46,0 -0.6,0.26 -0.7,1.02 z"
   inkscape:connector-curvature="0"
   style="fill:#000000;stroke-width:0" />
</g>  <g
     id="g4423"
     transform="matrix(4,0,0,-4,-260.84504,3290.2697)"
     xml:space="preserve"
     stroke-miterlimit="10.433"
     font-style="normal"
     font-variant="normal"
     font-weight="normal"
     font-stretch="normal"
     font-size-adjust="none"
     letter-spacing="normal"
     word-spacing="normal"
     ns0:text="$R$"
     ns0:preamble=""
     style="font-style:normal;font-variant:normal;font-weight:normal;font-stretch:normal;letter-spacing:normal;word-spacing:normal;text-anchor:start;fill:none;stroke:#000000;stroke-linecap:butt;stroke-linejoin:miter;stroke-miterlimit:10.43299961;stroke-opacity:1;stroke-dasharray:none;stroke-dashoffset:0">
<path
   d="m 228.6,710.51 0.1,0.02 0.09,0.03 0.1,0.02 0.1,0.03 0.09,0.04 0.1,0.03 0.09,0.04 0.1,0.04 0.09,0.04 0.1,0.05 0.09,0.05 0.09,0.05 0.09,0.05 0.08,0.06 0.09,0.06 0.08,0.06 0.07,0.06 0.08,0.06 0.07,0.07 0.07,0.07 0.06,0.07 0.06,0.07 0.05,0.08 0.05,0.08 0.05,0.08 0.04,0.08 0.03,0.08 0.03,0.09 0.02,0.09 0.02,0.09 0.01,0.09 0,0.09 c 0,0.86 -0.89,1.5 -2.2,1.5 h -2.84 c -0.2,0 -0.29,0 -0.29,-0.2 0,-0.11 0.09,-0.11 0.28,-0.11 0.02,0 0.21,0 0.38,-0.02 0.18,-0.02 0.27,-0.03 0.27,-0.16 0,-0.04 -0.01,-0.07 -0.04,-0.19 l -1.33,-5.35 c -0.1,-0.39 -0.12,-0.47 -0.91,-0.47 -0.18,0 -0.27,0 -0.27,-0.2 0,-0.11 0.12,-0.11 0.14,-0.11 0.28,0 0.98,0.03 1.26,0.03 0.27,0 0.98,-0.03 1.26,-0.03 0.08,0 0.2,0 0.2,0.2 0,0.11 -0.09,0.11 -0.28,0.11 -0.37,0 -0.65,0 -0.65,0.18 0,0.06 0.02,0.11 0.03,0.17 l 0.66,2.64 h 1.19 l -0.01,0.22 h -1.12 l 0.65,2.6 c 0.06,0.24 0.09,0.34 0.28,0.37 0.09,0.01 0.41,0.01 0.6,0.01 0.71,0 1.82,0 1.82,-0.99 0,-0.34 -0.16,-1.02 -0.55,-1.41 -0.26,-0.26 -0.79,-0.58 -1.68,-0.58 l 0.01,-0.22 c 0.9,0 1.08,-0.56 1.08,-0.91 0,-0.15 -0.08,-0.46 -0.14,-0.68 -0.07,-0.28 -0.16,-0.65 -0.16,-0.85 0,-1.08 1.2,-1.08 1.33,-1.08 0.85,0 1.19,1.01 1.19,1.15 0,0.12 -0.1,0.12 -0.11,0.12 -0.1,0 -0.11,-0.07 -0.13,-0.14 -0.25,-0.74 -0.68,-0.91 -0.91,-0.91 -0.33,0 -0.4,0.22 -0.4,0.61 0,0.31 0.06,0.82 0.1,1.14 0.02,0.14 0.04,0.33 0.04,0.46 0,0.77 -0.67,1.08 -0.94,1.18 z"
   id="path4425"
   inkscape:connector-curvature="0"
   style="fill:#000000;stroke-width:0" />
</g>  <g
     style="font-style:normal;font-variant:normal;font-weight:normal;font-stretch:normal;letter-spacing:normal;word-spacing:normal;text-anchor:start;fill:none;stroke:#000000;stroke-linecap:butt;stroke-linejoin:miter;stroke-miterlimit:10.43299961;stroke-opacity:1;stroke-dasharray:none;stroke-dashoffset:0"
     ns0:preamble=""
     ns0:text="$S$"
     word-spacing="normal"
     letter-spacing="normal"
     font-size-adjust="none"
     font-stretch="normal"
     font-weight="normal"
     font-variant="normal"
     font-style="normal"
     stroke-miterlimit="10.433"
     xml:space="preserve"
     transform="matrix(4,0,0,-4,-226.21374,3057.0178)"
     id="g4507">
<path
   id="path4509"
   d="m 229.86,714.05 0,0 0,0 0,0.01 0,0 0,0 0,0.01 -0.01,0 0,0 0,0.01 0,0 0,0.01 0,0 -0.01,0.01 0,0 0,0 0,0.01 -0.01,0 0,0.01 0,0 -0.01,0 0,0.01 -0.01,0 0,0 -0.01,0 0,0.01 0,0 -0.01,0 0,0 0,0 -0.01,0 0,0 0,0 -0.01,0 0,0 -0.01,0.01 0,0 0,0 -0.01,0 0,0 c -0.05,0 -0.06,-0.01 -0.18,-0.15 l -0.48,-0.57 c -0.26,0.47 -0.78,0.72 -1.42,0.72 -1.27,0 -2.46,-1.15 -2.46,-2.36 0,-0.8 0.52,-1.26 1.03,-1.41 l 1.07,-0.28 c 0.37,-0.09 0.92,-0.24 0.92,-1.06 0,-0.89 -0.82,-1.83 -1.8,-1.83 -0.64,0 -1.74,0.22 -1.74,1.46 0,0.24 0.05,0.48 0.06,0.54 0.01,0.03 0.02,0.05 0.02,0.06 0,0.1 -0.07,0.11 -0.12,0.11 -0.05,0 -0.07,-0.01 -0.1,-0.04 -0.04,-0.04 -0.6,-2.31 -0.6,-2.34 0,-0.06 0.05,-0.1 0.11,-0.1 0.05,0 0.06,0.01 0.18,0.15 l 0.49,0.57 c 0.43,-0.58 1.1,-0.72 1.68,-0.72 1.36,0 2.53,1.33 2.53,2.56 0,0.69 -0.34,1.03 -0.49,1.17 -0.22,0.23 -0.38,0.27 -1.26,0.5 -0.22,0.06 -0.58,0.16 -0.67,0.18 -0.27,0.09 -0.61,0.37 -0.61,0.9 0,0.81 0.8,1.66 1.75,1.66 0.82,0 1.43,-0.43 1.43,-1.55 0,-0.32 -0.04,-0.49 -0.04,-0.55 0,-0.01 0,-0.11 0.12,-0.11 0.1,0 0.11,0.04 0.15,0.2 z"
   inkscape:connector-curvature="0"
   style="fill:#000000;stroke-width:0" />
</g>  <g
     id="g4968"
     transform="matrix(4,0,0,-4,-544.33655,3250.1813)"
     xml:space="preserve"
     stroke-miterlimit="10.433"
     font-style="normal"
     font-variant="normal"
     font-weight="normal"
     font-stretch="normal"
     font-size-adjust="none"
     letter-spacing="normal"
     word-spacing="normal"
     ns0:text="$dl_{PQ}$"
     ns0:preamble=""
     style="font-style:normal;font-variant:normal;font-weight:normal;font-stretch:normal;letter-spacing:normal;word-spacing:normal;text-anchor:start;fill:none;stroke:#000000;stroke-linecap:butt;stroke-linejoin:miter;stroke-miterlimit:10.43299961;stroke-opacity:1;stroke-dasharray:none;stroke-dashoffset:0">
<path
   style="fill:#000000;stroke-width:0"
   inkscape:connector-curvature="0"
   d="m 228.57,713.93 0,0 0,0 0,0 0,0 0,0 0,0.01 0,0 0,0 0,0.01 0,0 0,0.01 0,0 0,0.01 -0.01,0 0,0.01 0,0 0,0.01 -0.01,0 0,0.01 0,0 -0.01,0 0,0.01 0,0 -0.01,0 0,0 0,0.01 0,0 -0.01,0 0,0 0,0 -0.01,0 0,0.01 -0.01,0 0,0 0,0 -0.01,0 0,0 -0.01,0 0,0 -0.01,0.01 0,0 -0.01,0 0,0 -0.01,0 -0.01,0 c -0.15,0 -1.09,-0.09 -1.26,-0.11 -0.08,-0.01 -0.14,-0.06 -0.14,-0.19 0,-0.12 0.09,-0.12 0.24,-0.12 0.48,0 0.5,-0.07 0.5,-0.17 l -0.03,-0.2 -0.6,-2.36 c -0.18,0.37 -0.47,0.64 -0.92,0.64 l 0.01,-0.22 c 0.65,0 0.79,-0.82 0.79,-0.88 0,-0.06 -0.02,-0.12 -0.03,-0.17 l -0.5,-1.95 c -0.05,-0.18 -0.05,-0.2 -0.2,-0.37 -0.44,-0.55 -0.84,-0.71 -1.12,-0.71 -0.5,0 -0.64,0.55 -0.64,0.94 0,0.5 0.32,1.72 0.55,2.18 0.31,0.59 0.75,0.96 1.15,0.96 l -0.01,0.22 c -1.16,0 -2.4,-1.47 -2.4,-2.92 0,-0.94 0.55,-1.6 1.33,-1.6 0.19,0 0.69,0.04 1.29,0.75 0.08,-0.42 0.43,-0.75 0.91,-0.75 0.35,0 0.58,0.23 0.74,0.55 0.16,0.36 0.29,0.97 0.29,0.99 0,0.1 -0.09,0.1 -0.12,0.1 -0.09,0 -0.11,-0.04 -0.14,-0.18 -0.17,-0.65 -0.34,-1.24 -0.75,-1.24 -0.27,0 -0.3,0.26 -0.3,0.46 0,0.24 0.02,0.31 0.06,0.48 z"
   id="path4970" />
<path
   style="fill:#000000;stroke-width:0"
   inkscape:connector-curvature="0"
   d="m 231.18,713.93 0,0 0,0 0,0 0,0 0,0 0,0.01 0,0 0,0 0,0.01 0,0 0,0.01 0,0 0,0.01 0,0 -0.01,0.01 0,0 0,0.01 0,0 -0.01,0.01 0,0 -0.01,0 0,0.01 0,0 0,0 -0.01,0 0,0.01 0,0 -0.01,0 0,0 0,0 -0.01,0 0,0.01 0,0 -0.01,0 0,0 -0.01,0 0,0 -0.01,0 0,0 -0.01,0.01 0,0 -0.01,0 0,0 -0.01,0 0,0 c -0.23,0 -0.96,-0.08 -1.22,-0.1 -0.08,-0.01 -0.19,-0.02 -0.19,-0.21 0,-0.11 0.1,-0.11 0.25,-0.11 0.48,0 0.49,-0.09 0.49,-0.17 l -0.03,-0.2 -1.26,-4.98 c -0.03,-0.11 -0.05,-0.18 -0.05,-0.34 0,-0.57 0.44,-0.92 0.91,-0.92 0.33,0 0.58,0.2 0.75,0.56 0.18,0.38 0.3,0.96 0.3,0.98 0,0.1 -0.09,0.1 -0.12,0.1 -0.1,0 -0.11,-0.04 -0.14,-0.18 -0.17,-0.65 -0.36,-1.24 -0.76,-1.24 -0.3,0 -0.3,0.32 -0.3,0.46 0,0.24 0.01,0.29 0.06,0.48 z"
   id="path4972" />
<path
   style="fill:#000000;stroke-width:0"
   inkscape:connector-curvature="0"
   d="m 233.97,707.79 0.03,0.23 0.47,1.89 c 0.06,0.21 0.07,0.23 0.36,0.23 h 0.81 c 0.65,0 1.06,-0.19 1.06,-0.69 0,-0.22 -0.09,-0.77 -0.44,-1.08 -0.25,-0.22 -0.64,-0.35 -1.15,-0.35 H 234 l -0.03,-0.23 h 1.26 c 1.18,0 2.18,0.75 2.18,1.51 0,0.59 -0.57,1.09 -1.53,1.09 h -2.44 c -0.14,0 -0.22,0 -0.22,-0.15 0,-0.1 0.07,-0.1 0.23,-0.1 0.11,0 0.14,0 0.26,-0.01 0.14,-0.02 0.16,-0.03 0.16,-0.1 0,-0.01 0,-0.05 -0.03,-0.15 l -0.92,-3.68 c -0.07,-0.27 -0.08,-0.32 -0.62,-0.32 -0.13,0 -0.21,0 -0.21,-0.15 0,-0.01 0,-0.1 0.11,-0.1 0.2,0 0.7,0.03 0.91,0.03 0.11,0 0.36,0 0.48,-0.01 0.14,-0.01 0.31,-0.02 0.44,-0.02 0.04,0 0.15,0 0.15,0.15 0,0.1 -0.08,0.1 -0.22,0.1 -0.01,0 -0.14,0 -0.27,0.02 -0.16,0.01 -0.16,0.03 -0.16,0.1 0,0.01 0,0.05 0.03,0.15 z"
   id="path4974" />
<path
   style="fill:#000000;stroke-width:0"
   inkscape:connector-curvature="0"
   d="m 240.98,705.21 0,-0.08 0,-0.09 0.01,-0.04 0,-0.04 0.01,-0.04 0,-0.05 0.01,-0.04 0.01,-0.04 0.01,-0.04 0.01,-0.03 0.01,-0.04 0.01,-0.04 0.02,-0.03 0.01,-0.04 0.02,-0.03 0.02,-0.03 0.03,-0.03 0.02,-0.03 0.03,-0.02 0.02,-0.03 0.03,-0.02 0.04,-0.02 0.03,-0.02 0.04,-0.02 0.04,-0.01 0.02,-0.01 0.02,0 0.02,-0.01 0.02,0 0.02,0 0.03,-0.01 0.02,0 0.03,0 0.02,0 0.03,0 c 0.84,0 1.25,1.2 1.25,1.35 0,0.05 -0.04,0.1 -0.1,0.1 -0.07,0 -0.09,-0.07 -0.1,-0.09 -0.16,-0.49 -0.62,-0.63 -0.86,-0.63 -0.28,0 -0.43,0.12 -0.55,0.68 1.24,0.43 2.24,1.67 2.24,2.9 0,1.1 -0.79,1.94 -2.03,1.94 -1.66,0 -3.27,-1.56 -3.27,-3.13 0,-1.12 0.83,-1.91 2.03,-1.91 l 0.04,0.22 c -0.11,0 -0.35,0 -0.35,0.28 0,0.26 0.29,0.5 0.58,0.5 v 0.19 c -0.39,0 -0.78,-0.33 -0.78,-0.69 0,-0.13 0.01,-0.14 0.03,-0.19 h 0 c -0.36,0.13 -0.88,0.49 -0.88,1.43 0,0.44 0.15,1.37 0.78,2.16 0.44,0.54 1.12,0.92 1.77,0.92 0.76,0 1.4,-0.51 1.4,-1.53 0,-0.69 -0.34,-2.19 -1.62,-2.83 -0.11,0.44 -0.29,0.73 -0.7,0.73 v -0.19 c 0.25,0 0.44,-0.11 0.46,-0.65 h 0 c -0.16,-0.06 -0.41,-0.13 -0.69,-0.13 l -0.04,-0.22 c 0.13,0 0.37,0.01 0.73,0.1 z"
   id="path4976" />
</g>  <g
     style="font-style:normal;font-variant:normal;font-weight:normal;font-stretch:normal;letter-spacing:normal;word-spacing:normal;text-anchor:start;fill:none;stroke:#000000;stroke-linecap:butt;stroke-linejoin:miter;stroke-miterlimit:10.43299961;stroke-opacity:1;stroke-dasharray:none;stroke-dashoffset:0"
     ns0:preamble=""
     ns0:text="$dl_{RS}$"
     word-spacing="normal"
     letter-spacing="normal"
     font-size-adjust="none"
     font-stretch="normal"
     font-weight="normal"
     font-variant="normal"
     font-style="normal"
     stroke-miterlimit="10.433"
     xml:space="preserve"
     transform="matrix(4,0,0,-4,-255.41087,3174.7302)"
     id="g5131">
<path
   id="path5133"
   d="m 228.57,713.93 0,0 0,0 0,0 0,0 0,0 0,0.01 0,0 0,0 0,0.01 0,0 0,0.01 0,0 0,0.01 -0.01,0 0,0.01 0,0 0,0.01 -0.01,0 0,0.01 0,0 -0.01,0 0,0.01 0,0 -0.01,0 0,0 0,0.01 0,0 -0.01,0 0,0 0,0 -0.01,0 0,0.01 -0.01,0 0,0 0,0 -0.01,0 0,0 -0.01,0 0,0 -0.01,0.01 0,0 -0.01,0 0,0 -0.01,0 -0.01,0 c -0.15,0 -1.09,-0.09 -1.26,-0.11 -0.08,-0.01 -0.14,-0.06 -0.14,-0.19 0,-0.12 0.09,-0.12 0.24,-0.12 0.48,0 0.5,-0.07 0.5,-0.17 l -0.03,-0.2 -0.6,-2.36 c -0.18,0.37 -0.47,0.64 -0.92,0.64 l 0.01,-0.22 c 0.65,0 0.79,-0.82 0.79,-0.88 0,-0.06 -0.02,-0.12 -0.03,-0.17 l -0.5,-1.95 c -0.05,-0.18 -0.05,-0.2 -0.2,-0.37 -0.44,-0.55 -0.84,-0.71 -1.12,-0.71 -0.5,0 -0.64,0.55 -0.64,0.94 0,0.5 0.32,1.72 0.55,2.18 0.31,0.59 0.75,0.96 1.15,0.96 l -0.01,0.22 c -1.16,0 -2.4,-1.47 -2.4,-2.92 0,-0.94 0.55,-1.6 1.33,-1.6 0.19,0 0.69,0.04 1.29,0.75 0.08,-0.42 0.43,-0.75 0.91,-0.75 0.35,0 0.58,0.23 0.74,0.55 0.16,0.36 0.29,0.97 0.29,0.99 0,0.1 -0.09,0.1 -0.12,0.1 -0.09,0 -0.11,-0.04 -0.14,-0.18 -0.17,-0.65 -0.34,-1.24 -0.75,-1.24 -0.27,0 -0.3,0.26 -0.3,0.46 0,0.24 0.02,0.31 0.06,0.48 z"
   inkscape:connector-curvature="0"
   style="fill:#000000;stroke-width:0" />
<path
   id="path5135"
   d="m 231.18,713.93 0,0 0,0 0,0 0,0 0,0 0,0.01 0,0 0,0 0,0.01 0,0 0,0.01 0,0 0,0.01 0,0 -0.01,0.01 0,0 0,0.01 0,0 -0.01,0.01 0,0 -0.01,0 0,0.01 0,0 0,0 -0.01,0 0,0.01 0,0 -0.01,0 0,0 0,0 -0.01,0 0,0.01 0,0 -0.01,0 0,0 -0.01,0 0,0 -0.01,0 0,0 -0.01,0.01 0,0 -0.01,0 0,0 -0.01,0 0,0 c -0.23,0 -0.96,-0.08 -1.22,-0.1 -0.08,-0.01 -0.19,-0.02 -0.19,-0.21 0,-0.11 0.1,-0.11 0.25,-0.11 0.48,0 0.49,-0.09 0.49,-0.17 l -0.03,-0.2 -1.26,-4.98 c -0.03,-0.11 -0.05,-0.18 -0.05,-0.34 0,-0.57 0.44,-0.92 0.91,-0.92 0.33,0 0.58,0.2 0.75,0.56 0.18,0.38 0.3,0.96 0.3,0.98 0,0.1 -0.09,0.1 -0.12,0.1 -0.1,0 -0.11,-0.04 -0.14,-0.18 -0.17,-0.65 -0.36,-1.24 -0.76,-1.24 -0.3,0 -0.3,0.32 -0.3,0.46 0,0.24 0.01,0.29 0.06,0.48 z"
   inkscape:connector-curvature="0"
   style="fill:#000000;stroke-width:0" />
<path
   id="path5137"
   d="m 235.74,708 0.07,0.02 0.08,0.02 0.08,0.02 0.07,0.03 0.07,0.02 0.08,0.03 0.07,0.03 0.07,0.03 0.07,0.03 0.07,0.04 0.06,0.03 0.07,0.04 0.06,0.04 0.06,0.04 0.06,0.04 0.05,0.04 0.05,0.04 0.05,0.05 0.05,0.04 0.05,0.05 0.04,0.05 0.04,0.05 0.03,0.05 0.04,0.05 0.02,0.05 0.03,0.05 0.02,0.06 0.02,0.05 0.02,0.06 0.01,0.05 0,0.06 0,0.06 c 0,0.6 -0.71,1.07 -1.72,1.07 h -2.14 c -0.13,0 -0.22,0 -0.22,-0.15 0,-0.1 0.08,-0.1 0.22,-0.1 0.01,0 0.14,0 0.27,-0.01 0.14,-0.02 0.16,-0.03 0.16,-0.1 0,-0.01 0,-0.05 -0.03,-0.15 l -0.93,-3.71 c -0.06,-0.23 -0.07,-0.29 -0.61,-0.29 -0.12,0 -0.21,0 -0.21,-0.15 0,-0.07 0.05,-0.1 0.11,-0.1 0.13,0 0.29,0.02 0.43,0.02 0.13,0 0.34,0.01 0.46,0.01 0.14,0 0.3,-0.01 0.45,-0.01 0.14,0 0.32,-0.02 0.47,-0.02 0.03,0 0.14,0 0.14,0.15 0,0.1 -0.07,0.1 -0.23,0.1 -0.11,0 -0.14,0 -0.26,0.02 -0.16,0.02 -0.16,0.03 -0.16,0.1 0,0.01 0,0.05 0.03,0.15 l 0.44,1.77 h 0.95 l 0.01,0.19 h -0.9 l 0.44,1.8 c 0.05,0.19 0.07,0.21 0.22,0.23 h 0.44 c 0.65,0 1.46,0 1.46,-0.72 0,-0.28 -0.14,-0.72 -0.47,-0.97 -0.28,-0.23 -0.71,-0.34 -1.19,-0.34 l -0.01,-0.19 c 0.6,0 0.86,-0.3 0.86,-0.63 0,-0.09 -0.07,-0.33 -0.1,-0.49 -0.08,-0.32 -0.11,-0.42 -0.11,-0.54 0,-0.55 0.51,-0.77 1.02,-0.77 0.64,0 0.92,0.68 0.92,0.81 0,0.02 -0.01,0.1 -0.11,0.1 -0.1,0 -0.11,-0.05 -0.13,-0.12 -0.1,-0.31 -0.36,-0.59 -0.65,-0.59 -0.18,0 -0.31,0.07 -0.31,0.45 0,0.17 0.04,0.54 0.07,0.72 0.02,0.19 0.02,0.26 0.02,0.33 0,0.09 0,0.31 -0.19,0.52 -0.13,0.14 -0.32,0.24 -0.47,0.29 z"
   inkscape:connector-curvature="0"
   style="fill:#000000;stroke-width:0" />
<path
   id="path5139"
   d="m 242.58,710.44 0,0.01 0,0 0,0 0,0.01 0,0 0,0 0,0.01 0,0 0,0 -0.01,0.01 0,0 0,0.01 0,0 0,0 -0.01,0.01 0,0 0,0 0,0.01 -0.01,0 0,0 0,0.01 -0.01,0 0,0 -0.01,0 0,0.01 0,0 -0.01,0 -0.01,0 0,0 0,0 0,0 -0.01,0 0,0 0,0 -0.01,0 0,0 c -0.04,0 -0.05,0 -0.14,-0.1 l -0.34,-0.39 c -0.27,0.37 -0.71,0.49 -1.13,0.49 -0.98,0 -1.86,-0.79 -1.86,-1.59 0,-0.11 0.03,-0.39 0.24,-0.65 0.23,-0.27 0.49,-0.34 0.96,-0.45 0.14,-0.03 0.49,-0.11 0.6,-0.14 0.22,-0.05 0.65,-0.21 0.65,-0.73 0,-0.57 -0.6,-1.23 -1.39,-1.23 -0.62,0 -1.35,0.22 -1.35,0.99 0,0.07 0.01,0.23 0.04,0.35 0,0.03 0,0.03 0,0.04 0,0.09 -0.08,0.09 -0.11,0.09 -0.1,0 -0.1,-0.01 -0.13,-0.14 l -0.36,-1.39 c 0,-0.03 -0.02,-0.07 -0.02,-0.11 0,-0.04 0.03,-0.08 0.1,-0.08 0.04,0 0.05,0.01 0.14,0.1 0.08,0.08 0.26,0.31 0.34,0.39 0.36,-0.41 0.91,-0.49 1.33,-0.49 1.05,0 1.9,0.91 1.9,1.73 0,0.31 -0.12,0.59 -0.28,0.75 -0.24,0.25 -0.35,0.27 -1.25,0.48 -0.14,0.04 -0.37,0.09 -0.44,0.12 -0.17,0.06 -0.46,0.23 -0.46,0.63 0,0.55 0.62,1.11 1.34,1.11 0.76,0 1.12,-0.43 1.12,-1.09 0,-0.09 -0.03,-0.25 -0.03,-0.31 0,-0.1 0.08,-0.1 0.12,-0.1 0.1,0 0.11,0.03 0.14,0.15 z"
   inkscape:connector-curvature="0"
   style="fill:#000000;stroke-width:0" />
</g>  <g
     id="g5252"
     transform="matrix(4,0,0,-4,-466.52716,3083.7233)"
     xml:space="preserve"
     stroke-miterlimit="10.433"
     font-style="normal"
     font-variant="normal"
     font-weight="normal"
     font-stretch="normal"
     font-size-adjust="none"
     letter-spacing="normal"
     word-spacing="normal"
     ns0:text="$\\varepsilon\\xi^i(Q)$"
     ns0:preamble=""
     style="font-style:normal;font-variant:normal;font-weight:normal;font-stretch:normal;letter-spacing:normal;word-spacing:normal;text-anchor:start;fill:#ff0000;fill-opacity:1;fill-rule:evenodd;stroke:#000000;stroke-linecap:butt;stroke-linejoin:miter;stroke-miterlimit:10.43299961;stroke-opacity:1;stroke-dasharray:none;stroke-dashoffset:0">
<path
   style="fill:#ff0000;stroke-width:0"
   inkscape:connector-curvature="0"
   d="m 224.84,709.38 0.03,-0.01 0.03,-0.01 0.03,-0.01 0.03,-0.01 0.03,-0.01 0.03,-0.01 0.03,-0.01 0.03,-0.01 0.02,0 0.03,-0.01 0.06,-0.01 0.06,-0.01 0.05,-0.01 0.05,0 0.05,-0.01 0.06,0 0.05,0 0.04,0 0.05,0 0.05,0 0.04,-0.01 v 0.22 c -0.21,0 -0.34,0 -0.52,0.05 h 0 c 0.23,0.08 0.43,0.09 0.6,0.09 0.25,0 0.29,-0.01 0.47,-0.06 -0.15,-0.07 -0.17,-0.08 -0.55,-0.08 v -0.22 c 0.26,0 0.81,0 0.81,0.31 0,0.24 -0.35,0.27 -0.73,0.27 -0.21,0 -0.55,-0.02 -0.92,-0.19 -0.23,0.12 -0.4,0.31 -0.4,0.58 0,0.61 0.98,0.97 1.87,0.97 0.16,0 0.52,0 0.92,-0.28 0.11,-0.08 0.13,-0.1 0.2,-0.1 0.13,0 0.27,0.13 0.27,0.27 0,0.19 -0.61,0.57 -1.29,0.57 -1.14,0 -2.22,-0.67 -2.22,-1.43 0,-0.43 0.36,-0.68 0.4,-0.71 -0.59,-0.33 -0.91,-0.88 -0.91,-1.34 0,-0.65 0.57,-1.26 1.63,-1.26 1.31,0 1.87,0.88 1.87,1.03 0,0.06 -0.05,0.1 -0.11,0.1 -0.05,0 -0.08,-0.04 -0.1,-0.07 -0.14,-0.23 -0.38,-0.6 -1.58,-0.6 -0.6,0 -1.45,0.15 -1.45,0.86 0,0.34 0.28,0.87 0.89,1.16 z"
   id="path5254" />
<path
   style="fill:#ff0000;stroke-width:0"
   inkscape:connector-curvature="0"
   d="m 229.61,710.17 -0.1,-0.07 -0.09,-0.07 -0.09,-0.07 -0.09,-0.07 -0.08,-0.07 -0.07,-0.07 -0.08,-0.07 -0.06,-0.08 -0.07,-0.07 -0.05,-0.07 -0.06,-0.07 -0.05,-0.08 -0.05,-0.07 -0.04,-0.07 -0.04,-0.07 -0.04,-0.07 -0.03,-0.07 -0.04,-0.07 -0.02,-0.06 -0.03,-0.07 -0.02,-0.06 -0.02,-0.06 -0.02,-0.06 -0.01,-0.06 -0.02,-0.05 -0.01,-0.05 -0.01,-0.05 0,-0.05 -0.01,-0.05 0,-0.04 -0.01,-0.04 0,-0.03 c 0,-0.48 0.27,-0.76 0.29,-0.79 0.32,-0.33 0.41,-0.37 1.16,-0.65 0.6,-0.24 0.62,-0.24 1.2,-0.46 0.15,-0.07 0.35,-0.14 0.35,-0.43 0,-0.23 -0.18,-0.53 -0.48,-0.53 -0.44,0 -0.77,0.24 -0.88,0.32 -0.06,0.04 -0.07,0.05 -0.11,0.05 -0.08,0 -0.1,-0.07 -0.1,-0.11 0,-0.12 0.53,-0.48 1.09,-0.48 0.61,0 1.03,0.58 1.03,1.07 0,0.47 -0.37,0.65 -0.48,0.7 -0.14,0.05 -0.48,0.18 -0.61,0.23 -0.19,0.08 -0.39,0.16 -0.6,0.23 l -0.6,0.24 c -0.45,0.18 -0.75,0.47 -0.75,0.89 0,0.41 0.39,1.27 1.23,1.69 0.37,-0.13 0.67,-0.13 0.87,-0.13 0.3,0 0.93,0 0.93,0.31 0,0.25 -0.43,0.27 -0.82,0.27 l -0.01,-0.22 c 0.35,0 0.39,-0.01 0.57,-0.06 -0.08,-0.04 -0.18,-0.08 -0.64,-0.08 -0.23,0 -0.32,0 -0.49,0.08 h 0 c 0.23,0.06 0.44,0.06 0.56,0.06 l 0.01,0.22 c -0.17,0 -0.46,0 -0.83,-0.12 -0.26,0.26 -0.3,0.59 -0.3,0.78 0,0.55 0.36,1.32 1.1,1.69 0.18,-0.22 0.41,-0.22 0.64,-0.22 0.25,0 0.89,0 0.89,0.31 0,0.26 -0.44,0.27 -0.83,0.27 l 0.01,-0.22 c 0.34,0 0.38,-0.01 0.56,-0.06 -0.08,-0.03 -0.18,-0.08 -0.62,-0.08 -0.19,0 -0.31,0 -0.42,0.09 h 0 c 0.16,0.05 0.37,0.05 0.48,0.05 l -0.01,0.22 c -0.13,0 -0.37,0 -0.63,-0.05 -0.03,0.09 -0.05,0.16 -0.05,0.33 0,0.14 0.05,0.35 0.05,0.37 0,0.08 -0.05,0.13 -0.12,0.13 -0.18,0 -0.18,-0.46 -0.18,-0.49 0,-0.2 0.06,-0.35 0.08,-0.39 -1.07,-0.3 -1.75,-1.1 -1.75,-1.86 0,-0.37 0.18,-0.79 0.65,-1.06 z"
   id="path5256" />
<path
   style="fill:#ff0000;stroke-width:0"
   inkscape:connector-curvature="0"
   d="m 235.16,715.1 0,0.01 0,0.01 -0.01,0.01 0,0.01 0,0.01 0,0.01 -0.01,0.01 0,0.01 0,0.02 -0.01,0.01 0,0.01 -0.01,0.01 -0.01,0.01 0,0.01 -0.01,0.01 -0.01,0.01 -0.01,0.01 -0.01,0.01 -0.01,0.01 -0.01,0.01 -0.01,0 -0.01,0.01 -0.01,0.01 -0.02,0.01 -0.01,0 -0.01,0.01 -0.02,0 -0.01,0 -0.02,0.01 -0.02,0 -0.01,0 -0.02,0 c -0.19,0 -0.39,-0.18 -0.39,-0.38 0,-0.12 0.09,-0.27 0.28,-0.27 0.2,0 0.39,0.2 0.39,0.39 z"
   id="path5258" />
<path
   style="fill:#ff0000;stroke-width:0"
   inkscape:connector-curvature="0"
   d="m 233.73,711.55 -0.01,-0.03 -0.01,-0.03 0,-0.02 -0.01,-0.02 0,-0.02 -0.01,-0.01 0,-0.02 -0.01,-0.02 0,-0.02 0,-0.02 0,-0.02 -0.01,-0.01 0,-0.01 0,-0.01 0,-0.01 0,-0.01 0,-0.01 c 0,-0.33 0.28,-0.59 0.66,-0.59 0.7,0 1.01,0.96 1.01,1.06 0,0.1 -0.09,0.1 -0.11,0.1 -0.1,0 -0.11,-0.05 -0.14,-0.12 -0.16,-0.56 -0.46,-0.85 -0.74,-0.85 -0.13,0 -0.17,0.09 -0.17,0.25 0,0.16 0.05,0.29 0.11,0.44 0.07,0.19 0.15,0.38 0.22,0.56 0.07,0.17 0.32,0.8 0.35,0.89 0.02,0.07 0.04,0.15 0.04,0.22 0,0.33 -0.28,0.59 -0.66,0.59 -0.69,0 -1.01,-0.95 -1.01,-1.06 0,-0.09 0.09,-0.09 0.11,-0.09 0.1,0 0.11,0.03 0.13,0.11 0.18,0.6 0.49,0.85 0.75,0.85 0.11,0 0.17,-0.06 0.17,-0.25 0,-0.16 -0.04,-0.26 -0.22,-0.69 z"
   id="path5260" />
<path
   style="fill:#ff0000;stroke-width:0"
   inkscape:connector-curvature="0"
   d="m 239.51,704.73 0,0.01 0,0 0,0.01 0,0 0,0 0,0 0,0.01 -0.01,0 0,0.01 0,0 0,0 0,0.01 -0.01,0 0,0.01 -0.01,0 0,0.01 -0.01,0.01 0,0 0,0.01 -0.01,0 0,0.01 0,0 -0.01,0.01 0,0 -0.01,0 0,0.01 -0.01,0 0,0.01 -0.01,0 0,0.01 -0.01,0.01 0,0 -0.01,0.01 0,0 -0.01,0.01 -0.01,0.01 0,0 -0.01,0.01 -0.01,0.01 0,0.01 -0.01,0 -0.01,0.01 c -1.24,1.26 -1.56,3.14 -1.56,4.66 0,1.74 0.37,3.47 1.6,4.72 0.13,0.12 0.13,0.14 0.13,0.16 0,0.08 -0.04,0.1 -0.1,0.1 -0.1,0 -1,-0.67 -1.58,-1.94 -0.51,-1.09 -0.63,-2.2 -0.63,-3.04 0,-0.77 0.11,-1.98 0.66,-3.1 0.59,-1.23 1.45,-1.88 1.55,-1.88 0.06,0 0.1,0.03 0.1,0.1 z"
   id="path5262" />
<path
   style="fill:#ff0000;stroke-width:0"
   inkscape:connector-curvature="0"
   d="m 244.45,707.18 0.14,0.06 0.14,0.07 0.15,0.07 0.14,0.08 0.14,0.08 0.14,0.09 0.13,0.1 0.14,0.1 0.13,0.11 0.13,0.11 0.12,0.12 0.13,0.12 0.12,0.13 0.11,0.13 0.11,0.13 0.11,0.14 0.1,0.15 0.1,0.14 0.09,0.16 0.09,0.15 0.08,0.16 0.08,0.16 0.07,0.16 0.06,0.17 0.06,0.17 0.05,0.17 0.04,0.17 0.04,0.17 0.03,0.18 0.02,0.18 0.01,0.18 0.01,0.18 c 0,1.6 -1.06,2.68 -2.55,2.68 l -0.06,-0.25 c 1,0 1.73,-0.78 1.73,-2.12 0,-0.99 -0.51,-3.32 -2.18,-4.26 -0.05,0.35 -0.15,1.08 -0.88,1.08 v -0.22 c 0.42,0 0.61,-0.24 0.61,-0.85 0,-0.15 -0.01,-0.16 -0.11,-0.2 -0.26,-0.11 -0.56,-0.18 -0.84,-0.18 h 0 c -0.14,0 -0.46,0 -0.46,0.43 0,0.4 0.38,0.8 0.8,0.8 v 0.22 c -0.53,0 -1.02,-0.5 -1.02,-1.02 0,-0.2 0.06,-0.31 0.06,-0.32 h 0 c -0.77,0.31 -1.11,1.09 -1.11,1.98 0,0.69 0.26,2.11 1.01,3.18 0.73,1.02 1.67,1.48 2.39,1.48 l 0.06,0.25 c -2.15,0 -4.34,-2.26 -4.34,-4.59 0,-1.65 1.12,-2.66 2.55,-2.66 0.25,0 0.59,0.04 0.98,0.15 -0.04,-0.62 -0.04,-0.64 -0.04,-0.76 0,-0.32 0,-1.1 0.82,-1.1 1.19,0 1.67,1.82 1.67,1.93 0,0.07 -0.07,0.1 -0.11,0.1 -0.08,0 -0.1,-0.05 -0.12,-0.11 -0.24,-0.7 -0.82,-0.95 -1.17,-0.95 -0.45,0 -0.6,0.26 -0.7,1.02 z"
   id="path5264" />
<path
   style="fill:#ff0000;stroke-width:0"
   inkscape:connector-curvature="0"
   d="m 250.84,709.61 0,0.08 0,0.07 0,0.08 0,0.08 -0.01,0.17 -0.01,0.18 -0.02,0.18 -0.02,0.19 -0.03,0.2 -0.03,0.2 -0.04,0.2 -0.04,0.21 -0.06,0.21 -0.06,0.21 -0.07,0.21 -0.08,0.22 -0.04,0.1 -0.05,0.11 -0.04,0.11 -0.05,0.1 c -0.6,1.23 -1.46,1.87 -1.56,1.87 -0.06,0 -0.1,-0.04 -0.1,-0.1 0,-0.02 0,-0.04 0.19,-0.22 0.98,-0.99 1.55,-2.57 1.55,-4.66 0,-1.7 -0.37,-3.45 -1.61,-4.71 -0.13,-0.12 -0.13,-0.14 -0.13,-0.17 0,-0.06 0.04,-0.1 0.1,-0.1 0.1,0 1,0.68 1.59,1.95 0.51,1.09 0.62,2.2 0.62,3.03 z"
   id="path5266" />
</g>  <g
     style="font-style:normal;font-variant:normal;font-weight:normal;font-stretch:normal;letter-spacing:normal;word-spacing:normal;text-anchor:start;fill:#ff0000;fill-opacity:1;fill-rule:evenodd;stroke:#000000;stroke-linecap:butt;stroke-linejoin:miter;stroke-miterlimit:10.43299961;stroke-opacity:1;stroke-dasharray:none;stroke-dashoffset:0"
     ns0:preamble=""
     ns0:text="$\\varepsilon\\xi^i(P)$"
     word-spacing="normal"
     letter-spacing="normal"
     font-size-adjust="none"
     font-stretch="normal"
     font-weight="normal"
     font-variant="normal"
     font-style="normal"
     stroke-miterlimit="10.433"
     xml:space="preserve"
     transform="matrix(4,0,0,-4,-476.38435,3361.4495)"
     id="g5381">
<path
   id="path5383"
   d="m 224.84,709.38 0.03,-0.01 0.03,-0.01 0.03,-0.01 0.03,-0.01 0.03,-0.01 0.03,-0.01 0.03,-0.01 0.03,-0.01 0.02,0 0.03,-0.01 0.06,-0.01 0.06,-0.01 0.05,-0.01 0.05,0 0.05,-0.01 0.06,0 0.05,0 0.04,0 0.05,0 0.05,0 0.04,-0.01 v 0.22 c -0.21,0 -0.34,0 -0.52,0.05 h 0 c 0.23,0.08 0.43,0.09 0.6,0.09 0.25,0 0.29,-0.01 0.47,-0.06 -0.15,-0.07 -0.17,-0.08 -0.55,-0.08 v -0.22 c 0.26,0 0.81,0 0.81,0.31 0,0.24 -0.35,0.27 -0.73,0.27 -0.21,0 -0.55,-0.02 -0.92,-0.19 -0.23,0.12 -0.4,0.31 -0.4,0.58 0,0.61 0.98,0.97 1.87,0.97 0.16,0 0.52,0 0.92,-0.28 0.11,-0.08 0.13,-0.1 0.2,-0.1 0.13,0 0.27,0.13 0.27,0.27 0,0.19 -0.61,0.57 -1.29,0.57 -1.14,0 -2.22,-0.67 -2.22,-1.43 0,-0.43 0.36,-0.68 0.4,-0.71 -0.59,-0.33 -0.91,-0.88 -0.91,-1.34 0,-0.65 0.57,-1.26 1.63,-1.26 1.31,0 1.87,0.88 1.87,1.03 0,0.06 -0.05,0.1 -0.11,0.1 -0.05,0 -0.08,-0.04 -0.1,-0.07 -0.14,-0.23 -0.38,-0.6 -1.58,-0.6 -0.6,0 -1.45,0.15 -1.45,0.86 0,0.34 0.28,0.87 0.89,1.16 z"
   style="fill:#ff0000;stroke-width:0"
   inkscape:connector-curvature="0" />
<path
   id="path5385"
   d="m 229.61,710.17 -0.1,-0.07 -0.09,-0.07 -0.09,-0.07 -0.09,-0.07 -0.08,-0.07 -0.07,-0.07 -0.08,-0.07 -0.06,-0.08 -0.07,-0.07 -0.05,-0.07 -0.06,-0.07 -0.05,-0.08 -0.05,-0.07 -0.04,-0.07 -0.04,-0.07 -0.04,-0.07 -0.03,-0.07 -0.04,-0.07 -0.02,-0.06 -0.03,-0.07 -0.02,-0.06 -0.02,-0.06 -0.02,-0.06 -0.01,-0.06 -0.02,-0.05 -0.01,-0.05 -0.01,-0.05 0,-0.05 -0.01,-0.05 0,-0.04 -0.01,-0.04 0,-0.03 c 0,-0.48 0.27,-0.76 0.29,-0.79 0.32,-0.33 0.41,-0.37 1.16,-0.65 0.6,-0.24 0.62,-0.24 1.2,-0.46 0.15,-0.07 0.35,-0.14 0.35,-0.43 0,-0.23 -0.18,-0.53 -0.48,-0.53 -0.44,0 -0.77,0.24 -0.88,0.32 -0.06,0.04 -0.07,0.05 -0.11,0.05 -0.08,0 -0.1,-0.07 -0.1,-0.11 0,-0.12 0.53,-0.48 1.09,-0.48 0.61,0 1.03,0.58 1.03,1.07 0,0.47 -0.37,0.65 -0.48,0.7 -0.14,0.05 -0.48,0.18 -0.61,0.23 -0.19,0.08 -0.39,0.16 -0.6,0.23 l -0.6,0.24 c -0.45,0.18 -0.75,0.47 -0.75,0.89 0,0.41 0.39,1.27 1.23,1.69 0.37,-0.13 0.67,-0.13 0.87,-0.13 0.3,0 0.93,0 0.93,0.31 0,0.25 -0.43,0.27 -0.82,0.27 l -0.01,-0.22 c 0.35,0 0.39,-0.01 0.57,-0.06 -0.08,-0.04 -0.18,-0.08 -0.64,-0.08 -0.23,0 -0.32,0 -0.49,0.08 h 0 c 0.23,0.06 0.44,0.06 0.56,0.06 l 0.01,0.22 c -0.17,0 -0.46,0 -0.83,-0.12 -0.26,0.26 -0.3,0.59 -0.3,0.78 0,0.55 0.36,1.32 1.1,1.69 0.18,-0.22 0.41,-0.22 0.64,-0.22 0.25,0 0.89,0 0.89,0.31 0,0.26 -0.44,0.27 -0.83,0.27 l 0.01,-0.22 c 0.34,0 0.38,-0.01 0.56,-0.06 -0.08,-0.03 -0.18,-0.08 -0.62,-0.08 -0.19,0 -0.31,0 -0.42,0.09 h 0 c 0.16,0.05 0.37,0.05 0.48,0.05 l -0.01,0.22 c -0.13,0 -0.37,0 -0.63,-0.05 -0.03,0.09 -0.05,0.16 -0.05,0.33 0,0.14 0.05,0.35 0.05,0.37 0,0.08 -0.05,0.13 -0.12,0.13 -0.18,0 -0.18,-0.46 -0.18,-0.49 0,-0.2 0.06,-0.35 0.08,-0.39 -1.07,-0.3 -1.75,-1.1 -1.75,-1.86 0,-0.37 0.18,-0.79 0.65,-1.06 z"
   style="fill:#ff0000;stroke-width:0"
   inkscape:connector-curvature="0" />
<path
   id="path5387"
   d="m 235.16,715.1 0,0.01 0,0.01 -0.01,0.01 0,0.01 0,0.01 0,0.01 -0.01,0.01 0,0.01 0,0.02 -0.01,0.01 0,0.01 -0.01,0.01 -0.01,0.01 0,0.01 -0.01,0.01 -0.01,0.01 -0.01,0.01 -0.01,0.01 -0.01,0.01 -0.01,0.01 -0.01,0 -0.01,0.01 -0.01,0.01 -0.02,0.01 -0.01,0 -0.01,0.01 -0.02,0 -0.01,0 -0.02,0.01 -0.02,0 -0.01,0 -0.02,0 c -0.19,0 -0.39,-0.18 -0.39,-0.38 0,-0.12 0.09,-0.27 0.28,-0.27 0.2,0 0.39,0.2 0.39,0.39 z"
   style="fill:#ff0000;stroke-width:0"
   inkscape:connector-curvature="0" />
<path
   id="path5389"
   d="m 233.73,711.55 -0.01,-0.03 -0.01,-0.03 0,-0.02 -0.01,-0.02 0,-0.02 -0.01,-0.01 0,-0.02 -0.01,-0.02 0,-0.02 0,-0.02 0,-0.02 -0.01,-0.01 0,-0.01 0,-0.01 0,-0.01 0,-0.01 0,-0.01 c 0,-0.33 0.28,-0.59 0.66,-0.59 0.7,0 1.01,0.96 1.01,1.06 0,0.1 -0.09,0.1 -0.11,0.1 -0.1,0 -0.11,-0.05 -0.14,-0.12 -0.16,-0.56 -0.46,-0.85 -0.74,-0.85 -0.13,0 -0.17,0.09 -0.17,0.25 0,0.16 0.05,0.29 0.11,0.44 0.07,0.19 0.15,0.38 0.22,0.56 0.07,0.17 0.32,0.8 0.35,0.89 0.02,0.07 0.04,0.15 0.04,0.22 0,0.33 -0.28,0.59 -0.66,0.59 -0.69,0 -1.01,-0.95 -1.01,-1.06 0,-0.09 0.09,-0.09 0.11,-0.09 0.1,0 0.11,0.03 0.13,0.11 0.18,0.6 0.49,0.85 0.75,0.85 0.11,0 0.17,-0.06 0.17,-0.25 0,-0.16 -0.04,-0.26 -0.22,-0.69 z"
   style="fill:#ff0000;stroke-width:0"
   inkscape:connector-curvature="0" />
<path
   id="path5391"
   d="m 239.51,704.73 0,0.01 0,0 0,0.01 0,0 0,0 0,0 0,0.01 -0.01,0 0,0.01 0,0 0,0 0,0.01 -0.01,0 0,0.01 -0.01,0 0,0.01 -0.01,0.01 0,0 0,0.01 -0.01,0 0,0.01 0,0 -0.01,0.01 0,0 -0.01,0 0,0.01 -0.01,0 0,0.01 -0.01,0 0,0.01 -0.01,0.01 0,0 -0.01,0.01 0,0 -0.01,0.01 -0.01,0.01 0,0 -0.01,0.01 -0.01,0.01 0,0.01 -0.01,0 -0.01,0.01 c -1.24,1.26 -1.56,3.14 -1.56,4.66 0,1.74 0.37,3.47 1.6,4.72 0.13,0.12 0.13,0.14 0.13,0.16 0,0.08 -0.04,0.1 -0.1,0.1 -0.1,0 -1,-0.67 -1.58,-1.94 -0.51,-1.09 -0.63,-2.2 -0.63,-3.04 0,-0.77 0.11,-1.98 0.66,-3.1 0.59,-1.23 1.45,-1.88 1.55,-1.88 0.06,0 0.1,0.03 0.1,0.1 z"
   style="fill:#ff0000;stroke-width:0"
   inkscape:connector-curvature="0" />
<path
   id="path5393"
   d="m 243.1,710.27 0.04,0.26 0.68,2.71 c 0.09,0.35 0.11,0.38 0.54,0.38 h 0.95 c 0.83,0 1.36,-0.27 1.36,-0.96 0,-0.39 -0.2,-1.24 -0.59,-1.6 -0.5,-0.45 -1.1,-0.53 -1.53,-0.53 h -1.41 l -0.04,-0.26 h 1.69 c 1.42,0 2.8,1.04 2.8,2.15 0,0.77 -0.65,1.51 -1.96,1.51 h -3.23 c -0.19,0 -0.3,0 -0.3,-0.19 0,-0.12 0.1,-0.12 0.29,-0.12 0.13,0 0.31,-0.01 0.43,-0.02 0.16,-0.02 0.22,-0.05 0.22,-0.16 0,-0.04 -0.01,-0.07 -0.04,-0.19 l -1.33,-5.35 c -0.1,-0.39 -0.12,-0.47 -0.91,-0.47 -0.17,0 -0.28,0 -0.28,-0.19 0,-0.12 0.12,-0.12 0.15,-0.12 0.28,0 0.99,0.03 1.27,0.03 0.2,0 0.42,-0.01 0.63,-0.01 0.22,0 0.44,-0.02 0.65,-0.02 0.07,0 0.2,0 0.2,0.2 0,0.11 -0.09,0.11 -0.28,0.11 -0.37,0 -0.65,0 -0.65,0.18 0,0.06 0.02,0.11 0.03,0.17 z"
   style="fill:#ff0000;stroke-width:0"
   inkscape:connector-curvature="0" />
<path
   id="path5395"
   d="m 250.75,709.61 0,0.08 0,0.07 -0.01,0.08 0,0.08 -0.01,0.17 -0.01,0.18 -0.02,0.18 -0.02,0.19 -0.02,0.2 -0.04,0.2 -0.04,0.2 -0.04,0.21 -0.06,0.21 -0.06,0.21 -0.07,0.21 -0.08,0.22 -0.04,0.1 -0.04,0.11 -0.05,0.11 -0.05,0.1 c -0.6,1.23 -1.46,1.87 -1.55,1.87 -0.06,0 -0.11,-0.04 -0.11,-0.1 0,-0.02 0,-0.04 0.19,-0.22 0.98,-0.99 1.55,-2.57 1.55,-4.66 0,-1.7 -0.37,-3.45 -1.6,-4.71 -0.14,-0.12 -0.14,-0.14 -0.14,-0.17 0,-0.06 0.05,-0.1 0.11,-0.1 0.09,0 0.99,0.68 1.58,1.95 0.51,1.09 0.63,2.2 0.63,3.03 z"
   style="fill:#ff0000;stroke-width:0"
   inkscape:connector-curvature="0" />
</g></svg>
